solid MML_M30T_Cradle_rev1
facet normal 0.0 0.0 1.0
  outer loop
    vertex 166.46741699796948 170.71741699796954 -86.5663189999999
    vertex 151.56741699796947 190.7174169979695 -86.5663189999999
    vertex 151.56741699796947 170.71741699796954 -86.5663189999999
  endloop
endfacet
facet normal 0.0 0.0 1.0
  outer loop
    vertex 151.56741699796947 190.7174169979695 -86.5663189999999
    vertex 166.46741699796948 170.71741699796954 -86.5663189999999
    vertex 166.46741699796948 190.7174169979695 -86.5663189999999
  endloop
endfacet
facet normal 0.9953502464397382 3.319288292847403e-31 0.09632178835732172
  outer loop
    vertex 180.29986406940367 190.7174169979695 -99.76309252213544
    vertex 180.10943739129826 170.71741699796954 -97.79530055924371
    vertex 180.29986406940367 170.71741699796954 -99.76309252213544
  endloop
endfacet
facet normal 0.9953502464397382 3.319288292847403e-31 0.09632178835732172
  outer loop
    vertex 180.10943739129826 170.71741699796954 -97.79530055924371
    vertex 180.29986406940367 190.7174169979695 -99.76309252213544
    vertex 180.10943739129826 190.7174169979695 -97.79530055924371
  endloop
endfacet
facet normal 0.9364755938294382 0.0 0.3507327503410552
  outer loop
    vertex 180.10943739129826 190.7174169979695 -97.79530055924371
    vertex 178.78063913757387 170.71741699796954 -94.24733666785914
    vertex 180.10943739129826 170.71741699796954 -97.79530055924371
  endloop
endfacet
facet normal 0.9364755938294382 0.0 0.3507327503410552
  outer loop
    vertex 178.78063913757387 170.71741699796954 -94.24733666785914
    vertex 180.10943739129826 190.7174169979695 -97.79530055924371
    vertex 178.78063913757387 190.7174169979695 -94.24733666785914
  endloop
endfacet
facet normal 0.8137415820126926 0.0 0.5812268384232444
  outer loop
    vertex 178.78063913757387 190.7174169979695 -94.24733666785914
    vertex 176.57858299322032 170.71741699796954 -91.1643671073892
    vertex 178.78063913757387 170.71741699796954 -94.24733666785914
  endloop
endfacet
facet normal 0.8137415820126926 0.0 0.5812268384232444
  outer loop
    vertex 176.57858299322032 170.71741699796954 -91.1643671073892
    vertex 178.78063913757387 190.7174169979695 -94.24733666785914
    vertex 176.57858299322032 190.7174169979695 -91.1643671073892
  endloop
endfacet
facet normal -2.8171818203620042e-16 1.0 -2.401324698809615e-16
  outer loop
    vertex 151.56741699796947 190.7174169979695 -86.5663189999999
    vertex 154.56741699796947 190.7174169979695 -89.56631899999988
    vertex 151.56741699796947 190.7174169979695 -89.56631899999988
  endloop
endfacet
facet normal -2.8171818203620042e-16 1.0 -2.401324698809615e-16
  outer loop
    vertex 154.56741699796947 190.7174169979695 -89.56631899999988
    vertex 151.56741699796947 190.7174169979695 -86.5663189999999
    vertex 173.6534297261653 190.7174169979695 -88.75662315549002
  endloop
endfacet
facet normal -2.8171818203620042e-16 1.0 -2.401324698809615e-16
  outer loop
    vertex 173.6534297261653 190.7174169979695 -88.75662315549002
    vertex 151.56741699796947 190.7174169979695 -86.5663189999999
    vertex 170.2046489375876 190.7174169979695 -87.18829167075636
  endloop
endfacet
facet normal -2.8171818203620042e-16 1.0 -2.401324698809615e-16
  outer loop
    vertex 170.2046489375876 190.7174169979695 -87.18829167075636
    vertex 151.56741699796947 190.7174169979695 -86.5663189999999
    vertex 166.46741699796948 190.7174169979695 -86.5663189999999
  endloop
endfacet
facet normal -2.8171818203620042e-16 1.0 -2.401324698809615e-16
  outer loop
    vertex 151.71741699796945 190.71741699796945 -112.41631899999987
    vertex 166.46741699796942 190.7174169979695 -115.56631899999988
    vertex 151.71741699796945 190.7174169979695 -115.56631899999988
  endloop
endfacet
facet normal -2.8171818203620042e-16 1.0 -2.401324698809615e-16
  outer loop
    vertex 166.46741699796942 190.7174169979695 -115.56631899999988
    vertex 151.71741699796945 190.71741699796945 -112.41631899999987
    vertex 170.04491614748932 190.7174169979695 -114.99203188175545
  endloop
endfacet
facet normal -2.8171818203620042e-16 1.0 -2.401324698809615e-16
  outer loop
    vertex 170.04491614748932 190.7174169979695 -114.99203188175545
    vertex 151.71741699796945 190.71741699796945 -112.41631899999987
    vertex 173.36855299700375 190.7174169979695 -113.54920689183245
  endloop
endfacet
facet normal -2.8171818203620042e-16 1.0 -2.401324698809615e-16
  outer loop
    vertex 173.36855299700375 190.7174169979695 -113.54920689183245
    vertex 151.71741699796945 190.71741699796945 -112.41631899999987
    vertex 176.2310344262237 190.7174169979695 -111.32783210887312
  endloop
endfacet
facet normal -2.8171818203620042e-16 1.0 -2.401324698809615e-16
  outer loop
    vertex 176.2310344262237 190.7174169979695 -111.32783210887312
    vertex 151.71741699796945 190.71741699796945 -112.41631899999987
    vertex 148.71741699796948 190.71741699796945 -112.41631899999987
  endloop
endfacet
facet normal -2.8171818203620042e-16 1.0 -2.401324698809615e-16
  outer loop
    vertex 176.2310344262237 190.7174169979695 -111.32783210887312
    vertex 148.71741699796948 190.71741699796945 -112.41631899999987
    vertex 164.20124074256418 190.71741699796942 -109.98165719886524
  endloop
endfacet
facet normal -2.8171818203620042e-16 1.0 -2.401324698809615e-16
  outer loop
    vertex 164.20124074256418 190.71741699796942 -109.98165719886524
    vertex 148.71741699796948 190.71741699796945 -112.41631899999987
    vertex 162.4960193694921 190.71741699796942 -109.46438395052748
  endloop
endfacet
facet normal -2.8171818203620042e-16 1.0 -2.401324698809615e-16
  outer loop
    vertex 162.4960193694921 190.71741699796942 -109.46438395052748
    vertex 148.71741699796948 190.71741699796945 -112.41631899999987
    vertex 148.71741699796948 190.7174169979695 -104.21631899999988
  endloop
endfacet
facet normal -2.8171818203620042e-16 1.0 -2.401324698809615e-16
  outer loop
    vertex 176.2310344262237 190.7174169979695 -111.32783210887312
    vertex 164.20124074256418 190.71741699796942 -109.98165719886524
    vertex 165.9746117696908 190.71741699796942 -110.15631899999987
  endloop
endfacet
facet normal -2.8171818203620042e-16 1.0 -2.401324698809615e-16
  outer loop
    vertex 162.4960193694921 190.71741699796942 -109.46438395052748
    vertex 148.71741699796948 190.7174169979695 -104.21631899999988
    vertex 160.92447835154258 190.71741699796942 -108.62437777583001
  endloop
endfacet
facet normal -2.8171818203620042e-16 1.0 -2.401324698809615e-16
  outer loop
    vertex 160.92447835154258 190.71741699796942 -108.62437777583001
    vertex 148.71741699796948 190.7174169979695 -104.21631899999988
    vertex 159.54701112870507 190.71741699796942 -107.4939196409856
  endloop
endfacet
facet normal -2.8171818203620042e-16 1.0 -2.401324698809615e-16
  outer loop
    vertex 159.54701112870507 190.71741699796942 -107.4939196409856
    vertex 148.71741699796948 190.7174169979695 -104.21631899999988
    vertex 158.41655299386065 190.71741699796942 -106.11645241814806
  endloop
endfacet
facet normal -2.8171818203620042e-16 1.0 -2.401324698809615e-16
  outer loop
    vertex 158.41655299386065 190.71741699796942 -106.11645241814806
    vertex 148.71741699796948 190.7174169979695 -104.21631899999988
    vertex 157.57654681916318 190.71741699796942 -104.54491140019856
  endloop
endfacet
facet normal -2.8171818203620042e-16 1.0 -2.401324698809615e-16
  outer loop
    vertex 157.57654681916318 190.71741699796942 -104.54491140019856
    vertex 148.71741699796948 190.7174169979695 -104.21631899999988
    vertex 151.56741699796945 190.7174169979695 -104.21631899999988
  endloop
endfacet
facet normal -2.8171818203620042e-16 1.0 -2.401324698809615e-16
  outer loop
    vertex 157.57654681916318 190.71741699796942 -104.54491140019856
    vertex 151.56741699796945 190.7174169979695 -104.21631899999988
    vertex 157.31791019499428 190.71741699796942 -103.6923007136625
  endloop
endfacet
facet normal -2.8171818203620042e-16 1.0 -2.401324698809615e-16
  outer loop
    vertex 157.31791019499428 190.71741699796942 -103.6923007136625
    vertex 151.56741699796945 190.7174169979695 -104.21631899999988
    vertex 151.56741699796945 190.7174169979695 -98.06631899999988
  endloop
endfacet
facet normal -2.8171818203620042e-16 1.0 -2.401324698809615e-16
  outer loop
    vertex 157.31791019499428 190.71741699796942 -103.6923007136625
    vertex 151.56741699796945 190.7174169979695 -98.06631899999988
    vertex 157.0592735708254 190.71741699796942 -102.8396900271265
  endloop
endfacet
facet normal -2.8171818203620042e-16 1.0 -2.401324698809615e-16
  outer loop
    vertex 157.0592735708254 190.71741699796942 -102.8396900271265
    vertex 151.56741699796945 190.7174169979695 -98.06631899999988
    vertex 156.88461176969076 190.71741699796942 -101.06631899999988
  endloop
endfacet
facet normal -2.8171818203620042e-16 1.0 -2.401324698809615e-16
  outer loop
    vertex 156.88461176969076 190.71741699796942 -101.06631899999988
    vertex 151.56741699796945 190.7174169979695 -98.06631899999988
    vertex 157.0592735708254 190.71741699796942 -99.29294797287326
  endloop
endfacet
facet normal -2.8171818203620042e-16 1.0 -2.401324698809615e-16
  outer loop
    vertex 157.0592735708254 190.71741699796942 -99.29294797287326
    vertex 151.56741699796945 190.7174169979695 -98.06631899999988
    vertex 154.56741699796947 190.7174169979695 -98.06631899999988
  endloop
endfacet
facet normal -2.8171818203620042e-16 1.0 -2.401324698809615e-16
  outer loop
    vertex 157.0592735708254 190.71741699796942 -99.29294797287326
    vertex 154.56741699796947 190.7174169979695 -98.06631899999988
    vertex 157.57654681916316 190.71741699796942 -97.58772659980121
  endloop
endfacet
facet normal -2.8171818203620042e-16 1.0 -2.401324698809615e-16
  outer loop
    vertex 157.57654681916316 190.71741699796942 -97.58772659980121
    vertex 154.56741699796947 190.7174169979695 -98.06631899999988
    vertex 154.56741699796947 190.7174169979695 -89.56631899999988
  endloop
endfacet
facet normal -2.8171818203620042e-16 1.0 -2.401324698809615e-16
  outer loop
    vertex 157.57654681916316 190.71741699796942 -97.58772659980121
    vertex 154.56741699796947 190.7174169979695 -89.56631899999988
    vertex 158.41655299386065 190.71741699796942 -96.01618558185169
  endloop
endfacet
facet normal -2.8171818203620042e-16 1.0 -2.401324698809615e-16
  outer loop
    vertex 158.41655299386065 190.71741699796942 -96.01618558185169
    vertex 154.56741699796947 190.7174169979695 -89.56631899999988
    vertex 159.54701112870507 190.71741699796942 -94.63871835901416
  endloop
endfacet
facet normal -2.8171818203620042e-16 1.0 -2.401324698809615e-16
  outer loop
    vertex 159.54701112870507 190.71741699796942 -94.63871835901416
    vertex 154.56741699796947 190.7174169979695 -89.56631899999988
    vertex 160.92447835154258 190.71741699796942 -93.50826022416975
  endloop
endfacet
facet normal -2.8171818203620042e-16 1.0 -2.401324698809615e-16
  outer loop
    vertex 160.92447835154258 190.71741699796942 -93.50826022416975
    vertex 154.56741699796947 190.7174169979695 -89.56631899999988
    vertex 162.4960193694921 190.71741699796942 -92.6682540494723
  endloop
endfacet
facet normal -2.8171818203620042e-16 1.0 -2.401324698809615e-16
  outer loop
    vertex 162.4960193694921 190.71741699796942 -92.6682540494723
    vertex 154.56741699796947 190.7174169979695 -89.56631899999988
    vertex 164.20124074256418 190.71741699796942 -92.15098080113451
  endloop
endfacet
facet normal -2.8171818203620042e-16 1.0 -2.401324698809615e-16
  outer loop
    vertex 164.20124074256418 190.71741699796942 -92.15098080113451
    vertex 154.56741699796947 190.7174169979695 -89.56631899999988
    vertex 165.9746117696908 190.71741699796942 -91.97631899999989
  endloop
endfacet
facet normal -2.8171818203620042e-16 1.0 -2.401324698809615e-16
  outer loop
    vertex 165.9746117696908 190.71741699796942 -91.97631899999989
    vertex 154.56741699796947 190.7174169979695 -89.56631899999988
    vertex 176.57858299322032 190.7174169979695 -91.1643671073892
  endloop
endfacet
facet normal -2.8171818203620042e-16 1.0 -2.401324698809615e-16
  outer loop
    vertex 176.57858299322032 190.7174169979695 -91.1643671073892
    vertex 154.56741699796947 190.7174169979695 -89.56631899999988
    vertex 173.6534297261653 190.7174169979695 -88.75662315549002
  endloop
endfacet
facet normal -2.8171818203620042e-16 1.0 -2.401324698809615e-16
  outer loop
    vertex 176.2310344262237 190.7174169979695 -111.32783210887312
    vertex 167.74798279681735 190.71741699796942 -109.98165719886524
    vertex 178.45382928565866 190.7174169979695 -108.46645326784798
  endloop
endfacet
facet normal -2.8171818203620042e-16 1.0 -2.401324698809615e-16
  outer loop
    vertex 167.74798279681735 190.71741699796942 -109.98165719886524
    vertex 176.2310344262237 190.7174169979695 -111.32783210887312
    vertex 165.9746117696908 190.71741699796942 -110.15631899999987
  endloop
endfacet
facet normal -2.8171818203620042e-16 1.0 -2.401324698809615e-16
  outer loop
    vertex 178.45382928565866 190.7174169979695 -108.46645326784798
    vertex 167.74798279681735 190.71741699796942 -109.98165719886524
    vertex 169.45320416988946 190.71741699796942 -109.46438395052748
  endloop
endfacet
facet normal -2.8171818203620042e-16 1.0 -2.401324698809615e-16
  outer loop
    vertex 178.45382928565866 190.7174169979695 -108.46645326784798
    vertex 169.45320416988946 190.71741699796942 -109.46438395052748
    vertex 171.02474518783896 190.71741699796942 -108.62437777583001
  endloop
endfacet
facet normal -2.8171818203620042e-16 1.0 -2.401324698809615e-16
  outer loop
    vertex 178.45382928565866 190.7174169979695 -108.46645326784798
    vertex 171.02474518783896 190.71741699796942 -108.62437777583001
    vertex 172.40221241067647 190.71741699796942 -107.4939196409856
  endloop
endfacet
facet normal -2.8171818203620042e-16 1.0 -2.401324698809615e-16
  outer loop
    vertex 178.45382928565866 190.7174169979695 -108.46645326784798
    vertex 172.40221241067647 190.71741699796942 -107.4939196409856
    vertex 179.89830327106975 190.7174169979695 -105.1435327505218
  endloop
endfacet
facet normal -2.8171818203620042e-16 1.0 -2.401324698809615e-16
  outer loop
    vertex 179.89830327106975 190.7174169979695 -105.1435327505218
    vertex 172.40221241067647 190.71741699796942 -107.4939196409856
    vertex 173.53267054552092 190.71741699796942 -106.11645241814806
  endloop
endfacet
facet normal -2.8171818203620042e-16 1.0 -2.401324698809615e-16
  outer loop
    vertex 179.89830327106975 190.7174169979695 -105.1435327505218
    vertex 173.53267054552092 190.71741699796942 -106.11645241814806
    vertex 174.37267672021838 190.71741699796942 -104.54491140019856
  endloop
endfacet
facet normal -2.8171818203620042e-16 1.0 -2.401324698809615e-16
  outer loop
    vertex 179.89830327106975 190.7174169979695 -105.1435327505218
    vertex 174.37267672021838 190.71741699796942 -104.54491140019856
    vertex 180.18633436404144 190.7174169979695 -103.35492587526086
  endloop
endfacet
facet normal -2.8171818203620042e-16 1.0 -2.401324698809615e-16
  outer loop
    vertex 180.18633436404144 190.7174169979695 -103.35492587526086
    vertex 174.37267672021838 190.71741699796942 -104.54491140019856
    vertex 174.88994996855615 190.71741699796942 -102.8396900271265
  endloop
endfacet
facet normal -2.8171818203620042e-16 1.0 -2.401324698809615e-16
  outer loop
    vertex 180.18633436404144 190.7174169979695 -103.35492587526086
    vertex 174.88994996855615 190.71741699796942 -102.8396900271265
    vertex 180.29986406940367 190.7174169979695 -99.76309252213544
  endloop
endfacet
facet normal -2.8171818203620042e-16 1.0 -2.401324698809615e-16
  outer loop
    vertex 180.29986406940367 190.7174169979695 -99.76309252213544
    vertex 174.88994996855615 190.71741699796942 -102.8396900271265
    vertex 175.0646117696908 190.71741699796942 -101.06631899999988
  endloop
endfacet
facet normal -2.8171818203620042e-16 1.0 -2.401324698809615e-16
  outer loop
    vertex 180.29986406940367 190.7174169979695 -99.76309252213544
    vertex 175.0646117696908 190.71741699796942 -101.06631899999988
    vertex 174.88994996855615 190.71741699796942 -99.29294797287326
  endloop
endfacet
facet normal -2.8171818203620042e-16 1.0 -2.401324698809615e-16
  outer loop
    vertex 180.29986406940367 190.7174169979695 -99.76309252213544
    vertex 174.88994996855615 190.71741699796942 -99.29294797287326
    vertex 180.10943739129826 190.7174169979695 -97.79530055924371
  endloop
endfacet
facet normal -2.8171818203620042e-16 1.0 -2.401324698809615e-16
  outer loop
    vertex 180.10943739129826 190.7174169979695 -97.79530055924371
    vertex 174.88994996855615 190.71741699796942 -99.29294797287326
    vertex 174.63131334438725 190.71741699796942 -98.44033728633724
  endloop
endfacet
facet normal -2.8171818203620042e-16 1.0 -2.401324698809615e-16
  outer loop
    vertex 180.10943739129826 190.7174169979695 -97.79530055924371
    vertex 174.63131334438725 190.71741699796942 -98.44033728633724
    vertex 174.37267672021838 190.71741699796942 -97.5877265998012
  endloop
endfacet
facet normal -2.8171818203620042e-16 1.0 -2.401324698809615e-16
  outer loop
    vertex 180.10943739129826 190.7174169979695 -97.79530055924371
    vertex 174.37267672021838 190.71741699796942 -97.5877265998012
    vertex 178.78063913757387 190.7174169979695 -94.24733666785914
  endloop
endfacet
facet normal -2.8171818203620042e-16 1.0 -2.401324698809615e-16
  outer loop
    vertex 178.78063913757387 190.7174169979695 -94.24733666785914
    vertex 174.37267672021838 190.71741699796942 -97.5877265998012
    vertex 173.53267054552092 190.71741699796942 -96.01618558185169
  endloop
endfacet
facet normal -2.8171818203620042e-16 1.0 -2.401324698809615e-16
  outer loop
    vertex 178.78063913757387 190.7174169979695 -94.24733666785914
    vertex 173.53267054552092 190.71741699796942 -96.01618558185169
    vertex 172.40221241067647 190.71741699796942 -94.63871835901415
  endloop
endfacet
facet normal -2.8171818203620042e-16 1.0 -2.401324698809615e-16
  outer loop
    vertex 178.78063913757387 190.7174169979695 -94.24733666785914
    vertex 172.40221241067647 190.71741699796942 -94.63871835901415
    vertex 171.02474518783896 190.71741699796942 -93.50826022416975
  endloop
endfacet
facet normal -2.8171818203620042e-16 1.0 -2.401324698809615e-16
  outer loop
    vertex 178.78063913757387 190.7174169979695 -94.24733666785914
    vertex 171.02474518783896 190.71741699796942 -93.50826022416975
    vertex 176.57858299322032 190.7174169979695 -91.1643671073892
  endloop
endfacet
facet normal -2.8171818203620042e-16 1.0 -2.401324698809615e-16
  outer loop
    vertex 176.57858299322032 190.7174169979695 -91.1643671073892
    vertex 171.02474518783896 190.71741699796942 -93.50826022416975
    vertex 169.45320416988946 190.71741699796942 -92.6682540494723
  endloop
endfacet
facet normal -2.8171818203620042e-16 1.0 -2.401324698809615e-16
  outer loop
    vertex 176.57858299322032 190.7174169979695 -91.1643671073892
    vertex 169.45320416988946 190.71741699796942 -92.6682540494723
    vertex 167.74798279681735 190.71741699796942 -92.15098080113451
  endloop
endfacet
facet normal -2.8171818203620042e-16 1.0 -2.401324698809615e-16
  outer loop
    vertex 176.57858299322032 190.7174169979695 -91.1643671073892
    vertex 167.74798279681735 190.71741699796942 -92.15098080113451
    vertex 165.9746117696908 190.71741699796942 -91.97631899999989
  endloop
endfacet
facet normal -1.0 0.0 0.0
  outer loop
    vertex 148.71741699796948 190.7174169979695 -104.21631899999988
    vertex 148.71741699796948 170.71741699796954 -112.41631899999987
    vertex 148.71741699796948 170.71741699796954 -104.21631899999988
  endloop
endfacet
facet normal -1.0 0.0 0.0
  outer loop
    vertex 148.71741699796948 170.71741699796954 -112.41631899999987
    vertex 148.71741699796948 190.7174169979695 -104.21631899999988
    vertex 148.71741699796948 190.71741699796945 -112.41631899999987
  endloop
endfacet
facet normal -1.0 0.0 0.0
  outer loop
    vertex 151.56741699796945 190.7174169979695 -98.06631899999988
    vertex 151.56741699796945 170.71741699796954 -104.21631899999988
    vertex 151.56741699796945 170.71741699796954 -98.06631899999988
  endloop
endfacet
facet normal -1.0 0.0 0.0
  outer loop
    vertex 151.56741699796945 170.71741699796954 -104.21631899999988
    vertex 151.56741699796945 190.7174169979695 -98.06631899999988
    vertex 151.56741699796945 190.7174169979695 -104.21631899999988
  endloop
endfacet
facet normal -0.0 -0.0 -1.0
  outer loop
    vertex 151.71741699796945 190.71741699796945 -112.41631899999987
    vertex 148.71741699796948 170.71741699796954 -112.41631899999987
    vertex 148.71741699796948 190.71741699796945 -112.41631899999987
  endloop
endfacet
facet normal -0.0 -0.0 -1.0
  outer loop
    vertex 148.71741699796948 170.71741699796954 -112.41631899999987
    vertex 151.71741699796945 190.71741699796945 -112.41631899999987
    vertex 151.71741699796945 170.71741699796954 -112.41631899999987
  endloop
endfacet
facet normal 0.0 0.0 -1.0
  outer loop
    vertex 154.56741699796947 190.7174169979695 -89.56631899999988
    vertex 151.56741699796947 170.71741699796954 -89.56631899999988
    vertex 151.56741699796947 190.7174169979695 -89.56631899999988
  endloop
endfacet
facet normal 0.0 0.0 -1.0
  outer loop
    vertex 151.56741699796947 170.71741699796954 -89.56631899999988
    vertex 154.56741699796947 190.7174169979695 -89.56631899999988
    vertex 154.56741699796947 170.71741699796954 -89.56631899999988
  endloop
endfacet
facet normal 0.0 0.0 1.0
  outer loop
    vertex 151.56741699796945 170.71741699796954 -104.21631899999988
    vertex 148.71741699796948 190.7174169979695 -104.21631899999988
    vertex 148.71741699796948 170.71741699796954 -104.21631899999988
  endloop
endfacet
facet normal 0.0 0.0 1.0
  outer loop
    vertex 148.71741699796948 190.7174169979695 -104.21631899999988
    vertex 151.56741699796945 170.71741699796954 -104.21631899999988
    vertex 151.56741699796945 190.7174169979695 -104.21631899999988
  endloop
endfacet
facet normal 9.39988827515964e-16 0.0 1.0
  outer loop
    vertex 154.56741699796947 170.71741699796954 -98.06631899999988
    vertex 151.56741699796945 190.7174169979695 -98.06631899999988
    vertex 151.56741699796945 170.71741699796954 -98.06631899999988
  endloop
endfacet
facet normal 9.39988827515964e-16 0.0 1.0
  outer loop
    vertex 151.56741699796945 190.7174169979695 -98.06631899999988
    vertex 154.56741699796947 170.71741699796954 -98.06631899999988
    vertex 154.56741699796947 190.7174169979695 -98.06631899999988
  endloop
endfacet
facet normal -1.0 -6.809080636806385e-32 3.759955310063864e-15
  outer loop
    vertex 151.71741699796945 190.71741699796945 -112.41631899999987
    vertex 151.71741699796945 170.71741699796954 -115.56631899999988
    vertex 151.71741699796945 170.71741699796954 -112.41631899999987
  endloop
endfacet
facet normal -1.0 -6.809080636806385e-32 3.759955310063864e-15
  outer loop
    vertex 151.71741699796945 170.71741699796954 -115.56631899999988
    vertex 151.71741699796945 190.71741699796945 -112.41631899999987
    vertex 151.71741699796945 190.7174169979695 -115.56631899999988
  endloop
endfacet
facet normal -1.0 0.0 1.327043050610776e-15
  outer loop
    vertex 154.56741699796947 190.7174169979695 -89.56631899999988
    vertex 154.56741699796947 170.71741699796954 -98.06631899999988
    vertex 154.56741699796947 170.71741699796954 -89.56631899999988
  endloop
endfacet
facet normal -1.0 0.0 1.327043050610776e-15
  outer loop
    vertex 154.56741699796947 170.71741699796954 -98.06631899999988
    vertex 154.56741699796947 190.7174169979695 -89.56631899999988
    vertex 154.56741699796947 190.7174169979695 -98.06631899999988
  endloop
endfacet
facet normal -0.2902846772544584 -4.637761812596943e-32 -0.9569403357322102
  outer loop
    vertex 169.45320416988946 190.71741699796942 -92.6682540494723
    vertex 167.74798279681735 170.71741699796954 -92.15098080113451
    vertex 167.74798279681735 190.71741699796942 -92.15098080113451
  endloop
endfacet
facet normal -0.2902846772544584 -4.637761812596943e-32 -0.9569403357322102
  outer loop
    vertex 167.74798279681735 170.71741699796954 -92.15098080113451
    vertex 169.45320416988946 190.71741699796942 -92.6682540494723
    vertex 169.45320416988946 170.71741699796954 -92.6682540494723
  endloop
endfacet
facet normal 0.29028467725446017 -2.498944924757985e-31 -0.9569403357322097
  outer loop
    vertex 164.20124074256418 190.71741699796942 -92.15098080113451
    vertex 162.4960193694921 170.71741699796954 -92.6682540494723
    vertex 162.4960193694921 190.71741699796942 -92.6682540494723
  endloop
endfacet
facet normal 0.29028467725446017 -2.498944924757985e-31 -0.9569403357322097
  outer loop
    vertex 162.4960193694921 170.71741699796954 -92.6682540494723
    vertex 164.20124074256418 190.71741699796942 -92.15098080113451
    vertex 164.20124074256418 170.71741699796954 -92.15098080113451
  endloop
endfacet
facet normal -0.47139673682599903 2.872376485736931e-32 -0.8819212643483545
  outer loop
    vertex 171.02474518783896 190.71741699796942 -93.50826022416975
    vertex 169.45320416988946 170.71741699796954 -92.6682540494723
    vertex 169.45320416988946 190.71741699796942 -92.6682540494723
  endloop
endfacet
facet normal -0.47139673682599903 2.872376485736931e-32 -0.8819212643483545
  outer loop
    vertex 169.45320416988946 170.71741699796954 -92.6682540494723
    vertex 171.02474518783896 190.71741699796942 -93.50826022416975
    vertex 171.02474518783896 170.71741699796954 -93.50826022416975
  endloop
endfacet
facet normal 0.09801714032955838 -1.8841597397212106e-31 -0.995184726672197
  outer loop
    vertex 165.9746117696908 190.71741699796942 -91.97631899999989
    vertex 164.20124074256418 170.71741699796954 -92.15098080113451
    vertex 164.20124074256418 190.71741699796942 -92.15098080113451
  endloop
endfacet
facet normal 0.09801714032955838 -1.8841597397212106e-31 -0.995184726672197
  outer loop
    vertex 164.20124074256418 170.71741699796954 -92.15098080113451
    vertex 165.9746117696908 190.71741699796942 -91.97631899999989
    vertex 165.9746117696908 170.71741699796954 -91.97631899999989
  endloop
endfacet
facet normal -0.9569403357322114 2.905160302995079e-31 -0.29028467725445434
  outer loop
    vertex 174.63131334438725 190.71741699796942 -98.44033728633724
    vertex 174.88994996855615 170.71741699796954 -99.29294797287326
    vertex 174.63131334438725 170.71741699796954 -98.44033728633724
  endloop
endfacet
facet normal -0.9569403357322114 2.905160302995079e-31 -0.29028467725445434
  outer loop
    vertex 174.88994996855615 170.71741699796954 -99.29294797287326
    vertex 174.63131334438725 190.71741699796942 -98.44033728633724
    vertex 174.88994996855615 190.71741699796942 -99.29294797287326
  endloop
endfacet
facet normal 0.4713967368259963 -3.017697057760771e-31 -0.8819212643483557
  outer loop
    vertex 162.4960193694921 190.71741699796942 -92.6682540494723
    vertex 160.92447835154258 170.71741699796954 -93.50826022416975
    vertex 160.92447835154258 190.71741699796942 -93.50826022416975
  endloop
endfacet
facet normal 0.4713967368259963 -3.017697057760771e-31 -0.8819212643483557
  outer loop
    vertex 160.92447835154258 170.71741699796954 -93.50826022416975
    vertex 162.4960193694921 190.71741699796942 -92.6682540494723
    vertex 162.4960193694921 170.71741699796954 -92.6682540494723
  endloop
endfacet
facet normal -0.881921264348354 2.3618184923177294e-31 -0.4713967368259994
  outer loop
    vertex 173.53267054552092 190.71741699796942 -96.01618558185169
    vertex 174.37267672021838 170.71741699796954 -97.5877265998012
    vertex 173.53267054552092 170.71741699796954 -96.01618558185169
  endloop
endfacet
facet normal -0.881921264348354 2.3618184923177294e-31 -0.4713967368259994
  outer loop
    vertex 174.37267672021838 170.71741699796954 -97.5877265998012
    vertex 173.53267054552092 190.71741699796942 -96.01618558185169
    vertex 174.37267672021838 190.71741699796942 -97.5877265998012
  endloop
endfacet
facet normal -0.09801714032955963 -1.1969673525359167e-31 -0.995184726672197
  outer loop
    vertex 167.74798279681735 190.71741699796942 -92.15098080113451
    vertex 165.9746117696908 170.71741699796954 -91.97631899999989
    vertex 165.9746117696908 190.71741699796942 -91.97631899999989
  endloop
endfacet
facet normal -0.09801714032955963 -1.1969673525359167e-31 -0.995184726672197
  outer loop
    vertex 165.9746117696908 170.71741699796954 -91.97631899999989
    vertex 167.74798279681735 190.71741699796942 -92.15098080113451
    vertex 167.74798279681735 170.71741699796954 -92.15098080113451
  endloop
endfacet
facet normal -0.9569403357322114 2.905160302995079e-31 -0.29028467725445434
  outer loop
    vertex 174.37267672021838 190.71741699796942 -97.5877265998012
    vertex 174.63131334438725 170.71741699796954 -98.44033728633724
    vertex 174.37267672021838 170.71741699796954 -97.5877265998012
  endloop
endfacet
facet normal -0.9569403357322114 2.905160302995079e-31 -0.29028467725445434
  outer loop
    vertex 174.63131334438725 170.71741699796954 -98.44033728633724
    vertex 174.37267672021838 190.71741699796942 -97.5877265998012
    vertex 174.63131334438725 190.71741699796942 -98.44033728633724
  endloop
endfacet
facet normal -0.7730104533627367 1.7277133215037106e-31 -0.6343932841636462
  outer loop
    vertex 172.40221241067647 190.71741699796942 -94.63871835901415
    vertex 173.53267054552092 170.71741699796954 -96.01618558185169
    vertex 172.40221241067647 170.71741699796954 -94.63871835901415
  endloop
endfacet
facet normal -0.7730104533627367 1.7277133215037106e-31 -0.6343932841636462
  outer loop
    vertex 173.53267054552092 170.71741699796954 -96.01618558185169
    vertex 172.40221241067647 190.71741699796942 -94.63871835901415
    vertex 173.53267054552092 190.71741699796942 -96.01618558185169
  endloop
endfacet
facet normal -0.6343932841636435 1.0272130966570855e-31 -0.7730104533627387
  outer loop
    vertex 172.40221241067647 190.71741699796942 -94.63871835901415
    vertex 171.02474518783896 170.71741699796954 -93.50826022416975
    vertex 171.02474518783896 190.71741699796942 -93.50826022416975
  endloop
endfacet
facet normal -0.6343932841636435 1.0272130966570855e-31 -0.7730104533627387
  outer loop
    vertex 171.02474518783896 170.71741699796954 -93.50826022416975
    vertex 172.40221241067647 190.71741699796942 -94.63871835901415
    vertex 172.40221241067647 170.71741699796954 -94.63871835901415
  endloop
endfacet
facet normal 0.7897161475647593 0.0 -0.6134724168823532
  outer loop
    vertex 176.2310344262237 190.7174169979695 -111.32783210887312
    vertex 178.45382928565866 170.71741699796954 -108.46645326784798
    vertex 176.2310344262237 170.71741699796954 -111.32783210887312
  endloop
endfacet
facet normal 0.7897161475647593 0.0 -0.6134724168823532
  outer loop
    vertex 178.45382928565866 170.71741699796954 -108.46645326784798
    vertex 176.2310344262237 190.7174169979695 -111.32783210887312
    vertex 178.45382928565866 190.7174169979695 -108.46645326784798
  endloop
endfacet
facet normal 0.987280475264064 0.0 -0.15898824850398238
  outer loop
    vertex 179.89830327106975 190.7174169979695 -105.1435327505218
    vertex 180.18633436404144 170.71741699796954 -103.35492587526086
    vertex 179.89830327106975 170.71741699796954 -105.1435327505218
  endloop
endfacet
facet normal 0.987280475264064 0.0 -0.15898824850398238
  outer loop
    vertex 180.18633436404144 170.71741699796954 -103.35492587526086
    vertex 179.89830327106975 190.7174169979695 -105.1435327505218
    vertex 180.18633436404144 190.7174169979695 -103.35492587526086
  endloop
endfacet
facet normal 0.15849834496349652 0.0 -0.9873592429525501
  outer loop
    vertex 170.04491614748932 190.7174169979695 -114.99203188175545
    vertex 166.46741699796942 170.71741699796954 -115.56631899999988
    vertex 166.46741699796942 190.7174169979695 -115.56631899999988
  endloop
endfacet
facet normal 0.15849834496349652 0.0 -0.9873592429525501
  outer loop
    vertex 166.46741699796942 170.71741699796954 -115.56631899999988
    vertex 170.04491614748932 190.7174169979695 -114.99203188175545
    vertex 170.04491614748932 170.71741699796954 -114.99203188175545
  endloop
endfacet
facet normal 0.4139569069611411 0.0 0.910296478725017
  outer loop
    vertex 173.6534297261653 170.71741699796954 -88.75662315549002
    vertex 170.2046489375876 190.7174169979695 -87.18829167075636
    vertex 170.2046489375876 170.71741699796954 -87.18829167075636
  endloop
endfacet
facet normal 0.4139569069611411 0.0 0.910296478725017
  outer loop
    vertex 170.2046489375876 190.7174169979695 -87.18829167075636
    vertex 173.6534297261653 170.71741699796954 -88.75662315549002
    vertex 173.6534297261653 190.7174169979695 -88.75662315549002
  endloop
endfacet
facet normal 0.3982073874020596 0.0 -0.9172954140397879
  outer loop
    vertex 173.36855299700375 190.7174169979695 -113.54920689183245
    vertex 170.04491614748932 170.71741699796954 -114.99203188175545
    vertex 170.04491614748932 190.7174169979695 -114.99203188175545
  endloop
endfacet
facet normal 0.3982073874020596 0.0 -0.9172954140397879
  outer loop
    vertex 170.04491614748932 170.71741699796954 -114.99203188175545
    vertex 173.36855299700375 190.7174169979695 -113.54920689183245
    vertex 173.36855299700375 170.71741699796954 -113.54920689183245
  endloop
endfacet
facet normal 0.9170977124673824 0.0 -0.39866249608797527
  outer loop
    vertex 178.45382928565866 190.7174169979695 -108.46645326784798
    vertex 179.89830327106975 170.71741699796954 -105.1435327505218
    vertex 178.45382928565866 170.71741699796954 -108.46645326784798
  endloop
endfacet
facet normal 0.9170977124673824 0.0 -0.39866249608797527
  outer loop
    vertex 179.89830327106975 170.71741699796954 -105.1435327505218
    vertex 178.45382928565866 190.7174169979695 -108.46645326784798
    vertex 179.89830327106975 190.7174169979695 -105.1435327505218
  endloop
endfacet
facet normal 0.16416802538681943 0.0 0.9864323896956105
  outer loop
    vertex 170.2046489375876 170.71741699796954 -87.18829167075636
    vertex 166.46741699796948 190.7174169979695 -86.5663189999999
    vertex 166.46741699796948 170.71741699796954 -86.5663189999999
  endloop
endfacet
facet normal 0.16416802538681943 0.0 0.9864323896956105
  outer loop
    vertex 166.46741699796948 190.7174169979695 -86.5663189999999
    vertex 170.2046489375876 170.71741699796954 -87.18829167075636
    vertex 170.2046489375876 190.7174169979695 -87.18829167075636
  endloop
endfacet
facet normal 0.6130804878908215 0.0 -0.790020452499524
  outer loop
    vertex 176.2310344262237 190.7174169979695 -111.32783210887312
    vertex 173.36855299700375 170.71741699796954 -113.54920689183245
    vertex 173.36855299700375 190.7174169979695 -113.54920689183245
  endloop
endfacet
facet normal 0.6130804878908215 0.0 -0.790020452499524
  outer loop
    vertex 173.36855299700375 170.71741699796954 -113.54920689183245
    vertex 176.2310344262237 190.7174169979695 -111.32783210887312
    vertex 176.2310344262237 170.71741699796954 -111.32783210887312
  endloop
endfacet
facet normal 0.6355175859087162 0.0 0.7720863928348676
  outer loop
    vertex 176.57858299322032 170.71741699796954 -91.1643671073892
    vertex 173.6534297261653 190.7174169979695 -88.75662315549002
    vertex 173.6534297261653 170.71741699796954 -88.75662315549002
  endloop
endfacet
facet normal 0.6355175859087162 0.0 0.7720863928348676
  outer loop
    vertex 173.6534297261653 190.7174169979695 -88.75662315549002
    vertex 176.57858299322032 170.71741699796954 -91.1643671073892
    vertex 176.57858299322032 190.7174169979695 -91.1643671073892
  endloop
endfacet
facet normal -0.029187160438319825 -0.38268343236511493 -0.923418377691717
  outer loop
    vertex 180.27292100132834 181.26241699796952 -100.61551269040416
    vertex 175.77860727213752 180.99952975713128 -100.36451178645595
    vertex 175.77516717803752 181.26241699796952 -100.47334889377211
  endloop
endfacet
facet normal -0.029187160438319825 -0.38268343236511493 -0.923418377691717
  outer loop
    vertex 175.77860727213752 180.99952975713128 -100.36451178645595
    vertex 180.27292100132834 181.26241699796952 -100.61551269040416
    vertex 180.27636109542834 180.99952975713128 -100.506675583088
  endloop
endfacet
facet normal -0.03132168125427328 -0.13052619222004244 -0.990949981294688
  outer loop
    vertex 180.27636109542834 180.99952975713128 -100.506675583088
    vertex 175.7797806241715 180.7174169979695 -100.3273894759801
    vertex 175.77860727213752 180.99952975713128 -100.36451178645595
  endloop
endfacet
facet normal -0.03132168125427328 -0.13052619222004244 -0.990949981294688
  outer loop
    vertex 175.7797806241715 180.7174169979695 -100.3273894759801
    vertex 180.27636109542834 180.99952975713128 -100.506675583088
    vertex 180.27753444746233 180.7174169979695 -100.46955327261213
  endloop
endfacet
facet normal -0.029187160438319946 0.38268343236510644 -0.9234183776917205
  outer loop
    vertex 175.77860727213752 180.43530423880776 -100.36451178645595
    vertex 180.27292100132834 180.17241699796952 -100.61551269040416
    vertex 175.77516717803752 180.17241699796952 -100.47334889377211
  endloop
endfacet
facet normal -0.029187160438319946 0.38268343236510644 -0.9234183776917205
  outer loop
    vertex 180.27292100132834 180.17241699796952 -100.61551269040416
    vertex 175.77860727213752 180.43530423880776 -100.36451178645595
    vertex 180.27636109542834 180.43530423880776 -100.50667558308801
  endloop
endfacet
facet normal -0.03132168125427323 0.13052619222005216 -0.9909499812946866
  outer loop
    vertex 175.7797806241715 180.7174169979695 -100.3273894759801
    vertex 180.27636109542834 180.43530423880776 -100.50667558308801
    vertex 175.77860727213752 180.43530423880776 -100.36451178645595
  endloop
endfacet
facet normal -0.03132168125427323 0.13052619222005216 -0.9909499812946866
  outer loop
    vertex 180.27636109542834 180.43530423880776 -100.50667558308801
    vertex 175.7797806241715 180.7174169979695 -100.3273894759801
    vertex 180.27753444746233 180.7174169979695 -100.46955327261213
  endloop
endfacet
facet normal 0.9995008496201817 8.604898902572478e-18 -0.03159195480712047
  outer loop
    vertex 175.7364328998938 179.66455784731443 -101.69881734453696
    vertex 175.7542578869697 179.66455784731443 -101.13487345959524
    vertex 175.74534539343173 179.6274169979695 -101.4168454020661
  endloop
endfacet
facet normal 0.9995008496201817 8.604898902572478e-18 -0.03159195480712047
  outer loop
    vertex 175.7542578869697 179.66455784731443 -101.13487345959524
    vertex 175.7364328998938 179.66455784731443 -101.69881734453696
    vertex 175.7281277780619 179.77344930784446 -101.96157336510912
  endloop
endfacet
facet normal 0.9995008496201817 8.604898902572478e-18 -0.03159195480712047
  outer loop
    vertex 175.7542578869697 179.66455784731443 -101.13487345959524
    vertex 175.7281277780619 179.77344930784446 -101.96157336510912
    vertex 175.7625630088016 179.77344930784446 -100.8721174390231
  endloop
endfacet
facet normal 0.9995008496201817 8.604898902572478e-18 -0.03159195480712047
  outer loop
    vertex 175.7625630088016 179.77344930784446 -100.8721174390231
    vertex 175.7281277780619 179.77344930784446 -101.96157336510912
    vertex 175.72099600826394 179.94667060647618 -102.1872070752054
  endloop
endfacet
facet normal 0.9995008496201817 8.604898902572478e-18 -0.03159195480712047
  outer loop
    vertex 175.7625630088016 179.77344930784446 -100.8721174390231
    vertex 175.72099600826394 179.94667060647618 -102.1872070752054
    vertex 175.76969477859956 179.94667060647618 -100.64648372892681
  endloop
endfacet
facet normal 0.9995008496201817 8.604898902572478e-18 -0.03159195480712047
  outer loop
    vertex 175.76969477859956 179.94667060647618 -100.64648372892681
    vertex 175.72099600826394 179.94667060647618 -102.1872070752054
    vertex 175.71552360882592 180.17241699796952 -102.36034191036008
  endloop
endfacet
facet normal 0.9995008496201817 8.604898902572478e-18 -0.03159195480712047
  outer loop
    vertex 175.76969477859956 179.94667060647618 -100.64648372892681
    vertex 175.71552360882592 180.17241699796952 -102.36034191036008
    vertex 175.77516717803752 180.17241699796952 -100.47334889377211
  endloop
endfacet
facet normal 0.9995008496201817 8.604898902572478e-18 -0.03159195480712047
  outer loop
    vertex 175.77516717803752 180.17241699796952 -100.47334889377211
    vertex 175.71552360882592 180.17241699796952 -102.36034191036008
    vertex 175.71208351472598 180.43530423880776 -102.46917901767625
  endloop
endfacet
facet normal 0.9995008496201817 8.604898902572478e-18 -0.03159195480712047
  outer loop
    vertex 175.77516717803752 180.17241699796952 -100.47334889377211
    vertex 175.71208351472598 180.43530423880776 -102.46917901767625
    vertex 175.77860727213752 180.43530423880776 -100.36451178645595
  endloop
endfacet
facet normal 0.9995008496201817 8.604898902572478e-18 -0.03159195480712047
  outer loop
    vertex 175.77860727213752 180.43530423880776 -100.36451178645595
    vertex 175.71208351472598 180.43530423880776 -102.46917901767625
    vertex 175.710910162692 180.7174169979695 -102.5063013281521
  endloop
endfacet
facet normal 0.9995008496201817 8.604898902572478e-18 -0.03159195480712047
  outer loop
    vertex 175.77860727213752 180.43530423880776 -100.36451178645595
    vertex 175.710910162692 180.7174169979695 -102.5063013281521
    vertex 175.7797806241715 180.7174169979695 -100.3273894759801
  endloop
endfacet
facet normal 0.9995008496201817 8.604898902572478e-18 -0.03159195480712047
  outer loop
    vertex 175.7797806241715 180.7174169979695 -100.3273894759801
    vertex 175.710910162692 180.7174169979695 -102.5063013281521
    vertex 175.71208351472598 180.99952975713128 -102.46917901767625
  endloop
endfacet
facet normal 0.9995008496201817 8.604898902572478e-18 -0.03159195480712047
  outer loop
    vertex 175.7797806241715 180.7174169979695 -100.3273894759801
    vertex 175.71208351472598 180.99952975713128 -102.46917901767625
    vertex 175.77860727213752 180.99952975713128 -100.36451178645595
  endloop
endfacet
facet normal 0.9995008496201817 8.604898902572478e-18 -0.03159195480712047
  outer loop
    vertex 175.77860727213752 180.99952975713128 -100.36451178645595
    vertex 175.71208351472598 180.99952975713128 -102.46917901767625
    vertex 175.71552360882592 181.26241699796952 -102.36034191036008
  endloop
endfacet
facet normal 0.9995008496201817 8.604898902572478e-18 -0.03159195480712047
  outer loop
    vertex 175.77860727213752 180.99952975713128 -100.36451178645595
    vertex 175.71552360882592 181.26241699796952 -102.36034191036008
    vertex 175.77516717803752 181.26241699796952 -100.47334889377211
  endloop
endfacet
facet normal 0.9995008496201817 8.604898902572478e-18 -0.03159195480712047
  outer loop
    vertex 175.77516717803752 181.26241699796952 -100.47334889377211
    vertex 175.71552360882592 181.26241699796952 -102.36034191036008
    vertex 175.72099600826394 181.48816338946287 -102.1872070752054
  endloop
endfacet
facet normal 0.9995008496201817 8.604898902572478e-18 -0.03159195480712047
  outer loop
    vertex 175.77516717803752 181.26241699796952 -100.47334889377211
    vertex 175.72099600826394 181.48816338946287 -102.1872070752054
    vertex 175.76969477859956 181.48816338946287 -100.64648372892681
  endloop
endfacet
facet normal 0.9995008496201817 8.604898902572478e-18 -0.03159195480712047
  outer loop
    vertex 175.76969477859956 181.48816338946287 -100.64648372892681
    vertex 175.72099600826394 181.48816338946287 -102.1872070752054
    vertex 175.7281277780619 181.66138468809459 -101.96157336510912
  endloop
endfacet
facet normal 0.9995008496201817 8.604898902572478e-18 -0.03159195480712047
  outer loop
    vertex 175.76969477859956 181.48816338946287 -100.64648372892681
    vertex 175.7281277780619 181.66138468809459 -101.96157336510912
    vertex 175.7625630088016 181.66138468809459 -100.8721174390231
  endloop
endfacet
facet normal 0.9995008496201817 8.604898902572478e-18 -0.03159195480712047
  outer loop
    vertex 175.7625630088016 181.66138468809459 -100.8721174390231
    vertex 175.7281277780619 181.66138468809459 -101.96157336510912
    vertex 175.7364328998938 181.77027614862462 -101.69881734453696
  endloop
endfacet
facet normal 0.9995008496201817 8.604898902572478e-18 -0.03159195480712047
  outer loop
    vertex 175.7625630088016 181.66138468809459 -100.8721174390231
    vertex 175.7364328998938 181.77027614862462 -101.69881734453696
    vertex 175.7542578869697 181.77027614862462 -101.13487345959524
  endloop
endfacet
facet normal 0.9995008496201817 8.604898902572478e-18 -0.03159195480712047
  outer loop
    vertex 175.7542578869697 181.77027614862462 -101.13487345959524
    vertex 175.7364328998938 181.77027614862462 -101.69881734453696
    vertex 175.74534539343173 181.8074169979695 -101.4168454020661
  endloop
endfacet
facet normal 0.9951847266721972 -3.6403229636991295e-31 -0.09801714032955888
  outer loop
    vertex 156.88461176969076 190.71741699796942 -101.06631899999988
    vertex 157.0592735708254 170.71741699796954 -99.29294797287326
    vertex 156.88461176969076 170.71741699796954 -101.06631899999988
  endloop
endfacet
facet normal 0.9951847266721972 -3.6403229636991295e-31 -0.09801714032955888
  outer loop
    vertex 157.0592735708254 170.71741699796954 -99.29294797287326
    vertex 156.88461176969076 190.71741699796942 -101.06631899999988
    vertex 157.0592735708254 190.71741699796942 -99.29294797287326
  endloop
endfacet
facet normal 0.9569403357322094 -3.8038919249589947e-31 -0.290284677254461
  outer loop
    vertex 157.0592735708254 190.71741699796942 -99.29294797287326
    vertex 157.57654681916316 170.71741699796954 -97.58772659980121
    vertex 157.0592735708254 170.71741699796954 -99.29294797287326
  endloop
endfacet
facet normal 0.9569403357322094 -3.8038919249589947e-31 -0.290284677254461
  outer loop
    vertex 157.57654681916316 170.71741699796954 -97.58772659980121
    vertex 157.0592735708254 190.71741699796942 -99.29294797287326
    vertex 157.57654681916316 190.71741699796942 -97.58772659980121
  endloop
endfacet
facet normal 0.7730104533627363 -1.7277133215037084e-31 0.6343932841636466
  outer loop
    vertex 159.54701112870507 190.71741699796942 -107.4939196409856
    vertex 158.41655299386065 170.71741699796954 -106.11645241814806
    vertex 159.54701112870507 170.71741699796954 -107.4939196409856
  endloop
endfacet
facet normal 0.7730104533627363 -1.7277133215037084e-31 0.6343932841636466
  outer loop
    vertex 158.41655299386065 170.71741699796954 -106.11645241814806
    vertex 159.54701112870507 190.71741699796942 -107.4939196409856
    vertex 158.41655299386065 190.71741699796942 -106.11645241814806
  endloop
endfacet
facet normal 0.6343932841636444 -3.420480785177817e-31 -0.7730104533627379
  outer loop
    vertex 160.92447835154258 190.71741699796942 -93.50826022416975
    vertex 159.54701112870507 170.71741699796954 -94.63871835901416
    vertex 159.54701112870507 190.71741699796942 -94.63871835901416
  endloop
endfacet
facet normal 0.6343932841636444 -3.420480785177817e-31 -0.7730104533627379
  outer loop
    vertex 159.54701112870507 170.71741699796954 -94.63871835901416
    vertex 160.92447835154258 190.71741699796942 -93.50826022416975
    vertex 160.92447835154258 170.71741699796954 -93.50826022416975
  endloop
endfacet
facet normal 0.7730104533627367 -3.691817354248203e-31 -0.6343932841636462
  outer loop
    vertex 158.41655299386065 190.71741699796942 -96.01618558185169
    vertex 159.54701112870507 170.71741699796954 -94.63871835901416
    vertex 158.41655299386065 170.71741699796954 -96.01618558185169
  endloop
endfacet
facet normal 0.7730104533627367 -3.691817354248203e-31 -0.6343932841636462
  outer loop
    vertex 159.54701112870507 170.71741699796954 -94.63871835901416
    vertex 158.41655299386065 190.71741699796942 -96.01618558185169
    vertex 159.54701112870507 190.71741699796942 -94.63871835901416
  endloop
endfacet
facet normal 0.9951847266721972 -3.3368584324609513e-31 0.09801714032955872
  outer loop
    vertex 157.0592735708254 190.71741699796942 -102.8396900271265
    vertex 156.88461176969076 170.71741699796954 -101.06631899999988
    vertex 157.0592735708254 170.71741699796954 -102.8396900271265
  endloop
endfacet
facet normal 0.9951847266721972 -3.3368584324609513e-31 0.09801714032955872
  outer loop
    vertex 156.88461176969076 170.71741699796954 -101.06631899999988
    vertex 157.0592735708254 190.71741699796942 -102.8396900271265
    vertex 156.88461176969076 190.71741699796942 -101.06631899999988
  endloop
endfacet
facet normal 0.8819212643483575 -2.361818492317751e-31 0.47139673682599326
  outer loop
    vertex 158.41655299386065 190.71741699796942 -106.11645241814806
    vertex 157.57654681916318 170.71741699796954 -104.54491140019856
    vertex 158.41655299386065 170.71741699796954 -106.11645241814806
  endloop
endfacet
facet normal 0.8819212643483575 -2.361818492317751e-31 0.47139673682599326
  outer loop
    vertex 157.57654681916318 170.71741699796954 -104.54491140019856
    vertex 158.41655299386065 190.71741699796942 -106.11645241814806
    vertex 157.57654681916318 190.71741699796942 -104.54491140019856
  endloop
endfacet
facet normal 0.9569403357322076 -2.905160302995046e-31 0.2902846772544668
  outer loop
    vertex 157.31791019499428 190.71741699796942 -103.6923007136625
    vertex 157.0592735708254 170.71741699796954 -102.8396900271265
    vertex 157.31791019499428 170.71741699796954 -103.6923007136625
  endloop
endfacet
facet normal 0.9569403357322076 -2.905160302995046e-31 0.2902846772544668
  outer loop
    vertex 157.0592735708254 170.71741699796954 -102.8396900271265
    vertex 157.31791019499428 190.71741699796942 -103.6923007136625
    vertex 157.0592735708254 190.71741699796942 -102.8396900271265
  endloop
endfacet
facet normal 0.9569403357322076 -2.905160302995046e-31 0.2902846772544668
  outer loop
    vertex 157.57654681916318 190.71741699796942 -104.54491140019856
    vertex 157.31791019499428 170.71741699796954 -103.6923007136625
    vertex 157.57654681916318 170.71741699796954 -104.54491140019856
  endloop
endfacet
facet normal 0.9569403357322076 -2.905160302995046e-31 0.2902846772544668
  outer loop
    vertex 157.31791019499428 170.71741699796954 -103.6923007136625
    vertex 157.57654681916318 190.71741699796942 -104.54491140019856
    vertex 157.31791019499428 190.71741699796942 -103.6923007136625
  endloop
endfacet
facet normal 0.6343932841636439 -1.027213096657088e-31 0.7730104533627382
  outer loop
    vertex 160.92447835154258 170.71741699796954 -108.62437777583001
    vertex 159.54701112870507 190.71741699796942 -107.4939196409856
    vertex 159.54701112870507 170.71741699796954 -107.4939196409856
  endloop
endfacet
facet normal 0.6343932841636439 -1.027213096657088e-31 0.7730104533627382
  outer loop
    vertex 159.54701112870507 190.71741699796942 -107.4939196409856
    vertex 160.92447835154258 170.71741699796954 -108.62437777583001
    vertex 160.92447835154258 190.71741699796942 -108.62437777583001
  endloop
endfacet
facet normal 0.8819212643483549 -3.8212794527898534e-31 -0.4713967368259982
  outer loop
    vertex 157.57654681916316 190.71741699796942 -97.58772659980121
    vertex 158.41655299386065 170.71741699796954 -96.01618558185169
    vertex 157.57654681916316 170.71741699796954 -97.58772659980121
  endloop
endfacet
facet normal 0.8819212643483549 -3.8212794527898534e-31 -0.4713967368259982
  outer loop
    vertex 158.41655299386065 170.71741699796954 -96.01618558185169
    vertex 157.57654681916316 190.71741699796942 -97.58772659980121
    vertex 158.41655299386065 190.71741699796942 -96.01618558185169
  endloop
endfacet
facet normal 0.012089717700710727 -0.9238795325112991 0.3824924157844449
  outer loop
    vertex 180.23418672318462 181.77027614862462 -101.84098114116902
    vertex 175.7281277780619 181.66138468809459 -101.96157336510912
    vertex 180.2258816013527 181.66138468809459 -102.10373716174115
  endloop
endfacet
facet normal 0.012089717700710727 -0.9238795325112991 0.3824924157844449
  outer loop
    vertex 175.7281277780619 181.66138468809459 -101.96157336510912
    vertex 180.23418672318462 181.77027614862462 -101.84098114116902
    vertex 175.7364328998938 181.77027614862462 -101.69881734453696
  endloop
endfacet
facet normal 0.029187160438319936 0.38268343236510644 0.9234183776917205
  outer loop
    vertex 175.71552360882592 180.17241699796952 -102.36034191036008
    vertex 180.2098373380168 180.43530423880776 -102.61134281430829
    vertex 175.71208351472598 180.43530423880776 -102.46917901767625
  endloop
endfacet
facet normal 0.029187160438319936 0.38268343236510644 0.9234183776917205
  outer loop
    vertex 180.2098373380168 180.43530423880776 -102.61134281430829
    vertex 175.71552360882592 180.17241699796952 -102.36034191036008
    vertex 180.21327743211674 180.17241699796952 -102.50250570699212
  endloop
endfacet
facet normal -0.019231963553563172 0.7933533402911966 -0.6084575655102623
  outer loop
    vertex 175.7625630088016 179.77344930784446 -100.8721174390231
    vertex 180.26744860189035 179.94667060647618 -100.78864752555886
    vertex 180.26031683209243 179.77344930784446 -101.01428123565515
  endloop
endfacet
facet normal -0.019231963553563172 0.7933533402911966 -0.6084575655102623
  outer loop
    vertex 180.26744860189035 179.94667060647618 -100.78864752555886
    vertex 175.7625630088016 179.77344930784446 -100.8721174390231
    vertex 175.76969477859956 179.94667060647618 -100.64648372892681
  endloop
endfacet
facet normal 0.025063582872558703 -0.6087614290087239 0.7929573376700964
  outer loop
    vertex 180.21327743211674 181.26241699796952 -102.50250570699212
    vertex 175.72099600826394 181.48816338946287 -102.1872070752054
    vertex 175.71552360882592 181.26241699796952 -102.36034191036008
  endloop
endfacet
facet normal 0.025063582872558703 -0.6087614290087239 0.7929573376700964
  outer loop
    vertex 175.72099600826394 181.48816338946287 -102.1872070752054
    vertex 180.21327743211674 181.26241699796952 -102.50250570699212
    vertex 180.21874983155476 181.48816338946287 -102.32937087183744
  endloop
endfacet
facet normal 0.012089717700710713 0.9238795325112991 0.3824924157844449
  outer loop
    vertex 175.7281277780619 179.77344930784446 -101.96157336510912
    vertex 180.23418672318462 179.66455784731443 -101.84098114116902
    vertex 180.2258816013527 179.77344930784446 -102.10373716174115
  endloop
endfacet
facet normal 0.012089717700710713 0.9238795325112991 0.3824924157844449
  outer loop
    vertex 180.23418672318462 179.66455784731443 -101.84098114116902
    vertex 175.7281277780619 179.77344930784446 -101.96157336510912
    vertex 175.7364328998938 179.66455784731443 -101.69881734453696
  endloop
endfacet
facet normal 0.004123577565760267 -0.9914448613738153 0.13046104002159295
  outer loop
    vertex 180.24309921672253 181.8074169979695 -101.55900919869815
    vertex 175.7364328998938 181.77027614862462 -101.69881734453696
    vertex 180.23418672318462 181.77027614862462 -101.84098114116902
  endloop
endfacet
facet normal 0.004123577565760267 -0.9914448613738153 0.13046104002159295
  outer loop
    vertex 175.7364328998938 181.77027614862462 -101.69881734453696
    vertex 180.24309921672253 181.8074169979695 -101.55900919869815
    vertex 175.74534539343173 181.8074169979695 -101.4168454020661
  endloop
endfacet
facet normal -0.00412357756576021 -0.9914448613738154 -0.13046104002159167
  outer loop
    vertex 180.25201171026052 181.77027614862462 -101.27703725622727
    vertex 175.74534539343173 181.8074169979695 -101.4168454020661
    vertex 180.24309921672253 181.8074169979695 -101.55900919869815
  endloop
endfacet
facet normal -0.00412357756576021 -0.9914448613738154 -0.13046104002159167
  outer loop
    vertex 175.74534539343173 181.8074169979695 -101.4168454020661
    vertex 180.25201171026052 181.77027614862462 -101.27703725622727
    vertex 175.7542578869697 181.77027614862462 -101.13487345959524
  endloop
endfacet
facet normal 0.0307841789736545 0.142198624825087 0.989359330790776
  outer loop
    vertex 175.71208351472598 180.43530423880776 -102.46917901767625
    vertex 180.2086639859828 180.7174169979695 -102.64846512478414
    vertex 175.710910162692 180.7174169979695 -102.5063013281521
  endloop
endfacet
facet normal 0.0307841789736545 0.142198624825087 0.989359330790776
  outer loop
    vertex 180.2086639859828 180.7174169979695 -102.64846512478414
    vertex 175.71208351472598 180.43530423880776 -102.46917901767625
    vertex 180.2098373380168 180.43530423880776 -102.61134281430829
  endloop
endfacet
facet normal -0.012089717700710824 -0.9238795325112976 -0.3824924157844484
  outer loop
    vertex 180.26031683209243 181.66138468809459 -101.01428123565515
    vertex 175.7542578869697 181.77027614862462 -101.13487345959524
    vertex 180.25201171026052 181.77027614862462 -101.27703725622727
  endloop
endfacet
facet normal -0.012089717700710824 -0.9238795325112976 -0.3824924157844484
  outer loop
    vertex 175.7542578869697 181.77027614862462 -101.13487345959524
    vertex 180.26031683209243 181.66138468809459 -101.01428123565515
    vertex 175.7625630088016 181.66138468809459 -100.8721174390231
  endloop
endfacet
facet normal 0.025063582872558693 0.6087614290087239 0.7929573376700964
  outer loop
    vertex 175.72099600826394 179.94667060647618 -102.1872070752054
    vertex 180.21327743211674 180.17241699796952 -102.50250570699212
    vertex 175.71552360882592 180.17241699796952 -102.36034191036008
  endloop
endfacet
facet normal 0.025063582872558693 0.6087614290087239 0.7929573376700964
  outer loop
    vertex 180.21327743211674 180.17241699796952 -102.50250570699212
    vertex 175.72099600826394 179.94667060647618 -102.1872070752054
    vertex 180.21874983155476 179.94667060647618 -102.32937087183744
  endloop
endfacet
facet normal 0.019231963553563155 0.7933533402911966 0.6084575655102623
  outer loop
    vertex 175.72099600826394 179.94667060647618 -102.1872070752054
    vertex 180.2258816013527 179.77344930784446 -102.10373716174115
    vertex 180.21874983155476 179.94667060647618 -102.32937087183744
  endloop
endfacet
facet normal 0.019231963553563155 0.7933533402911966 0.6084575655102623
  outer loop
    vertex 180.2258816013527 179.77344930784446 -102.10373716174115
    vertex 175.72099600826394 179.94667060647618 -102.1872070752054
    vertex 175.7281277780619 179.77344930784446 -101.96157336510912
  endloop
endfacet
facet normal -0.019231963553563155 -0.7933533402911966 -0.6084575655102623
  outer loop
    vertex 180.26744860189035 181.48816338946287 -100.78864752555886
    vertex 175.7625630088016 181.66138468809459 -100.8721174390231
    vertex 180.26031683209243 181.66138468809459 -101.01428123565515
  endloop
endfacet
facet normal -0.019231963553563155 -0.7933533402911966 -0.6084575655102623
  outer loop
    vertex 175.7625630088016 181.66138468809459 -100.8721174390231
    vertex 180.26744860189035 181.48816338946287 -100.78864752555886
    vertex 175.76969477859956 181.48816338946287 -100.64648372892681
  endloop
endfacet
facet normal -0.025063582872558693 -0.6087614290087239 -0.7929573376700964
  outer loop
    vertex 180.26744860189035 181.48816338946287 -100.78864752555886
    vertex 175.77516717803752 181.26241699796952 -100.47334889377211
    vertex 175.76969477859956 181.48816338946287 -100.64648372892681
  endloop
endfacet
facet normal -0.025063582872558693 -0.6087614290087239 -0.7929573376700964
  outer loop
    vertex 175.77516717803752 181.26241699796952 -100.47334889377211
    vertex 180.26744860189035 181.48816338946287 -100.78864752555886
    vertex 180.27292100132834 181.26241699796952 -100.61551269040416
  endloop
endfacet
facet normal -0.003949236782851729 0.9917498071283977 -0.12812776275896998
  outer loop
    vertex 175.74534539343173 179.6274169979695 -101.4168454020661
    vertex 180.25201171026052 179.66455784731443 -101.27703725622727
    vertex 180.24309921672253 179.6274169979695 -101.55900919869815
  endloop
endfacet
facet normal -0.003949236782851729 0.9917498071283977 -0.12812776275896998
  outer loop
    vertex 180.25201171026052 179.66455784731443 -101.27703725622727
    vertex 175.74534539343173 179.6274169979695 -101.4168454020661
    vertex 175.7542578869697 179.66455784731443 -101.13487345959524
  endloop
endfacet
facet normal 0.0 -1.0 0.0
  outer loop
    vertex 176.2310344262237 170.71741699796954 -111.32783210887312
    vertex 167.74798279681735 170.71741699796954 -109.98165719886524
    vertex 165.9746117696908 170.71741699796954 -110.15631899999987
  endloop
endfacet
facet normal 0.0 -1.0 0.0
  outer loop
    vertex 167.74798279681735 170.71741699796954 -109.98165719886524
    vertex 176.2310344262237 170.71741699796954 -111.32783210887312
    vertex 178.45382928565866 170.71741699796954 -108.46645326784798
  endloop
endfacet
facet normal 0.0 -1.0 0.0
  outer loop
    vertex 167.74798279681735 170.71741699796954 -109.98165719886524
    vertex 178.45382928565866 170.71741699796954 -108.46645326784798
    vertex 169.45320416988946 170.71741699796954 -109.46438395052748
  endloop
endfacet
facet normal 0.0 -1.0 0.0
  outer loop
    vertex 169.45320416988946 170.71741699796954 -109.46438395052748
    vertex 178.45382928565866 170.71741699796954 -108.46645326784798
    vertex 171.02474518783896 170.71741699796954 -108.62437777583001
  endloop
endfacet
facet normal 0.0 -1.0 0.0
  outer loop
    vertex 171.02474518783896 170.71741699796954 -108.62437777583001
    vertex 178.45382928565866 170.71741699796954 -108.46645326784798
    vertex 172.40221241067647 170.71741699796954 -107.4939196409856
  endloop
endfacet
facet normal 0.0 -1.0 0.0
  outer loop
    vertex 172.40221241067647 170.71741699796954 -107.4939196409856
    vertex 178.45382928565866 170.71741699796954 -108.46645326784798
    vertex 179.89830327106975 170.71741699796954 -105.1435327505218
  endloop
endfacet
facet normal 0.0 -1.0 0.0
  outer loop
    vertex 172.40221241067647 170.71741699796954 -107.4939196409856
    vertex 179.89830327106975 170.71741699796954 -105.1435327505218
    vertex 173.53267054552092 170.71741699796954 -106.11645241814806
  endloop
endfacet
facet normal 0.0 -1.0 0.0
  outer loop
    vertex 173.53267054552092 170.71741699796954 -106.11645241814806
    vertex 179.89830327106975 170.71741699796954 -105.1435327505218
    vertex 174.37267672021838 170.71741699796954 -104.54491140019856
  endloop
endfacet
facet normal 0.0 -1.0 0.0
  outer loop
    vertex 174.37267672021838 170.71741699796954 -104.54491140019856
    vertex 179.89830327106975 170.71741699796954 -105.1435327505218
    vertex 180.18633436404144 170.71741699796954 -103.35492587526086
  endloop
endfacet
facet normal 0.0 -1.0 0.0
  outer loop
    vertex 174.37267672021838 170.71741699796954 -104.54491140019856
    vertex 180.18633436404144 170.71741699796954 -103.35492587526086
    vertex 174.88994996855615 170.71741699796954 -102.8396900271265
  endloop
endfacet
facet normal 0.0 -1.0 0.0
  outer loop
    vertex 174.88994996855615 170.71741699796954 -102.8396900271265
    vertex 180.18633436404144 170.71741699796954 -103.35492587526086
    vertex 180.29986406940367 170.71741699796954 -99.76309252213544
  endloop
endfacet
facet normal 0.0 -1.0 0.0
  outer loop
    vertex 174.88994996855615 170.71741699796954 -102.8396900271265
    vertex 180.29986406940367 170.71741699796954 -99.76309252213544
    vertex 175.0646117696908 170.71741699796954 -101.06631899999988
  endloop
endfacet
facet normal 0.0 -1.0 0.0
  outer loop
    vertex 175.0646117696908 170.71741699796954 -101.06631899999988
    vertex 180.29986406940367 170.71741699796954 -99.76309252213544
    vertex 174.88994996855615 170.71741699796954 -99.29294797287326
  endloop
endfacet
facet normal 0.0 -1.0 0.0
  outer loop
    vertex 174.88994996855615 170.71741699796954 -99.29294797287326
    vertex 180.29986406940367 170.71741699796954 -99.76309252213544
    vertex 180.10943739129826 170.71741699796954 -97.79530055924371
  endloop
endfacet
facet normal 0.0 -1.0 0.0
  outer loop
    vertex 174.88994996855615 170.71741699796954 -99.29294797287326
    vertex 180.10943739129826 170.71741699796954 -97.79530055924371
    vertex 174.63131334438725 170.71741699796954 -98.44033728633724
  endloop
endfacet
facet normal 0.0 -1.0 0.0
  outer loop
    vertex 174.63131334438725 170.71741699796954 -98.44033728633724
    vertex 180.10943739129826 170.71741699796954 -97.79530055924371
    vertex 174.37267672021838 170.71741699796954 -97.5877265998012
  endloop
endfacet
facet normal 0.0 -1.0 0.0
  outer loop
    vertex 174.37267672021838 170.71741699796954 -97.5877265998012
    vertex 180.10943739129826 170.71741699796954 -97.79530055924371
    vertex 178.78063913757387 170.71741699796954 -94.24733666785914
  endloop
endfacet
facet normal 0.0 -1.0 0.0
  outer loop
    vertex 174.37267672021838 170.71741699796954 -97.5877265998012
    vertex 178.78063913757387 170.71741699796954 -94.24733666785914
    vertex 173.53267054552092 170.71741699796954 -96.01618558185169
  endloop
endfacet
facet normal 0.0 -1.0 0.0
  outer loop
    vertex 173.53267054552092 170.71741699796954 -96.01618558185169
    vertex 178.78063913757387 170.71741699796954 -94.24733666785914
    vertex 172.40221241067647 170.71741699796954 -94.63871835901415
  endloop
endfacet
facet normal 0.0 -1.0 0.0
  outer loop
    vertex 172.40221241067647 170.71741699796954 -94.63871835901415
    vertex 178.78063913757387 170.71741699796954 -94.24733666785914
    vertex 171.02474518783896 170.71741699796954 -93.50826022416975
  endloop
endfacet
facet normal 0.0 -1.0 0.0
  outer loop
    vertex 171.02474518783896 170.71741699796954 -93.50826022416975
    vertex 178.78063913757387 170.71741699796954 -94.24733666785914
    vertex 176.57858299322032 170.71741699796954 -91.1643671073892
  endloop
endfacet
facet normal 0.0 -1.0 0.0
  outer loop
    vertex 171.02474518783896 170.71741699796954 -93.50826022416975
    vertex 176.57858299322032 170.71741699796954 -91.1643671073892
    vertex 169.45320416988946 170.71741699796954 -92.6682540494723
  endloop
endfacet
facet normal 0.0 -1.0 0.0
  outer loop
    vertex 169.45320416988946 170.71741699796954 -92.6682540494723
    vertex 176.57858299322032 170.71741699796954 -91.1643671073892
    vertex 167.74798279681735 170.71741699796954 -92.15098080113451
  endloop
endfacet
facet normal 0.0 -1.0 0.0
  outer loop
    vertex 167.74798279681735 170.71741699796954 -92.15098080113451
    vertex 176.57858299322032 170.71741699796954 -91.1643671073892
    vertex 165.9746117696908 170.71741699796954 -91.97631899999989
  endloop
endfacet
facet normal 0.0 -1.0 0.0
  outer loop
    vertex 157.57654681916316 170.71741699796954 -97.58772659980121
    vertex 154.56741699796947 170.71741699796954 -98.06631899999988
    vertex 157.0592735708254 170.71741699796954 -99.29294797287326
  endloop
endfacet
facet normal 0.0 -1.0 0.0
  outer loop
    vertex 154.56741699796947 170.71741699796954 -98.06631899999988
    vertex 157.57654681916316 170.71741699796954 -97.58772659980121
    vertex 154.56741699796947 170.71741699796954 -89.56631899999988
  endloop
endfacet
facet normal 0.0 -1.0 0.0
  outer loop
    vertex 154.56741699796947 170.71741699796954 -89.56631899999988
    vertex 157.57654681916316 170.71741699796954 -97.58772659980121
    vertex 158.41655299386065 170.71741699796954 -96.01618558185169
  endloop
endfacet
facet normal 0.0 -1.0 0.0
  outer loop
    vertex 154.56741699796947 170.71741699796954 -89.56631899999988
    vertex 158.41655299386065 170.71741699796954 -96.01618558185169
    vertex 159.54701112870507 170.71741699796954 -94.63871835901416
  endloop
endfacet
facet normal 0.0 -1.0 0.0
  outer loop
    vertex 154.56741699796947 170.71741699796954 -89.56631899999988
    vertex 159.54701112870507 170.71741699796954 -94.63871835901416
    vertex 160.92447835154258 170.71741699796954 -93.50826022416975
  endloop
endfacet
facet normal 0.0 -1.0 0.0
  outer loop
    vertex 154.56741699796947 170.71741699796954 -89.56631899999988
    vertex 160.92447835154258 170.71741699796954 -93.50826022416975
    vertex 162.4960193694921 170.71741699796954 -92.6682540494723
  endloop
endfacet
facet normal 0.0 -1.0 0.0
  outer loop
    vertex 154.56741699796947 170.71741699796954 -89.56631899999988
    vertex 162.4960193694921 170.71741699796954 -92.6682540494723
    vertex 164.20124074256418 170.71741699796954 -92.15098080113451
  endloop
endfacet
facet normal 0.0 -1.0 0.0
  outer loop
    vertex 154.56741699796947 170.71741699796954 -89.56631899999988
    vertex 164.20124074256418 170.71741699796954 -92.15098080113451
    vertex 165.9746117696908 170.71741699796954 -91.97631899999989
  endloop
endfacet
facet normal 0.0 -1.0 0.0
  outer loop
    vertex 154.56741699796947 170.71741699796954 -89.56631899999988
    vertex 165.9746117696908 170.71741699796954 -91.97631899999989
    vertex 176.57858299322032 170.71741699796954 -91.1643671073892
  endloop
endfacet
facet normal 0.0 -1.0 0.0
  outer loop
    vertex 154.56741699796947 170.71741699796954 -89.56631899999988
    vertex 176.57858299322032 170.71741699796954 -91.1643671073892
    vertex 173.6534297261653 170.71741699796954 -88.75662315549002
  endloop
endfacet
facet normal 0.0 -1.0 0.0
  outer loop
    vertex 154.56741699796947 170.71741699796954 -89.56631899999988
    vertex 173.6534297261653 170.71741699796954 -88.75662315549002
    vertex 151.56741699796947 170.71741699796954 -89.56631899999988
  endloop
endfacet
facet normal 0.0 -1.0 0.0
  outer loop
    vertex 151.56741699796947 170.71741699796954 -89.56631899999988
    vertex 173.6534297261653 170.71741699796954 -88.75662315549002
    vertex 151.56741699796947 170.71741699796954 -86.5663189999999
  endloop
endfacet
facet normal 0.0 -1.0 0.0
  outer loop
    vertex 151.56741699796947 170.71741699796954 -86.5663189999999
    vertex 173.6534297261653 170.71741699796954 -88.75662315549002
    vertex 170.2046489375876 170.71741699796954 -87.18829167075636
  endloop
endfacet
facet normal 0.0 -1.0 0.0
  outer loop
    vertex 151.56741699796947 170.71741699796954 -86.5663189999999
    vertex 170.2046489375876 170.71741699796954 -87.18829167075636
    vertex 166.46741699796948 170.71741699796954 -86.5663189999999
  endloop
endfacet
facet normal 0.0 -1.0 0.0
  outer loop
    vertex 157.31791019499428 170.71741699796954 -103.6923007136625
    vertex 151.56741699796945 170.71741699796954 -104.21631899999988
    vertex 157.57654681916318 170.71741699796954 -104.54491140019856
  endloop
endfacet
facet normal 0.0 -1.0 0.0
  outer loop
    vertex 151.56741699796945 170.71741699796954 -104.21631899999988
    vertex 157.31791019499428 170.71741699796954 -103.6923007136625
    vertex 151.56741699796945 170.71741699796954 -98.06631899999988
  endloop
endfacet
facet normal 0.0 -1.0 0.0
  outer loop
    vertex 151.56741699796945 170.71741699796954 -98.06631899999988
    vertex 157.31791019499428 170.71741699796954 -103.6923007136625
    vertex 157.0592735708254 170.71741699796954 -102.8396900271265
  endloop
endfacet
facet normal 0.0 -1.0 0.0
  outer loop
    vertex 151.56741699796945 170.71741699796954 -98.06631899999988
    vertex 157.0592735708254 170.71741699796954 -102.8396900271265
    vertex 156.88461176969076 170.71741699796954 -101.06631899999988
  endloop
endfacet
facet normal 0.0 -1.0 0.0
  outer loop
    vertex 151.56741699796945 170.71741699796954 -98.06631899999988
    vertex 156.88461176969076 170.71741699796954 -101.06631899999988
    vertex 157.0592735708254 170.71741699796954 -99.29294797287326
  endloop
endfacet
facet normal 0.0 -1.0 0.0
  outer loop
    vertex 151.56741699796945 170.71741699796954 -98.06631899999988
    vertex 157.0592735708254 170.71741699796954 -99.29294797287326
    vertex 154.56741699796947 170.71741699796954 -98.06631899999988
  endloop
endfacet
facet normal 0.0 -1.0 0.0
  outer loop
    vertex 170.04491614748932 170.71741699796954 -114.99203188175545
    vertex 151.71741699796945 170.71741699796954 -115.56631899999988
    vertex 166.46741699796942 170.71741699796954 -115.56631899999988
  endloop
endfacet
facet normal 0.0 -1.0 0.0
  outer loop
    vertex 151.71741699796945 170.71741699796954 -115.56631899999988
    vertex 170.04491614748932 170.71741699796954 -114.99203188175545
    vertex 151.71741699796945 170.71741699796954 -112.41631899999987
  endloop
endfacet
facet normal 0.0 -1.0 0.0
  outer loop
    vertex 151.71741699796945 170.71741699796954 -112.41631899999987
    vertex 170.04491614748932 170.71741699796954 -114.99203188175545
    vertex 173.36855299700375 170.71741699796954 -113.54920689183245
  endloop
endfacet
facet normal 0.0 -1.0 0.0
  outer loop
    vertex 151.71741699796945 170.71741699796954 -112.41631899999987
    vertex 173.36855299700375 170.71741699796954 -113.54920689183245
    vertex 176.2310344262237 170.71741699796954 -111.32783210887312
  endloop
endfacet
facet normal 0.0 -1.0 0.0
  outer loop
    vertex 151.71741699796945 170.71741699796954 -112.41631899999987
    vertex 176.2310344262237 170.71741699796954 -111.32783210887312
    vertex 148.71741699796948 170.71741699796954 -112.41631899999987
  endloop
endfacet
facet normal 0.0 -1.0 0.0
  outer loop
    vertex 148.71741699796948 170.71741699796954 -112.41631899999987
    vertex 176.2310344262237 170.71741699796954 -111.32783210887312
    vertex 164.20124074256418 170.71741699796954 -109.98165719886524
  endloop
endfacet
facet normal 0.0 -1.0 0.0
  outer loop
    vertex 148.71741699796948 170.71741699796954 -112.41631899999987
    vertex 164.20124074256418 170.71741699796954 -109.98165719886524
    vertex 162.4960193694921 170.71741699796954 -109.46438395052748
  endloop
endfacet
facet normal 0.0 -1.0 0.0
  outer loop
    vertex 148.71741699796948 170.71741699796954 -112.41631899999987
    vertex 162.4960193694921 170.71741699796954 -109.46438395052748
    vertex 148.71741699796948 170.71741699796954 -104.21631899999988
  endloop
endfacet
facet normal 0.0 -1.0 0.0
  outer loop
    vertex 164.20124074256418 170.71741699796954 -109.98165719886524
    vertex 176.2310344262237 170.71741699796954 -111.32783210887312
    vertex 165.9746117696908 170.71741699796954 -110.15631899999987
  endloop
endfacet
facet normal 0.0 -1.0 0.0
  outer loop
    vertex 148.71741699796948 170.71741699796954 -104.21631899999988
    vertex 162.4960193694921 170.71741699796954 -109.46438395052748
    vertex 160.92447835154258 170.71741699796954 -108.62437777583001
  endloop
endfacet
facet normal 0.0 -1.0 0.0
  outer loop
    vertex 148.71741699796948 170.71741699796954 -104.21631899999988
    vertex 160.92447835154258 170.71741699796954 -108.62437777583001
    vertex 159.54701112870507 170.71741699796954 -107.4939196409856
  endloop
endfacet
facet normal 0.0 -1.0 0.0
  outer loop
    vertex 148.71741699796948 170.71741699796954 -104.21631899999988
    vertex 159.54701112870507 170.71741699796954 -107.4939196409856
    vertex 158.41655299386065 170.71741699796954 -106.11645241814806
  endloop
endfacet
facet normal 0.0 -1.0 0.0
  outer loop
    vertex 148.71741699796948 170.71741699796954 -104.21631899999988
    vertex 158.41655299386065 170.71741699796954 -106.11645241814806
    vertex 157.57654681916318 170.71741699796954 -104.54491140019856
  endloop
endfacet
facet normal 0.0 -1.0 0.0
  outer loop
    vertex 148.71741699796948 170.71741699796954 -104.21631899999988
    vertex 157.57654681916318 170.71741699796954 -104.54491140019856
    vertex 151.56741699796945 170.71741699796954 -104.21631899999988
  endloop
endfacet
facet normal 0.029541222720886468 -0.3765093806304657 0.9259416841558752
  outer loop
    vertex 180.2098373380168 180.99952975713128 -102.61134281430829
    vertex 175.71552360882592 181.26241699796952 -102.36034191036008
    vertex 175.71208351472598 180.99952975713128 -102.46917901767625
  endloop
endfacet
facet normal 0.029541222720886468 -0.3765093806304657 0.9259416841558752
  outer loop
    vertex 175.71552360882592 181.26241699796952 -102.36034191036008
    vertex 180.2098373380168 180.99952975713128 -102.61134281430829
    vertex 180.21327743211674 181.26241699796952 -102.50250570699212
  endloop
endfacet
facet normal 0.004149627517461645 0.9917386929237015 0.12820743172474236
  outer loop
    vertex 175.7364328998938 179.66455784731443 -101.69881734453696
    vertex 180.24309921672253 179.6274169979695 -101.55900919869815
    vertex 180.23418672318462 179.66455784731443 -101.84098114116902
  endloop
endfacet
facet normal 0.004149627517461645 0.9917386929237015 0.12820743172474236
  outer loop
    vertex 180.24309921672253 179.6274169979695 -101.55900919869815
    vertex 175.7364328998938 179.66455784731443 -101.69881734453696
    vertex 175.74534539343173 179.6274169979695 -101.4168454020661
  endloop
endfacet
facet normal -0.025063582872558703 0.6087614290087239 -0.7929573376700964
  outer loop
    vertex 175.77516717803752 180.17241699796952 -100.47334889377211
    vertex 180.26744860189035 179.94667060647618 -100.78864752555886
    vertex 175.76969477859956 179.94667060647618 -100.64648372892681
  endloop
endfacet
facet normal -0.025063582872558703 0.6087614290087239 -0.7929573376700964
  outer loop
    vertex 180.26744860189035 179.94667060647618 -100.78864752555886
    vertex 175.77516717803752 180.17241699796952 -100.47334889377211
    vertex 180.27292100132834 180.17241699796952 -100.61551269040416
  endloop
endfacet
facet normal 0.03101020516723072 -0.1500282098333609 0.9881952759600116
  outer loop
    vertex 180.2086639859828 180.7174169979695 -102.64846512478414
    vertex 175.71208351472598 180.99952975713128 -102.46917901767625
    vertex 175.710910162692 180.7174169979695 -102.5063013281521
  endloop
endfacet
facet normal 0.03101020516723072 -0.1500282098333609 0.9881952759600116
  outer loop
    vertex 175.71208351472598 180.99952975713128 -102.46917901767625
    vertex 180.2086639859828 180.7174169979695 -102.64846512478414
    vertex 180.2098373380168 180.99952975713128 -102.61134281430829
  endloop
endfacet
facet normal 0.019231963553563172 -0.7933533402911966 0.6084575655102623
  outer loop
    vertex 180.2258816013527 181.66138468809459 -102.10373716174115
    vertex 175.72099600826394 181.48816338946287 -102.1872070752054
    vertex 180.21874983155476 181.48816338946287 -102.32937087183744
  endloop
endfacet
facet normal 0.019231963553563172 -0.7933533402911966 0.6084575655102623
  outer loop
    vertex 175.72099600826394 181.48816338946287 -102.1872070752054
    vertex 180.2258816013527 181.66138468809459 -102.10373716174115
    vertex 175.7281277780619 181.66138468809459 -101.96157336510912
  endloop
endfacet
facet normal -0.012089717700710727 0.9238795325112991 -0.3824924157844449
  outer loop
    vertex 175.7542578869697 179.66455784731443 -101.13487345959524
    vertex 180.26031683209243 179.77344930784446 -101.01428123565515
    vertex 180.25201171026052 179.66455784731443 -101.27703725622727
  endloop
endfacet
facet normal -0.012089717700710727 0.9238795325112991 -0.3824924157844449
  outer loop
    vertex 180.26031683209243 179.77344930784446 -101.01428123565515
    vertex 175.7542578869697 179.66455784731443 -101.13487345959524
    vertex 175.7625630088016 179.77344930784446 -100.8721174390231
  endloop
endfacet
facet normal 0.9995008496201817 0.0 -0.03159195480711931
  outer loop
    vertex 180.18633436404144 170.71741699796954 -103.35492587526086
    vertex 180.2098373380168 180.43530423880776 -102.61134281430829
    vertex 180.29986406940367 170.71741699796954 -99.76309252213544
  endloop
endfacet
facet normal 0.9995008496201817 0.0 -0.03159195480711931
  outer loop
    vertex 180.2098373380168 180.43530423880776 -102.61134281430829
    vertex 180.18633436404144 170.71741699796954 -103.35492587526086
    vertex 180.2086639859828 180.7174169979695 -102.64846512478414
  endloop
endfacet
facet normal 0.9995008496201817 0.0 -0.03159195480711931
  outer loop
    vertex 180.2086639859828 180.7174169979695 -102.64846512478414
    vertex 180.18633436404144 170.71741699796954 -103.35492587526086
    vertex 180.18633436404144 190.7174169979695 -103.35492587526086
  endloop
endfacet
facet normal 0.9995008496201817 0.0 -0.03159195480711931
  outer loop
    vertex 180.29986406940367 170.71741699796954 -99.76309252213544
    vertex 180.2098373380168 180.43530423880776 -102.61134281430829
    vertex 180.21327743211674 180.17241699796952 -102.50250570699212
  endloop
endfacet
facet normal 0.9995008496201817 0.0 -0.03159195480711931
  outer loop
    vertex 180.29986406940367 170.71741699796954 -99.76309252213544
    vertex 180.21327743211674 180.17241699796952 -102.50250570699212
    vertex 180.21874983155476 179.94667060647618 -102.32937087183744
  endloop
endfacet
facet normal 0.9995008496201817 0.0 -0.03159195480711931
  outer loop
    vertex 180.29986406940367 170.71741699796954 -99.76309252213544
    vertex 180.21874983155476 179.94667060647618 -102.32937087183744
    vertex 180.2258816013527 179.77344930784446 -102.10373716174115
  endloop
endfacet
facet normal 0.9995008496201817 0.0 -0.03159195480711931
  outer loop
    vertex 180.29986406940367 170.71741699796954 -99.76309252213544
    vertex 180.2258816013527 179.77344930784446 -102.10373716174115
    vertex 180.23418672318462 179.66455784731443 -101.84098114116902
  endloop
endfacet
facet normal 0.9995008496201817 0.0 -0.03159195480711931
  outer loop
    vertex 180.29986406940367 170.71741699796954 -99.76309252213544
    vertex 180.23418672318462 179.66455784731443 -101.84098114116902
    vertex 180.24309921672253 179.6274169979695 -101.55900919869815
  endloop
endfacet
facet normal 0.9995008496201817 0.0 -0.03159195480711931
  outer loop
    vertex 180.2086639859828 180.7174169979695 -102.64846512478414
    vertex 180.18633436404144 190.7174169979695 -103.35492587526086
    vertex 180.2098373380168 180.99952975713128 -102.61134281430829
  endloop
endfacet
facet normal 0.9995008496201817 0.0 -0.03159195480711931
  outer loop
    vertex 180.2098373380168 180.99952975713128 -102.61134281430829
    vertex 180.18633436404144 190.7174169979695 -103.35492587526086
    vertex 180.21327743211674 181.26241699796952 -102.50250570699212
  endloop
endfacet
facet normal 0.9995008496201817 0.0 -0.03159195480711931
  outer loop
    vertex 180.21327743211674 181.26241699796952 -102.50250570699212
    vertex 180.18633436404144 190.7174169979695 -103.35492587526086
    vertex 180.21874983155476 181.48816338946287 -102.32937087183744
  endloop
endfacet
facet normal 0.9995008496201817 0.0 -0.03159195480711931
  outer loop
    vertex 180.21874983155476 181.48816338946287 -102.32937087183744
    vertex 180.18633436404144 190.7174169979695 -103.35492587526086
    vertex 180.2258816013527 181.66138468809459 -102.10373716174115
  endloop
endfacet
facet normal 0.9995008496201817 0.0 -0.03159195480711931
  outer loop
    vertex 180.2258816013527 181.66138468809459 -102.10373716174115
    vertex 180.18633436404144 190.7174169979695 -103.35492587526086
    vertex 180.23418672318462 181.77027614862462 -101.84098114116902
  endloop
endfacet
facet normal 0.9995008496201817 0.0 -0.03159195480711931
  outer loop
    vertex 180.23418672318462 181.77027614862462 -101.84098114116902
    vertex 180.18633436404144 190.7174169979695 -103.35492587526086
    vertex 180.24309921672253 181.8074169979695 -101.55900919869815
  endloop
endfacet
facet normal 0.9995008496201817 0.0 -0.03159195480711931
  outer loop
    vertex 180.29986406940367 170.71741699796954 -99.76309252213544
    vertex 180.27753444746233 180.7174169979695 -100.46955327261213
    vertex 180.29986406940367 190.7174169979695 -99.76309252213544
  endloop
endfacet
facet normal 0.9995008496201817 0.0 -0.03159195480711931
  outer loop
    vertex 180.27753444746233 180.7174169979695 -100.46955327261213
    vertex 180.29986406940367 170.71741699796954 -99.76309252213544
    vertex 180.27636109542834 180.43530423880776 -100.50667558308801
  endloop
endfacet
facet normal 0.9995008496201817 0.0 -0.03159195480711931
  outer loop
    vertex 180.27636109542834 180.43530423880776 -100.50667558308801
    vertex 180.29986406940367 170.71741699796954 -99.76309252213544
    vertex 180.27292100132834 180.17241699796952 -100.61551269040416
  endloop
endfacet
facet normal 0.9995008496201817 0.0 -0.03159195480711931
  outer loop
    vertex 180.27292100132834 180.17241699796952 -100.61551269040416
    vertex 180.29986406940367 170.71741699796954 -99.76309252213544
    vertex 180.26744860189035 179.94667060647618 -100.78864752555886
  endloop
endfacet
facet normal 0.9995008496201817 0.0 -0.03159195480711931
  outer loop
    vertex 180.26744860189035 179.94667060647618 -100.78864752555886
    vertex 180.29986406940367 170.71741699796954 -99.76309252213544
    vertex 180.26031683209243 179.77344930784446 -101.01428123565515
  endloop
endfacet
facet normal 0.9995008496201817 0.0 -0.03159195480711931
  outer loop
    vertex 180.26031683209243 179.77344930784446 -101.01428123565515
    vertex 180.29986406940367 170.71741699796954 -99.76309252213544
    vertex 180.25201171026052 179.66455784731443 -101.27703725622727
  endloop
endfacet
facet normal 0.9995008496201817 0.0 -0.03159195480711931
  outer loop
    vertex 180.25201171026052 179.66455784731443 -101.27703725622727
    vertex 180.29986406940367 170.71741699796954 -99.76309252213544
    vertex 180.24309921672253 179.6274169979695 -101.55900919869815
  endloop
endfacet
facet normal 0.9995008496201817 0.0 -0.03159195480711931
  outer loop
    vertex 180.29986406940367 190.7174169979695 -99.76309252213544
    vertex 180.27753444746233 180.7174169979695 -100.46955327261213
    vertex 180.27636109542834 180.99952975713128 -100.506675583088
  endloop
endfacet
facet normal 0.9995008496201817 0.0 -0.03159195480711931
  outer loop
    vertex 180.29986406940367 190.7174169979695 -99.76309252213544
    vertex 180.27636109542834 180.99952975713128 -100.506675583088
    vertex 180.27292100132834 181.26241699796952 -100.61551269040416
  endloop
endfacet
facet normal 0.9995008496201817 0.0 -0.03159195480711931
  outer loop
    vertex 180.29986406940367 190.7174169979695 -99.76309252213544
    vertex 180.27292100132834 181.26241699796952 -100.61551269040416
    vertex 180.26744860189035 181.48816338946287 -100.78864752555886
  endloop
endfacet
facet normal 0.9995008496201817 0.0 -0.03159195480711931
  outer loop
    vertex 180.29986406940367 190.7174169979695 -99.76309252213544
    vertex 180.26744860189035 181.48816338946287 -100.78864752555886
    vertex 180.26031683209243 181.66138468809459 -101.01428123565515
  endloop
endfacet
facet normal 0.9995008496201817 0.0 -0.03159195480711931
  outer loop
    vertex 180.29986406940367 190.7174169979695 -99.76309252213544
    vertex 180.26031683209243 181.66138468809459 -101.01428123565515
    vertex 180.25201171026052 181.77027614862462 -101.27703725622727
  endloop
endfacet
facet normal 0.9995008496201817 0.0 -0.03159195480711931
  outer loop
    vertex 180.29986406940367 190.7174169979695 -99.76309252213544
    vertex 180.25201171026052 181.77027614862462 -101.27703725622727
    vertex 180.24309921672253 181.8074169979695 -101.55900919869815
  endloop
endfacet
facet normal 0.9995008496201817 0.0 -0.03159195480711931
  outer loop
    vertex 180.29986406940367 190.7174169979695 -99.76309252213544
    vertex 180.24309921672253 181.8074169979695 -101.55900919869815
    vertex 180.18633436404144 190.7174169979695 -103.35492587526086
  endloop
endfacet
facet normal 0.2902846772544623 4.6377618125967846e-32 0.9569403357322089
  outer loop
    vertex 164.20124074256418 170.71741699796954 -109.98165719886524
    vertex 162.4960193694921 190.71741699796942 -109.46438395052748
    vertex 162.4960193694921 170.71741699796954 -109.46438395052748
  endloop
endfacet
facet normal 0.2902846772544623 4.6377618125967846e-32 0.9569403357322089
  outer loop
    vertex 162.4960193694921 190.71741699796942 -109.46438395052748
    vertex 164.20124074256418 170.71741699796954 -109.98165719886524
    vertex 164.20124074256418 190.71741699796942 -109.98165719886524
  endloop
endfacet
facet normal -0.8819212643483549 3.8212794527898534e-31 0.4713967368259982
  outer loop
    vertex 174.37267672021838 190.71741699796942 -104.54491140019856
    vertex 173.53267054552092 170.71741699796954 -106.11645241814806
    vertex 174.37267672021838 170.71741699796954 -104.54491140019856
  endloop
endfacet
facet normal -0.8819212643483549 3.8212794527898534e-31 0.4713967368259982
  outer loop
    vertex 173.53267054552092 170.71741699796954 -106.11645241814806
    vertex 174.37267672021838 190.71741699796942 -104.54491140019856
    vertex 173.53267054552092 190.71741699796942 -106.11645241814806
  endloop
endfacet
facet normal -0.9951847266721965 3.640322963699137e-31 0.09801714032956513
  outer loop
    vertex 175.0646117696908 190.71741699796942 -101.06631899999988
    vertex 174.88994996855615 170.71741699796954 -102.8396900271265
    vertex 175.0646117696908 170.71741699796954 -101.06631899999988
  endloop
endfacet
facet normal -0.9951847266721965 3.640322963699137e-31 0.09801714032956513
  outer loop
    vertex 174.88994996855615 170.71741699796954 -102.8396900271265
    vertex 175.0646117696908 190.71741699796942 -101.06631899999988
    vertex 174.88994996855615 190.71741699796942 -102.8396900271265
  endloop
endfacet
facet normal -0.47139673682600075 3.017697057760783e-31 0.8819212643483533
  outer loop
    vertex 171.02474518783896 170.71741699796954 -108.62437777583001
    vertex 169.45320416988946 190.71741699796942 -109.46438395052748
    vertex 169.45320416988946 170.71741699796954 -109.46438395052748
  endloop
endfacet
facet normal -0.47139673682600075 3.017697057760783e-31 0.8819212643483533
  outer loop
    vertex 169.45320416988946 190.71741699796942 -109.46438395052748
    vertex 171.02474518783896 170.71741699796954 -108.62437777583001
    vertex 171.02474518783896 190.71741699796942 -108.62437777583001
  endloop
endfacet
facet normal -0.29028467725446055 2.498944924757987e-31 0.9569403357322096
  outer loop
    vertex 169.45320416988946 170.71741699796954 -109.46438395052748
    vertex 167.74798279681735 190.71741699796942 -109.98165719886524
    vertex 167.74798279681735 170.71741699796954 -109.98165719886524
  endloop
endfacet
facet normal -0.29028467725446055 2.498944924757987e-31 0.9569403357322096
  outer loop
    vertex 167.74798279681735 190.71741699796942 -109.98165719886524
    vertex 169.45320416988946 170.71741699796954 -109.46438395052748
    vertex 169.45320416988946 190.71741699796942 -109.46438395052748
  endloop
endfacet
facet normal -0.9569403357322112 3.8038919249589917e-31 0.2902846772544547
  outer loop
    vertex 174.88994996855615 190.71741699796942 -102.8396900271265
    vertex 174.37267672021838 170.71741699796954 -104.54491140019856
    vertex 174.88994996855615 170.71741699796954 -102.8396900271265
  endloop
endfacet
facet normal -0.9569403357322112 3.8038919249589917e-31 0.2902846772544547
  outer loop
    vertex 174.37267672021838 170.71741699796954 -104.54491140019856
    vertex 174.88994996855615 190.71741699796942 -102.8396900271265
    vertex 174.37267672021838 190.71741699796942 -104.54491140019856
  endloop
endfacet
facet normal -0.9951847266721966 3.3368584324609394e-31 -0.09801714032956499
  outer loop
    vertex 174.88994996855615 190.71741699796942 -99.29294797287326
    vertex 175.0646117696908 170.71741699796954 -101.06631899999988
    vertex 174.88994996855615 170.71741699796954 -99.29294797287326
  endloop
endfacet
facet normal -0.9951847266721966 3.3368584324609394e-31 -0.09801714032956499
  outer loop
    vertex 175.0646117696908 170.71741699796954 -101.06631899999988
    vertex 174.88994996855615 190.71741699796942 -99.29294797287326
    vertex 175.0646117696908 190.71741699796942 -101.06631899999988
  endloop
endfacet
facet normal -0.7730104533627363 3.6918173542482023e-31 0.6343932841636466
  outer loop
    vertex 173.53267054552092 190.71741699796942 -106.11645241814806
    vertex 172.40221241067647 170.71741699796954 -107.4939196409856
    vertex 173.53267054552092 170.71741699796954 -106.11645241814806
  endloop
endfacet
facet normal -0.7730104533627363 3.6918173542482023e-31 0.6343932841636466
  outer loop
    vertex 172.40221241067647 170.71741699796954 -107.4939196409856
    vertex 173.53267054552092 190.71741699796942 -106.11645241814806
    vertex 172.40221241067647 190.71741699796942 -107.4939196409856
  endloop
endfacet
facet normal 0.47139673682599825 -2.872376485736898e-32 0.8819212643483549
  outer loop
    vertex 162.4960193694921 170.71741699796954 -109.46438395052748
    vertex 160.92447835154258 190.71741699796942 -108.62437777583001
    vertex 160.92447835154258 170.71741699796954 -108.62437777583001
  endloop
endfacet
facet normal 0.47139673682599825 -2.872376485736898e-32 0.8819212643483549
  outer loop
    vertex 160.92447835154258 190.71741699796942 -108.62437777583001
    vertex 162.4960193694921 170.71741699796954 -109.46438395052748
    vertex 162.4960193694921 190.71741699796942 -109.46438395052748
  endloop
endfacet
facet normal -0.6343932841636439 3.420480785177815e-31 0.7730104533627382
  outer loop
    vertex 172.40221241067647 170.71741699796954 -107.4939196409856
    vertex 171.02474518783896 190.71741699796942 -108.62437777583001
    vertex 171.02474518783896 170.71741699796954 -108.62437777583001
  endloop
endfacet
facet normal -0.6343932841636439 3.420480785177815e-31 0.7730104533627382
  outer loop
    vertex 171.02474518783896 190.71741699796942 -108.62437777583001
    vertex 172.40221241067647 170.71741699796954 -107.4939196409856
    vertex 172.40221241067647 190.71741699796942 -107.4939196409856
  endloop
endfacet
facet normal -0.09801714032956121 1.8841597397212204e-31 0.9951847266721969
  outer loop
    vertex 167.74798279681735 170.71741699796954 -109.98165719886524
    vertex 165.9746117696908 190.71741699796942 -110.15631899999987
    vertex 165.9746117696908 170.71741699796954 -110.15631899999987
  endloop
endfacet
facet normal -0.09801714032956121 1.8841597397212204e-31 0.9951847266721969
  outer loop
    vertex 165.9746117696908 190.71741699796942 -110.15631899999987
    vertex 167.74798279681735 170.71741699796954 -109.98165719886524
    vertex 167.74798279681735 190.71741699796942 -109.98165719886524
  endloop
endfacet
facet normal 0.09801714032955997 1.1969673525359159e-31 0.995184726672197
  outer loop
    vertex 165.9746117696908 170.71741699796954 -110.15631899999987
    vertex 164.20124074256418 190.71741699796942 -109.98165719886524
    vertex 164.20124074256418 170.71741699796954 -109.98165719886524
  endloop
endfacet
facet normal 0.09801714032955997 1.1969673525359159e-31 0.995184726672197
  outer loop
    vertex 164.20124074256418 190.71741699796942 -109.98165719886524
    vertex 165.9746117696908 170.71741699796954 -110.15631899999987
    vertex 165.9746117696908 190.71741699796942 -110.15631899999987
  endloop
endfacet
facet normal -1.0 0.0 0.0
  outer loop
    vertex 151.56741699796947 190.7174169979695 -86.5663189999999
    vertex 151.56741699796947 170.71741699796954 -89.56631899999988
    vertex 151.56741699796947 170.71741699796954 -86.5663189999999
  endloop
endfacet
facet normal -1.0 0.0 0.0
  outer loop
    vertex 151.56741699796947 170.71741699796954 -89.56631899999988
    vertex 151.56741699796947 190.7174169979695 -86.5663189999999
    vertex 151.56741699796947 190.7174169979695 -89.56631899999988
  endloop
endfacet
facet normal 9.869882688917674e-17 1.7624790515924388e-17 -1.0
  outer loop
    vertex 166.46741699796942 190.7174169979695 -115.56631899999988
    vertex 151.71741699796945 170.71741699796954 -115.56631899999988
    vertex 151.71741699796945 190.7174169979695 -115.56631899999988
  endloop
endfacet
facet normal 9.869882688917674e-17 1.7624790515924388e-17 -1.0
  outer loop
    vertex 151.71741699796945 170.71741699796954 -115.56631899999988
    vertex 166.46741699796942 190.7174169979695 -115.56631899999988
    vertex 166.46741699796942 170.71741699796954 -115.56631899999988
  endloop
endfacet
endsolid MML_M30T_Cradle_rev1
