solid MML_M30T_Cradle_rev1
facet normal -0.2756096669104358 0.961269635172941 0.0
  outer loop
    vertex 138.43542949454437 190.06313874689417 -86.5663189999999
    vertex 140.71741699796945 190.7174169979695 -115.56631899999988
    vertex 138.43542949454437 190.06313874689417 -115.56631899999988
  endloop
endfacet
facet normal -0.2756096669104358 0.961269635172941 0.0
  outer loop
    vertex 140.71741699796945 190.7174169979695 -115.56631899999988
    vertex 138.43542949454437 190.06313874689417 -86.5663189999999
    vertex 140.71741699796945 190.7174169979695 -86.5663189999999
  endloop
endfacet
facet normal -0.9385998395907227 -0.3450077406671766 8.611564070395672e-33
  outer loop
    vertex 132.4955136566792 178.35983152888622 -86.5663189999999
    vertex 133.31453812596436 176.13166054928638 -115.56631899999988
    vertex 133.31453812596436 176.13166054928638 -86.5663189999999
  endloop
endfacet
facet normal -0.9385998395907227 -0.3450077406671766 8.611564070395672e-33
  outer loop
    vertex 133.31453812596436 176.13166054928638 -115.56631899999988
    vertex 132.4955136566792 178.35983152888622 -86.5663189999999
    vertex 132.4955136566792 178.35983152888622 -115.56631899999988
  endloop
endfacet
facet normal -0.6808236644494691 -0.7324473618804267 -0.0
  outer loop
    vertex 136.3683111345484 172.53898642154044 -86.5663189999999
    vertex 134.62953185184787 174.15521462376617 -115.56631899999988
    vertex 136.3683111345484 172.53898642154044 -115.56631899999988
  endloop
endfacet
facet normal -0.6808236644494691 -0.7324473618804267 -0.0
  outer loop
    vertex 134.62953185184787 174.15521462376617 -115.56631899999988
    vertex 136.3683111345484 172.53898642154044 -86.5663189999999
    vertex 134.62953185184787 174.15521462376617 -86.5663189999999
  endloop
endfacet
facet normal -0.8325626020792198 -0.5539309646689544 -0.0
  outer loop
    vertex 133.31453812596436 176.13166054928638 -86.5663189999999
    vertex 134.62953185184787 174.15521462376617 -115.56631899999988
    vertex 134.62953185184787 174.15521462376617 -86.5663189999999
  endloop
endfacet
facet normal -0.8325626020792198 -0.5539309646689544 -0.0
  outer loop
    vertex 134.62953185184787 174.15521462376617 -115.56631899999988
    vertex 133.31453812596436 176.13166054928638 -86.5663189999999
    vertex 133.31453812596436 176.13166054928638 -115.56631899999988
  endloop
endfacet
facet normal -0.49171240326306165 0.8707576657585417 0.0
  outer loop
    vertex 136.36831113454843 188.8958475743986 -86.5663189999999
    vertex 138.43542949454437 190.06313874689417 -115.56631899999988
    vertex 136.36831113454843 188.8958475743986 -115.56631899999988
  endloop
endfacet
facet normal -0.49171240326306165 0.8707576657585417 0.0
  outer loop
    vertex 138.43542949454437 190.06313874689417 -115.56631899999988
    vertex 136.36831113454843 188.8958475743986 -86.5663189999999
    vertex 138.43542949454437 190.06313874689417 -86.5663189999999
  endloop
endfacet
facet normal -0.8325626020792182 0.5539309646689571 0.0
  outer loop
    vertex 134.62953185184787 187.27961937217287 -86.5663189999999
    vertex 133.31453812596436 185.30317344665266 -115.56631899999988
    vertex 133.31453812596436 185.30317344665266 -86.5663189999999
  endloop
endfacet
facet normal -0.8325626020792182 0.5539309646689571 0.0
  outer loop
    vertex 133.31453812596436 185.30317344665266 -115.56631899999988
    vertex 134.62953185184787 187.27961937217287 -86.5663189999999
    vertex 134.62953185184787 187.27961937217287 -115.56631899999988
  endloop
endfacet
facet normal -0.4917124032630638 -0.8707576657585407 -0.0
  outer loop
    vertex 138.43542949454437 171.37169524904482 -86.5663189999999
    vertex 136.3683111345484 172.53898642154044 -115.56631899999988
    vertex 138.43542949454437 171.37169524904482 -115.56631899999988
  endloop
endfacet
facet normal -0.4917124032630638 -0.8707576657585407 -0.0
  outer loop
    vertex 136.3683111345484 172.53898642154044 -115.56631899999988
    vertex 138.43542949454437 171.37169524904482 -86.5663189999999
    vertex 136.3683111345484 172.53898642154044 -86.5663189999999
  endloop
endfacet
facet normal -1.0 2.093218425874321e-15 1.5870166101562564e-32
  outer loop
    vertex 132.4955136566792 178.35983152888622 -86.5663189999999
    vertex 132.49551365667924 179.6274169979695 -101.06631899999988
    vertex 132.4955136566792 178.35983152888622 -115.56631899999988
  endloop
endfacet
facet normal -1.0 2.093218425874321e-15 1.5870166101562564e-32
  outer loop
    vertex 132.49551365667924 179.6274169979695 -101.06631899999988
    vertex 132.4955136566792 178.35983152888622 -86.5663189999999
    vertex 132.49551365667924 179.66455784731443 -100.78420624083813
  endloop
endfacet
facet normal -1.0 2.093218425874321e-15 1.5870166101562564e-32
  outer loop
    vertex 132.49551365667924 179.66455784731443 -100.78420624083813
    vertex 132.4955136566792 178.35983152888622 -86.5663189999999
    vertex 132.49551365667924 183.07500246705288 -86.5663189999999
  endloop
endfacet
facet normal -1.0 2.093218425874321e-15 1.5870166101562564e-32
  outer loop
    vertex 132.49551365667924 179.66455784731443 -100.78420624083813
    vertex 132.49551365667924 183.07500246705288 -86.5663189999999
    vertex 132.49551365667924 179.77344930784452 -100.52131899999988
  endloop
endfacet
facet normal -1.0 2.093218425874321e-15 1.5870166101562564e-32
  outer loop
    vertex 132.49551365667924 179.77344930784452 -100.52131899999988
    vertex 132.49551365667924 183.07500246705288 -86.5663189999999
    vertex 132.49551365667924 179.94667060647618 -100.29557260850655
  endloop
endfacet
facet normal -1.0 2.093218425874321e-15 1.5870166101562564e-32
  outer loop
    vertex 132.49551365667924 179.94667060647618 -100.29557260850655
    vertex 132.49551365667924 183.07500246705288 -86.5663189999999
    vertex 132.49551365667924 180.17241699796952 -100.12235130987484
  endloop
endfacet
facet normal -1.0 2.093218425874321e-15 1.5870166101562564e-32
  outer loop
    vertex 132.49551365667924 180.17241699796952 -100.12235130987484
    vertex 132.49551365667924 183.07500246705288 -86.5663189999999
    vertex 132.49551365667924 180.43530423880776 -100.0134598493448
  endloop
endfacet
facet normal -1.0 2.093218425874321e-15 1.5870166101562564e-32
  outer loop
    vertex 132.49551365667924 180.43530423880776 -100.0134598493448
    vertex 132.49551365667924 183.07500246705288 -86.5663189999999
    vertex 132.49551365667924 180.7174169979695 -99.97631899999988
  endloop
endfacet
facet normal -1.0 2.093218425874321e-15 1.5870166101562564e-32
  outer loop
    vertex 132.49551365667924 180.7174169979695 -99.97631899999988
    vertex 132.49551365667924 183.07500246705288 -86.5663189999999
    vertex 132.49551365667924 180.99952975713128 -100.0134598493448
  endloop
endfacet
facet normal -1.0 2.093218425874321e-15 1.5870166101562564e-32
  outer loop
    vertex 132.49551365667924 180.99952975713128 -100.0134598493448
    vertex 132.49551365667924 183.07500246705288 -86.5663189999999
    vertex 132.49551365667924 181.26241699796952 -100.12235130987484
  endloop
endfacet
facet normal -1.0 2.093218425874321e-15 1.5870166101562564e-32
  outer loop
    vertex 132.49551365667924 181.26241699796952 -100.12235130987484
    vertex 132.49551365667924 183.07500246705288 -86.5663189999999
    vertex 132.49551365667924 181.48816338946287 -100.29557260850655
  endloop
endfacet
facet normal -1.0 2.093218425874321e-15 1.5870166101562564e-32
  outer loop
    vertex 132.49551365667924 181.48816338946287 -100.29557260850655
    vertex 132.49551365667924 183.07500246705288 -86.5663189999999
    vertex 132.49551365667924 181.66138468809453 -100.52131899999988
  endloop
endfacet
facet normal -1.0 2.093218425874321e-15 1.5870166101562564e-32
  outer loop
    vertex 132.49551365667924 181.66138468809453 -100.52131899999988
    vertex 132.49551365667924 183.07500246705288 -86.5663189999999
    vertex 132.49551365667924 181.77027614862462 -100.78420624083813
  endloop
endfacet
facet normal -1.0 2.093218425874321e-15 1.5870166101562564e-32
  outer loop
    vertex 132.49551365667924 181.77027614862462 -100.78420624083813
    vertex 132.49551365667924 183.07500246705288 -86.5663189999999
    vertex 132.49551365667924 181.8074169979695 -101.06631899999988
  endloop
endfacet
facet normal -1.0 2.093218425874321e-15 1.5870166101562564e-32
  outer loop
    vertex 132.4955136566792 178.35983152888622 -115.56631899999988
    vertex 132.49551365667924 179.66455784731443 -101.34843175916163
    vertex 132.49551365667924 183.07500246705288 -115.56631899999988
  endloop
endfacet
facet normal -1.0 2.093218425874321e-15 1.5870166101562564e-32
  outer loop
    vertex 132.49551365667924 179.66455784731443 -101.34843175916163
    vertex 132.4955136566792 178.35983152888622 -115.56631899999988
    vertex 132.49551365667924 179.6274169979695 -101.06631899999988
  endloop
endfacet
facet normal -1.0 2.093218425874321e-15 1.5870166101562564e-32
  outer loop
    vertex 132.49551365667924 183.07500246705288 -115.56631899999988
    vertex 132.49551365667924 179.66455784731443 -101.34843175916163
    vertex 132.49551365667924 179.77344930784452 -101.61131899999988
  endloop
endfacet
facet normal -1.0 2.093218425874321e-15 1.5870166101562564e-32
  outer loop
    vertex 132.49551365667924 183.07500246705288 -115.56631899999988
    vertex 132.49551365667924 179.77344930784452 -101.61131899999988
    vertex 132.49551365667924 179.94667060647618 -101.83706539149323
  endloop
endfacet
facet normal -1.0 2.093218425874321e-15 1.5870166101562564e-32
  outer loop
    vertex 132.49551365667924 183.07500246705288 -115.56631899999988
    vertex 132.49551365667924 179.94667060647618 -101.83706539149323
    vertex 132.49551365667924 180.17241699796952 -102.0102866901249
  endloop
endfacet
facet normal -1.0 2.093218425874321e-15 1.5870166101562564e-32
  outer loop
    vertex 132.49551365667924 183.07500246705288 -115.56631899999988
    vertex 132.49551365667924 180.17241699796952 -102.0102866901249
    vertex 132.49551365667924 180.43530423880776 -102.11917815065496
  endloop
endfacet
facet normal -1.0 2.093218425874321e-15 1.5870166101562564e-32
  outer loop
    vertex 132.49551365667924 183.07500246705288 -115.56631899999988
    vertex 132.49551365667924 180.43530423880776 -102.11917815065496
    vertex 132.49551365667924 180.7174169979695 -102.15631899999988
  endloop
endfacet
facet normal -1.0 2.093218425874321e-15 1.5870166101562564e-32
  outer loop
    vertex 132.49551365667924 183.07500246705288 -115.56631899999988
    vertex 132.49551365667924 180.7174169979695 -102.15631899999988
    vertex 132.49551365667924 180.99952975713128 -102.11917815065496
  endloop
endfacet
facet normal -1.0 2.093218425874321e-15 1.5870166101562564e-32
  outer loop
    vertex 132.49551365667924 183.07500246705288 -115.56631899999988
    vertex 132.49551365667924 180.99952975713128 -102.11917815065496
    vertex 132.49551365667924 181.26241699796952 -102.0102866901249
  endloop
endfacet
facet normal -1.0 2.093218425874321e-15 1.5870166101562564e-32
  outer loop
    vertex 132.49551365667924 183.07500246705288 -115.56631899999988
    vertex 132.49551365667924 181.26241699796952 -102.0102866901249
    vertex 132.49551365667924 181.48816338946287 -101.83706539149323
  endloop
endfacet
facet normal -1.0 2.093218425874321e-15 1.5870166101562564e-32
  outer loop
    vertex 132.49551365667924 183.07500246705288 -115.56631899999988
    vertex 132.49551365667924 181.48816338946287 -101.83706539149323
    vertex 132.49551365667924 181.66138468809453 -101.61131899999988
  endloop
endfacet
facet normal -1.0 2.093218425874321e-15 1.5870166101562564e-32
  outer loop
    vertex 132.49551365667924 183.07500246705288 -115.56631899999988
    vertex 132.49551365667924 181.66138468809453 -101.61131899999988
    vertex 132.49551365667924 181.77027614862462 -101.34843175916163
  endloop
endfacet
facet normal -1.0 2.093218425874321e-15 1.5870166101562564e-32
  outer loop
    vertex 132.49551365667924 183.07500246705288 -115.56631899999988
    vertex 132.49551365667924 181.77027614862462 -101.34843175916163
    vertex 132.49551365667924 181.8074169979695 -101.06631899999988
  endloop
endfacet
facet normal -1.0 2.093218425874321e-15 1.5870166101562564e-32
  outer loop
    vertex 132.49551365667924 183.07500246705288 -115.56631899999988
    vertex 132.49551365667924 181.8074169979695 -101.06631899999988
    vertex 132.49551365667924 183.07500246705288 -86.5663189999999
  endloop
endfacet
facet normal -0.27560966691043043 -0.9612696351729424 -6.396124689517334e-19
  outer loop
    vertex 140.71741699796945 170.71741699796954 -86.5663189999999
    vertex 138.43542949454437 171.37169524904482 -115.56631899999988
    vertex 140.71741699796945 170.71741699796954 -115.56631899999988
  endloop
endfacet
facet normal -0.27560966691043043 -0.9612696351729424 -6.396124689517334e-19
  outer loop
    vertex 138.43542949454437 171.37169524904482 -115.56631899999988
    vertex 140.71741699796945 170.71741699796954 -86.5663189999999
    vertex 138.43542949454437 171.37169524904482 -86.5663189999999
  endloop
endfacet
facet normal -0.6808236644494652 0.7324473618804304 0.0
  outer loop
    vertex 134.62953185184787 187.27961937217287 -86.5663189999999
    vertex 136.36831113454843 188.8958475743986 -115.56631899999988
    vertex 134.62953185184787 187.27961937217287 -115.56631899999988
  endloop
endfacet
facet normal -0.6808236644494652 0.7324473618804304 0.0
  outer loop
    vertex 136.36831113454843 188.8958475743986 -115.56631899999988
    vertex 134.62953185184787 187.27961937217287 -86.5663189999999
    vertex 136.36831113454843 188.8958475743986 -86.5663189999999
  endloop
endfacet
facet normal -0.938599839590722 0.3450077406671782 -2.192418702041196e-32
  outer loop
    vertex 133.31453812596436 185.30317344665266 -86.5663189999999
    vertex 132.49551365667924 183.07500246705288 -115.56631899999988
    vertex 132.49551365667924 183.07500246705288 -86.5663189999999
  endloop
endfacet
facet normal -0.938599839590722 0.3450077406671782 -2.192418702041196e-32
  outer loop
    vertex 132.49551365667924 183.07500246705288 -115.56631899999988
    vertex 133.31453812596436 185.30317344665266 -86.5663189999999
    vertex 133.31453812596436 185.30317344665266 -115.56631899999988
  endloop
endfacet
facet normal -0.38268343236507774 -0.9238795325112917 -7.830702588752206e-32
  outer loop
    vertex 143.26241699796947 185.12548630323232 -86.5663189999999
    vertex 142.03480593754128 185.63397945378085 -115.56631899999988
    vertex 143.26241699796947 185.12548630323232 -115.56631899999988
  endloop
endfacet
facet normal -0.38268343236507774 -0.9238795325112917 -7.830702588752206e-32
  outer loop
    vertex 142.03480593754128 185.63397945378085 -115.56631899999988
    vertex 143.26241699796947 185.12548630323232 -86.5663189999999
    vertex 142.03480593754128 185.63397945378085 -86.5663189999999
  endloop
endfacet
facet normal -0.13052619222006082 -0.9914448613738093 -2.6709068249981163e-32
  outer loop
    vertex 142.03480593754128 185.63397945378085 -86.5663189999999
    vertex 140.71741699796945 185.8074169979695 -115.56631899999988
    vertex 142.03480593754128 185.63397945378085 -115.56631899999988
  endloop
endfacet
facet normal -0.13052619222006082 -0.9914448613738093 -2.6709068249981163e-32
  outer loop
    vertex 140.71741699796945 185.8074169979695 -115.56631899999988
    vertex 142.03480593754128 185.63397945378085 -86.5663189999999
    vertex 140.71741699796945 185.8074169979695 -86.5663189999999
  endloop
endfacet
facet normal -0.9914448613738106 -0.13052619222005027 -2.0287551500683888e-31
  outer loop
    vertex 145.6339794537808 182.03480593754136 -86.5663189999999
    vertex 145.80741699796945 180.7174169979695 -115.56631899999988
    vertex 145.80741699796945 180.7174169979695 -86.5663189999999
  endloop
endfacet
facet normal -0.9914448613738106 -0.13052619222005027 -2.0287551500683888e-31
  outer loop
    vertex 145.80741699796945 180.7174169979695 -115.56631899999988
    vertex 145.6339794537808 182.03480593754136 -86.5663189999999
    vertex 145.6339794537808 182.03480593754136 -115.56631899999988
  endloop
endfacet
facet normal -0.7933533402912348 0.6087614290087211 -1.6234081567678388e-31
  outer loop
    vertex 145.12548630323226 178.17241699796952 -86.5663189999999
    vertex 144.316590514209 177.11824348173 -115.56631899999988
    vertex 144.316590514209 177.11824348173 -86.5663189999999
  endloop
endfacet
facet normal -0.7933533402912348 0.6087614290087211 -1.6234081567678388e-31
  outer loop
    vertex 144.316590514209 177.11824348173 -115.56631899999988
    vertex 145.12548630323226 178.17241699796952 -86.5663189999999
    vertex 145.12548630323226 178.17241699796952 -115.56631899999988
  endloop
endfacet
facet normal -0.7933533402912389 -0.6087614290087158 -1.623408156767844e-31
  outer loop
    vertex 144.316590514209 184.31659051420905 -86.5663189999999
    vertex 145.12548630323226 183.26241699796952 -115.56631899999988
    vertex 145.12548630323226 183.26241699796952 -86.5663189999999
  endloop
endfacet
facet normal -0.7933533402912389 -0.6087614290087158 -1.623408156767844e-31
  outer loop
    vertex 145.12548630323226 183.26241699796952 -115.56631899999988
    vertex 144.316590514209 184.31659051420905 -86.5663189999999
    vertex 144.316590514209 184.31659051420905 -115.56631899999988
  endloop
endfacet
facet normal -0.6087614290087199 0.7933533402912357 -1.2456848911931415e-31
  outer loop
    vertex 143.26241699796947 176.30934769270672 -86.5663189999999
    vertex 144.316590514209 177.11824348173 -115.56631899999988
    vertex 143.26241699796947 176.30934769270672 -115.56631899999988
  endloop
endfacet
facet normal -0.6087614290087199 0.7933533402912357 -1.2456848911931415e-31
  outer loop
    vertex 144.316590514209 177.11824348173 -115.56631899999988
    vertex 143.26241699796947 176.30934769270672 -86.5663189999999
    vertex 144.316590514209 177.11824348173 -86.5663189999999
  endloop
endfacet
facet normal -0.38268343236507774 0.9238795325112917 -7.830702588752256e-32
  outer loop
    vertex 142.03480593754128 175.8008545421582 -86.5663189999999
    vertex 143.26241699796947 176.30934769270672 -115.56631899999988
    vertex 142.03480593754128 175.8008545421582 -115.56631899999988
  endloop
endfacet
facet normal -0.38268343236507774 0.9238795325112917 -7.830702588752256e-32
  outer loop
    vertex 143.26241699796947 176.30934769270672 -115.56631899999988
    vertex 142.03480593754128 175.8008545421582 -86.5663189999999
    vertex 143.26241699796947 176.30934769270672 -86.5663189999999
  endloop
endfacet
facet normal -0.6087614290087199 -0.7933533402912357 -1.2456848911931374e-31
  outer loop
    vertex 144.316590514209 184.31659051420905 -86.5663189999999
    vertex 143.26241699796947 185.12548630323232 -115.56631899999988
    vertex 144.316590514209 184.31659051420905 -115.56631899999988
  endloop
endfacet
facet normal -0.6087614290087199 -0.7933533402912357 -1.2456848911931374e-31
  outer loop
    vertex 143.26241699796947 185.12548630323232 -115.56631899999988
    vertex 144.316590514209 184.31659051420905 -86.5663189999999
    vertex 143.26241699796947 185.12548630323232 -86.5663189999999
  endloop
endfacet
facet normal -0.9238795325112912 0.382683432365079 -1.8904988392676434e-31
  outer loop
    vertex 145.6339794537808 179.4000280583977 -86.5663189999999
    vertex 145.12548630323226 178.17241699796952 -115.56631899999988
    vertex 145.12548630323226 178.17241699796952 -86.5663189999999
  endloop
endfacet
facet normal -0.9238795325112912 0.382683432365079 -1.8904988392676434e-31
  outer loop
    vertex 145.12548630323226 178.17241699796952 -115.56631899999988
    vertex 145.6339794537808 179.4000280583977 -86.5663189999999
    vertex 145.6339794537808 179.4000280583977 -115.56631899999988
  endloop
endfacet
facet normal 0.13052619222006082 -0.9914448613738093 2.67090682499817e-32
  outer loop
    vertex 140.71741699796945 185.8074169979695 -86.5663189999999
    vertex 139.40002805839762 185.63397945378085 -115.56631899999988
    vertex 140.71741699796945 185.8074169979695 -115.56631899999988
  endloop
endfacet
facet normal 0.13052619222006082 -0.9914448613738093 2.67090682499817e-32
  outer loop
    vertex 139.40002805839762 185.63397945378085 -115.56631899999988
    vertex 140.71741699796945 185.8074169979695 -86.5663189999999
    vertex 139.40002805839762 185.63397945378085 -86.5663189999999
  endloop
endfacet
facet normal 0.38268343236507774 -0.9238795325112917 7.830702588752256e-32
  outer loop
    vertex 139.40002805839762 185.63397945378085 -86.5663189999999
    vertex 138.17241699796946 185.12548630323232 -115.56631899999988
    vertex 139.40002805839762 185.63397945378085 -115.56631899999988
  endloop
endfacet
facet normal 0.38268343236507774 -0.9238795325112917 7.830702588752256e-32
  outer loop
    vertex 138.17241699796946 185.12548630323232 -115.56631899999988
    vertex 139.40002805839762 185.63397945378085 -86.5663189999999
    vertex 138.17241699796946 185.12548630323232 -86.5663189999999
  endloop
endfacet
facet normal -0.9914448613738102 0.13052619222005468 -2.0287551500683883e-31
  outer loop
    vertex 145.80741699796945 180.7174169979695 -86.5663189999999
    vertex 145.6339794537808 179.4000280583977 -115.56631899999988
    vertex 145.6339794537808 179.4000280583977 -86.5663189999999
  endloop
endfacet
facet normal -0.9914448613738102 0.13052619222005468 -2.0287551500683883e-31
  outer loop
    vertex 145.6339794537808 179.4000280583977 -115.56631899999988
    vertex 145.80741699796945 180.7174169979695 -86.5663189999999
    vertex 145.80741699796945 180.7174169979695 -115.56631899999988
  endloop
endfacet
facet normal -0.9238795325112833 -0.38268343236509833 -1.8904988392676255e-31
  outer loop
    vertex 145.12548630323226 183.26241699796952 -86.5663189999999
    vertex 145.6339794537808 182.03480593754136 -115.56631899999988
    vertex 145.6339794537808 182.03480593754136 -86.5663189999999
  endloop
endfacet
facet normal -0.9238795325112833 -0.38268343236509833 -1.8904988392676255e-31
  outer loop
    vertex 145.6339794537808 182.03480593754136 -115.56631899999988
    vertex 145.12548630323226 183.26241699796952 -86.5663189999999
    vertex 145.12548630323226 183.26241699796952 -115.56631899999988
  endloop
endfacet
facet normal 0.0 0.7933533402912724 -0.6087614290086725
  outer loop
    vertex 132.49551365667924 179.94667060647618 -100.29557260850655
    vertex 135.49551365667924 179.77344930784452 -100.52131899999988
    vertex 132.49551365667924 179.77344930784452 -100.52131899999988
  endloop
endfacet
facet normal 0.0 0.7933533402912724 -0.6087614290086725
  outer loop
    vertex 135.49551365667924 179.77344930784452 -100.52131899999988
    vertex 132.49551365667924 179.94667060647618 -100.29557260850655
    vertex 135.49551365667924 179.94667060647618 -100.29557260850655
  endloop
endfacet
facet normal -1.3270430506107762e-15 0.0 -1.0
  outer loop
    vertex 154.56741699796945 190.7174169979695 -97.91631899999987
    vertex 151.56741699796947 170.71741699796954 -97.91631899999987
    vertex 151.56741699796947 190.7174169979695 -97.91631899999987
  endloop
endfacet
facet normal -1.3270430506107762e-15 0.0 -1.0
  outer loop
    vertex 151.56741699796947 170.71741699796954 -97.91631899999987
    vertex 154.56741699796945 190.7174169979695 -97.91631899999987
    vertex 154.56741699796945 170.71741699796954 -97.91631899999987
  endloop
endfacet
facet normal 1.0 0.0 0.0
  outer loop
    vertex 151.56741699796947 190.7174169979695 -89.7163189999999
    vertex 151.56741699796947 170.71741699796954 -86.5663189999999
    vertex 151.56741699796947 170.71741699796954 -89.7163189999999
  endloop
endfacet
facet normal 1.0 0.0 0.0
  outer loop
    vertex 151.56741699796947 170.71741699796954 -86.5663189999999
    vertex 151.56741699796947 190.7174169979695 -89.7163189999999
    vertex 151.56741699796947 190.7174169979695 -86.5663189999999
  endloop
endfacet
facet normal 1.0 0.0 -1.3270430506107764e-15
  outer loop
    vertex 154.56741699796945 190.7174169979695 -97.91631899999987
    vertex 154.56741699796945 170.71741699796954 -89.7163189999999
    vertex 154.56741699796945 170.71741699796954 -97.91631899999987
  endloop
endfacet
facet normal 1.0 0.0 -1.3270430506107764e-15
  outer loop
    vertex 154.56741699796945 170.71741699796954 -89.7163189999999
    vertex 154.56741699796945 190.7174169979695 -97.91631899999987
    vertex 154.56741699796945 190.7174169979695 -89.7163189999999
  endloop
endfacet
facet normal 0.0 -1.0 0.0
  outer loop
    vertex 151.56741699796947 170.71741699796954 -97.91631899999987
    vertex 148.71741699796945 170.71741699796954 -104.06631899999988
    vertex 151.56741699796947 170.71741699796954 -104.06631899999988
  endloop
endfacet
facet normal 0.0 -1.0 0.0
  outer loop
    vertex 154.56741699796945 170.71741699796954 -89.7163189999999
    vertex 151.56741699796947 170.71741699796954 -97.91631899999987
    vertex 154.56741699796945 170.71741699796954 -97.91631899999987
  endloop
endfacet
facet normal 0.0 -1.0 0.0
  outer loop
    vertex 151.71741699796945 170.71741699796954 -112.5663189999999
    vertex 140.71741699796945 170.71741699796954 -115.56631899999988
    vertex 151.71741699796945 170.71741699796954 -115.56631899999988
  endloop
endfacet
facet normal 0.0 -1.0 0.0
  outer loop
    vertex 140.71741699796945 170.71741699796954 -115.56631899999988
    vertex 151.71741699796945 170.71741699796954 -112.5663189999999
    vertex 148.71741699796945 170.71741699796954 -112.5663189999999
  endloop
endfacet
facet normal 0.0 -1.0 0.0
  outer loop
    vertex 140.71741699796945 170.71741699796954 -115.56631899999988
    vertex 148.71741699796945 170.71741699796954 -112.5663189999999
    vertex 140.71741699796945 170.71741699796954 -86.5663189999999
  endloop
endfacet
facet normal 0.0 -1.0 0.0
  outer loop
    vertex 140.71741699796945 170.71741699796954 -86.5663189999999
    vertex 148.71741699796945 170.71741699796954 -112.5663189999999
    vertex 148.71741699796945 170.71741699796954 -104.06631899999988
  endloop
endfacet
facet normal 0.0 -1.0 0.0
  outer loop
    vertex 140.71741699796945 170.71741699796954 -86.5663189999999
    vertex 148.71741699796945 170.71741699796954 -104.06631899999988
    vertex 151.56741699796947 170.71741699796954 -97.91631899999987
  endloop
endfacet
facet normal 0.0 -1.0 0.0
  outer loop
    vertex 140.71741699796945 170.71741699796954 -86.5663189999999
    vertex 151.56741699796947 170.71741699796954 -97.91631899999987
    vertex 151.56741699796947 170.71741699796954 -89.7163189999999
  endloop
endfacet
facet normal 0.0 -1.0 0.0
  outer loop
    vertex 151.56741699796947 170.71741699796954 -89.7163189999999
    vertex 151.56741699796947 170.71741699796954 -97.91631899999987
    vertex 154.56741699796945 170.71741699796954 -89.7163189999999
  endloop
endfacet
facet normal 0.0 -1.0 0.0
  outer loop
    vertex 140.71741699796945 170.71741699796954 -86.5663189999999
    vertex 151.56741699796947 170.71741699796954 -89.7163189999999
    vertex 151.56741699796947 170.71741699796954 -86.5663189999999
  endloop
endfacet
facet normal 1.3270430506107762e-15 0.0 1.0
  outer loop
    vertex 154.56741699796945 170.71741699796954 -89.7163189999999
    vertex 151.56741699796947 190.7174169979695 -89.7163189999999
    vertex 151.56741699796947 170.71741699796954 -89.7163189999999
  endloop
endfacet
facet normal 1.3270430506107762e-15 0.0 1.0
  outer loop
    vertex 151.56741699796947 190.7174169979695 -89.7163189999999
    vertex 154.56741699796945 170.71741699796954 -89.7163189999999
    vertex 154.56741699796945 190.7174169979695 -89.7163189999999
  endloop
endfacet
facet normal 1.0 0.0 0.0
  outer loop
    vertex 148.71741699796945 190.71741699796945 -112.5663189999999
    vertex 148.71741699796945 170.71741699796954 -104.06631899999988
    vertex 148.71741699796945 170.71741699796954 -112.5663189999999
  endloop
endfacet
facet normal 1.0 0.0 0.0
  outer loop
    vertex 148.71741699796945 170.71741699796954 -104.06631899999988
    vertex 148.71741699796945 190.71741699796945 -112.5663189999999
    vertex 148.71741699796945 190.71741699796945 -104.06631899999988
  endloop
endfacet
facet normal 0.0 0.0 -1.0
  outer loop
    vertex 151.56741699796947 190.71741699796945 -104.06631899999988
    vertex 148.71741699796945 170.71741699796954 -104.06631899999988
    vertex 148.71741699796945 190.71741699796945 -104.06631899999988
  endloop
endfacet
facet normal 0.0 0.0 -1.0
  outer loop
    vertex 148.71741699796945 170.71741699796954 -104.06631899999988
    vertex 151.56741699796947 190.71741699796945 -104.06631899999988
    vertex 151.56741699796947 170.71741699796954 -104.06631899999988
  endloop
endfacet
facet normal 1.0 -6.809080636806262e-32 3.759955310063872e-15
  outer loop
    vertex 151.71741699796945 190.7174169979695 -115.56631899999988
    vertex 151.71741699796945 170.71741699796954 -112.5663189999999
    vertex 151.71741699796945 170.71741699796954 -115.56631899999988
  endloop
endfacet
facet normal 1.0 -6.809080636806262e-32 3.759955310063872e-15
  outer loop
    vertex 151.71741699796945 170.71741699796954 -112.5663189999999
    vertex 151.71741699796945 190.7174169979695 -115.56631899999988
    vertex 151.71741699796945 190.71741699796945 -112.5663189999999
  endloop
endfacet
facet normal 0.0 0.0 1.0
  outer loop
    vertex 151.71741699796945 170.71741699796954 -112.5663189999999
    vertex 148.71741699796945 190.71741699796945 -112.5663189999999
    vertex 148.71741699796945 170.71741699796954 -112.5663189999999
  endloop
endfacet
facet normal 0.0 0.0 1.0
  outer loop
    vertex 148.71741699796945 190.71741699796945 -112.5663189999999
    vertex 151.71741699796945 170.71741699796954 -112.5663189999999
    vertex 151.71741699796945 190.71741699796945 -112.5663189999999
  endloop
endfacet
facet normal 1.0 0.0 0.0
  outer loop
    vertex 151.56741699796947 190.71741699796945 -104.06631899999988
    vertex 151.56741699796947 170.71741699796954 -97.91631899999987
    vertex 151.56741699796947 170.71741699796954 -104.06631899999988
  endloop
endfacet
facet normal 1.0 0.0 0.0
  outer loop
    vertex 151.56741699796947 170.71741699796954 -97.91631899999987
    vertex 151.56741699796947 190.71741699796945 -104.06631899999988
    vertex 151.56741699796947 190.7174169979695 -97.91631899999987
  endloop
endfacet
facet normal 0.0 0.0 1.0
  outer loop
    vertex 133.31453812596436 176.13166054928638 -86.5663189999999
    vertex 132.49551365667924 183.07500246705288 -86.5663189999999
    vertex 132.4955136566792 178.35983152888622 -86.5663189999999
  endloop
endfacet
facet normal 0.0 0.0 1.0
  outer loop
    vertex 132.49551365667924 183.07500246705288 -86.5663189999999
    vertex 133.31453812596436 176.13166054928638 -86.5663189999999
    vertex 133.31453812596436 185.30317344665266 -86.5663189999999
  endloop
endfacet
facet normal 0.0 0.0 1.0
  outer loop
    vertex 133.31453812596436 185.30317344665266 -86.5663189999999
    vertex 133.31453812596436 176.13166054928638 -86.5663189999999
    vertex 134.62953185184787 174.15521462376617 -86.5663189999999
  endloop
endfacet
facet normal 0.0 0.0 1.0
  outer loop
    vertex 133.31453812596436 185.30317344665266 -86.5663189999999
    vertex 134.62953185184787 174.15521462376617 -86.5663189999999
    vertex 134.62953185184787 187.27961937217287 -86.5663189999999
  endloop
endfacet
facet normal 0.0 0.0 1.0
  outer loop
    vertex 134.62953185184787 187.27961937217287 -86.5663189999999
    vertex 134.62953185184787 174.15521462376617 -86.5663189999999
    vertex 136.3683111345484 172.53898642154044 -86.5663189999999
  endloop
endfacet
facet normal 0.0 0.0 1.0
  outer loop
    vertex 134.62953185184787 187.27961937217287 -86.5663189999999
    vertex 136.3683111345484 172.53898642154044 -86.5663189999999
    vertex 135.62741699796945 180.7174169979695 -86.5663189999999
  endloop
endfacet
facet normal 0.0 0.0 1.0
  outer loop
    vertex 135.62741699796945 180.7174169979695 -86.5663189999999
    vertex 136.3683111345484 172.53898642154044 -86.5663189999999
    vertex 135.8008545421581 179.40002805839768 -86.5663189999999
  endloop
endfacet
facet normal 0.0 0.0 1.0
  outer loop
    vertex 135.8008545421581 179.40002805839768 -86.5663189999999
    vertex 136.3683111345484 172.53898642154044 -86.5663189999999
    vertex 136.30934769270667 178.17241699796952 -86.5663189999999
  endloop
endfacet
facet normal 0.0 0.0 1.0
  outer loop
    vertex 136.30934769270667 178.17241699796952 -86.5663189999999
    vertex 136.3683111345484 172.53898642154044 -86.5663189999999
    vertex 137.11824348172993 177.11824348173 -86.5663189999999
  endloop
endfacet
facet normal 0.0 0.0 1.0
  outer loop
    vertex 137.11824348172993 177.11824348173 -86.5663189999999
    vertex 136.3683111345484 172.53898642154044 -86.5663189999999
    vertex 138.43542949454437 171.37169524904482 -86.5663189999999
  endloop
endfacet
facet normal 0.0 0.0 1.0
  outer loop
    vertex 137.11824348172993 177.11824348173 -86.5663189999999
    vertex 138.43542949454437 171.37169524904482 -86.5663189999999
    vertex 138.17241699796946 176.30934769270672 -86.5663189999999
  endloop
endfacet
facet normal 0.0 0.0 1.0
  outer loop
    vertex 138.17241699796946 176.30934769270672 -86.5663189999999
    vertex 138.43542949454437 171.37169524904482 -86.5663189999999
    vertex 139.40002805839762 175.8008545421582 -86.5663189999999
  endloop
endfacet
facet normal 0.0 0.0 1.0
  outer loop
    vertex 139.40002805839762 175.8008545421582 -86.5663189999999
    vertex 138.43542949454437 171.37169524904482 -86.5663189999999
    vertex 140.71741699796945 170.71741699796954 -86.5663189999999
  endloop
endfacet
facet normal 0.0 0.0 1.0
  outer loop
    vertex 139.40002805839762 175.8008545421582 -86.5663189999999
    vertex 140.71741699796945 170.71741699796954 -86.5663189999999
    vertex 140.71741699796945 175.62741699796953 -86.5663189999999
  endloop
endfacet
facet normal 0.0 0.0 1.0
  outer loop
    vertex 140.71741699796945 175.62741699796953 -86.5663189999999
    vertex 140.71741699796945 170.71741699796954 -86.5663189999999
    vertex 151.56741699796947 170.71741699796954 -86.5663189999999
  endloop
endfacet
facet normal 0.0 0.0 1.0
  outer loop
    vertex 140.71741699796945 175.62741699796953 -86.5663189999999
    vertex 151.56741699796947 170.71741699796954 -86.5663189999999
    vertex 142.03480593754128 175.8008545421582 -86.5663189999999
  endloop
endfacet
facet normal 0.0 0.0 1.0
  outer loop
    vertex 142.03480593754128 175.8008545421582 -86.5663189999999
    vertex 151.56741699796947 170.71741699796954 -86.5663189999999
    vertex 143.26241699796947 176.30934769270672 -86.5663189999999
  endloop
endfacet
facet normal 0.0 0.0 1.0
  outer loop
    vertex 143.26241699796947 176.30934769270672 -86.5663189999999
    vertex 151.56741699796947 170.71741699796954 -86.5663189999999
    vertex 144.316590514209 177.11824348173 -86.5663189999999
  endloop
endfacet
facet normal 0.0 0.0 1.0
  outer loop
    vertex 144.316590514209 177.11824348173 -86.5663189999999
    vertex 151.56741699796947 170.71741699796954 -86.5663189999999
    vertex 145.12548630323226 178.17241699796952 -86.5663189999999
  endloop
endfacet
facet normal 0.0 0.0 1.0
  outer loop
    vertex 145.12548630323226 178.17241699796952 -86.5663189999999
    vertex 151.56741699796947 170.71741699796954 -86.5663189999999
    vertex 145.6339794537808 179.4000280583977 -86.5663189999999
  endloop
endfacet
facet normal 0.0 0.0 1.0
  outer loop
    vertex 145.6339794537808 179.4000280583977 -86.5663189999999
    vertex 151.56741699796947 170.71741699796954 -86.5663189999999
    vertex 145.80741699796945 180.7174169979695 -86.5663189999999
  endloop
endfacet
facet normal 0.0 0.0 1.0
  outer loop
    vertex 135.62741699796945 180.7174169979695 -86.5663189999999
    vertex 136.36831113454843 188.8958475743986 -86.5663189999999
    vertex 134.62953185184787 187.27961937217287 -86.5663189999999
  endloop
endfacet
facet normal 0.0 0.0 1.0
  outer loop
    vertex 136.36831113454843 188.8958475743986 -86.5663189999999
    vertex 135.62741699796945 180.7174169979695 -86.5663189999999
    vertex 135.8008545421581 182.03480593754134 -86.5663189999999
  endloop
endfacet
facet normal 0.0 0.0 1.0
  outer loop
    vertex 136.36831113454843 188.8958475743986 -86.5663189999999
    vertex 135.8008545421581 182.03480593754134 -86.5663189999999
    vertex 136.30934769270667 183.26241699796952 -86.5663189999999
  endloop
endfacet
facet normal 0.0 0.0 1.0
  outer loop
    vertex 136.36831113454843 188.8958475743986 -86.5663189999999
    vertex 136.30934769270667 183.26241699796952 -86.5663189999999
    vertex 137.11824348172993 184.31659051420905 -86.5663189999999
  endloop
endfacet
facet normal 0.0 0.0 1.0
  outer loop
    vertex 136.36831113454843 188.8958475743986 -86.5663189999999
    vertex 137.11824348172993 184.31659051420905 -86.5663189999999
    vertex 138.43542949454437 190.06313874689417 -86.5663189999999
  endloop
endfacet
facet normal 0.0 0.0 1.0
  outer loop
    vertex 138.43542949454437 190.06313874689417 -86.5663189999999
    vertex 137.11824348172993 184.31659051420905 -86.5663189999999
    vertex 138.17241699796946 185.12548630323232 -86.5663189999999
  endloop
endfacet
facet normal 0.0 0.0 1.0
  outer loop
    vertex 138.43542949454437 190.06313874689417 -86.5663189999999
    vertex 138.17241699796946 185.12548630323232 -86.5663189999999
    vertex 139.40002805839762 185.63397945378085 -86.5663189999999
  endloop
endfacet
facet normal 0.0 0.0 1.0
  outer loop
    vertex 138.43542949454437 190.06313874689417 -86.5663189999999
    vertex 139.40002805839762 185.63397945378085 -86.5663189999999
    vertex 140.71741699796945 190.7174169979695 -86.5663189999999
  endloop
endfacet
facet normal 0.0 0.0 1.0
  outer loop
    vertex 140.71741699796945 190.7174169979695 -86.5663189999999
    vertex 139.40002805839762 185.63397945378085 -86.5663189999999
    vertex 140.71741699796945 185.8074169979695 -86.5663189999999
  endloop
endfacet
facet normal 0.0 0.0 1.0
  outer loop
    vertex 140.71741699796945 190.7174169979695 -86.5663189999999
    vertex 140.71741699796945 185.8074169979695 -86.5663189999999
    vertex 142.03480593754128 185.63397945378085 -86.5663189999999
  endloop
endfacet
facet normal 0.0 0.0 1.0
  outer loop
    vertex 140.71741699796945 190.7174169979695 -86.5663189999999
    vertex 142.03480593754128 185.63397945378085 -86.5663189999999
    vertex 151.56741699796947 190.7174169979695 -86.5663189999999
  endloop
endfacet
facet normal 0.0 0.0 1.0
  outer loop
    vertex 151.56741699796947 190.7174169979695 -86.5663189999999
    vertex 142.03480593754128 185.63397945378085 -86.5663189999999
    vertex 143.26241699796947 185.12548630323232 -86.5663189999999
  endloop
endfacet
facet normal 0.0 0.0 1.0
  outer loop
    vertex 151.56741699796947 190.7174169979695 -86.5663189999999
    vertex 143.26241699796947 185.12548630323232 -86.5663189999999
    vertex 144.316590514209 184.31659051420905 -86.5663189999999
  endloop
endfacet
facet normal 0.0 0.0 1.0
  outer loop
    vertex 151.56741699796947 190.7174169979695 -86.5663189999999
    vertex 144.316590514209 184.31659051420905 -86.5663189999999
    vertex 145.12548630323226 183.26241699796952 -86.5663189999999
  endloop
endfacet
facet normal 0.0 0.0 1.0
  outer loop
    vertex 151.56741699796947 190.7174169979695 -86.5663189999999
    vertex 145.12548630323226 183.26241699796952 -86.5663189999999
    vertex 145.6339794537808 182.03480593754136 -86.5663189999999
  endloop
endfacet
facet normal 0.0 0.0 1.0
  outer loop
    vertex 151.56741699796947 190.7174169979695 -86.5663189999999
    vertex 145.6339794537808 182.03480593754136 -86.5663189999999
    vertex 145.80741699796945 180.7174169979695 -86.5663189999999
  endloop
endfacet
facet normal 0.0 0.0 1.0
  outer loop
    vertex 151.56741699796947 190.7174169979695 -86.5663189999999
    vertex 145.80741699796945 180.7174169979695 -86.5663189999999
    vertex 151.56741699796947 170.71741699796954 -86.5663189999999
  endloop
endfacet
facet normal -5.268600237574123e-16 1.3457143125914124e-17 -1.0
  outer loop
    vertex 136.36831113454843 188.8958475743986 -115.56631899999988
    vertex 135.62741699796945 180.7174169979695 -115.56631899999988
    vertex 134.62953185184787 187.27961937217287 -115.56631899999988
  endloop
endfacet
facet normal -5.268600237574123e-16 1.3457143125914124e-17 -1.0
  outer loop
    vertex 135.62741699796945 180.7174169979695 -115.56631899999988
    vertex 136.36831113454843 188.8958475743986 -115.56631899999988
    vertex 135.8008545421581 182.03480593754134 -115.56631899999988
  endloop
endfacet
facet normal -5.268600237574123e-16 1.3457143125914124e-17 -1.0
  outer loop
    vertex 135.8008545421581 182.03480593754134 -115.56631899999988
    vertex 136.36831113454843 188.8958475743986 -115.56631899999988
    vertex 136.30934769270667 183.26241699796952 -115.56631899999988
  endloop
endfacet
facet normal -5.268600237574123e-16 1.3457143125914124e-17 -1.0
  outer loop
    vertex 136.30934769270667 183.26241699796952 -115.56631899999988
    vertex 136.36831113454843 188.8958475743986 -115.56631899999988
    vertex 137.11824348172993 184.31659051420905 -115.56631899999988
  endloop
endfacet
facet normal -5.268600237574123e-16 1.3457143125914124e-17 -1.0
  outer loop
    vertex 137.11824348172993 184.31659051420905 -115.56631899999988
    vertex 136.36831113454843 188.8958475743986 -115.56631899999988
    vertex 138.43542949454437 190.06313874689417 -115.56631899999988
  endloop
endfacet
facet normal -5.268600237574123e-16 1.3457143125914124e-17 -1.0
  outer loop
    vertex 137.11824348172993 184.31659051420905 -115.56631899999988
    vertex 138.43542949454437 190.06313874689417 -115.56631899999988
    vertex 138.17241699796946 185.12548630323232 -115.56631899999988
  endloop
endfacet
facet normal -5.268600237574123e-16 1.3457143125914124e-17 -1.0
  outer loop
    vertex 138.17241699796946 185.12548630323232 -115.56631899999988
    vertex 138.43542949454437 190.06313874689417 -115.56631899999988
    vertex 139.40002805839762 185.63397945378085 -115.56631899999988
  endloop
endfacet
facet normal -5.268600237574123e-16 1.3457143125914124e-17 -1.0
  outer loop
    vertex 139.40002805839762 185.63397945378085 -115.56631899999988
    vertex 138.43542949454437 190.06313874689417 -115.56631899999988
    vertex 140.71741699796945 190.7174169979695 -115.56631899999988
  endloop
endfacet
facet normal -5.268600237574123e-16 1.3457143125914124e-17 -1.0
  outer loop
    vertex 139.40002805839762 185.63397945378085 -115.56631899999988
    vertex 140.71741699796945 190.7174169979695 -115.56631899999988
    vertex 140.71741699796945 185.8074169979695 -115.56631899999988
  endloop
endfacet
facet normal -5.268600237574123e-16 1.3457143125914124e-17 -1.0
  outer loop
    vertex 140.71741699796945 185.8074169979695 -115.56631899999988
    vertex 140.71741699796945 190.7174169979695 -115.56631899999988
    vertex 151.71741699796945 190.7174169979695 -115.56631899999988
  endloop
endfacet
facet normal -5.268600237574123e-16 1.3457143125914124e-17 -1.0
  outer loop
    vertex 140.71741699796945 185.8074169979695 -115.56631899999988
    vertex 151.71741699796945 190.7174169979695 -115.56631899999988
    vertex 142.03480593754128 185.63397945378085 -115.56631899999988
  endloop
endfacet
facet normal -5.268600237574123e-16 1.3457143125914124e-17 -1.0
  outer loop
    vertex 142.03480593754128 185.63397945378085 -115.56631899999988
    vertex 151.71741699796945 190.7174169979695 -115.56631899999988
    vertex 143.26241699796947 185.12548630323232 -115.56631899999988
  endloop
endfacet
facet normal -5.268600237574123e-16 1.3457143125914124e-17 -1.0
  outer loop
    vertex 143.26241699796947 185.12548630323232 -115.56631899999988
    vertex 151.71741699796945 190.7174169979695 -115.56631899999988
    vertex 144.316590514209 184.31659051420905 -115.56631899999988
  endloop
endfacet
facet normal -5.268600237574123e-16 1.3457143125914124e-17 -1.0
  outer loop
    vertex 144.316590514209 184.31659051420905 -115.56631899999988
    vertex 151.71741699796945 190.7174169979695 -115.56631899999988
    vertex 145.12548630323226 183.26241699796952 -115.56631899999988
  endloop
endfacet
facet normal -5.268600237574123e-16 1.3457143125914124e-17 -1.0
  outer loop
    vertex 145.12548630323226 183.26241699796952 -115.56631899999988
    vertex 151.71741699796945 190.7174169979695 -115.56631899999988
    vertex 145.6339794537808 182.03480593754136 -115.56631899999988
  endloop
endfacet
facet normal -5.268600237574123e-16 1.3457143125914124e-17 -1.0
  outer loop
    vertex 145.6339794537808 182.03480593754136 -115.56631899999988
    vertex 151.71741699796945 190.7174169979695 -115.56631899999988
    vertex 145.80741699796945 180.7174169979695 -115.56631899999988
  endloop
endfacet
facet normal -5.268600237574123e-16 1.3457143125914124e-17 -1.0
  outer loop
    vertex 132.49551365667924 183.07500246705288 -115.56631899999988
    vertex 133.31453812596436 176.13166054928638 -115.56631899999988
    vertex 132.4955136566792 178.35983152888622 -115.56631899999988
  endloop
endfacet
facet normal -5.268600237574123e-16 1.3457143125914124e-17 -1.0
  outer loop
    vertex 133.31453812596436 176.13166054928638 -115.56631899999988
    vertex 132.49551365667924 183.07500246705288 -115.56631899999988
    vertex 133.31453812596436 185.30317344665266 -115.56631899999988
  endloop
endfacet
facet normal -5.268600237574123e-16 1.3457143125914124e-17 -1.0
  outer loop
    vertex 133.31453812596436 176.13166054928638 -115.56631899999988
    vertex 133.31453812596436 185.30317344665266 -115.56631899999988
    vertex 134.62953185184787 187.27961937217287 -115.56631899999988
  endloop
endfacet
facet normal -5.268600237574123e-16 1.3457143125914124e-17 -1.0
  outer loop
    vertex 133.31453812596436 176.13166054928638 -115.56631899999988
    vertex 134.62953185184787 187.27961937217287 -115.56631899999988
    vertex 134.62953185184787 174.15521462376617 -115.56631899999988
  endloop
endfacet
facet normal -5.268600237574123e-16 1.3457143125914124e-17 -1.0
  outer loop
    vertex 134.62953185184787 174.15521462376617 -115.56631899999988
    vertex 134.62953185184787 187.27961937217287 -115.56631899999988
    vertex 136.3683111345484 172.53898642154044 -115.56631899999988
  endloop
endfacet
facet normal -5.268600237574123e-16 1.3457143125914124e-17 -1.0
  outer loop
    vertex 136.3683111345484 172.53898642154044 -115.56631899999988
    vertex 134.62953185184787 187.27961937217287 -115.56631899999988
    vertex 135.62741699796945 180.7174169979695 -115.56631899999988
  endloop
endfacet
facet normal -5.268600237574123e-16 1.3457143125914124e-17 -1.0
  outer loop
    vertex 136.3683111345484 172.53898642154044 -115.56631899999988
    vertex 135.62741699796945 180.7174169979695 -115.56631899999988
    vertex 135.8008545421581 179.40002805839768 -115.56631899999988
  endloop
endfacet
facet normal -5.268600237574123e-16 1.3457143125914124e-17 -1.0
  outer loop
    vertex 136.3683111345484 172.53898642154044 -115.56631899999988
    vertex 135.8008545421581 179.40002805839768 -115.56631899999988
    vertex 136.30934769270667 178.17241699796952 -115.56631899999988
  endloop
endfacet
facet normal -5.268600237574123e-16 1.3457143125914124e-17 -1.0
  outer loop
    vertex 136.3683111345484 172.53898642154044 -115.56631899999988
    vertex 136.30934769270667 178.17241699796952 -115.56631899999988
    vertex 137.11824348172993 177.11824348173 -115.56631899999988
  endloop
endfacet
facet normal -5.268600237574123e-16 1.3457143125914124e-17 -1.0
  outer loop
    vertex 136.3683111345484 172.53898642154044 -115.56631899999988
    vertex 137.11824348172993 177.11824348173 -115.56631899999988
    vertex 138.43542949454437 171.37169524904482 -115.56631899999988
  endloop
endfacet
facet normal -5.268600237574123e-16 1.3457143125914124e-17 -1.0
  outer loop
    vertex 138.43542949454437 171.37169524904482 -115.56631899999988
    vertex 137.11824348172993 177.11824348173 -115.56631899999988
    vertex 138.17241699796946 176.30934769270672 -115.56631899999988
  endloop
endfacet
facet normal -5.268600237574123e-16 1.3457143125914124e-17 -1.0
  outer loop
    vertex 138.43542949454437 171.37169524904482 -115.56631899999988
    vertex 138.17241699796946 176.30934769270672 -115.56631899999988
    vertex 139.40002805839762 175.8008545421582 -115.56631899999988
  endloop
endfacet
facet normal -5.268600237574123e-16 1.3457143125914124e-17 -1.0
  outer loop
    vertex 138.43542949454437 171.37169524904482 -115.56631899999988
    vertex 139.40002805839762 175.8008545421582 -115.56631899999988
    vertex 140.71741699796945 170.71741699796954 -115.56631899999988
  endloop
endfacet
facet normal -5.268600237574123e-16 1.3457143125914124e-17 -1.0
  outer loop
    vertex 140.71741699796945 170.71741699796954 -115.56631899999988
    vertex 139.40002805839762 175.8008545421582 -115.56631899999988
    vertex 140.71741699796945 175.62741699796953 -115.56631899999988
  endloop
endfacet
facet normal -5.268600237574123e-16 1.3457143125914124e-17 -1.0
  outer loop
    vertex 140.71741699796945 170.71741699796954 -115.56631899999988
    vertex 140.71741699796945 175.62741699796953 -115.56631899999988
    vertex 142.03480593754128 175.8008545421582 -115.56631899999988
  endloop
endfacet
facet normal -5.268600237574123e-16 1.3457143125914124e-17 -1.0
  outer loop
    vertex 140.71741699796945 170.71741699796954 -115.56631899999988
    vertex 142.03480593754128 175.8008545421582 -115.56631899999988
    vertex 151.71741699796945 170.71741699796954 -115.56631899999988
  endloop
endfacet
facet normal -5.268600237574123e-16 1.3457143125914124e-17 -1.0
  outer loop
    vertex 151.71741699796945 170.71741699796954 -115.56631899999988
    vertex 142.03480593754128 175.8008545421582 -115.56631899999988
    vertex 143.26241699796947 176.30934769270672 -115.56631899999988
  endloop
endfacet
facet normal -5.268600237574123e-16 1.3457143125914124e-17 -1.0
  outer loop
    vertex 151.71741699796945 170.71741699796954 -115.56631899999988
    vertex 143.26241699796947 176.30934769270672 -115.56631899999988
    vertex 144.316590514209 177.11824348173 -115.56631899999988
  endloop
endfacet
facet normal -5.268600237574123e-16 1.3457143125914124e-17 -1.0
  outer loop
    vertex 151.71741699796945 170.71741699796954 -115.56631899999988
    vertex 144.316590514209 177.11824348173 -115.56631899999988
    vertex 145.12548630323226 178.17241699796952 -115.56631899999988
  endloop
endfacet
facet normal -5.268600237574123e-16 1.3457143125914124e-17 -1.0
  outer loop
    vertex 151.71741699796945 170.71741699796954 -115.56631899999988
    vertex 145.12548630323226 178.17241699796952 -115.56631899999988
    vertex 145.6339794537808 179.4000280583977 -115.56631899999988
  endloop
endfacet
facet normal -5.268600237574123e-16 1.3457143125914124e-17 -1.0
  outer loop
    vertex 151.71741699796945 170.71741699796954 -115.56631899999988
    vertex 145.6339794537808 179.4000280583977 -115.56631899999988
    vertex 145.80741699796945 180.7174169979695 -115.56631899999988
  endloop
endfacet
facet normal -5.268600237574123e-16 1.3457143125914124e-17 -1.0
  outer loop
    vertex 151.71741699796945 170.71741699796954 -115.56631899999988
    vertex 145.80741699796945 180.7174169979695 -115.56631899999988
    vertex 151.71741699796945 190.7174169979695 -115.56631899999988
  endloop
endfacet
facet normal 1.934932173742503e-15 1.0 -3.5185598599051485e-16
  outer loop
    vertex 140.71741699796945 190.7174169979695 -115.56631899999988
    vertex 151.71741699796945 190.71741699796945 -112.5663189999999
    vertex 151.71741699796945 190.7174169979695 -115.56631899999988
  endloop
endfacet
facet normal 1.934932173742503e-15 1.0 -3.5185598599051485e-16
  outer loop
    vertex 151.71741699796945 190.71741699796945 -112.5663189999999
    vertex 140.71741699796945 190.7174169979695 -115.56631899999988
    vertex 148.71741699796945 190.71741699796945 -112.5663189999999
  endloop
endfacet
facet normal 1.934932173742503e-15 1.0 -3.5185598599051485e-16
  outer loop
    vertex 140.71741699796945 190.7174169979695 -86.5663189999999
    vertex 148.71741699796945 190.71741699796945 -112.5663189999999
    vertex 140.71741699796945 190.7174169979695 -115.56631899999988
  endloop
endfacet
facet normal 1.934932173742503e-15 1.0 -3.5185598599051485e-16
  outer loop
    vertex 148.71741699796945 190.71741699796945 -112.5663189999999
    vertex 140.71741699796945 190.7174169979695 -86.5663189999999
    vertex 148.71741699796945 190.71741699796945 -104.06631899999988
  endloop
endfacet
facet normal 1.934932173742503e-15 1.0 -3.5185598599051485e-16
  outer loop
    vertex 148.71741699796945 190.71741699796945 -104.06631899999988
    vertex 140.71741699796945 190.7174169979695 -86.5663189999999
    vertex 151.56741699796947 190.71741699796945 -104.06631899999988
  endloop
endfacet
facet normal 1.934932173742503e-15 1.0 -3.5185598599051485e-16
  outer loop
    vertex 151.56741699796947 190.71741699796945 -104.06631899999988
    vertex 140.71741699796945 190.7174169979695 -86.5663189999999
    vertex 151.56741699796947 190.7174169979695 -97.91631899999987
  endloop
endfacet
facet normal 1.934932173742503e-15 1.0 -3.5185598599051485e-16
  outer loop
    vertex 151.56741699796947 190.7174169979695 -97.91631899999987
    vertex 140.71741699796945 190.7174169979695 -86.5663189999999
    vertex 154.56741699796945 190.7174169979695 -97.91631899999987
  endloop
endfacet
facet normal 1.934932173742503e-15 1.0 -3.5185598599051485e-16
  outer loop
    vertex 154.56741699796945 190.7174169979695 -97.91631899999987
    vertex 140.71741699796945 190.7174169979695 -86.5663189999999
    vertex 151.56741699796947 190.7174169979695 -89.7163189999999
  endloop
endfacet
facet normal 1.934932173742503e-15 1.0 -3.5185598599051485e-16
  outer loop
    vertex 151.56741699796947 190.7174169979695 -89.7163189999999
    vertex 140.71741699796945 190.7174169979695 -86.5663189999999
    vertex 151.56741699796947 190.7174169979695 -86.5663189999999
  endloop
endfacet
facet normal 1.934932173742503e-15 1.0 -3.5185598599051485e-16
  outer loop
    vertex 154.56741699796945 190.7174169979695 -89.7163189999999
    vertex 154.56741699796945 190.7174169979695 -97.91631899999987
    vertex 151.56741699796947 190.7174169979695 -89.7163189999999
  endloop
endfacet
facet normal 0.13052619222006082 0.9914448613738093 2.6709068249981163e-32
  outer loop
    vertex 139.40002805839762 175.8008545421582 -86.5663189999999
    vertex 140.71741699796945 175.62741699796953 -115.56631899999988
    vertex 139.40002805839762 175.8008545421582 -115.56631899999988
  endloop
endfacet
facet normal 0.13052619222006082 0.9914448613738093 2.6709068249981163e-32
  outer loop
    vertex 140.71741699796945 175.62741699796953 -115.56631899999988
    vertex 139.40002805839762 175.8008545421582 -86.5663189999999
    vertex 140.71741699796945 175.62741699796953 -86.5663189999999
  endloop
endfacet
facet normal -0.0 -0.38268343236510144 -0.9238795325112821
  outer loop
    vertex 135.49551365667924 181.26241699796952 -100.12235130987484
    vertex 132.49551365667924 180.99952975713128 -100.0134598493448
    vertex 132.49551365667924 181.26241699796952 -100.12235130987484
  endloop
endfacet
facet normal -0.0 -0.38268343236510144 -0.9238795325112821
  outer loop
    vertex 132.49551365667924 180.99952975713128 -100.0134598493448
    vertex 135.49551365667924 181.26241699796952 -100.12235130987484
    vertex 135.49551365667924 180.99952975713128 -100.0134598493448
  endloop
endfacet
facet normal 0.9238795325112833 0.38268343236509833 1.8904988392676255e-31
  outer loop
    vertex 135.8008545421581 179.40002805839768 -115.56631899999988
    vertex 136.30934769270667 178.17241699796952 -86.5663189999999
    vertex 136.30934769270667 178.17241699796952 -115.56631899999988
  endloop
endfacet
facet normal 0.9238795325112833 0.38268343236509833 1.8904988392676255e-31
  outer loop
    vertex 136.30934769270667 178.17241699796952 -86.5663189999999
    vertex 135.8008545421581 179.40002805839768 -115.56631899999988
    vertex 135.8008545421581 179.40002805839768 -86.5663189999999
  endloop
endfacet
facet normal -0.0 -0.7933533402912687 -0.6087614290086772
  outer loop
    vertex 135.49551365667924 181.48816338946287 -100.29557260850655
    vertex 132.49551365667924 181.66138468809453 -100.52131899999988
    vertex 135.49551365667924 181.66138468809453 -100.52131899999988
  endloop
endfacet
facet normal -0.0 -0.7933533402912687 -0.6087614290086772
  outer loop
    vertex 132.49551365667924 181.66138468809453 -100.52131899999988
    vertex 135.49551365667924 181.48816338946287 -100.29557260850655
    vertex 132.49551365667924 181.48816338946287 -100.29557260850655
  endloop
endfacet
facet normal -0.0 -0.9238795325112422 -0.38268343236519736
  outer loop
    vertex 135.49551365667924 181.66138468809453 -100.52131899999988
    vertex 132.49551365667924 181.77027614862462 -100.78420624083813
    vertex 135.49551365667924 181.77027614862462 -100.78420624083813
  endloop
endfacet
facet normal -0.0 -0.9238795325112422 -0.38268343236519736
  outer loop
    vertex 132.49551365667924 181.77027614862462 -100.78420624083813
    vertex 135.49551365667924 181.66138468809453 -100.52131899999988
    vertex 132.49551365667924 181.66138468809453 -100.52131899999988
  endloop
endfacet
facet normal -0.0 -0.9914448613738153 -0.13052619222001594
  outer loop
    vertex 135.49551365667924 181.77027614862462 -100.78420624083813
    vertex 132.49551365667924 181.8074169979695 -101.06631899999988
    vertex 135.49551365667924 181.8074169979695 -101.06631899999988
  endloop
endfacet
facet normal -0.0 -0.9914448613738153 -0.13052619222001594
  outer loop
    vertex 132.49551365667924 181.8074169979695 -101.06631899999988
    vertex 135.49551365667924 181.77027614862462 -100.78420624083813
    vertex 132.49551365667924 181.77027614862462 -100.78420624083813
  endloop
endfacet
facet normal 0.38268343236507774 0.9238795325112917 7.830702588752206e-32
  outer loop
    vertex 138.17241699796946 176.30934769270672 -86.5663189999999
    vertex 139.40002805839762 175.8008545421582 -115.56631899999988
    vertex 138.17241699796946 176.30934769270672 -115.56631899999988
  endloop
endfacet
facet normal 0.38268343236507774 0.9238795325112917 7.830702588752206e-32
  outer loop
    vertex 139.40002805839762 175.8008545421582 -115.56631899999988
    vertex 138.17241699796946 176.30934769270672 -86.5663189999999
    vertex 139.40002805839762 175.8008545421582 -86.5663189999999
  endloop
endfacet
facet normal 0.0 0.608761429008721 -0.793353340291235
  outer loop
    vertex 135.49551365667924 180.17241699796952 -100.12235130987484
    vertex 132.49551365667924 179.94667060647618 -100.29557260850655
    vertex 132.49551365667924 180.17241699796952 -100.12235130987484
  endloop
endfacet
facet normal 0.0 0.608761429008721 -0.793353340291235
  outer loop
    vertex 132.49551365667924 179.94667060647618 -100.29557260850655
    vertex 135.49551365667924 180.17241699796952 -100.12235130987484
    vertex 135.49551365667924 179.94667060647618 -100.29557260850655
  endloop
endfacet
facet normal -0.0 -0.13052619222004846 -0.9914448613738108
  outer loop
    vertex 135.49551365667924 180.99952975713128 -100.0134598493448
    vertex 132.49551365667924 180.7174169979695 -99.97631899999988
    vertex 132.49551365667924 180.99952975713128 -100.0134598493448
  endloop
endfacet
facet normal -0.0 -0.13052619222004846 -0.9914448613738108
  outer loop
    vertex 132.49551365667924 180.7174169979695 -99.97631899999988
    vertex 135.49551365667924 180.99952975713128 -100.0134598493448
    vertex 135.49551365667924 180.7174169979695 -99.97631899999988
  endloop
endfacet
facet normal 0.0 0.13052619222004846 -0.9914448613738108
  outer loop
    vertex 135.49551365667924 180.7174169979695 -99.97631899999988
    vertex 132.49551365667924 180.43530423880776 -100.0134598493448
    vertex 132.49551365667924 180.7174169979695 -99.97631899999988
  endloop
endfacet
facet normal 0.0 0.13052619222004846 -0.9914448613738108
  outer loop
    vertex 132.49551365667924 180.43530423880776 -100.0134598493448
    vertex 135.49551365667924 180.7174169979695 -99.97631899999988
    vertex 135.49551365667924 180.43530423880776 -100.0134598493448
  endloop
endfacet
facet normal -0.0 -0.6087614290087272 -0.7933533402912303
  outer loop
    vertex 135.49551365667924 181.48816338946287 -100.29557260850655
    vertex 132.49551365667924 181.26241699796952 -100.12235130987484
    vertex 132.49551365667924 181.48816338946287 -100.29557260850655
  endloop
endfacet
facet normal -0.0 -0.6087614290087272 -0.7933533402912303
  outer loop
    vertex 132.49551365667924 181.26241699796952 -100.12235130987484
    vertex 135.49551365667924 181.48816338946287 -100.29557260850655
    vertex 135.49551365667924 181.26241699796952 -100.12235130987484
  endloop
endfacet
facet normal 0.9914448613738102 -0.13052619222005468 2.0287551500683883e-31
  outer loop
    vertex 135.8008545421581 182.03480593754134 -115.56631899999988
    vertex 135.62741699796945 180.7174169979695 -86.5663189999999
    vertex 135.62741699796945 180.7174169979695 -115.56631899999988
  endloop
endfacet
facet normal 0.9914448613738102 -0.13052619222005468 2.0287551500683883e-31
  outer loop
    vertex 135.62741699796945 180.7174169979695 -86.5663189999999
    vertex 135.8008545421581 182.03480593754134 -115.56631899999988
    vertex 135.8008545421581 182.03480593754134 -86.5663189999999
  endloop
endfacet
facet normal 0.0 0.38268343236510144 -0.9238795325112821
  outer loop
    vertex 135.49551365667924 180.43530423880776 -100.0134598493448
    vertex 132.49551365667924 180.17241699796952 -100.12235130987484
    vertex 132.49551365667924 180.43530423880776 -100.0134598493448
  endloop
endfacet
facet normal 0.0 0.38268343236510144 -0.9238795325112821
  outer loop
    vertex 132.49551365667924 180.17241699796952 -100.12235130987484
    vertex 135.49551365667924 180.43530423880776 -100.0134598493448
    vertex 135.49551365667924 180.17241699796952 -100.12235130987484
  endloop
endfacet
facet normal 0.9238795325112882 -0.3826834323650863 1.8904988392676375e-31
  outer loop
    vertex 136.30934769270667 183.26241699796952 -115.56631899999988
    vertex 135.8008545421581 182.03480593754134 -86.5663189999999
    vertex 135.8008545421581 182.03480593754134 -115.56631899999988
  endloop
endfacet
facet normal 0.9238795325112882 -0.3826834323650863 1.8904988392676375e-31
  outer loop
    vertex 135.8008545421581 182.03480593754134 -86.5663189999999
    vertex 136.30934769270667 183.26241699796952 -115.56631899999988
    vertex 136.30934769270667 183.26241699796952 -86.5663189999999
  endloop
endfacet
facet normal 0.6087614290087199 0.7933533402912357 1.2456848911931374e-31
  outer loop
    vertex 137.11824348172993 177.11824348173 -86.5663189999999
    vertex 138.17241699796946 176.30934769270672 -115.56631899999988
    vertex 137.11824348172993 177.11824348173 -115.56631899999988
  endloop
endfacet
facet normal 0.6087614290087199 0.7933533402912357 1.2456848911931374e-31
  outer loop
    vertex 138.17241699796946 176.30934769270672 -115.56631899999988
    vertex 137.11824348172993 177.11824348173 -86.5663189999999
    vertex 138.17241699796946 176.30934769270672 -86.5663189999999
  endloop
endfacet
facet normal 0.7933533402912389 -0.6087614290087158 1.6234081567678471e-31
  outer loop
    vertex 137.11824348172993 184.31659051420905 -115.56631899999988
    vertex 136.30934769270667 183.26241699796952 -86.5663189999999
    vertex 136.30934769270667 183.26241699796952 -115.56631899999988
  endloop
endfacet
facet normal 0.7933533402912389 -0.6087614290087158 1.6234081567678471e-31
  outer loop
    vertex 136.30934769270667 183.26241699796952 -86.5663189999999
    vertex 137.11824348172993 184.31659051420905 -115.56631899999988
    vertex 137.11824348172993 184.31659051420905 -86.5663189999999
  endloop
endfacet
facet normal -0.13052619222006082 0.9914448613738093 -2.67090682499817e-32
  outer loop
    vertex 140.71741699796945 175.62741699796953 -86.5663189999999
    vertex 142.03480593754128 175.8008545421582 -115.56631899999988
    vertex 140.71741699796945 175.62741699796953 -115.56631899999988
  endloop
endfacet
facet normal -0.13052619222006082 0.9914448613738093 -2.67090682499817e-32
  outer loop
    vertex 142.03480593754128 175.8008545421582 -115.56631899999988
    vertex 140.71741699796945 175.62741699796953 -86.5663189999999
    vertex 142.03480593754128 175.8008545421582 -86.5663189999999
  endloop
endfacet
facet normal 0.6087614290087199 -0.7933533402912357 1.2456848911931415e-31
  outer loop
    vertex 138.17241699796946 185.12548630323232 -86.5663189999999
    vertex 137.11824348172993 184.31659051420905 -115.56631899999988
    vertex 138.17241699796946 185.12548630323232 -115.56631899999988
  endloop
endfacet
facet normal 0.6087614290087199 -0.7933533402912357 1.2456848911931415e-31
  outer loop
    vertex 137.11824348172993 184.31659051420905 -115.56631899999988
    vertex 138.17241699796946 185.12548630323232 -86.5663189999999
    vertex 137.11824348172993 184.31659051420905 -86.5663189999999
  endloop
endfacet
facet normal 0.7933533402912389 0.6087614290087158 1.623408156767844e-31
  outer loop
    vertex 136.30934769270667 178.17241699796952 -115.56631899999988
    vertex 137.11824348172993 177.11824348173 -86.5663189999999
    vertex 137.11824348172993 177.11824348173 -115.56631899999988
  endloop
endfacet
facet normal 0.7933533402912389 0.6087614290087158 1.623408156767844e-31
  outer loop
    vertex 137.11824348172993 177.11824348173 -86.5663189999999
    vertex 136.30934769270667 178.17241699796952 -115.56631899999988
    vertex 136.30934769270667 178.17241699796952 -86.5663189999999
  endloop
endfacet
facet normal 0.9914448613738106 0.13052619222005027 2.0287551500683888e-31
  outer loop
    vertex 135.62741699796945 180.7174169979695 -115.56631899999988
    vertex 135.8008545421581 179.40002805839768 -86.5663189999999
    vertex 135.8008545421581 179.40002805839768 -115.56631899999988
  endloop
endfacet
facet normal 0.9914448613738106 0.13052619222005027 2.0287551500683888e-31
  outer loop
    vertex 135.8008545421581 179.40002805839768 -86.5663189999999
    vertex 135.62741699796945 180.7174169979695 -115.56631899999988
    vertex 135.62741699796945 180.7174169979695 -86.5663189999999
  endloop
endfacet
facet normal -1.0 0.0 0.0
  outer loop
    vertex 135.49551365667924 179.66455784731443 -100.78420624083813
    vertex 135.49551365667924 179.66455784731443 -101.34843175916163
    vertex 135.49551365667924 179.6274169979695 -101.06631899999988
  endloop
endfacet
facet normal -1.0 0.0 0.0
  outer loop
    vertex 135.49551365667924 179.66455784731443 -101.34843175916163
    vertex 135.49551365667924 179.66455784731443 -100.78420624083813
    vertex 135.49551365667924 179.77344930784452 -100.52131899999988
  endloop
endfacet
facet normal -1.0 0.0 0.0
  outer loop
    vertex 135.49551365667924 179.66455784731443 -101.34843175916163
    vertex 135.49551365667924 179.77344930784452 -100.52131899999988
    vertex 135.49551365667924 179.77344930784452 -101.61131899999988
  endloop
endfacet
facet normal -1.0 0.0 0.0
  outer loop
    vertex 135.49551365667924 179.77344930784452 -101.61131899999988
    vertex 135.49551365667924 179.77344930784452 -100.52131899999988
    vertex 135.49551365667924 179.94667060647618 -100.29557260850655
  endloop
endfacet
facet normal -1.0 0.0 0.0
  outer loop
    vertex 135.49551365667924 179.77344930784452 -101.61131899999988
    vertex 135.49551365667924 179.94667060647618 -100.29557260850655
    vertex 135.49551365667924 179.94667060647618 -101.83706539149323
  endloop
endfacet
facet normal -1.0 0.0 0.0
  outer loop
    vertex 135.49551365667924 179.94667060647618 -101.83706539149323
    vertex 135.49551365667924 179.94667060647618 -100.29557260850655
    vertex 135.49551365667924 180.17241699796952 -100.12235130987484
  endloop
endfacet
facet normal -1.0 0.0 0.0
  outer loop
    vertex 135.49551365667924 179.94667060647618 -101.83706539149323
    vertex 135.49551365667924 180.17241699796952 -100.12235130987484
    vertex 135.49551365667924 180.17241699796952 -102.0102866901249
  endloop
endfacet
facet normal -1.0 0.0 0.0
  outer loop
    vertex 135.49551365667924 180.17241699796952 -102.0102866901249
    vertex 135.49551365667924 180.17241699796952 -100.12235130987484
    vertex 135.49551365667924 180.43530423880776 -100.0134598493448
  endloop
endfacet
facet normal -1.0 0.0 0.0
  outer loop
    vertex 135.49551365667924 180.17241699796952 -102.0102866901249
    vertex 135.49551365667924 180.43530423880776 -100.0134598493448
    vertex 135.49551365667924 180.43530423880776 -102.11917815065496
  endloop
endfacet
facet normal -1.0 0.0 0.0
  outer loop
    vertex 135.49551365667924 180.43530423880776 -102.11917815065496
    vertex 135.49551365667924 180.43530423880776 -100.0134598493448
    vertex 135.49551365667924 180.7174169979695 -99.97631899999988
  endloop
endfacet
facet normal -1.0 0.0 0.0
  outer loop
    vertex 135.49551365667924 180.43530423880776 -102.11917815065496
    vertex 135.49551365667924 180.7174169979695 -99.97631899999988
    vertex 135.49551365667924 180.7174169979695 -102.15631899999988
  endloop
endfacet
facet normal -1.0 0.0 0.0
  outer loop
    vertex 135.49551365667924 180.7174169979695 -102.15631899999988
    vertex 135.49551365667924 180.7174169979695 -99.97631899999988
    vertex 135.49551365667924 180.99952975713128 -100.0134598493448
  endloop
endfacet
facet normal -1.0 0.0 0.0
  outer loop
    vertex 135.49551365667924 180.7174169979695 -102.15631899999988
    vertex 135.49551365667924 180.99952975713128 -100.0134598493448
    vertex 135.49551365667924 180.99952975713128 -102.11917815065496
  endloop
endfacet
facet normal -1.0 0.0 0.0
  outer loop
    vertex 135.49551365667924 180.99952975713128 -102.11917815065496
    vertex 135.49551365667924 180.99952975713128 -100.0134598493448
    vertex 135.49551365667924 181.26241699796952 -100.12235130987484
  endloop
endfacet
facet normal -1.0 0.0 0.0
  outer loop
    vertex 135.49551365667924 180.99952975713128 -102.11917815065496
    vertex 135.49551365667924 181.26241699796952 -100.12235130987484
    vertex 135.49551365667924 181.26241699796952 -102.0102866901249
  endloop
endfacet
facet normal -1.0 0.0 0.0
  outer loop
    vertex 135.49551365667924 181.26241699796952 -102.0102866901249
    vertex 135.49551365667924 181.26241699796952 -100.12235130987484
    vertex 135.49551365667924 181.48816338946287 -100.29557260850655
  endloop
endfacet
facet normal -1.0 0.0 0.0
  outer loop
    vertex 135.49551365667924 181.26241699796952 -102.0102866901249
    vertex 135.49551365667924 181.48816338946287 -100.29557260850655
    vertex 135.49551365667924 181.48816338946287 -101.83706539149323
  endloop
endfacet
facet normal -1.0 0.0 0.0
  outer loop
    vertex 135.49551365667924 181.48816338946287 -101.83706539149323
    vertex 135.49551365667924 181.48816338946287 -100.29557260850655
    vertex 135.49551365667924 181.66138468809453 -100.52131899999988
  endloop
endfacet
facet normal -1.0 0.0 0.0
  outer loop
    vertex 135.49551365667924 181.48816338946287 -101.83706539149323
    vertex 135.49551365667924 181.66138468809453 -100.52131899999988
    vertex 135.49551365667924 181.66138468809453 -101.61131899999988
  endloop
endfacet
facet normal -1.0 0.0 0.0
  outer loop
    vertex 135.49551365667924 181.66138468809453 -101.61131899999988
    vertex 135.49551365667924 181.66138468809453 -100.52131899999988
    vertex 135.49551365667924 181.77027614862462 -100.78420624083813
  endloop
endfacet
facet normal -1.0 0.0 0.0
  outer loop
    vertex 135.49551365667924 181.66138468809453 -101.61131899999988
    vertex 135.49551365667924 181.77027614862462 -100.78420624083813
    vertex 135.49551365667924 181.77027614862462 -101.34843175916163
  endloop
endfacet
facet normal -1.0 0.0 0.0
  outer loop
    vertex 135.49551365667924 181.77027614862462 -101.34843175916163
    vertex 135.49551365667924 181.77027614862462 -100.78420624083813
    vertex 135.49551365667924 181.8074169979695 -101.06631899999988
  endloop
endfacet
facet normal 0.0 -0.9914448613738153 0.13052619222001594
  outer loop
    vertex 135.49551365667924 181.8074169979695 -101.06631899999988
    vertex 132.49551365667924 181.77027614862462 -101.34843175916163
    vertex 135.49551365667924 181.77027614862462 -101.34843175916163
  endloop
endfacet
facet normal 0.0 -0.9914448613738153 0.13052619222001594
  outer loop
    vertex 132.49551365667924 181.77027614862462 -101.34843175916163
    vertex 135.49551365667924 181.8074169979695 -101.06631899999988
    vertex 132.49551365667924 181.8074169979695 -101.06631899999988
  endloop
endfacet
facet normal 0.0 -0.7933533402912724 0.6087614290086725
  outer loop
    vertex 135.49551365667924 181.66138468809453 -101.61131899999988
    vertex 132.49551365667924 181.48816338946287 -101.83706539149323
    vertex 135.49551365667924 181.48816338946287 -101.83706539149323
  endloop
endfacet
facet normal 0.0 -0.7933533402912724 0.6087614290086725
  outer loop
    vertex 132.49551365667924 181.48816338946287 -101.83706539149323
    vertex 135.49551365667924 181.66138468809453 -101.61131899999988
    vertex 132.49551365667924 181.66138468809453 -101.61131899999988
  endloop
endfacet
facet normal 0.0 0.13052619222004846 0.9914448613738108
  outer loop
    vertex 135.49551365667924 180.43530423880776 -102.11917815065496
    vertex 132.49551365667924 180.7174169979695 -102.15631899999988
    vertex 132.49551365667924 180.43530423880776 -102.11917815065496
  endloop
endfacet
facet normal 0.0 0.13052619222004846 0.9914448613738108
  outer loop
    vertex 132.49551365667924 180.7174169979695 -102.15631899999988
    vertex 135.49551365667924 180.43530423880776 -102.11917815065496
    vertex 135.49551365667924 180.7174169979695 -102.15631899999988
  endloop
endfacet
facet normal 0.0 0.9238795325112422 0.38268343236519736
  outer loop
    vertex 132.49551365667924 179.66455784731443 -101.34843175916163
    vertex 135.49551365667924 179.77344930784452 -101.61131899999988
    vertex 132.49551365667924 179.77344930784452 -101.61131899999988
  endloop
endfacet
facet normal 0.0 0.9238795325112422 0.38268343236519736
  outer loop
    vertex 135.49551365667924 179.77344930784452 -101.61131899999988
    vertex 132.49551365667924 179.66455784731443 -101.34843175916163
    vertex 135.49551365667924 179.66455784731443 -101.34843175916163
  endloop
endfacet
facet normal 0.0 0.9238795325112422 -0.38268343236519736
  outer loop
    vertex 132.49551365667924 179.77344930784452 -100.52131899999988
    vertex 135.49551365667924 179.66455784731443 -100.78420624083813
    vertex 132.49551365667924 179.66455784731443 -100.78420624083813
  endloop
endfacet
facet normal 0.0 0.9238795325112422 -0.38268343236519736
  outer loop
    vertex 135.49551365667924 179.66455784731443 -100.78420624083813
    vertex 132.49551365667924 179.77344930784452 -100.52131899999988
    vertex 135.49551365667924 179.77344930784452 -100.52131899999988
  endloop
endfacet
facet normal 0.0 -0.608761429008721 0.793353340291235
  outer loop
    vertex 135.49551365667924 181.26241699796952 -102.0102866901249
    vertex 132.49551365667924 181.48816338946287 -101.83706539149323
    vertex 132.49551365667924 181.26241699796952 -102.0102866901249
  endloop
endfacet
facet normal 0.0 -0.608761429008721 0.793353340291235
  outer loop
    vertex 132.49551365667924 181.48816338946287 -101.83706539149323
    vertex 135.49551365667924 181.26241699796952 -102.0102866901249
    vertex 135.49551365667924 181.48816338946287 -101.83706539149323
  endloop
endfacet
facet normal 0.0 0.608761429008721 0.793353340291235
  outer loop
    vertex 135.49551365667924 179.94667060647618 -101.83706539149323
    vertex 132.49551365667924 180.17241699796952 -102.0102866901249
    vertex 132.49551365667924 179.94667060647618 -101.83706539149323
  endloop
endfacet
facet normal 0.0 0.608761429008721 0.793353340291235
  outer loop
    vertex 132.49551365667924 180.17241699796952 -102.0102866901249
    vertex 135.49551365667924 179.94667060647618 -101.83706539149323
    vertex 135.49551365667924 180.17241699796952 -102.0102866901249
  endloop
endfacet
facet normal 0.0 0.38268343236510144 0.9238795325112821
  outer loop
    vertex 135.49551365667924 180.17241699796952 -102.0102866901249
    vertex 132.49551365667924 180.43530423880776 -102.11917815065496
    vertex 132.49551365667924 180.17241699796952 -102.0102866901249
  endloop
endfacet
facet normal 0.0 0.38268343236510144 0.9238795325112821
  outer loop
    vertex 132.49551365667924 180.43530423880776 -102.11917815065496
    vertex 135.49551365667924 180.17241699796952 -102.0102866901249
    vertex 135.49551365667924 180.43530423880776 -102.11917815065496
  endloop
endfacet
facet normal 0.0 0.7933533402912724 0.6087614290086725
  outer loop
    vertex 132.49551365667924 179.77344930784452 -101.61131899999988
    vertex 135.49551365667924 179.94667060647618 -101.83706539149323
    vertex 132.49551365667924 179.94667060647618 -101.83706539149323
  endloop
endfacet
facet normal 0.0 0.7933533402912724 0.6087614290086725
  outer loop
    vertex 135.49551365667924 179.94667060647618 -101.83706539149323
    vertex 132.49551365667924 179.77344930784452 -101.61131899999988
    vertex 135.49551365667924 179.77344930784452 -101.61131899999988
  endloop
endfacet
facet normal 0.0 -0.13052619222004846 0.9914448613738108
  outer loop
    vertex 135.49551365667924 180.7174169979695 -102.15631899999988
    vertex 132.49551365667924 180.99952975713128 -102.11917815065496
    vertex 132.49551365667924 180.7174169979695 -102.15631899999988
  endloop
endfacet
facet normal 0.0 -0.13052619222004846 0.9914448613738108
  outer loop
    vertex 132.49551365667924 180.99952975713128 -102.11917815065496
    vertex 135.49551365667924 180.7174169979695 -102.15631899999988
    vertex 135.49551365667924 180.99952975713128 -102.11917815065496
  endloop
endfacet
facet normal 0.0 0.9914448613738153 0.13052619222001594
  outer loop
    vertex 132.49551365667924 179.6274169979695 -101.06631899999988
    vertex 135.49551365667924 179.66455784731443 -101.34843175916163
    vertex 132.49551365667924 179.66455784731443 -101.34843175916163
  endloop
endfacet
facet normal 0.0 0.9914448613738153 0.13052619222001594
  outer loop
    vertex 135.49551365667924 179.66455784731443 -101.34843175916163
    vertex 132.49551365667924 179.6274169979695 -101.06631899999988
    vertex 135.49551365667924 179.6274169979695 -101.06631899999988
  endloop
endfacet
facet normal 0.0 0.9914448613738153 -0.13052619222001594
  outer loop
    vertex 132.49551365667924 179.66455784731443 -100.78420624083813
    vertex 135.49551365667924 179.6274169979695 -101.06631899999988
    vertex 132.49551365667924 179.6274169979695 -101.06631899999988
  endloop
endfacet
facet normal 0.0 0.9914448613738153 -0.13052619222001594
  outer loop
    vertex 135.49551365667924 179.6274169979695 -101.06631899999988
    vertex 132.49551365667924 179.66455784731443 -100.78420624083813
    vertex 135.49551365667924 179.66455784731443 -100.78420624083813
  endloop
endfacet
facet normal 0.0 -0.9238795325112422 0.38268343236519736
  outer loop
    vertex 135.49551365667924 181.77027614862462 -101.34843175916163
    vertex 132.49551365667924 181.66138468809453 -101.61131899999988
    vertex 135.49551365667924 181.66138468809453 -101.61131899999988
  endloop
endfacet
facet normal 0.0 -0.9238795325112422 0.38268343236519736
  outer loop
    vertex 132.49551365667924 181.66138468809453 -101.61131899999988
    vertex 135.49551365667924 181.77027614862462 -101.34843175916163
    vertex 132.49551365667924 181.77027614862462 -101.34843175916163
  endloop
endfacet
facet normal 0.0 -0.38268343236510144 0.9238795325112821
  outer loop
    vertex 135.49551365667924 180.99952975713128 -102.11917815065496
    vertex 132.49551365667924 181.26241699796952 -102.0102866901249
    vertex 132.49551365667924 180.99952975713128 -102.11917815065496
  endloop
endfacet
facet normal 0.0 -0.38268343236510144 0.9238795325112821
  outer loop
    vertex 132.49551365667924 181.26241699796952 -102.0102866901249
    vertex 135.49551365667924 180.99952975713128 -102.11917815065496
    vertex 135.49551365667924 181.26241699796952 -102.0102866901249
  endloop
endfacet
endsolid MML_M30T_Cradle_rev1
