solid MML_M30T_Cradle_rev1
facet normal 1.0020707635684876e-33 -9.049665362011084e-16 1.0
  outer loop
    vertex 104.40370849898471 9.055407640085908 34.126518567743574
    vertex 44.40370849898483 18.403708498984923 34.12651856774358
    vertex 44.40370849898478 9.055407640085908 34.126518567743574
  endloop
endfacet
facet normal 1.0020707635684876e-33 -9.049665362011084e-16 1.0
  outer loop
    vertex 44.40370849898483 18.403708498984923 34.12651856774358
    vertex 104.40370849898471 9.055407640085908 34.126518567743574
    vertex 104.40370849898471 18.403708498984923 34.12651856774358
  endloop
endfacet
facet normal -1.0 3.9536971604607784e-15 3.354371599605136e-15
  outer loop
    vertex 44.40370849898478 8.089481813796839 33.385337612846094
    vertex 44.403708498984734 8.055407640085916 21.94651856774357
    vertex 44.40370849898478 8.055407640085907 33.12651856774357
  endloop
endfacet
facet normal -1.0 3.9536971604607784e-15 3.354371599605136e-15
  outer loop
    vertex 44.403708498984734 8.055407640085916 21.94651856774357
    vertex 44.40370849898478 8.089481813796839 33.385337612846094
    vertex 44.403708498984734 8.246287226534816 20.741352289681277
  endloop
endfacet
facet normal -1.0 3.9536971604607784e-15 3.354371599605136e-15
  outer loop
    vertex 44.403708498984734 8.246287226534816 20.741352289681277
    vertex 44.40370849898478 8.089481813796839 33.385337612846094
    vertex 44.40370849898478 8.18938223630147 33.626518567743574
  endloop
endfacet
facet normal -1.0 3.9536971604607784e-15 3.354371599605136e-15
  outer loop
    vertex 44.403708498984734 8.246287226534816 20.741352289681277
    vertex 44.40370849898478 8.18938223630147 33.626518567743574
    vertex 44.40370849898478 8.34830085889936 33.83362534893012
  endloop
endfacet
facet normal -1.0 3.9536971604607784e-15 3.354371599605136e-15
  outer loop
    vertex 44.403708498984734 8.246287226534816 20.741352289681277
    vertex 44.40370849898478 8.34830085889936 33.83362534893012
    vertex 44.403708498984734 8.80024136202362 19.654156083802928
  endloop
endfacet
facet normal -1.0 3.9536971604607784e-15 3.354371599605136e-15
  outer loop
    vertex 44.403708498984734 8.80024136202362 19.654156083802928
    vertex 44.40370849898478 8.34830085889936 33.83362534893012
    vertex 44.40370849898478 8.555407640085908 33.992543971528015
  endloop
endfacet
facet normal -1.0 3.9536971604607784e-15 3.354371599605136e-15
  outer loop
    vertex 44.403708498984734 8.80024136202362 19.654156083802928
    vertex 44.40370849898478 8.555407640085908 33.992543971528015
    vertex 44.40370849898478 8.796588594983389 34.09244439403264
  endloop
endfacet
facet normal -1.0 3.9536971604607784e-15 3.354371599605136e-15
  outer loop
    vertex 44.403708498984734 8.80024136202362 19.654156083802928
    vertex 44.40370849898478 8.796588594983389 34.09244439403264
    vertex 44.40370849898478 9.055407640085908 34.126518567743574
  endloop
endfacet
facet normal -1.0 3.9536971604607784e-15 3.354371599605136e-15
  outer loop
    vertex 44.403708498984734 8.80024136202362 19.654156083802928
    vertex 44.40370849898478 9.055407640085908 34.126518567743574
    vertex 44.403708498984734 9.663045156145268 18.791352289681278
  endloop
endfacet
facet normal -1.0 3.9536971604607784e-15 3.354371599605136e-15
  outer loop
    vertex 44.403708498984734 9.663045156145268 18.791352289681278
    vertex 44.40370849898478 9.055407640085908 34.126518567743574
    vertex 44.403708498984734 11.055407640085907 31.12651856774357
  endloop
endfacet
facet normal -1.0 3.9536971604607784e-15 3.354371599605136e-15
  outer loop
    vertex 44.403708498984734 11.055407640085907 31.12651856774357
    vertex 44.40370849898478 9.055407640085908 34.126518567743574
    vertex 44.40370849898483 18.403708498984923 34.12651856774358
  endloop
endfacet
facet normal -1.0 3.9536971604607784e-15 3.354371599605136e-15
  outer loop
    vertex 44.403708498984734 9.663045156145268 18.791352289681278
    vertex 44.403708498984734 11.055407640085907 31.12651856774357
    vertex 44.403708498984734 10.750241362023619 18.237398154192476
  endloop
endfacet
facet normal -1.0 3.9536971604607784e-15 3.354371599605136e-15
  outer loop
    vertex 44.403708498984734 11.055407640085907 31.12651856774357
    vertex 44.40370849898483 18.403708498984923 34.12651856774358
    vertex 44.403708498984734 17.235407640085644 31.12651856774357
  endloop
endfacet
facet normal -1.0 3.9536971604607784e-15 3.354371599605136e-15
  outer loop
    vertex 44.403708498984734 17.235407640085644 31.12651856774357
    vertex 44.40370849898483 18.403708498984923 34.12651856774358
    vertex 44.403708498984734 17.235407640085644 24.946518567743574
  endloop
endfacet
facet normal -1.0 3.9536971604607784e-15 3.354371599605136e-15
  outer loop
    vertex 44.40370849898483 19.403708498984923 33.12651856774358
    vertex 44.40370849898483 19.403708498984887 26.046518567743732
    vertex 44.40370849898483 19.36963432527399 33.3853376128461
  endloop
endfacet
facet normal -1.0 3.9536971604607784e-15 3.354371599605136e-15
  outer loop
    vertex 44.403708498984734 10.750241362023619 18.237398154192476
    vertex 44.403708498984734 11.055407640085907 24.946518567743574
    vertex 44.403708498984734 11.955407640085914 18.046518567743576
  endloop
endfacet
facet normal -1.0 3.9536971604607784e-15 3.354371599605136e-15
  outer loop
    vertex 44.403708498984734 11.055407640085907 24.946518567743574
    vertex 44.403708498984734 10.750241362023619 18.237398154192476
    vertex 44.403708498984734 11.055407640085907 31.12651856774357
  endloop
endfacet
facet normal -1.0 3.9536971604607784e-15 3.354371599605136e-15
  outer loop
    vertex 44.403708498984734 11.955407640085914 18.046518567743576
    vertex 44.403708498984734 11.055407640085907 24.946518567743574
    vertex 44.403708498984734 17.235407640085644 24.946518567743574
  endloop
endfacet
facet normal -1.0 3.9536971604607784e-15 3.354371599605136e-15
  outer loop
    vertex 44.403708498984734 11.955407640085914 18.046518567743576
    vertex 44.403708498984734 17.235407640085644 24.946518567743574
    vertex 44.40370849898483 19.403708498984898 21.046518567743732
  endloop
endfacet
facet normal -1.0 3.9536971604607784e-15 3.354371599605136e-15
  outer loop
    vertex 44.403708498984734 11.955407640085914 18.046518567743576
    vertex 44.40370849898483 19.403708498984898 21.046518567743732
    vertex 44.40370849898483 33.4037084989849 18.046518567743696
  endloop
endfacet
facet normal -1.0 3.9536971604607784e-15 3.354371599605136e-15
  outer loop
    vertex 44.40370849898483 19.403708498984898 21.046518567743732
    vertex 44.403708498984734 17.235407640085644 24.946518567743574
    vertex 44.40370849898483 18.403708498984923 34.12651856774358
  endloop
endfacet
facet normal -1.0 3.9536971604607784e-15 3.354371599605136e-15
  outer loop
    vertex 44.40370849898483 19.403708498984898 21.046518567743732
    vertex 44.40370849898483 18.403708498984923 34.12651856774358
    vertex 44.40370849898483 18.662527544087446 34.092444394032654
  endloop
endfacet
facet normal -1.0 3.9536971604607784e-15 3.354371599605136e-15
  outer loop
    vertex 44.40370849898483 19.403708498984898 21.046518567743732
    vertex 44.40370849898483 18.662527544087446 34.092444394032654
    vertex 44.40370849898483 18.903708498984923 33.99254397152802
  endloop
endfacet
facet normal -1.0 3.9536971604607784e-15 3.354371599605136e-15
  outer loop
    vertex 44.40370849898483 19.403708498984898 21.046518567743732
    vertex 44.40370849898483 18.903708498984923 33.99254397152802
    vertex 44.40370849898483 19.110815280171465 33.83362534893013
  endloop
endfacet
facet normal -1.0 3.9536971604607784e-15 3.354371599605136e-15
  outer loop
    vertex 44.40370849898483 19.403708498984898 21.046518567743732
    vertex 44.40370849898483 19.110815280171465 33.83362534893013
    vertex 44.40370849898483 19.269733902769364 33.62651856774358
  endloop
endfacet
facet normal -1.0 3.9536971604607784e-15 3.354371599605136e-15
  outer loop
    vertex 44.40370849898483 19.403708498984898 21.046518567743732
    vertex 44.40370849898483 19.269733902769364 33.62651856774358
    vertex 44.40370849898483 19.36963432527399 33.3853376128461
  endloop
endfacet
facet normal -1.0 3.9536971604607784e-15 3.354371599605136e-15
  outer loop
    vertex 44.40370849898483 19.403708498984898 21.046518567743732
    vertex 44.40370849898483 19.36963432527399 33.3853376128461
    vertex 44.40370849898483 19.403708498984887 26.046518567743732
  endloop
endfacet
facet normal -1.0 3.9536971604607784e-15 3.354371599605136e-15
  outer loop
    vertex 44.40370849898483 33.4037084989849 18.046518567743696
    vertex 44.40370849898483 19.403708498984898 21.046518567743732
    vertex 44.40370849898483 24.4037084989849 21.046518567743725
  endloop
endfacet
facet normal -1.0 3.9536971604607784e-15 3.354371599605136e-15
  outer loop
    vertex 44.40370849898483 33.4037084989849 18.046518567743696
    vertex 44.40370849898483 24.4037084989849 21.046518567743725
    vertex 44.40370849898483 34.4037084989849 21.046518567743703
  endloop
endfacet
facet normal -1.0 3.9536971604607784e-15 3.354371599605136e-15
  outer loop
    vertex 44.40370849898483 33.4037084989849 18.046518567743696
    vertex 44.40370849898483 34.4037084989849 21.046518567743703
    vertex 44.40370849898483 33.66252754408742 18.08059274145463
  endloop
endfacet
facet normal -1.0 3.9536971604607784e-15 3.354371599605136e-15
  outer loop
    vertex 44.40370849898483 33.66252754408742 18.08059274145463
    vertex 44.40370849898483 34.4037084989849 21.046518567743703
    vertex 44.40370849898483 33.9037084989849 18.18049316395926
  endloop
endfacet
facet normal -1.0 3.9536971604607784e-15 3.354371599605136e-15
  outer loop
    vertex 44.40370849898483 33.9037084989849 18.18049316395926
    vertex 44.40370849898483 34.4037084989849 21.046518567743703
    vertex 44.40370849898483 34.110815280171444 18.33941178655715
  endloop
endfacet
facet normal -1.0 3.9536971604607784e-15 3.354371599605136e-15
  outer loop
    vertex 44.40370849898483 34.110815280171444 18.33941178655715
    vertex 44.40370849898483 34.4037084989849 21.046518567743703
    vertex 44.40370849898483 34.26973390276933 18.546518567743696
  endloop
endfacet
facet normal -1.0 3.9536971604607784e-15 3.354371599605136e-15
  outer loop
    vertex 44.40370849898483 34.26973390276933 18.546518567743696
    vertex 44.40370849898483 34.4037084989849 21.046518567743703
    vertex 44.40370849898483 34.369634325273964 18.787699522641176
  endloop
endfacet
facet normal -1.0 3.9536971604607784e-15 3.354371599605136e-15
  outer loop
    vertex 44.40370849898483 34.369634325273964 18.787699522641176
    vertex 44.40370849898483 34.4037084989849 21.046518567743703
    vertex 44.40370849898483 34.40370849898489 19.046518567743696
  endloop
endfacet
facet normal -3.200800476934068e-34 -1.0 -7.566994139216184e-16
  outer loop
    vertex 104.40370849898471 8.055407640085907 33.12651856774357
    vertex 44.403708498984734 8.055407640085916 21.94651856774357
    vertex 104.40370849898471 8.055407640085916 21.94651856774357
  endloop
endfacet
facet normal -3.200800476934068e-34 -1.0 -7.566994139216184e-16
  outer loop
    vertex 44.403708498984734 8.055407640085916 21.94651856774357
    vertex 104.40370849898471 8.055407640085907 33.12651856774357
    vertex 44.40370849898478 8.055407640085907 33.12651856774357
  endloop
endfacet
facet normal 0.0 -1.0 0.0
  outer loop
    vertex 104.40370849898471 17.235407640085644 31.12651856774357
    vertex 44.403708498984734 17.235407640085644 24.946518567743574
    vertex 104.40370849898471 17.235407640085644 24.946518567743574
  endloop
endfacet
facet normal 0.0 -1.0 0.0
  outer loop
    vertex 44.403708498984734 17.235407640085644 24.946518567743574
    vertex 104.40370849898471 17.235407640085644 31.12651856774357
    vertex 44.403708498984734 17.235407640085644 31.12651856774357
  endloop
endfacet
facet normal 1.1749860343949577e-17 -1.1407631401893274e-16 -1.0
  outer loop
    vertex 104.40370849898471 17.235407640085644 31.12651856774357
    vertex 44.403708498984734 11.055407640085907 31.12651856774357
    vertex 44.403708498984734 17.235407640085644 31.12651856774357
  endloop
endfacet
facet normal 1.1749860343949577e-17 -1.1407631401893274e-16 -1.0
  outer loop
    vertex 44.403708498984734 11.055407640085907 31.12651856774357
    vertex 104.40370849898471 17.235407640085644 31.12651856774357
    vertex 104.40370849898471 11.055407640085907 31.12651856774357
  endloop
endfacet
facet normal 0.0 1.0 0.0
  outer loop
    vertex 44.403708498984734 11.055407640085907 31.12651856774357
    vertex 104.40370849898471 11.055407640085907 24.946518567743574
    vertex 44.403708498984734 11.055407640085907 24.946518567743574
  endloop
endfacet
facet normal 0.0 1.0 0.0
  outer loop
    vertex 104.40370849898471 11.055407640085907 24.946518567743574
    vertex 44.403708498984734 11.055407640085907 31.12651856774357
    vertex 104.40370849898471 11.055407640085907 31.12651856774357
  endloop
endfacet
facet normal 0.0 0.0 1.0
  outer loop
    vertex 104.40370849898471 11.055407640085907 24.946518567743574
    vertex 44.403708498984734 17.235407640085644 24.946518567743574
    vertex 44.403708498984734 11.055407640085907 24.946518567743574
  endloop
endfacet
facet normal 0.0 0.0 1.0
  outer loop
    vertex 44.403708498984734 17.235407640085644 24.946518567743574
    vertex 104.40370849898471 11.055407640085907 24.946518567743574
    vertex 104.40370849898471 17.235407640085644 24.946518567743574
  endloop
endfacet
facet normal -2.6705737404958997e-32 5.653527500722694e-15 -1.0
  outer loop
    vertex 44.40370849898483 33.4037084989849 18.046518567743696
    vertex 104.40370849898471 11.955407640085914 18.046518567743576
    vertex 44.403708498984734 11.955407640085914 18.046518567743576
  endloop
endfacet
facet normal -2.6705737404958997e-32 5.653527500722694e-15 -1.0
  outer loop
    vertex 104.40370849898471 11.955407640085914 18.046518567743576
    vertex 44.40370849898483 33.4037084989849 18.046518567743696
    vertex 104.40370849898449 33.4037084989849 18.046518567743696
  endloop
endfacet
facet normal 1.0 5.31060124860982e-15 -2.8688249379339633e-15
  outer loop
    vertex 104.40370849898471 19.403708498984923 33.12651856774358
    vertex 104.40370849898471 19.36963432527399 33.3853376128461
    vertex 104.40370849898463 19.403708498984887 26.046518567743732
  endloop
endfacet
facet normal 1.0 5.31060124860982e-15 -2.8688249379339633e-15
  outer loop
    vertex 104.40370849898471 11.955407640085914 18.046518567743576
    vertex 104.40370849898471 11.055407640085907 24.946518567743574
    vertex 104.40370849898471 10.750241362023619 18.237398154192476
  endloop
endfacet
facet normal 1.0 5.31060124860982e-15 -2.8688249379339633e-15
  outer loop
    vertex 104.40370849898471 11.055407640085907 24.946518567743574
    vertex 104.40370849898471 11.955407640085914 18.046518567743576
    vertex 104.40370849898471 17.235407640085644 24.946518567743574
  endloop
endfacet
facet normal 1.0 5.31060124860982e-15 -2.8688249379339633e-15
  outer loop
    vertex 104.40370849898471 17.235407640085644 24.946518567743574
    vertex 104.40370849898471 11.955407640085914 18.046518567743576
    vertex 104.40370849898463 19.403708498984898 21.046518567743732
  endloop
endfacet
facet normal 1.0 5.31060124860982e-15 -2.8688249379339633e-15
  outer loop
    vertex 104.40370849898463 19.403708498984898 21.046518567743732
    vertex 104.40370849898471 11.955407640085914 18.046518567743576
    vertex 104.40370849898449 33.4037084989849 18.046518567743696
  endloop
endfacet
facet normal 1.0 5.31060124860982e-15 -2.8688249379339633e-15
  outer loop
    vertex 104.40370849898471 17.235407640085644 24.946518567743574
    vertex 104.40370849898463 19.403708498984898 21.046518567743732
    vertex 104.40370849898471 17.235407640085644 31.12651856774357
  endloop
endfacet
facet normal 1.0 5.31060124860982e-15 -2.8688249379339633e-15
  outer loop
    vertex 104.40370849898471 17.235407640085644 31.12651856774357
    vertex 104.40370849898463 19.403708498984898 21.046518567743732
    vertex 104.40370849898471 18.403708498984923 34.12651856774358
  endloop
endfacet
facet normal 1.0 5.31060124860982e-15 -2.8688249379339633e-15
  outer loop
    vertex 104.40370849898471 18.403708498984923 34.12651856774358
    vertex 104.40370849898463 19.403708498984898 21.046518567743732
    vertex 104.40370849898471 18.662527544087446 34.092444394032654
  endloop
endfacet
facet normal 1.0 5.31060124860982e-15 -2.8688249379339633e-15
  outer loop
    vertex 104.40370849898471 18.662527544087446 34.092444394032654
    vertex 104.40370849898463 19.403708498984898 21.046518567743732
    vertex 104.40370849898471 18.903708498984923 33.99254397152802
  endloop
endfacet
facet normal 1.0 5.31060124860982e-15 -2.8688249379339633e-15
  outer loop
    vertex 104.40370849898471 18.903708498984923 33.99254397152802
    vertex 104.40370849898463 19.403708498984898 21.046518567743732
    vertex 104.40370849898471 19.110815280171465 33.83362534893013
  endloop
endfacet
facet normal 1.0 5.31060124860982e-15 -2.8688249379339633e-15
  outer loop
    vertex 104.40370849898471 19.110815280171465 33.83362534893013
    vertex 104.40370849898463 19.403708498984898 21.046518567743732
    vertex 104.40370849898471 19.269733902769364 33.62651856774358
  endloop
endfacet
facet normal 1.0 5.31060124860982e-15 -2.8688249379339633e-15
  outer loop
    vertex 104.40370849898471 19.269733902769364 33.62651856774358
    vertex 104.40370849898463 19.403708498984898 21.046518567743732
    vertex 104.40370849898471 19.36963432527399 33.3853376128461
  endloop
endfacet
facet normal 1.0 5.31060124860982e-15 -2.8688249379339633e-15
  outer loop
    vertex 104.40370849898471 19.36963432527399 33.3853376128461
    vertex 104.40370849898463 19.403708498984898 21.046518567743732
    vertex 104.40370849898463 19.403708498984887 26.046518567743732
  endloop
endfacet
facet normal 1.0 5.31060124860982e-15 -2.8688249379339633e-15
  outer loop
    vertex 104.40370849898463 19.403708498984898 21.046518567743732
    vertex 104.40370849898449 33.4037084989849 18.046518567743696
    vertex 104.40370849898463 24.4037084989849 21.046518567743725
  endloop
endfacet
facet normal 1.0 5.31060124860982e-15 -2.8688249379339633e-15
  outer loop
    vertex 104.40370849898463 24.4037084989849 21.046518567743725
    vertex 104.40370849898449 33.4037084989849 18.046518567743696
    vertex 104.40370849898463 34.4037084989849 21.046518567743703
  endloop
endfacet
facet normal 1.0 5.31060124860982e-15 -2.8688249379339633e-15
  outer loop
    vertex 104.40370849898463 34.4037084989849 21.046518567743703
    vertex 104.40370849898449 33.4037084989849 18.046518567743696
    vertex 104.40370849898449 33.66252754408742 18.08059274145463
  endloop
endfacet
facet normal 1.0 5.31060124860982e-15 -2.8688249379339633e-15
  outer loop
    vertex 104.40370849898463 34.4037084989849 21.046518567743703
    vertex 104.40370849898449 33.66252754408742 18.08059274145463
    vertex 104.40370849898449 33.9037084989849 18.18049316395926
  endloop
endfacet
facet normal 1.0 5.31060124860982e-15 -2.8688249379339633e-15
  outer loop
    vertex 104.40370849898463 34.4037084989849 21.046518567743703
    vertex 104.40370849898449 33.9037084989849 18.18049316395926
    vertex 104.40370849898449 34.110815280171444 18.33941178655715
  endloop
endfacet
facet normal 1.0 5.31060124860982e-15 -2.8688249379339633e-15
  outer loop
    vertex 104.40370849898463 34.4037084989849 21.046518567743703
    vertex 104.40370849898449 34.110815280171444 18.33941178655715
    vertex 104.40370849898449 34.26973390276933 18.546518567743696
  endloop
endfacet
facet normal 1.0 5.31060124860982e-15 -2.8688249379339633e-15
  outer loop
    vertex 104.40370849898463 34.4037084989849 21.046518567743703
    vertex 104.40370849898449 34.26973390276933 18.546518567743696
    vertex 104.40370849898449 34.369634325273964 18.787699522641176
  endloop
endfacet
facet normal 1.0 5.31060124860982e-15 -2.8688249379339633e-15
  outer loop
    vertex 104.40370849898463 34.4037084989849 21.046518567743703
    vertex 104.40370849898449 34.369634325273964 18.787699522641176
    vertex 104.40370849898449 34.40370849898489 19.046518567743696
  endloop
endfacet
facet normal 1.0 5.31060124860982e-15 -2.8688249379339633e-15
  outer loop
    vertex 104.40370849898471 8.055407640085916 21.94651856774357
    vertex 104.40370849898471 8.089481813796839 33.385337612846094
    vertex 104.40370849898471 8.055407640085907 33.12651856774357
  endloop
endfacet
facet normal 1.0 5.31060124860982e-15 -2.8688249379339633e-15
  outer loop
    vertex 104.40370849898471 8.089481813796839 33.385337612846094
    vertex 104.40370849898471 8.055407640085916 21.94651856774357
    vertex 104.40370849898471 8.246287226534816 20.741352289681277
  endloop
endfacet
facet normal 1.0 5.31060124860982e-15 -2.8688249379339633e-15
  outer loop
    vertex 104.40370849898471 8.089481813796839 33.385337612846094
    vertex 104.40370849898471 8.246287226534816 20.741352289681277
    vertex 104.40370849898471 8.18938223630147 33.626518567743574
  endloop
endfacet
facet normal 1.0 5.31060124860982e-15 -2.8688249379339633e-15
  outer loop
    vertex 104.40370849898471 8.18938223630147 33.626518567743574
    vertex 104.40370849898471 8.246287226534816 20.741352289681277
    vertex 104.40370849898471 8.34830085889936 33.83362534893012
  endloop
endfacet
facet normal 1.0 5.31060124860982e-15 -2.8688249379339633e-15
  outer loop
    vertex 104.40370849898471 8.34830085889936 33.83362534893012
    vertex 104.40370849898471 8.246287226534816 20.741352289681277
    vertex 104.40370849898471 8.80024136202362 19.654156083802928
  endloop
endfacet
facet normal 1.0 5.31060124860982e-15 -2.8688249379339633e-15
  outer loop
    vertex 104.40370849898471 8.34830085889936 33.83362534893012
    vertex 104.40370849898471 8.80024136202362 19.654156083802928
    vertex 104.40370849898471 8.555407640085908 33.992543971528015
  endloop
endfacet
facet normal 1.0 5.31060124860982e-15 -2.8688249379339633e-15
  outer loop
    vertex 104.40370849898471 8.555407640085908 33.992543971528015
    vertex 104.40370849898471 8.80024136202362 19.654156083802928
    vertex 104.40370849898471 8.796588594983389 34.09244439403264
  endloop
endfacet
facet normal 1.0 5.31060124860982e-15 -2.8688249379339633e-15
  outer loop
    vertex 104.40370849898471 8.796588594983389 34.09244439403264
    vertex 104.40370849898471 8.80024136202362 19.654156083802928
    vertex 104.40370849898471 9.055407640085908 34.126518567743574
  endloop
endfacet
facet normal 1.0 5.31060124860982e-15 -2.8688249379339633e-15
  outer loop
    vertex 104.40370849898471 9.055407640085908 34.126518567743574
    vertex 104.40370849898471 8.80024136202362 19.654156083802928
    vertex 104.40370849898471 9.663045156145268 18.791352289681278
  endloop
endfacet
facet normal 1.0 5.31060124860982e-15 -2.8688249379339633e-15
  outer loop
    vertex 104.40370849898471 9.055407640085908 34.126518567743574
    vertex 104.40370849898471 9.663045156145268 18.791352289681278
    vertex 104.40370849898471 11.055407640085907 31.12651856774357
  endloop
endfacet
facet normal 1.0 5.31060124860982e-15 -2.8688249379339633e-15
  outer loop
    vertex 104.40370849898471 9.055407640085908 34.126518567743574
    vertex 104.40370849898471 11.055407640085907 31.12651856774357
    vertex 104.40370849898471 18.403708498984923 34.12651856774358
  endloop
endfacet
facet normal 1.0 5.31060124860982e-15 -2.8688249379339633e-15
  outer loop
    vertex 104.40370849898471 11.055407640085907 31.12651856774357
    vertex 104.40370849898471 9.663045156145268 18.791352289681278
    vertex 104.40370849898471 10.750241362023619 18.237398154192476
  endloop
endfacet
facet normal 1.0 5.31060124860982e-15 -2.8688249379339633e-15
  outer loop
    vertex 104.40370849898471 11.055407640085907 31.12651856774357
    vertex 104.40370849898471 10.750241362023619 18.237398154192476
    vertex 104.40370849898471 11.055407640085907 24.946518567743574
  endloop
endfacet
facet normal 1.0 5.31060124860982e-15 -2.8688249379339633e-15
  outer loop
    vertex 104.40370849898471 18.403708498984923 34.12651856774358
    vertex 104.40370849898471 11.055407640085907 31.12651856774357
    vertex 104.40370849898471 17.235407640085644 31.12651856774357
  endloop
endfacet
facet normal 3.818858371923945e-33 1.0 -4.7796042077084015e-15
  outer loop
    vertex 44.40370849898483 19.403708498984923 33.12651856774358
    vertex 104.40370849898463 19.403708498984887 26.046518567743732
    vertex 44.40370849898483 19.403708498984887 26.046518567743732
  endloop
endfacet
facet normal 3.818858371923945e-33 1.0 -4.7796042077084015e-15
  outer loop
    vertex 104.40370849898463 19.403708498984887 26.046518567743732
    vertex 44.40370849898483 19.403708498984923 33.12651856774358
    vertex 104.40370849898471 19.403708498984923 33.12651856774358
  endloop
endfacet
facet normal 2.6783488311845894e-33 1.0 -2.8199664825478864e-15
  outer loop
    vertex 44.40370849898483 34.4037084989849 21.046518567743703
    vertex 104.40370849898449 34.40370849898489 19.046518567743696
    vertex 44.40370849898483 34.40370849898489 19.046518567743696
  endloop
endfacet
facet normal 2.6783488311845894e-33 1.0 -2.8199664825478864e-15
  outer loop
    vertex 104.40370849898449 34.40370849898489 19.046518567743696
    vertex 44.40370849898483 34.4037084989849 21.046518567743703
    vertex 104.40370849898463 34.4037084989849 21.046518567743703
  endloop
endfacet
facet normal -6.1116843579347375e-33 1.8430495225223756e-15 1.0
  outer loop
    vertex 104.40370849898463 24.4037084989849 21.046518567743725
    vertex 44.40370849898483 34.4037084989849 21.046518567743703
    vertex 44.40370849898483 24.4037084989849 21.046518567743725
  endloop
endfacet
facet normal -6.1116843579347375e-33 1.8430495225223756e-15 1.0
  outer loop
    vertex 44.40370849898483 34.4037084989849 21.046518567743703
    vertex 104.40370849898463 24.4037084989849 21.046518567743725
    vertex 104.40370849898463 34.4037084989849 21.046518567743703
  endloop
endfacet
facet normal 0.0 -0.15643446504023029 -0.987688340595138
  outer loop
    vertex 104.40370849898471 11.955407640085914 18.046518567743576
    vertex 44.403708498984734 10.750241362023619 18.237398154192476
    vertex 44.403708498984734 11.955407640085914 18.046518567743576
  endloop
endfacet
facet normal 0.0 -0.15643446504023029 -0.987688340595138
  outer loop
    vertex 44.403708498984734 10.750241362023619 18.237398154192476
    vertex 104.40370849898471 11.955407640085914 18.046518567743576
    vertex 104.40370849898471 10.750241362023619 18.237398154192476
  endloop
endfacet
facet normal -0.0 -0.45399049973954597 -0.8910065241883685
  outer loop
    vertex 104.40370849898471 10.750241362023619 18.237398154192476
    vertex 44.403708498984734 9.663045156145268 18.791352289681278
    vertex 44.403708498984734 10.750241362023619 18.237398154192476
  endloop
endfacet
facet normal -0.0 -0.45399049973954597 -0.8910065241883685
  outer loop
    vertex 44.403708498984734 9.663045156145268 18.791352289681278
    vertex 104.40370849898471 10.750241362023619 18.237398154192476
    vertex 104.40370849898471 9.663045156145268 18.791352289681278
  endloop
endfacet
facet normal -0.0 -0.7071067811865477 -0.7071067811865474
  outer loop
    vertex 104.40370849898471 8.80024136202362 19.654156083802928
    vertex 44.403708498984734 9.663045156145268 18.791352289681278
    vertex 104.40370849898471 9.663045156145268 18.791352289681278
  endloop
endfacet
facet normal -0.0 -0.7071067811865477 -0.7071067811865474
  outer loop
    vertex 44.403708498984734 9.663045156145268 18.791352289681278
    vertex 104.40370849898471 8.80024136202362 19.654156083802928
    vertex 44.403708498984734 8.80024136202362 19.654156083802928
  endloop
endfacet
facet normal -0.0 -0.8910065241883682 -0.45399049973954614
  outer loop
    vertex 104.40370849898471 8.246287226534816 20.741352289681277
    vertex 44.403708498984734 8.80024136202362 19.654156083802928
    vertex 104.40370849898471 8.80024136202362 19.654156083802928
  endloop
endfacet
facet normal -0.0 -0.8910065241883682 -0.45399049973954614
  outer loop
    vertex 44.403708498984734 8.80024136202362 19.654156083802928
    vertex 104.40370849898471 8.246287226534816 20.741352289681277
    vertex 44.403708498984734 8.246287226534816 20.741352289681277
  endloop
endfacet
facet normal 0.0 -0.9876883405951378 -0.1564344650402315
  outer loop
    vertex 104.40370849898471 8.055407640085916 21.94651856774357
    vertex 44.403708498984734 8.246287226534816 20.741352289681277
    vertex 104.40370849898471 8.246287226534816 20.741352289681277
  endloop
endfacet
facet normal 0.0 -0.9876883405951378 -0.1564344650402315
  outer loop
    vertex 44.403708498984734 8.246287226534816 20.741352289681277
    vertex 104.40370849898471 8.055407640085916 21.94651856774357
    vertex 44.403708498984734 8.055407640085916 21.94651856774357
  endloop
endfacet
facet normal 1.0 0.0 0.0
  outer loop
    vertex 104.40370849898463 19.403708498984898 21.046518567743732
    vertex 104.40370849898463 19.44648419211584 25.39388760664347
    vertex 104.40370849898463 19.403708498984887 26.046518567743732
  endloop
endfacet
facet normal 1.0 0.0 0.0
  outer loop
    vertex 104.40370849898463 19.44648419211584 25.39388760664347
    vertex 104.40370849898463 19.403708498984898 21.046518567743732
    vertex 104.40370849898463 19.574079367539547 24.752423342231126
  endloop
endfacet
facet normal 1.0 0.0 0.0
  outer loop
    vertex 104.40370849898463 19.574079367539547 24.752423342231126
    vertex 104.40370849898463 19.403708498984898 21.046518567743732
    vertex 104.40370849898463 19.784310836428457 24.13310140591828
  endloop
endfacet
facet normal 1.0 0.0 0.0
  outer loop
    vertex 104.40370849898463 19.784310836428457 24.13310140591828
    vertex 104.40370849898463 19.403708498984898 21.046518567743732
    vertex 104.40370849898463 20.0735814800627 23.54651856774373
  endloop
endfacet
facet normal 1.0 0.0 0.0
  outer loop
    vertex 104.40370849898463 20.0735814800627 23.54651856774373
    vertex 104.40370849898463 19.403708498984898 21.046518567743732
    vertex 104.40370849898463 20.436941797528714 23.002711422700123
  endloop
endfacet
facet normal 1.0 0.0 0.0
  outer loop
    vertex 104.40370849898463 20.436941797528714 23.002711422700123
    vertex 104.40370849898463 19.403708498984898 21.046518567743732
    vertex 104.40370849898463 20.868174593052153 22.510984661810987
  endloop
endfacet
facet normal 1.0 0.0 0.0
  outer loop
    vertex 104.40370849898463 20.868174593052153 22.510984661810987
    vertex 104.40370849898463 19.403708498984898 21.046518567743732
    vertex 104.40370849898463 21.359901353941293 22.07975186628755
  endloop
endfacet
facet normal 1.0 0.0 0.0
  outer loop
    vertex 104.40370849898463 21.359901353941293 22.07975186628755
    vertex 104.40370849898463 19.403708498984898 21.046518567743732
    vertex 104.40370849898463 21.903708498984894 21.71639154882153
  endloop
endfacet
facet normal 1.0 0.0 0.0
  outer loop
    vertex 104.40370849898463 21.903708498984894 21.71639154882153
    vertex 104.40370849898463 19.403708498984898 21.046518567743732
    vertex 104.40370849898463 22.490291337159448 21.42712090518729
  endloop
endfacet
facet normal 1.0 0.0 0.0
  outer loop
    vertex 104.40370849898463 22.490291337159448 21.42712090518729
    vertex 104.40370849898463 19.403708498984898 21.046518567743732
    vertex 104.40370849898463 23.10961327347229 21.21688943629838
  endloop
endfacet
facet normal 1.0 0.0 0.0
  outer loop
    vertex 104.40370849898463 23.10961327347229 21.21688943629838
    vertex 104.40370849898463 19.403708498984898 21.046518567743732
    vertex 104.40370849898463 23.75107753788464 21.08929426087467
  endloop
endfacet
facet normal 1.0 0.0 0.0
  outer loop
    vertex 104.40370849898463 23.75107753788464 21.08929426087467
    vertex 104.40370849898463 19.403708498984898 21.046518567743732
    vertex 104.40370849898463 24.4037084989849 21.046518567743725
  endloop
endfacet
facet normal -1.0 0.0 0.0
  outer loop
    vertex 44.40370849898483 19.44648419211584 25.39388760664347
    vertex 44.40370849898483 19.403708498984898 21.046518567743732
    vertex 44.40370849898483 19.403708498984887 26.046518567743732
  endloop
endfacet
facet normal -1.0 0.0 0.0
  outer loop
    vertex 44.40370849898483 19.403708498984898 21.046518567743732
    vertex 44.40370849898483 19.44648419211584 25.39388760664347
    vertex 44.40370849898483 19.574079367539547 24.752423342231126
  endloop
endfacet
facet normal -1.0 0.0 0.0
  outer loop
    vertex 44.40370849898483 19.403708498984898 21.046518567743732
    vertex 44.40370849898483 19.574079367539547 24.752423342231126
    vertex 44.40370849898483 19.784310836428457 24.13310140591828
  endloop
endfacet
facet normal -1.0 0.0 0.0
  outer loop
    vertex 44.40370849898483 19.403708498984898 21.046518567743732
    vertex 44.40370849898483 19.784310836428457 24.13310140591828
    vertex 44.40370849898483 20.0735814800627 23.54651856774373
  endloop
endfacet
facet normal -1.0 0.0 0.0
  outer loop
    vertex 44.40370849898483 19.403708498984898 21.046518567743732
    vertex 44.40370849898483 20.0735814800627 23.54651856774373
    vertex 44.40370849898483 20.436941797528714 23.002711422700123
  endloop
endfacet
facet normal -1.0 0.0 0.0
  outer loop
    vertex 44.40370849898483 19.403708498984898 21.046518567743732
    vertex 44.40370849898483 20.436941797528714 23.002711422700123
    vertex 44.40370849898483 20.868174593052153 22.510984661810987
  endloop
endfacet
facet normal -1.0 0.0 0.0
  outer loop
    vertex 44.40370849898483 19.403708498984898 21.046518567743732
    vertex 44.40370849898483 20.868174593052153 22.510984661810987
    vertex 44.40370849898483 21.359901353941293 22.07975186628755
  endloop
endfacet
facet normal -1.0 0.0 0.0
  outer loop
    vertex 44.40370849898483 19.403708498984898 21.046518567743732
    vertex 44.40370849898483 21.359901353941293 22.07975186628755
    vertex 44.40370849898483 21.903708498984894 21.71639154882153
  endloop
endfacet
facet normal -1.0 0.0 0.0
  outer loop
    vertex 44.40370849898483 19.403708498984898 21.046518567743732
    vertex 44.40370849898483 21.903708498984894 21.71639154882153
    vertex 44.40370849898483 22.490291337159448 21.42712090518729
  endloop
endfacet
facet normal -1.0 0.0 0.0
  outer loop
    vertex 44.40370849898483 19.403708498984898 21.046518567743732
    vertex 44.40370849898483 22.490291337159448 21.42712090518729
    vertex 44.40370849898483 23.10961327347229 21.21688943629838
  endloop
endfacet
facet normal -1.0 0.0 0.0
  outer loop
    vertex 44.40370849898483 19.403708498984898 21.046518567743732
    vertex 44.40370849898483 23.10961327347229 21.21688943629838
    vertex 44.40370849898483 23.75107753788464 21.08929426087467
  endloop
endfacet
facet normal -1.0 0.0 0.0
  outer loop
    vertex 44.40370849898483 19.403708498984898 21.046518567743732
    vertex 44.40370849898483 23.75107753788464 21.08929426087467
    vertex 44.40370849898483 24.4037084989849 21.046518567743725
  endloop
endfacet
facet normal 0.0 0.06540312923014302 0.9978589232386036
  outer loop
    vertex 104.40370849898463 23.75107753788464 21.08929426087467
    vertex 44.40370849898483 24.4037084989849 21.046518567743725
    vertex 44.40370849898483 23.75107753788464 21.08929426087467
  endloop
endfacet
facet normal 0.0 0.06540312923014302 0.9978589232386036
  outer loop
    vertex 44.40370849898483 24.4037084989849 21.046518567743725
    vertex 104.40370849898463 23.75107753788464 21.08929426087467
    vertex 104.40370849898463 24.4037084989849 21.046518567743725
  endloop
endfacet
facet normal 0.0 0.19509032201612755 0.9807852804032305
  outer loop
    vertex 104.40370849898463 23.10961327347229 21.21688943629838
    vertex 44.40370849898483 23.75107753788464 21.08929426087467
    vertex 44.40370849898483 23.10961327347229 21.21688943629838
  endloop
endfacet
facet normal 0.0 0.19509032201612755 0.9807852804032305
  outer loop
    vertex 44.40370849898483 23.75107753788464 21.08929426087467
    vertex 104.40370849898463 23.10961327347229 21.21688943629838
    vertex 104.40370849898463 23.75107753788464 21.08929426087467
  endloop
endfacet
facet normal 0.0 0.32143946530316164 0.9469301294951057
  outer loop
    vertex 104.40370849898463 22.490291337159448 21.42712090518729
    vertex 44.40370849898483 23.10961327347229 21.21688943629838
    vertex 44.40370849898483 22.490291337159448 21.42712090518729
  endloop
endfacet
facet normal 0.0 0.32143946530316164 0.9469301294951057
  outer loop
    vertex 44.40370849898483 23.10961327347229 21.21688943629838
    vertex 104.40370849898463 22.490291337159448 21.42712090518729
    vertex 104.40370849898463 23.10961327347229 21.21688943629838
  endloop
endfacet
facet normal 0.0 0.4422886902190009 0.8968727415326885
  outer loop
    vertex 104.40370849898463 21.903708498984894 21.71639154882153
    vertex 44.40370849898483 22.490291337159448 21.42712090518729
    vertex 44.40370849898483 21.903708498984894 21.71639154882153
  endloop
endfacet
facet normal 0.0 0.4422886902190009 0.8968727415326885
  outer loop
    vertex 44.40370849898483 22.490291337159448 21.42712090518729
    vertex 104.40370849898463 21.903708498984894 21.71639154882153
    vertex 104.40370849898463 22.490291337159448 21.42712090518729
  endloop
endfacet
facet normal 0.0 0.5555702330196045 0.8314696123025438
  outer loop
    vertex 104.40370849898463 21.359901353941293 22.07975186628755
    vertex 44.40370849898483 21.903708498984894 21.71639154882153
    vertex 44.40370849898483 21.359901353941293 22.07975186628755
  endloop
endfacet
facet normal 0.0 0.5555702330196045 0.8314696123025438
  outer loop
    vertex 44.40370849898483 21.903708498984894 21.71639154882153
    vertex 104.40370849898463 21.359901353941293 22.07975186628755
    vertex 104.40370849898463 21.903708498984894 21.71639154882153
  endloop
endfacet
facet normal 0.0 0.6593458151000665 0.7518398074789796
  outer loop
    vertex 104.40370849898463 20.868174593052153 22.510984661810987
    vertex 44.40370849898483 21.359901353941293 22.07975186628755
    vertex 44.40370849898483 20.868174593052153 22.510984661810987
  endloop
endfacet
facet normal 0.0 0.6593458151000665 0.7518398074789796
  outer loop
    vertex 44.40370849898483 21.359901353941293 22.07975186628755
    vertex 104.40370849898463 20.868174593052153 22.510984661810987
    vertex 104.40370849898463 21.359901353941293 22.07975186628755
  endloop
endfacet
facet normal 0.0 0.7518398074789776 0.6593458151000686
  outer loop
    vertex 44.40370849898483 20.436941797528714 23.002711422700123
    vertex 104.40370849898463 20.868174593052153 22.510984661810987
    vertex 44.40370849898483 20.868174593052153 22.510984661810987
  endloop
endfacet
facet normal 0.0 0.7518398074789776 0.6593458151000686
  outer loop
    vertex 104.40370849898463 20.868174593052153 22.510984661810987
    vertex 44.40370849898483 20.436941797528714 23.002711422700123
    vertex 104.40370849898463 20.436941797528714 23.002711422700123
  endloop
endfacet
facet normal 0.0 0.8314696123025466 0.5555702330196003
  outer loop
    vertex 44.40370849898483 20.0735814800627 23.54651856774373
    vertex 104.40370849898463 20.436941797528714 23.002711422700123
    vertex 44.40370849898483 20.436941797528714 23.002711422700123
  endloop
endfacet
facet normal 0.0 0.8314696123025466 0.5555702330196003
  outer loop
    vertex 104.40370849898463 20.436941797528714 23.002711422700123
    vertex 44.40370849898483 20.0735814800627 23.54651856774373
    vertex 104.40370849898463 20.0735814800627 23.54651856774373
  endloop
endfacet
facet normal 0.0 0.896872741532687 0.442288690219004
  outer loop
    vertex 44.40370849898483 19.784310836428457 24.13310140591828
    vertex 104.40370849898463 20.0735814800627 23.54651856774373
    vertex 44.40370849898483 20.0735814800627 23.54651856774373
  endloop
endfacet
facet normal 0.0 0.896872741532687 0.442288690219004
  outer loop
    vertex 104.40370849898463 20.0735814800627 23.54651856774373
    vertex 44.40370849898483 19.784310836428457 24.13310140591828
    vertex 104.40370849898463 19.784310836428457 24.13310140591828
  endloop
endfacet
facet normal 0.0 0.9469301294951047 0.3214394653031647
  outer loop
    vertex 44.40370849898483 19.574079367539547 24.752423342231126
    vertex 104.40370849898463 19.784310836428457 24.13310140591828
    vertex 44.40370849898483 19.784310836428457 24.13310140591828
  endloop
endfacet
facet normal 0.0 0.9469301294951047 0.3214394653031647
  outer loop
    vertex 104.40370849898463 19.784310836428457 24.13310140591828
    vertex 44.40370849898483 19.574079367539547 24.752423342231126
    vertex 104.40370849898463 19.574079367539547 24.752423342231126
  endloop
endfacet
facet normal 0.0 0.9807852804032313 0.19509032201612414
  outer loop
    vertex 44.40370849898483 19.44648419211584 25.39388760664347
    vertex 104.40370849898463 19.574079367539547 24.752423342231126
    vertex 44.40370849898483 19.574079367539547 24.752423342231126
  endloop
endfacet
facet normal 0.0 0.9807852804032313 0.19509032201612414
  outer loop
    vertex 104.40370849898463 19.574079367539547 24.752423342231126
    vertex 44.40370849898483 19.44648419211584 25.39388760664347
    vertex 104.40370849898463 19.44648419211584 25.39388760664347
  endloop
endfacet
facet normal 0.0 0.9978589232386034 0.06540312923014734
  outer loop
    vertex 44.40370849898483 19.403708498984887 26.046518567743732
    vertex 104.40370849898463 19.44648419211584 25.39388760664347
    vertex 44.40370849898483 19.44648419211584 25.39388760664347
  endloop
endfacet
facet normal 0.0 0.9978589232386034 0.06540312923014734
  outer loop
    vertex 104.40370849898463 19.44648419211584 25.39388760664347
    vertex 44.40370849898483 19.403708498984887 26.046518567743732
    vertex 104.40370849898463 19.403708498984887 26.046518567743732
  endloop
endfacet
facet normal -2.0289103675657524e-20 -0.13052619222005216 0.9914448613738105
  outer loop
    vertex 104.40370849898471 8.796588594983389 34.09244439403264
    vertex 44.40370849898478 9.055407640085908 34.126518567743574
    vertex 44.40370849898478 8.796588594983389 34.09244439403264
  endloop
endfacet
facet normal -2.0289103675657524e-20 -0.13052619222005216 0.9914448613738105
  outer loop
    vertex 44.40370849898478 9.055407640085908 34.126518567743574
    vertex 104.40370849898471 8.796588594983389 34.09244439403264
    vertex 104.40370849898471 9.055407640085908 34.126518567743574
  endloop
endfacet
facet normal -6.777498436755818e-32 -0.9914448613738105 0.13052619222005143
  outer loop
    vertex 104.40370849898471 8.089481813796839 33.385337612846094
    vertex 44.40370849898478 8.055407640085907 33.12651856774357
    vertex 104.40370849898471 8.055407640085907 33.12651856774357
  endloop
endfacet
facet normal -6.777498436755818e-32 -0.9914448613738105 0.13052619222005143
  outer loop
    vertex 44.40370849898478 8.055407640085907 33.12651856774357
    vertex 104.40370849898471 8.089481813796839 33.385337612846094
    vertex 44.40370849898478 8.089481813796839 33.385337612846094
  endloop
endfacet
facet normal 0.0 -0.9238795325112861 0.3826834323650913
  outer loop
    vertex 104.40370849898471 8.18938223630147 33.626518567743574
    vertex 44.40370849898478 8.089481813796839 33.385337612846094
    vertex 104.40370849898471 8.089481813796839 33.385337612846094
  endloop
endfacet
facet normal 0.0 -0.9238795325112861 0.3826834323650913
  outer loop
    vertex 44.40370849898478 8.089481813796839 33.385337612846094
    vertex 104.40370849898471 8.18938223630147 33.626518567743574
    vertex 44.40370849898478 8.18938223630147 33.626518567743574
  endloop
endfacet
facet normal 0.0 -0.7933533402912322 0.6087614290087248
  outer loop
    vertex 104.40370849898471 8.34830085889936 33.83362534893012
    vertex 44.40370849898478 8.18938223630147 33.626518567743574
    vertex 104.40370849898471 8.18938223630147 33.626518567743574
  endloop
endfacet
facet normal 0.0 -0.7933533402912322 0.6087614290087248
  outer loop
    vertex 44.40370849898478 8.18938223630147 33.626518567743574
    vertex 104.40370849898471 8.34830085889936 33.83362534893012
    vertex 44.40370849898478 8.34830085889936 33.83362534893012
  endloop
endfacet
facet normal 0.0 -0.6087614290087213 0.7933533402912347
  outer loop
    vertex 104.40370849898471 8.34830085889936 33.83362534893012
    vertex 44.40370849898478 8.555407640085908 33.992543971528015
    vertex 44.40370849898478 8.34830085889936 33.83362534893012
  endloop
endfacet
facet normal 0.0 -0.6087614290087213 0.7933533402912347
  outer loop
    vertex 44.40370849898478 8.555407640085908 33.992543971528015
    vertex 104.40370849898471 8.34830085889936 33.83362534893012
    vertex 104.40370849898471 8.555407640085908 33.992543971528015
  endloop
endfacet
facet normal 0.0 -0.3826834323650913 0.9238795325112861
  outer loop
    vertex 104.40370849898471 8.555407640085908 33.992543971528015
    vertex 44.40370849898478 8.796588594983389 34.09244439403264
    vertex 44.40370849898478 8.555407640085908 33.992543971528015
  endloop
endfacet
facet normal 0.0 -0.3826834323650913 0.9238795325112861
  outer loop
    vertex 44.40370849898478 8.796588594983389 34.09244439403264
    vertex 104.40370849898471 8.555407640085908 33.992543971528015
    vertex 104.40370849898471 8.796588594983389 34.09244439403264
  endloop
endfacet
facet normal 0.0 0.9914448613738105 0.13052619222005216
  outer loop
    vertex 44.40370849898483 19.36963432527399 33.3853376128461
    vertex 104.40370849898471 19.403708498984923 33.12651856774358
    vertex 44.40370849898483 19.403708498984923 33.12651856774358
  endloop
endfacet
facet normal 0.0 0.9914448613738105 0.13052619222005216
  outer loop
    vertex 104.40370849898471 19.403708498984923 33.12651856774358
    vertex 44.40370849898483 19.36963432527399 33.3853376128461
    vertex 104.40370849898471 19.36963432527399 33.3853376128461
  endloop
endfacet
facet normal 0.0 0.13052619222005077 0.9914448613738105
  outer loop
    vertex 104.40370849898471 18.403708498984923 34.12651856774358
    vertex 44.40370849898483 18.662527544087446 34.092444394032654
    vertex 44.40370849898483 18.403708498984923 34.12651856774358
  endloop
endfacet
facet normal 0.0 0.13052619222005077 0.9914448613738105
  outer loop
    vertex 44.40370849898483 18.662527544087446 34.092444394032654
    vertex 104.40370849898471 18.403708498984923 34.12651856774358
    vertex 104.40370849898471 18.662527544087446 34.092444394032654
  endloop
endfacet
facet normal 0.0 0.3826834323650951 0.9238795325112845
  outer loop
    vertex 104.40370849898471 18.662527544087446 34.092444394032654
    vertex 44.40370849898483 18.903708498984923 33.99254397152802
    vertex 44.40370849898483 18.662527544087446 34.092444394032654
  endloop
endfacet
facet normal 0.0 0.3826834323650951 0.9238795325112845
  outer loop
    vertex 44.40370849898483 18.903708498984923 33.99254397152802
    vertex 104.40370849898471 18.662527544087446 34.092444394032654
    vertex 104.40370849898471 18.903708498984923 33.99254397152802
  endloop
endfacet
facet normal 0.0 0.6087614290087231 0.7933533402912333
  outer loop
    vertex 104.40370849898471 18.903708498984923 33.99254397152802
    vertex 44.40370849898483 19.110815280171465 33.83362534893013
    vertex 44.40370849898483 18.903708498984923 33.99254397152802
  endloop
endfacet
facet normal 0.0 0.6087614290087231 0.7933533402912333
  outer loop
    vertex 44.40370849898483 19.110815280171465 33.83362534893013
    vertex 104.40370849898471 18.903708498984923 33.99254397152802
    vertex 104.40370849898471 19.110815280171465 33.83362534893013
  endloop
endfacet
facet normal 0.0 0.7933533402912268 0.6087614290087315
  outer loop
    vertex 44.40370849898483 19.110815280171465 33.83362534893013
    vertex 104.40370849898471 19.269733902769364 33.62651856774358
    vertex 44.40370849898483 19.269733902769364 33.62651856774358
  endloop
endfacet
facet normal 0.0 0.7933533402912268 0.6087614290087315
  outer loop
    vertex 104.40370849898471 19.269733902769364 33.62651856774358
    vertex 44.40370849898483 19.110815280171465 33.83362534893013
    vertex 104.40370849898471 19.110815280171465 33.83362534893013
  endloop
endfacet
facet normal 0.0 0.92387953251129 0.38268343236508207
  outer loop
    vertex 44.40370849898483 19.269733902769364 33.62651856774358
    vertex 104.40370849898471 19.36963432527399 33.3853376128461
    vertex 44.40370849898483 19.36963432527399 33.3853376128461
  endloop
endfacet
facet normal 0.0 0.92387953251129 0.38268343236508207
  outer loop
    vertex 104.40370849898471 19.36963432527399 33.3853376128461
    vertex 44.40370849898483 19.269733902769364 33.62651856774358
    vertex 104.40370849898471 19.269733902769364 33.62651856774358
  endloop
endfacet
facet normal 7.008158840464981e-32 0.9914448613738105 -0.1305261922200518
  outer loop
    vertex 44.40370849898483 34.40370849898489 19.046518567743696
    vertex 104.40370849898449 34.369634325273964 18.787699522641176
    vertex 44.40370849898483 34.369634325273964 18.787699522641176
  endloop
endfacet
facet normal 7.008158840464981e-32 0.9914448613738105 -0.1305261922200518
  outer loop
    vertex 104.40370849898449 34.369634325273964 18.787699522641176
    vertex 44.40370849898483 34.40370849898489 19.046518567743696
    vertex 104.40370849898449 34.40370849898489 19.046518567743696
  endloop
endfacet
facet normal 1.8452832296727936e-32 0.13052619222005077 -0.9914448613738105
  outer loop
    vertex 104.40370849898449 33.66252754408742 18.08059274145463
    vertex 44.40370849898483 33.4037084989849 18.046518567743696
    vertex 44.40370849898483 33.66252754408742 18.08059274145463
  endloop
endfacet
facet normal 1.8452832296727936e-32 0.13052619222005077 -0.9914448613738105
  outer loop
    vertex 44.40370849898483 33.4037084989849 18.046518567743696
    vertex 104.40370849898449 33.66252754408742 18.08059274145463
    vertex 104.40370849898449 33.4037084989849 18.046518567743696
  endloop
endfacet
facet normal 0.0 0.38268343236509283 -0.9238795325112855
  outer loop
    vertex 104.40370849898449 33.9037084989849 18.18049316395926
    vertex 44.40370849898483 33.66252754408742 18.08059274145463
    vertex 44.40370849898483 33.9037084989849 18.18049316395926
  endloop
endfacet
facet normal 0.0 0.38268343236509283 -0.9238795325112855
  outer loop
    vertex 44.40370849898483 33.66252754408742 18.08059274145463
    vertex 104.40370849898449 33.9037084989849 18.18049316395926
    vertex 104.40370849898449 33.66252754408742 18.08059274145463
  endloop
endfacet
facet normal 0.0 0.6087614290087143 -0.7933533402912399
  outer loop
    vertex 104.40370849898449 34.110815280171444 18.33941178655715
    vertex 44.40370849898483 33.9037084989849 18.18049316395926
    vertex 44.40370849898483 34.110815280171444 18.33941178655715
  endloop
endfacet
facet normal 0.0 0.6087614290087143 -0.7933533402912399
  outer loop
    vertex 44.40370849898483 33.9037084989849 18.18049316395926
    vertex 104.40370849898449 34.110815280171444 18.33941178655715
    vertex 104.40370849898449 33.9037084989849 18.18049316395926
  endloop
endfacet
facet normal 0.0 0.7933533402912374 -0.608761429008718
  outer loop
    vertex 44.40370849898483 34.26973390276933 18.546518567743696
    vertex 104.40370849898449 34.110815280171444 18.33941178655715
    vertex 44.40370849898483 34.110815280171444 18.33941178655715
  endloop
endfacet
facet normal 0.0 0.7933533402912374 -0.608761429008718
  outer loop
    vertex 104.40370849898449 34.110815280171444 18.33941178655715
    vertex 44.40370849898483 34.26973390276933 18.546518567743696
    vertex 104.40370849898449 34.26973390276933 18.546518567743696
  endloop
endfacet
facet normal 0.0 0.9238795325112898 -0.3826834323650826
  outer loop
    vertex 44.40370849898483 34.369634325273964 18.787699522641176
    vertex 104.40370849898449 34.26973390276933 18.546518567743696
    vertex 44.40370849898483 34.26973390276933 18.546518567743696
  endloop
endfacet
facet normal 0.0 0.9238795325112898 -0.3826834323650826
  outer loop
    vertex 104.40370849898449 34.26973390276933 18.546518567743696
    vertex 44.40370849898483 34.369634325273964 18.787699522641176
    vertex 104.40370849898449 34.369634325273964 18.787699522641176
  endloop
endfacet
endsolid MML_M30T_Cradle_rev1
