solid MML_M30T_Cradle_rev1
facet normal -9.675984071027408e-33 -1.0 0.0
  outer loop
    vertex 17.190407640085436 170.40370849898463 31.036518567743464
    vertex 11.010407640085434 170.40370849898463 24.85651856774346
    vertex 17.190407640085436 170.40370849898463 24.85651856774346
  endloop
endfacet
facet normal -9.675984071027408e-33 -1.0 0.0
  outer loop
    vertex 11.010407640085434 170.40370849898463 24.85651856774346
    vertex 17.190407640085436 170.40370849898463 31.036518567743464
    vertex 11.010407640085434 170.40370849898463 31.036518567743464
  endloop
endfacet
facet normal 0.0 0.0 1.0
  outer loop
    vertex 17.190407640085436 158.78114278118647 24.85651856774346
    vertex 11.010407640085434 170.40370849898463 24.85651856774346
    vertex 11.010407640085434 158.78114278118642 24.85651856774346
  endloop
endfacet
facet normal 0.0 0.0 1.0
  outer loop
    vertex 11.010407640085434 170.40370849898463 24.85651856774346
    vertex 17.190407640085436 158.78114278118647 24.85651856774346
    vertex 17.190407640085436 170.40370849898463 24.85651856774346
  endloop
endfacet
facet normal -1.0 -9.675984071027408e-33 0.0
  outer loop
    vertex 17.190407640085436 170.40370849898463 31.036518567743464
    vertex 17.190407640085436 158.78114278118647 24.85651856774346
    vertex 17.190407640085436 158.78114278118647 31.036518567743464
  endloop
endfacet
facet normal -1.0 -9.675984071027408e-33 0.0
  outer loop
    vertex 17.190407640085436 158.78114278118647 24.85651856774346
    vertex 17.190407640085436 170.40370849898463 31.036518567743464
    vertex 17.190407640085436 170.40370849898463 24.85651856774346
  endloop
endfacet
facet normal 1.0 9.675984071027408e-33 0.0
  outer loop
    vertex 11.010407640085434 170.40370849898463 24.85651856774346
    vertex 11.010407640085434 158.78114278118642 31.036518567743464
    vertex 11.010407640085434 158.78114278118642 24.85651856774346
  endloop
endfacet
facet normal 1.0 9.675984071027408e-33 0.0
  outer loop
    vertex 11.010407640085434 158.78114278118642 31.036518567743464
    vertex 11.010407640085434 170.40370849898463 24.85651856774346
    vertex 11.010407640085434 170.40370849898463 31.036518567743464
  endloop
endfacet
facet normal 1.0 9.675984071027408e-33 0.0
  outer loop
    vertex 30.01031021678277 169.40370849898463 21.85651856774349
    vertex 30.01031021678277 171.6170093578837 24.85651856774347
    vertex 30.01031021678277 169.40370849898463 39.85651856774344
  endloop
endfacet
facet normal 1.0 9.675984071027408e-33 0.0
  outer loop
    vertex 30.01031021678277 171.6170093578837 24.85651856774347
    vertex 30.01031021678277 169.40370849898463 21.85651856774349
    vertex 30.01031021678277 180.01031021678287 21.856518567743457
  endloop
endfacet
facet normal 1.0 9.675984071027408e-33 0.0
  outer loop
    vertex 30.01031021678277 171.6170093578837 24.85651856774347
    vertex 30.01031021678277 180.01031021678287 21.856518567743457
    vertex 30.010310216782727 177.79700935788378 24.85651856774347
  endloop
endfacet
facet normal 1.0 9.675984071027408e-33 0.0
  outer loop
    vertex 30.010310216782727 177.79700935788378 24.85651856774347
    vertex 30.01031021678277 180.01031021678287 21.856518567743457
    vertex 30.010310216782727 177.79700935788378 31.036518567743475
  endloop
endfacet
facet normal 1.0 9.675984071027408e-33 0.0
  outer loop
    vertex 30.01031021678277 169.40370849898463 39.85651856774344
    vertex 30.01031021678277 171.6170093578837 31.036518567743475
    vertex 30.01031021678277 180.01031021678287 39.85651856774344
  endloop
endfacet
facet normal 1.0 9.675984071027408e-33 0.0
  outer loop
    vertex 30.01031021678277 171.6170093578837 31.036518567743475
    vertex 30.01031021678277 169.40370849898463 39.85651856774344
    vertex 30.01031021678277 171.6170093578837 24.85651856774347
  endloop
endfacet
facet normal 1.0 9.675984071027408e-33 0.0
  outer loop
    vertex 30.01031021678277 180.01031021678287 39.85651856774344
    vertex 30.01031021678277 171.6170093578837 31.036518567743475
    vertex 30.010310216782727 177.79700935788378 31.036518567743475
  endloop
endfacet
facet normal 1.0 9.675984071027408e-33 0.0
  outer loop
    vertex 30.01031021678277 180.01031021678287 39.85651856774344
    vertex 30.010310216782727 177.79700935788378 31.036518567743475
    vertex 30.01031021678277 180.01031021678287 21.856518567743457
  endloop
endfacet
facet normal 1.0 9.675984071027408e-33 0.0
  outer loop
    vertex 19.403708498984532 167.40220339863063 21.856518567743457
    vertex 19.403708498984532 158.78114278118642 39.856518567743436
    vertex 19.403708498984532 158.78114278118642 21.85651856774346
  endloop
endfacet
facet normal 1.0 9.675984071027408e-33 0.0
  outer loop
    vertex 19.403708498984532 158.78114278118642 39.856518567743436
    vertex 19.403708498984532 167.40220339863063 21.856518567743457
    vertex 19.403708498984532 167.40220339863063 39.85651856774346
  endloop
endfacet
facet normal -2.6216709542400624e-15 -1.0 -4.930380657631324e-32
  outer loop
    vertex 30.01031021678277 169.40370849898463 21.85651856774349
    vertex 21.405213599338456 169.40370849898463 39.85651856774346
    vertex 21.405213599338456 169.40370849898463 21.85651856774346
  endloop
endfacet
facet normal -2.6216709542400624e-15 -1.0 -4.930380657631324e-32
  outer loop
    vertex 21.405213599338456 169.40370849898463 39.85651856774346
    vertex 30.01031021678277 169.40370849898463 21.85651856774349
    vertex 30.01031021678277 169.40370849898463 39.85651856774344
  endloop
endfacet
facet normal -0.13052619222005654 0.9914448613738099 0.0
  outer loop
    vertex 5.996153925120379 188.53175693264797 39.85651856774342
    vertex 8.089999999999744 188.8074169979694 21.856518567743457
    vertex 5.996153925120379 188.53175693264797 21.856518567743457
  endloop
endfacet
facet normal -0.13052619222005654 0.9914448613738099 0.0
  outer loop
    vertex 8.089999999999744 188.8074169979694 21.856518567743457
    vertex 5.996153925120379 188.53175693264797 39.85651856774342
    vertex 8.089999999999744 188.8074169979694 39.85651856774346
  endloop
endfacet
facet normal -0.1305261922200324 -0.9914448613738132 -3.4512664603419275e-31
  outer loop
    vertex 20.770761905428294 169.77000935525146 39.856518567743436
    vertex 20.404461049161448 169.81823377784738 21.85651856774346
    vertex 20.770761905428294 169.77000935525146 21.85651856774346
  endloop
endfacet
facet normal -0.1305261922200324 -0.9914448613738132 -3.4512664603419275e-31
  outer loop
    vertex 20.404461049161448 169.81823377784738 21.85651856774346
    vertex 20.770761905428294 169.77000935525146 39.856518567743436
    vertex 20.404461049161448 169.81823377784738 39.856518567743436
  endloop
endfacet
facet normal 0.0 0.0 1.0
  outer loop
    vertex 2.369506140200652 174.99692313817022 39.85651856774346
    vertex 3.1734375441884914 179.40002805839765 39.856518567743436
    vertex 2.999999999999882 180.7174169979695 39.856518567743436
  endloop
endfacet
facet normal 0.0 0.0 1.0
  outer loop
    vertex 3.1734375441884914 179.40002805839765 39.856518567743436
    vertex 2.369506140200652 174.99692313817022 39.85651856774346
    vertex 4.044999999999815 173.7112714813533 39.85651856774346
  endloop
endfacet
facet normal 0.0 0.0 1.0
  outer loop
    vertex 3.1734375441884914 179.40002805839765 39.856518567743436
    vertex 4.044999999999815 173.7112714813533 39.85651856774346
    vertex 3.681930694737037 178.1724169979695 39.856518567743436
  endloop
endfacet
facet normal 0.0 0.0 1.0
  outer loop
    vertex 3.681930694737037 178.1724169979695 39.856518567743436
    vertex 4.044999999999815 173.7112714813533 39.85651856774346
    vertex 4.4908264837603 177.11824348172993 39.85651856774342
  endloop
endfacet
facet normal 0.0 0.0 1.0
  outer loop
    vertex 4.4908264837603 177.11824348172993 39.85651856774342
    vertex 4.044999999999815 173.7112714813533 39.85651856774346
    vertex 5.9961539251204234 172.90307706329085 39.85651856774346
  endloop
endfacet
facet normal 0.0 0.0 1.0
  outer loop
    vertex 4.4908264837603 177.11824348172993 39.85651856774342
    vertex 5.9961539251204234 172.90307706329085 39.85651856774346
    vertex 5.544999999999836 176.3093476927067 39.85651856774344
  endloop
endfacet
facet normal 0.0 0.0 1.0
  outer loop
    vertex 5.544999999999836 176.3093476927067 39.85651856774344
    vertex 5.9961539251204234 172.90307706329085 39.85651856774346
    vertex 6.772611060428026 175.8008545421581 39.85651856774344
  endloop
endfacet
facet normal 0.0 0.0 1.0
  outer loop
    vertex 6.772611060428026 175.8008545421581 39.85651856774344
    vertex 5.9961539251204234 172.90307706329085 39.85651856774346
    vertex 8.089999999999835 172.62741699796942 39.85651856774346
  endloop
endfacet
facet normal 0.0 0.0 1.0
  outer loop
    vertex 6.772611060428026 175.8008545421581 39.85651856774344
    vertex 8.089999999999835 172.62741699796942 39.85651856774346
    vertex 8.089999999999788 175.62741699796942 39.85651856774344
  endloop
endfacet
facet normal 0.0 0.0 1.0
  outer loop
    vertex 8.089999999999788 175.62741699796942 39.85651856774344
    vertex 8.089999999999835 172.62741699796942 39.85651856774346
    vertex 9.407388939571687 175.8008545421581 39.85651856774344
  endloop
endfacet
facet normal 0.0 0.0 1.0
  outer loop
    vertex 9.407388939571687 175.8008545421581 39.85651856774344
    vertex 8.089999999999835 172.62741699796942 39.85651856774346
    vertex 10.183846074879199 172.90307706329085 39.85651856774346
  endloop
endfacet
facet normal 0.0 0.0 1.0
  outer loop
    vertex 9.407388939571687 175.8008545421581 39.85651856774344
    vertex 10.183846074879199 172.90307706329085 39.85651856774346
    vertex 10.634999999999833 176.30934769270667 39.85651856774346
  endloop
endfacet
facet normal 0.0 0.0 1.0
  outer loop
    vertex 10.634999999999833 176.30934769270667 39.85651856774346
    vertex 10.183846074879199 172.90307706329085 39.85651856774346
    vertex 12.134999999999808 173.71127148135332 39.85651856774344
  endloop
endfacet
facet normal 0.0 0.0 1.0
  outer loop
    vertex 10.634999999999833 176.30934769270667 39.85651856774346
    vertex 12.134999999999808 173.71127148135332 39.85651856774344
    vertex 11.68917351623928 177.11824348172988 39.85651856774346
  endloop
endfacet
facet normal 0.0 0.0 1.0
  outer loop
    vertex 11.68917351623928 177.11824348172988 39.85651856774346
    vertex 12.134999999999808 173.71127148135332 39.85651856774344
    vertex 12.498069305262586 178.17241699796944 39.85651856774346
  endloop
endfacet
facet normal 0.0 0.0 1.0
  outer loop
    vertex 12.498069305262586 178.17241699796944 39.85651856774346
    vertex 12.134999999999808 173.71127148135332 39.85651856774344
    vertex 13.81049385979897 174.99692313817027 39.85651856774344
  endloop
endfacet
facet normal 0.0 0.0 1.0
  outer loop
    vertex 12.498069305262586 178.17241699796944 39.85651856774346
    vertex 13.81049385979897 174.99692313817027 39.85651856774344
    vertex 13.006562455811132 179.40002805839757 39.856518567743436
  endloop
endfacet
facet normal 0.0 0.0 1.0
  outer loop
    vertex 13.006562455811132 179.40002805839757 39.856518567743436
    vertex 13.81049385979897 174.99692313817027 39.85651856774344
    vertex 13.179999999999831 180.71741699796945 39.85651856774344
  endloop
endfacet
facet normal 0.0 0.0 1.0
  outer loop
    vertex 13.179999999999831 180.71741699796945 39.85651856774344
    vertex 13.81049385979897 174.99692313817027 39.85651856774344
    vertex 13.810493859798926 186.4379108577686 39.85651856774344
  endloop
endfacet
facet normal 0.0 0.0 1.0
  outer loop
    vertex 13.810493859798926 186.4379108577686 39.85651856774344
    vertex 13.81049385979897 174.99692313817027 39.85651856774344
    vertex 15.096145516615886 184.76241699796944 39.856518567743436
  endloop
endfacet
facet normal 0.0 0.0 1.0
  outer loop
    vertex 15.096145516615886 184.76241699796944 39.856518567743436
    vertex 13.81049385979897 174.99692313817027 39.85651856774344
    vertex 15.096145516615886 176.67241699796944 39.85651856774346
  endloop
endfacet
facet normal 0.0 0.0 1.0
  outer loop
    vertex 15.096145516615886 184.76241699796944 39.856518567743436
    vertex 15.096145516615886 176.67241699796944 39.85651856774346
    vertex 15.904339934678337 178.62357092309003 39.85651856774346
  endloop
endfacet
facet normal 0.0 0.0 1.0
  outer loop
    vertex 15.096145516615886 184.76241699796944 39.856518567743436
    vertex 15.904339934678337 178.62357092309003 39.85651856774346
    vertex 15.904339934678337 182.81126307284882 39.85651856774344
  endloop
endfacet
facet normal 0.0 0.0 1.0
  outer loop
    vertex 15.904339934678337 182.81126307284882 39.85651856774344
    vertex 15.904339934678337 178.62357092309003 39.85651856774346
    vertex 16.17999999999978 180.71741699796942 39.85651856774344
  endloop
endfacet
facet normal 0.0 0.0 1.0
  outer loop
    vertex 0.27566006532124143 178.62357092309 39.856518567743436
    vertex 0.27566006532124143 182.81126307284876 39.85651856774346
    vertex -2.0303758674344862e-13 180.7174169979694 39.856518567743436
  endloop
endfacet
facet normal 0.0 0.0 1.0
  outer loop
    vertex 0.27566006532124143 182.81126307284876 39.85651856774346
    vertex 0.27566006532124143 178.62357092309 39.856518567743436
    vertex 1.0838544833836914 176.67241699796938 39.85651856774342
  endloop
endfacet
facet normal 0.0 0.0 1.0
  outer loop
    vertex 0.27566006532124143 182.81126307284876 39.85651856774346
    vertex 1.0838544833836914 176.67241699796938 39.85651856774342
    vertex 1.0838544833836914 184.76241699796938 39.85651856774346
  endloop
endfacet
facet normal 0.0 0.0 1.0
  outer loop
    vertex 1.0838544833836914 184.76241699796938 39.85651856774346
    vertex 1.0838544833836914 176.67241699796938 39.85651856774342
    vertex 2.369506140200652 174.99692313817022 39.85651856774346
  endloop
endfacet
facet normal 0.0 0.0 1.0
  outer loop
    vertex 1.0838544833836914 184.76241699796938 39.85651856774346
    vertex 2.369506140200652 174.99692313817022 39.85651856774346
    vertex 2.3695061402006066 186.43791085776854 39.85651856774346
  endloop
endfacet
facet normal 0.0 0.0 1.0
  outer loop
    vertex 2.3695061402006066 186.43791085776854 39.85651856774346
    vertex 2.369506140200652 174.99692313817022 39.85651856774346
    vertex 2.999999999999882 180.7174169979695 39.856518567743436
  endloop
endfacet
facet normal 0.0 0.0 1.0
  outer loop
    vertex 2.3695061402006066 186.43791085776854 39.85651856774346
    vertex 2.999999999999882 180.7174169979695 39.856518567743436
    vertex 3.1734375441884914 182.0348059375413 39.85651856774346
  endloop
endfacet
facet normal 0.0 0.0 1.0
  outer loop
    vertex 2.3695061402006066 186.43791085776854 39.85651856774346
    vertex 3.1734375441884914 182.0348059375413 39.85651856774346
    vertex 4.044999999999771 187.7235625145855 39.85651856774344
  endloop
endfacet
facet normal 0.0 0.0 1.0
  outer loop
    vertex 4.044999999999771 187.7235625145855 39.85651856774344
    vertex 3.1734375441884914 182.0348059375413 39.85651856774346
    vertex 3.681930694736992 183.26241699796947 39.85651856774346
  endloop
endfacet
facet normal 0.0 0.0 1.0
  outer loop
    vertex 4.044999999999771 187.7235625145855 39.85651856774344
    vertex 3.681930694736992 183.26241699796947 39.85651856774346
    vertex 4.490826483760254 184.3165905142089 39.85651856774346
  endloop
endfacet
facet normal 0.0 0.0 1.0
  outer loop
    vertex 4.044999999999771 187.7235625145855 39.85651856774344
    vertex 4.490826483760254 184.3165905142089 39.85651856774346
    vertex 5.996153925120379 188.53175693264797 39.85651856774342
  endloop
endfacet
facet normal 0.0 0.0 1.0
  outer loop
    vertex 5.996153925120379 188.53175693264797 39.85651856774342
    vertex 4.490826483760254 184.3165905142089 39.85651856774346
    vertex 5.54499999999979 185.12548630323224 39.85651856774346
  endloop
endfacet
facet normal 0.0 0.0 1.0
  outer loop
    vertex 5.996153925120379 188.53175693264797 39.85651856774342
    vertex 5.54499999999979 185.12548630323224 39.85651856774346
    vertex 6.772611060427936 185.63397945378077 39.85651856774344
  endloop
endfacet
facet normal 0.0 0.0 1.0
  outer loop
    vertex 5.996153925120379 188.53175693264797 39.85651856774342
    vertex 6.772611060427936 185.63397945378077 39.85651856774344
    vertex 8.089999999999744 188.8074169979694 39.85651856774346
  endloop
endfacet
facet normal 0.0 0.0 1.0
  outer loop
    vertex 8.089999999999744 188.8074169979694 39.85651856774346
    vertex 6.772611060427936 185.63397945378077 39.85651856774344
    vertex 8.089999999999788 185.80741699796945 39.85651856774344
  endloop
endfacet
facet normal 0.0 0.0 1.0
  outer loop
    vertex 8.089999999999744 188.8074169979694 39.85651856774346
    vertex 8.089999999999788 185.80741699796945 39.85651856774344
    vertex 10.183846074879154 188.53175693264797 39.85651856774346
  endloop
endfacet
facet normal 0.0 0.0 1.0
  outer loop
    vertex 10.183846074879154 188.53175693264797 39.85651856774346
    vertex 8.089999999999788 185.80741699796945 39.85651856774344
    vertex 9.407388939571597 185.63397945378077 39.85651856774344
  endloop
endfacet
facet normal 0.0 0.0 1.0
  outer loop
    vertex 10.183846074879154 188.53175693264797 39.85651856774346
    vertex 9.407388939571597 185.63397945378077 39.85651856774344
    vertex 10.634999999999833 185.12548630323226 39.85651856774344
  endloop
endfacet
facet normal 0.0 0.0 1.0
  outer loop
    vertex 10.183846074879154 188.53175693264797 39.85651856774346
    vertex 10.634999999999833 185.12548630323226 39.85651856774344
    vertex 12.134999999999762 187.72356251458555 39.85651856774346
  endloop
endfacet
facet normal 0.0 0.0 1.0
  outer loop
    vertex 12.134999999999762 187.72356251458555 39.85651856774346
    vertex 10.634999999999833 185.12548630323226 39.85651856774344
    vertex 11.68917351623928 184.31659051420894 39.85651856774344
  endloop
endfacet
facet normal 0.0 0.0 1.0
  outer loop
    vertex 12.134999999999762 187.72356251458555 39.85651856774346
    vertex 11.68917351623928 184.31659051420894 39.85651856774344
    vertex 12.498069305262586 183.2624169979695 39.85651856774344
  endloop
endfacet
facet normal 0.0 0.0 1.0
  outer loop
    vertex 12.134999999999762 187.72356251458555 39.85651856774346
    vertex 12.498069305262586 183.2624169979695 39.85651856774344
    vertex 13.810493859798926 186.4379108577686 39.85651856774344
  endloop
endfacet
facet normal 0.0 0.0 1.0
  outer loop
    vertex 13.810493859798926 186.4379108577686 39.85651856774344
    vertex 12.498069305262586 183.2624169979695 39.85651856774344
    vertex 13.006562455811132 182.03480593754125 39.85651856774344
  endloop
endfacet
facet normal 0.0 0.0 1.0
  outer loop
    vertex 13.810493859798926 186.4379108577686 39.85651856774344
    vertex 13.006562455811132 182.03480593754125 39.85651856774344
    vertex 13.179999999999831 180.71741699796945 39.85651856774344
  endloop
endfacet
facet normal 3.038832812234872e-16 -1.5255091035197767e-16 -1.0
  outer loop
    vertex 2.3695061402006066 186.43791085776854 21.856518567743457
    vertex 3.1734375441884914 182.0348059375413 21.856518567743453
    vertex 2.999999999999882 180.7174169979695 21.856518567743453
  endloop
endfacet
facet normal 3.038832812234872e-16 -1.5255091035197767e-16 -1.0
  outer loop
    vertex 3.1734375441884914 182.0348059375413 21.856518567743453
    vertex 2.3695061402006066 186.43791085776854 21.856518567743457
    vertex 4.044999999999771 187.7235625145855 21.856518567743457
  endloop
endfacet
facet normal 3.038832812234872e-16 -1.5255091035197767e-16 -1.0
  outer loop
    vertex 3.1734375441884914 182.0348059375413 21.856518567743453
    vertex 4.044999999999771 187.7235625145855 21.856518567743457
    vertex 3.681930694736992 183.26241699796947 21.856518567743453
  endloop
endfacet
facet normal 3.038832812234872e-16 -1.5255091035197767e-16 -1.0
  outer loop
    vertex 3.681930694736992 183.26241699796947 21.856518567743453
    vertex 4.044999999999771 187.7235625145855 21.856518567743457
    vertex 4.490826483760254 184.3165905142089 21.856518567743453
  endloop
endfacet
facet normal 3.038832812234872e-16 -1.5255091035197767e-16 -1.0
  outer loop
    vertex 4.490826483760254 184.3165905142089 21.856518567743453
    vertex 4.044999999999771 187.7235625145855 21.856518567743457
    vertex 5.996153925120379 188.53175693264797 21.856518567743457
  endloop
endfacet
facet normal 3.038832812234872e-16 -1.5255091035197767e-16 -1.0
  outer loop
    vertex 4.490826483760254 184.3165905142089 21.856518567743453
    vertex 5.996153925120379 188.53175693264797 21.856518567743457
    vertex 5.54499999999979 185.12548630323224 21.856518567743453
  endloop
endfacet
facet normal 3.038832812234872e-16 -1.5255091035197767e-16 -1.0
  outer loop
    vertex 5.54499999999979 185.12548630323224 21.856518567743453
    vertex 5.996153925120379 188.53175693264797 21.856518567743457
    vertex 6.772611060427936 185.63397945378077 21.856518567743453
  endloop
endfacet
facet normal 3.038832812234872e-16 -1.5255091035197767e-16 -1.0
  outer loop
    vertex 6.772611060427936 185.63397945378077 21.856518567743453
    vertex 5.996153925120379 188.53175693264797 21.856518567743457
    vertex 8.089999999999744 188.8074169979694 21.856518567743457
  endloop
endfacet
facet normal 3.038832812234872e-16 -1.5255091035197767e-16 -1.0
  outer loop
    vertex 6.772611060427936 185.63397945378077 21.856518567743453
    vertex 8.089999999999744 188.8074169979694 21.856518567743457
    vertex 8.089999999999788 185.80741699796945 21.856518567743453
  endloop
endfacet
facet normal 3.038832812234872e-16 -1.5255091035197767e-16 -1.0
  outer loop
    vertex 8.089999999999788 185.80741699796945 21.856518567743453
    vertex 8.089999999999744 188.8074169979694 21.856518567743457
    vertex 21.21320343559623 188.8074169979694 21.856518567743457
  endloop
endfacet
facet normal 3.038832812234872e-16 -1.5255091035197767e-16 -1.0
  outer loop
    vertex 8.089999999999788 185.80741699796945 21.856518567743453
    vertex 21.21320343559623 188.8074169979694 21.856518567743457
    vertex 9.407388939571597 185.63397945378077 21.856518567743457
  endloop
endfacet
facet normal 3.038832812234872e-16 -1.5255091035197767e-16 -1.0
  outer loop
    vertex 9.407388939571597 185.63397945378077 21.856518567743457
    vertex 21.21320343559623 188.8074169979694 21.856518567743457
    vertex 10.634999999999833 185.12548630323226 21.856518567743457
  endloop
endfacet
facet normal 3.038832812234872e-16 -1.5255091035197767e-16 -1.0
  outer loop
    vertex 10.634999999999833 185.12548630323226 21.856518567743457
    vertex 21.21320343559623 188.8074169979694 21.856518567743457
    vertex 11.68917351623928 184.31659051420894 21.856518567743453
  endloop
endfacet
facet normal 3.038832812234872e-16 -1.5255091035197767e-16 -1.0
  outer loop
    vertex 11.68917351623928 184.31659051420894 21.856518567743453
    vertex 21.21320343559623 188.8074169979694 21.856518567743457
    vertex 12.498069305262586 183.2624169979695 21.856518567743453
  endloop
endfacet
facet normal 3.038832812234872e-16 -1.5255091035197767e-16 -1.0
  outer loop
    vertex 12.498069305262586 183.2624169979695 21.856518567743453
    vertex 21.21320343559623 188.8074169979694 21.856518567743457
    vertex 13.006562455811132 182.03480593754125 21.856518567743453
  endloop
endfacet
facet normal 3.038832812234872e-16 -1.5255091035197767e-16 -1.0
  outer loop
    vertex 13.006562455811132 182.03480593754125 21.856518567743453
    vertex 21.21320343559623 188.8074169979694 21.856518567743457
    vertex 13.179999999999831 180.71741699796945 21.856518567743453
  endloop
endfacet
facet normal 3.038832812234872e-16 -1.5255091035197767e-16 -1.0
  outer loop
    vertex 13.179999999999831 180.71741699796945 21.856518567743453
    vertex 21.21320343559623 188.8074169979694 21.856518567743457
    vertex 18.98918322012174 168.4029559488076 21.856518567743457
  endloop
endfacet
facet normal 3.038832812234872e-16 -1.5255091035197767e-16 -1.0
  outer loop
    vertex 18.98918322012174 168.4029559488076 21.856518567743457
    vertex 21.21320343559623 188.8074169979694 21.856518567743457
    vertex 19.037407642717643 168.76925680507443 21.856518567743457
  endloop
endfacet
facet normal 3.038832812234872e-16 -1.5255091035197767e-16 -1.0
  outer loop
    vertex 19.037407642717643 168.76925680507443 21.856518567743457
    vertex 21.21320343559623 188.8074169979694 21.856518567743457
    vertex 19.17879449580017 169.1105948633275 21.856518567743457
  endloop
endfacet
facet normal 3.038832812234872e-16 -1.5255091035197767e-16 -1.0
  outer loop
    vertex 19.17879449580017 169.1105948633275 21.856518567743457
    vertex 21.21320343559623 188.8074169979694 21.856518567743457
    vertex 19.403708498984532 169.40370849898463 21.856518567743457
  endloop
endfacet
facet normal 3.038832812234872e-16 -1.5255091035197767e-16 -1.0
  outer loop
    vertex 19.403708498984532 169.40370849898463 21.856518567743457
    vertex 21.21320343559623 188.8074169979694 21.856518567743457
    vertex 19.69682213464157 169.62862250216892 21.85651856774346
  endloop
endfacet
facet normal 3.038832812234872e-16 -1.5255091035197767e-16 -1.0
  outer loop
    vertex 19.69682213464157 169.62862250216892 21.85651856774346
    vertex 21.21320343559623 188.8074169979694 21.856518567743457
    vertex 20.0381601928946 169.77000935525146 21.85651856774346
  endloop
endfacet
facet normal 3.038832812234872e-16 -1.5255091035197767e-16 -1.0
  outer loop
    vertex 20.0381601928946 169.77000935525146 21.85651856774346
    vertex 21.21320343559623 188.8074169979694 21.856518567743457
    vertex 20.404461049161448 169.81823377784738 21.85651856774346
  endloop
endfacet
facet normal 3.038832812234872e-16 -1.5255091035197767e-16 -1.0
  outer loop
    vertex 20.404461049161448 169.81823377784738 21.85651856774346
    vertex 21.21320343559623 188.8074169979694 21.856518567743457
    vertex 20.770761905428294 169.77000935525146 21.85651856774346
  endloop
endfacet
facet normal 3.038832812234872e-16 -1.5255091035197767e-16 -1.0
  outer loop
    vertex 20.770761905428294 169.77000935525146 21.85651856774346
    vertex 21.21320343559623 188.8074169979694 21.856518567743457
    vertex 21.112099963681324 169.62862250216898 21.85651856774346
  endloop
endfacet
facet normal 3.038832812234872e-16 -1.5255091035197767e-16 -1.0
  outer loop
    vertex 21.112099963681324 169.62862250216898 21.85651856774346
    vertex 21.21320343559623 188.8074169979694 21.856518567743457
    vertex 21.405213599338456 169.40370849898463 21.85651856774346
  endloop
endfacet
facet normal 3.038832812234872e-16 -1.5255091035197767e-16 -1.0
  outer loop
    vertex 21.405213599338456 169.40370849898463 21.85651856774346
    vertex 21.21320343559623 188.8074169979694 21.856518567743457
    vertex 30.01031021678277 180.01031021678287 21.856518567743457
  endloop
endfacet
facet normal 3.038832812234872e-16 -1.5255091035197767e-16 -1.0
  outer loop
    vertex 21.405213599338456 169.40370849898463 21.85651856774346
    vertex 30.01031021678277 180.01031021678287 21.856518567743457
    vertex 30.01031021678277 169.40370849898463 21.85651856774349
  endloop
endfacet
facet normal 3.038832812234872e-16 -1.5255091035197767e-16 -1.0
  outer loop
    vertex 0.27566006532124143 182.81126307284876 21.856518567743457
    vertex -2.0303758674344862e-13 167.59421356237294 21.856518567743457
    vertex -2.0303758674344862e-13 180.7174169979694 21.856518567743457
  endloop
endfacet
facet normal 3.038832812234872e-16 -1.5255091035197767e-16 -1.0
  outer loop
    vertex -2.0303758674344862e-13 167.59421356237294 21.856518567743457
    vertex 0.27566006532124143 182.81126307284876 21.856518567743457
    vertex 8.797106781186338 158.78114278118642 21.85651856774346
  endloop
endfacet
facet normal 3.038832812234872e-16 -1.5255091035197767e-16 -1.0
  outer loop
    vertex 8.797106781186338 158.78114278118642 21.85651856774346
    vertex 0.27566006532124143 182.81126307284876 21.856518567743457
    vertex 1.0838544833836914 184.76241699796938 21.856518567743457
  endloop
endfacet
facet normal 3.038832812234872e-16 -1.5255091035197767e-16 -1.0
  outer loop
    vertex 8.797106781186338 158.78114278118642 21.85651856774346
    vertex 1.0838544833836914 184.76241699796938 21.856518567743457
    vertex 3.1734375441884914 179.40002805839765 21.856518567743453
  endloop
endfacet
facet normal 3.038832812234872e-16 -1.5255091035197767e-16 -1.0
  outer loop
    vertex 3.1734375441884914 179.40002805839765 21.856518567743453
    vertex 1.0838544833836914 184.76241699796938 21.856518567743457
    vertex 2.999999999999882 180.7174169979695 21.856518567743453
  endloop
endfacet
facet normal 3.038832812234872e-16 -1.5255091035197767e-16 -1.0
  outer loop
    vertex 2.999999999999882 180.7174169979695 21.856518567743453
    vertex 1.0838544833836914 184.76241699796938 21.856518567743457
    vertex 2.3695061402006066 186.43791085776854 21.856518567743457
  endloop
endfacet
facet normal 3.038832812234872e-16 -1.5255091035197767e-16 -1.0
  outer loop
    vertex 8.797106781186338 158.78114278118642 21.85651856774346
    vertex 3.1734375441884914 179.40002805839765 21.856518567743453
    vertex 3.681930694737037 178.1724169979695 21.856518567743453
  endloop
endfacet
facet normal 3.038832812234872e-16 -1.5255091035197767e-16 -1.0
  outer loop
    vertex 8.797106781186338 158.78114278118642 21.85651856774346
    vertex 3.681930694737037 178.1724169979695 21.856518567743453
    vertex 4.4908264837603 177.11824348172993 21.856518567743457
  endloop
endfacet
facet normal 3.038832812234872e-16 -1.5255091035197767e-16 -1.0
  outer loop
    vertex 8.797106781186338 158.78114278118642 21.85651856774346
    vertex 4.4908264837603 177.11824348172993 21.856518567743457
    vertex 5.544999999999836 176.3093476927067 21.856518567743453
  endloop
endfacet
facet normal 3.038832812234872e-16 -1.5255091035197767e-16 -1.0
  outer loop
    vertex 8.797106781186338 158.78114278118642 21.85651856774346
    vertex 5.544999999999836 176.3093476927067 21.856518567743453
    vertex 6.772611060428026 175.8008545421581 21.856518567743453
  endloop
endfacet
facet normal 3.038832812234872e-16 -1.5255091035197767e-16 -1.0
  outer loop
    vertex 8.797106781186338 158.78114278118642 21.85651856774346
    vertex 6.772611060428026 175.8008545421581 21.856518567743453
    vertex 8.089999999999788 175.62741699796942 21.856518567743453
  endloop
endfacet
facet normal 3.038832812234872e-16 -1.5255091035197767e-16 -1.0
  outer loop
    vertex 8.797106781186338 158.78114278118642 21.85651856774346
    vertex 8.089999999999788 175.62741699796942 21.856518567743453
    vertex 9.407388939571687 175.8008545421581 21.856518567743453
  endloop
endfacet
facet normal 3.038832812234872e-16 -1.5255091035197767e-16 -1.0
  outer loop
    vertex 8.797106781186338 158.78114278118642 21.85651856774346
    vertex 9.407388939571687 175.8008545421581 21.856518567743453
    vertex 19.403708498984532 158.78114278118642 21.85651856774346
  endloop
endfacet
facet normal 3.038832812234872e-16 -1.5255091035197767e-16 -1.0
  outer loop
    vertex 19.403708498984532 158.78114278118642 21.85651856774346
    vertex 9.407388939571687 175.8008545421581 21.856518567743453
    vertex 10.634999999999833 176.30934769270667 21.856518567743457
  endloop
endfacet
facet normal 3.038832812234872e-16 -1.5255091035197767e-16 -1.0
  outer loop
    vertex 19.403708498984532 158.78114278118642 21.85651856774346
    vertex 10.634999999999833 176.30934769270667 21.856518567743457
    vertex 11.68917351623928 177.11824348172988 21.856518567743457
  endloop
endfacet
facet normal 3.038832812234872e-16 -1.5255091035197767e-16 -1.0
  outer loop
    vertex 19.403708498984532 158.78114278118642 21.85651856774346
    vertex 11.68917351623928 177.11824348172988 21.856518567743457
    vertex 12.498069305262586 178.17241699796944 21.856518567743453
  endloop
endfacet
facet normal 3.038832812234872e-16 -1.5255091035197767e-16 -1.0
  outer loop
    vertex 19.403708498984532 158.78114278118642 21.85651856774346
    vertex 12.498069305262586 178.17241699796944 21.856518567743453
    vertex 13.006562455811132 179.40002805839757 21.856518567743453
  endloop
endfacet
facet normal 3.038832812234872e-16 -1.5255091035197767e-16 -1.0
  outer loop
    vertex 19.403708498984532 158.78114278118642 21.85651856774346
    vertex 13.006562455811132 179.40002805839757 21.856518567743453
    vertex 13.179999999999831 180.71741699796945 21.856518567743453
  endloop
endfacet
facet normal 3.038832812234872e-16 -1.5255091035197767e-16 -1.0
  outer loop
    vertex 19.403708498984532 158.78114278118642 21.85651856774346
    vertex 13.179999999999831 180.71741699796945 21.856518567743453
    vertex 18.98918322012174 168.4029559488076 21.856518567743457
  endloop
endfacet
facet normal 3.038832812234872e-16 -1.5255091035197767e-16 -1.0
  outer loop
    vertex 19.403708498984532 158.78114278118642 21.85651856774346
    vertex 18.98918322012174 168.4029559488076 21.856518567743457
    vertex 19.037407642717685 168.03665509254077 21.856518567743457
  endloop
endfacet
facet normal 3.038832812234872e-16 -1.5255091035197767e-16 -1.0
  outer loop
    vertex 19.403708498984532 158.78114278118642 21.85651856774346
    vertex 19.037407642717685 168.03665509254077 21.856518567743457
    vertex 19.17879449580017 167.69531703428774 21.856518567743457
  endloop
endfacet
facet normal 3.038832812234872e-16 -1.5255091035197767e-16 -1.0
  outer loop
    vertex 19.403708498984532 158.78114278118642 21.85651856774346
    vertex 19.17879449580017 167.69531703428774 21.856518567743457
    vertex 19.403708498984532 167.40220339863063 21.856518567743457
  endloop
endfacet
facet normal -1.0 -9.675984071027408e-33 0.0
  outer loop
    vertex -2.0303758674344862e-13 180.7174169979694 39.856518567743436
    vertex -2.0303758674344862e-13 167.59421356237294 21.856518567743457
    vertex -2.0303758674344862e-13 167.59421356237294 39.856518567743436
  endloop
endfacet
facet normal -1.0 -9.675984071027408e-33 0.0
  outer loop
    vertex -2.0303758674344862e-13 167.59421356237294 21.856518567743457
    vertex -2.0303758674344862e-13 180.7174169979694 39.856518567743436
    vertex -2.0303758674344862e-13 180.7174169979694 21.856518567743457
  endloop
endfacet
facet normal -0.3826834323650971 0.9238795325112836 3.944304526105058e-31
  outer loop
    vertex 4.044999999999771 187.7235625145855 39.85651856774344
    vertex 5.996153925120379 188.53175693264797 21.856518567743457
    vertex 4.044999999999771 187.7235625145855 21.856518567743457
  endloop
endfacet
facet normal -0.3826834323650971 0.9238795325112836 3.944304526105058e-31
  outer loop
    vertex 5.996153925120379 188.53175693264797 21.856518567743457
    vertex 4.044999999999771 187.7235625145855 39.85651856774344
    vertex 5.996153925120379 188.53175693264797 39.85651856774342
  endloop
endfacet
facet normal -0.9914448613738099 0.13052619222005515 0.0
  outer loop
    vertex 0.27566006532124143 182.81126307284876 39.85651856774346
    vertex -2.0303758674344862e-13 180.7174169979694 21.856518567743457
    vertex -2.0303758674344862e-13 180.7174169979694 39.856518567743436
  endloop
endfacet
facet normal -0.9914448613738099 0.13052619222005515 0.0
  outer loop
    vertex -2.0303758674344862e-13 180.7174169979694 21.856518567743457
    vertex 0.27566006532124143 182.81126307284876 39.85651856774346
    vertex 0.27566006532124143 182.81126307284876 21.856518567743457
  endloop
endfacet
facet normal -0.7933533402912396 0.6087614290087148 7.395570986446986e-32
  outer loop
    vertex 2.3695061402006066 186.43791085776854 39.85651856774346
    vertex 1.0838544833836914 184.76241699796938 21.856518567743457
    vertex 1.0838544833836914 184.76241699796938 39.85651856774346
  endloop
endfacet
facet normal -0.7933533402912396 0.6087614290087148 7.395570986446986e-32
  outer loop
    vertex 1.0838544833836914 184.76241699796938 21.856518567743457
    vertex 2.3695061402006066 186.43791085776854 39.85651856774346
    vertex 2.3695061402006066 186.43791085776854 21.856518567743457
  endloop
endfacet
facet normal -0.6087614290087214 0.7933533402912345 4.9303806576313227e-32
  outer loop
    vertex 2.3695061402006066 186.43791085776854 39.85651856774346
    vertex 4.044999999999771 187.7235625145855 21.856518567743457
    vertex 2.3695061402006066 186.43791085776854 21.856518567743457
  endloop
endfacet
facet normal -0.6087614290087214 0.7933533402912345 4.9303806576313227e-32
  outer loop
    vertex 4.044999999999771 187.7235625145855 21.856518567743457
    vertex 2.3695061402006066 186.43791085776854 39.85651856774346
    vertex 4.044999999999771 187.7235625145855 39.85651856774344
  endloop
endfacet
facet normal -0.9238795325112875 0.38268343236508806 1.7256332301709633e-31
  outer loop
    vertex 1.0838544833836914 184.76241699796938 39.85651856774346
    vertex 0.27566006532124143 182.81126307284876 21.856518567743457
    vertex 0.27566006532124143 182.81126307284876 39.85651856774346
  endloop
endfacet
facet normal -0.9238795325112875 0.38268343236508806 1.7256332301709633e-31
  outer loop
    vertex 0.27566006532124143 182.81126307284876 21.856518567743457
    vertex 1.0838544833836914 184.76241699796938 39.85651856774346
    vertex 1.0838544833836914 184.76241699796938 21.856518567743457
  endloop
endfacet
facet normal -0.38268343236504304 -0.9238795325113063 0.0
  outer loop
    vertex 21.112099963681324 169.62862250216898 39.856518567743436
    vertex 20.770761905428294 169.77000935525146 21.85651856774346
    vertex 21.112099963681324 169.62862250216898 21.85651856774346
  endloop
endfacet
facet normal -0.38268343236504304 -0.9238795325113063 0.0
  outer loop
    vertex 20.770761905428294 169.77000935525146 21.85651856774346
    vertex 21.112099963681324 169.62862250216898 39.856518567743436
    vertex 20.770761905428294 169.77000935525146 39.856518567743436
  endloop
endfacet
facet normal 0.6087614290087888 -0.793353340291183 -7.325919440068312e-19
  outer loop
    vertex 19.69682213464157 169.62862250216892 21.85651856774346
    vertex 19.403708498984532 169.40370849898463 39.856518567743436
    vertex 19.403708498984532 169.40370849898463 21.856518567743457
  endloop
endfacet
facet normal 0.6087614290087888 -0.793353340291183 -7.325919440068312e-19
  outer loop
    vertex 19.403708498984532 169.40370849898463 39.856518567743436
    vertex 19.69682213464157 169.62862250216892 21.85651856774346
    vertex 19.69682213464157 169.62862250216892 39.856518567743436
  endloop
endfacet
facet normal -0.6087614290087091 -0.793353340291244 0.0
  outer loop
    vertex 21.405213599338456 169.40370849898463 39.85651856774346
    vertex 21.112099963681324 169.62862250216898 21.85651856774346
    vertex 21.405213599338456 169.40370849898463 21.85651856774346
  endloop
endfacet
facet normal -0.6087614290087091 -0.793353340291244 0.0
  outer loop
    vertex 21.112099963681324 169.62862250216898 21.85651856774346
    vertex 21.405213599338456 169.40370849898463 39.85651856774346
    vertex 21.112099963681324 169.62862250216898 39.856518567743436
  endloop
endfacet
facet normal 0.1305261922200324 -0.9914448613738132 -1.97215226305253e-31
  outer loop
    vertex 20.404461049161448 169.81823377784738 39.856518567743436
    vertex 20.0381601928946 169.77000935525146 21.85651856774346
    vertex 20.404461049161448 169.81823377784738 21.85651856774346
  endloop
endfacet
facet normal 0.1305261922200324 -0.9914448613738132 -1.97215226305253e-31
  outer loop
    vertex 20.0381601928946 169.77000935525146 21.85651856774346
    vertex 20.404461049161448 169.81823377784738 39.856518567743436
    vertex 20.0381601928946 169.77000935525146 39.856518567743436
  endloop
endfacet
facet normal 0.3826834323651473 -0.9238795325112631 -5.423418723394456e-31
  outer loop
    vertex 20.0381601928946 169.77000935525146 39.856518567743436
    vertex 19.69682213464157 169.62862250216892 21.85651856774346
    vertex 20.0381601928946 169.77000935525146 21.85651856774346
  endloop
endfacet
facet normal 0.3826834323651473 -0.9238795325112631 -5.423418723394456e-31
  outer loop
    vertex 19.69682213464157 169.62862250216892 21.85651856774346
    vertex 20.0381601928946 169.77000935525146 39.856518567743436
    vertex 19.69682213464157 169.62862250216892 39.856518567743436
  endloop
endfacet
facet normal 0.7071067811865476 0.7071067811865476 9.860761315262648e-32
  outer loop
    vertex 21.21320343559623 188.8074169979694 21.856518567743457
    vertex 30.01031021678277 180.01031021678287 39.85651856774344
    vertex 30.01031021678277 180.01031021678287 21.856518567743457
  endloop
endfacet
facet normal 0.7071067811865476 0.7071067811865476 9.860761315262648e-32
  outer loop
    vertex 30.01031021678277 180.01031021678287 39.85651856774344
    vertex 21.21320343559623 188.8074169979694 21.856518567743457
    vertex 21.21320343559623 188.8074169979694 39.85651856774346
  endloop
endfacet
facet normal 0.7933533402911918 0.608761429008777 -4.9303806576313227e-32
  outer loop
    vertex 19.17879449580017 167.69531703428774 21.856518567743457
    vertex 19.403708498984532 167.40220339863063 39.85651856774346
    vertex 19.403708498984532 167.40220339863063 21.856518567743457
  endloop
endfacet
facet normal 0.7933533402911918 0.608761429008777 -4.9303806576313227e-32
  outer loop
    vertex 19.403708498984532 167.40220339863063 39.85651856774346
    vertex 19.17879449580017 167.69531703428774 21.856518567743457
    vertex 19.17879449580017 167.69531703428774 39.85651856774346
  endloop
endfacet
facet normal 0.9914448613738199 -0.13052619221998027 0.0
  outer loop
    vertex 19.037407642717643 168.76925680507443 21.856518567743457
    vertex 18.98918322012174 168.4029559488076 39.85651856774346
    vertex 18.98918322012174 168.4029559488076 21.856518567743457
  endloop
endfacet
facet normal 0.9914448613738199 -0.13052619221998027 0.0
  outer loop
    vertex 18.98918322012174 168.4029559488076 39.85651856774346
    vertex 19.037407642717643 168.76925680507443 21.856518567743457
    vertex 19.037407642717643 168.76925680507443 39.85651856774346
  endloop
endfacet
facet normal 0.9914448613738052 0.1305261922200924 0.0
  outer loop
    vertex 18.98918322012174 168.4029559488076 21.856518567743457
    vertex 19.037407642717685 168.03665509254077 39.85651856774346
    vertex 19.037407642717685 168.03665509254077 21.856518567743457
  endloop
endfacet
facet normal 0.9914448613738052 0.1305261922200924 0.0
  outer loop
    vertex 19.037407642717685 168.03665509254077 39.85651856774346
    vertex 18.98918322012174 168.4029559488076 21.856518567743457
    vertex 18.98918322012174 168.4029559488076 39.85651856774346
  endloop
endfacet
facet normal 0.7933533402912146 -0.6087614290087477 0.0
  outer loop
    vertex 19.403708498984532 169.40370849898463 21.856518567743457
    vertex 19.17879449580017 169.1105948633275 39.856518567743436
    vertex 19.17879449580017 169.1105948633275 21.856518567743457
  endloop
endfacet
facet normal 0.7933533402912146 -0.6087614290087477 0.0
  outer loop
    vertex 19.17879449580017 169.1105948633275 39.856518567743436
    vertex 19.403708498984532 169.40370849898463 21.856518567743457
    vertex 19.403708498984532 169.40370849898463 39.856518567743436
  endloop
endfacet
facet normal 0.923879532511272 -0.38268343236512564 -1.4791141972893971e-31
  outer loop
    vertex 19.17879449580017 169.1105948633275 21.856518567743457
    vertex 19.037407642717643 168.76925680507443 39.85651856774346
    vertex 19.037407642717643 168.76925680507443 21.856518567743457
  endloop
endfacet
facet normal 0.923879532511272 -0.38268343236512564 -1.4791141972893971e-31
  outer loop
    vertex 19.037407642717643 168.76925680507443 39.85651856774346
    vertex 19.17879449580017 169.1105948633275 21.856518567743457
    vertex 19.17879449580017 169.1105948633275 39.856518567743436
  endloop
endfacet
facet normal 0.9238795325113063 0.38268343236504304 -9.860761315262648e-32
  outer loop
    vertex 19.037407642717685 168.03665509254077 21.856518567743457
    vertex 19.17879449580017 167.69531703428774 39.85651856774346
    vertex 19.17879449580017 167.69531703428774 21.856518567743457
  endloop
endfacet
facet normal 0.9238795325113063 0.38268343236504304 -9.860761315262648e-32
  outer loop
    vertex 19.17879449580017 167.69531703428774 39.85651856774346
    vertex 19.037407642717685 168.03665509254077 21.856518567743457
    vertex 19.037407642717685 168.03665509254077 39.85651856774346
  endloop
endfacet
facet normal -0.9238795325113017 -0.3826834323650538 -9.860761315262648e-32
  outer loop
    vertex 12.498069305262586 183.2624169979695 39.85651856774344
    vertex 13.006562455811132 182.03480593754125 21.856518567743453
    vertex 13.006562455811132 182.03480593754125 39.85651856774344
  endloop
endfacet
facet normal -0.9238795325113017 -0.3826834323650538 -9.860761315262648e-32
  outer loop
    vertex 13.006562455811132 182.03480593754125 21.856518567743453
    vertex 12.498069305262586 183.2624169979695 39.85651856774344
    vertex 12.498069305262586 183.2624169979695 21.856518567743453
  endloop
endfacet
facet normal -0.7933533402911975 -0.60876142900877 -1.97215226305253e-31
  outer loop
    vertex 11.68917351623928 184.31659051420894 39.85651856774344
    vertex 12.498069305262586 183.2624169979695 21.856518567743453
    vertex 12.498069305262586 183.2624169979695 39.85651856774344
  endloop
endfacet
facet normal -0.7933533402911975 -0.60876142900877 -1.97215226305253e-31
  outer loop
    vertex 12.498069305262586 183.2624169979695 21.856518567743453
    vertex 11.68917351623928 184.31659051420894 39.85651856774344
    vertex 11.68917351623928 184.31659051420894 21.856518567743453
  endloop
endfacet
facet normal -0.6087614290087806 -0.7933533402911891 -3.697785493223493e-31
  outer loop
    vertex 11.68917351623928 184.31659051420894 39.85651856774344
    vertex 10.634999999999833 185.12548630323226 21.856518567743457
    vertex 11.68917351623928 184.31659051420894 21.856518567743453
  endloop
endfacet
facet normal -0.6087614290087806 -0.7933533402911891 -3.697785493223493e-31
  outer loop
    vertex 10.634999999999833 185.12548630323226 21.856518567743457
    vertex 11.68917351623928 184.31659051420894 39.85651856774344
    vertex 10.634999999999833 185.12548630323226 39.85651856774344
  endloop
endfacet
facet normal -0.9238795325112894 0.38268343236508384 -2.4651903288156624e-32
  outer loop
    vertex 13.006562455811132 179.40002805839757 39.856518567743436
    vertex 12.498069305262586 178.17241699796944 21.856518567743453
    vertex 12.498069305262586 178.17241699796944 39.85651856774346
  endloop
endfacet
facet normal -0.9238795325112894 0.38268343236508384 -2.4651903288156624e-32
  outer loop
    vertex 12.498069305262586 178.17241699796944 21.856518567743453
    vertex 13.006562455811132 179.40002805839757 39.856518567743436
    vertex 13.006562455811132 179.40002805839757 21.856518567743453
  endloop
endfacet
facet normal -0.1305261922200797 -0.9914448613738067 -1.972152263052529e-31
  outer loop
    vertex 9.407388939571597 185.63397945378077 21.856518567743457
    vertex 8.089999999999788 185.80741699796945 39.85651856774344
    vertex 8.089999999999788 185.80741699796945 21.856518567743453
  endloop
endfacet
facet normal -0.1305261922200797 -0.9914448613738067 -1.972152263052529e-31
  outer loop
    vertex 8.089999999999788 185.80741699796945 39.85651856774344
    vertex 9.407388939571597 185.63397945378077 21.856518567743457
    vertex 9.407388939571597 185.63397945378077 39.85651856774344
  endloop
endfacet
facet normal -0.7933533402912287 0.608761429008729 9.860761315262648e-32
  outer loop
    vertex 12.498069305262586 178.17241699796944 39.85651856774346
    vertex 11.68917351623928 177.11824348172988 21.856518567743457
    vertex 11.68917351623928 177.11824348172988 39.85651856774346
  endloop
endfacet
facet normal -0.7933533402912287 0.608761429008729 9.860761315262648e-32
  outer loop
    vertex 11.68917351623928 177.11824348172988 21.856518567743457
    vertex 12.498069305262586 178.17241699796944 39.85651856774346
    vertex 12.498069305262586 178.17241699796944 21.856518567743453
  endloop
endfacet
facet normal 0.9914448613738133 -0.13052619222002962 -1.2325951644078307e-32
  outer loop
    vertex 3.1734375441884914 182.0348059375413 21.856518567743453
    vertex 2.999999999999882 180.7174169979695 39.856518567743436
    vertex 2.999999999999882 180.7174169979695 21.856518567743453
  endloop
endfacet
facet normal 0.9914448613738133 -0.13052619222002962 -1.2325951644078307e-32
  outer loop
    vertex 2.999999999999882 180.7174169979695 39.856518567743436
    vertex 3.1734375441884914 182.0348059375413 21.856518567743453
    vertex 3.1734375441884914 182.0348059375413 39.85651856774346
  endloop
endfacet
facet normal 0.9914448613738139 0.13052619222002523 0.0
  outer loop
    vertex 2.999999999999882 180.7174169979695 21.856518567743453
    vertex 3.1734375441884914 179.40002805839765 39.856518567743436
    vertex 3.1734375441884914 179.40002805839765 21.856518567743453
  endloop
endfacet
facet normal 0.9914448613738139 0.13052619222002523 0.0
  outer loop
    vertex 3.1734375441884914 179.40002805839765 39.856518567743436
    vertex 2.999999999999882 180.7174169979695 21.856518567743453
    vertex 2.999999999999882 180.7174169979695 39.856518567743436
  endloop
endfacet
facet normal 0.9238795325112894 0.38268343236508384 -8.628166150854817e-32
  outer loop
    vertex 3.1734375441884914 179.40002805839765 21.856518567743453
    vertex 3.681930694737037 178.1724169979695 39.856518567743436
    vertex 3.681930694737037 178.1724169979695 21.856518567743453
  endloop
endfacet
facet normal 0.9238795325112894 0.38268343236508384 -8.628166150854817e-32
  outer loop
    vertex 3.681930694737037 178.1724169979695 39.856518567743436
    vertex 3.1734375441884914 179.40002805839765 21.856518567743453
    vertex 3.1734375441884914 179.40002805839765 39.856518567743436
  endloop
endfacet
facet normal 0.38268343236508384 -0.9238795325112894 -5.423418723394456e-31
  outer loop
    vertex 6.772611060427936 185.63397945378077 39.85651856774344
    vertex 5.54499999999979 185.12548630323224 21.856518567743453
    vertex 6.772611060427936 185.63397945378077 21.856518567743453
  endloop
endfacet
facet normal 0.38268343236508384 -0.9238795325112894 -5.423418723394456e-31
  outer loop
    vertex 5.54499999999979 185.12548630323224 21.856518567743453
    vertex 6.772611060427936 185.63397945378077 39.85651856774344
    vertex 5.54499999999979 185.12548630323224 39.85651856774346
  endloop
endfacet
facet normal 0.9238795325113037 -0.38268343236504876 -2.465190328815662e-31
  outer loop
    vertex 3.681930694736992 183.26241699796947 21.856518567743453
    vertex 3.1734375441884914 182.0348059375413 39.85651856774346
    vertex 3.1734375441884914 182.0348059375413 21.856518567743453
  endloop
endfacet
facet normal 0.9238795325113037 -0.38268343236504876 -2.465190328815662e-31
  outer loop
    vertex 3.1734375441884914 182.0348059375413 39.85651856774346
    vertex 3.681930694736992 183.26241699796947 21.856518567743453
    vertex 3.681930694736992 183.26241699796947 39.85651856774346
  endloop
endfacet
facet normal 0.7933533402912452 0.6087614290087076 -8.628166150854814e-32
  outer loop
    vertex 3.681930694737037 178.1724169979695 21.856518567743453
    vertex 4.4908264837603 177.11824348172993 39.85651856774342
    vertex 4.4908264837603 177.11824348172993 21.856518567743457
  endloop
endfacet
facet normal 0.7933533402912452 0.6087614290087076 -8.628166150854814e-32
  outer loop
    vertex 4.4908264837603 177.11824348172993 39.85651856774342
    vertex 3.681930694737037 178.1724169979695 21.856518567743453
    vertex 3.681930694737037 178.1724169979695 39.856518567743436
  endloop
endfacet
facet normal 0.6087614290087051 0.7933533402912472 0.0
  outer loop
    vertex 4.4908264837603 177.11824348172993 21.856518567743457
    vertex 5.544999999999836 176.3093476927067 39.85651856774344
    vertex 5.544999999999836 176.3093476927067 21.856518567743453
  endloop
endfacet
facet normal 0.6087614290087051 0.7933533402912472 0.0
  outer loop
    vertex 5.544999999999836 176.3093476927067 39.85651856774344
    vertex 4.4908264837603 177.11824348172993 21.856518567743457
    vertex 4.4908264837603 177.11824348172993 39.85651856774342
  endloop
endfacet
facet normal 0.3826834323651008 0.9238795325112822 1.7256332301709633e-31
  outer loop
    vertex 5.544999999999836 176.3093476927067 39.85651856774344
    vertex 6.772611060428026 175.8008545421581 21.856518567743453
    vertex 5.544999999999836 176.3093476927067 21.856518567743453
  endloop
endfacet
facet normal 0.3826834323651008 0.9238795325112822 1.7256332301709633e-31
  outer loop
    vertex 6.772611060428026 175.8008545421581 21.856518567743453
    vertex 5.544999999999836 176.3093476927067 39.85651856774344
    vertex 6.772611060428026 175.8008545421581 39.85651856774344
  endloop
endfacet
facet normal -0.1305261922200876 0.9914448613738058 0.0
  outer loop
    vertex 8.089999999999788 175.62741699796942 39.85651856774344
    vertex 9.407388939571687 175.8008545421581 21.856518567743453
    vertex 8.089999999999788 175.62741699796942 21.856518567743453
  endloop
endfacet
facet normal -0.1305261922200876 0.9914448613738058 0.0
  outer loop
    vertex 9.407388939571687 175.8008545421581 21.856518567743453
    vertex 8.089999999999788 175.62741699796942 39.85651856774344
    vertex 9.407388939571687 175.8008545421581 39.85651856774344
  endloop
endfacet
facet normal 0.13052619222010078 0.991444861373804 0.0
  outer loop
    vertex 6.772611060428026 175.8008545421581 39.85651856774344
    vertex 8.089999999999788 175.62741699796942 21.856518567743453
    vertex 6.772611060428026 175.8008545421581 21.856518567743453
  endloop
endfacet
facet normal 0.13052619222010078 0.991444861373804 0.0
  outer loop
    vertex 8.089999999999788 175.62741699796942 21.856518567743453
    vertex 6.772611060428026 175.8008545421581 39.85651856774344
    vertex 8.089999999999788 175.62741699796942 39.85651856774344
  endloop
endfacet
facet normal -0.3826834323650309 -0.9238795325113114 -9.86076131526265e-32
  outer loop
    vertex 10.634999999999833 185.12548630323226 39.85651856774344
    vertex 9.407388939571597 185.63397945378077 21.856518567743457
    vertex 10.634999999999833 185.12548630323226 21.856518567743457
  endloop
endfacet
facet normal -0.3826834323650309 -0.9238795325113114 -9.86076131526265e-32
  outer loop
    vertex 9.407388939571597 185.63397945378077 21.856518567743457
    vertex 10.634999999999833 185.12548630323226 39.85651856774344
    vertex 9.407388939571597 185.63397945378077 39.85651856774344
  endloop
endfacet
facet normal 0.6087614290087372 -0.7933533402912225 0.0
  outer loop
    vertex 5.54499999999979 185.12548630323224 39.85651856774346
    vertex 4.490826483760254 184.3165905142089 21.856518567743453
    vertex 5.54499999999979 185.12548630323224 21.856518567743453
  endloop
endfacet
facet normal 0.6087614290087372 -0.7933533402912225 0.0
  outer loop
    vertex 4.490826483760254 184.3165905142089 21.856518567743453
    vertex 5.54499999999979 185.12548630323224 39.85651856774346
    vertex 4.490826483760254 184.3165905142089 39.85651856774346
  endloop
endfacet
facet normal -0.9914448613738055 0.1305261922200898 0.0
  outer loop
    vertex 13.179999999999831 180.71741699796945 39.85651856774344
    vertex 13.006562455811132 179.40002805839757 21.856518567743453
    vertex 13.006562455811132 179.40002805839757 39.856518567743436
  endloop
endfacet
facet normal -0.9914448613738055 0.1305261922200898 0.0
  outer loop
    vertex 13.006562455811132 179.40002805839757 21.856518567743453
    vertex 13.179999999999831 180.71741699796945 39.85651856774344
    vertex 13.179999999999831 180.71741699796945 21.856518567743453
  endloop
endfacet
facet normal -0.9914448613738043 -0.13052619222009856 0.0
  outer loop
    vertex 13.006562455811132 182.03480593754125 39.85651856774344
    vertex 13.179999999999831 180.71741699796945 21.856518567743453
    vertex 13.179999999999831 180.71741699796945 39.85651856774344
  endloop
endfacet
facet normal -0.9914448613738043 -0.13052619222009856 0.0
  outer loop
    vertex 13.179999999999831 180.71741699796945 21.856518567743453
    vertex 13.006562455811132 182.03480593754125 39.85651856774344
    vertex 13.006562455811132 182.03480593754125 21.856518567743453
  endloop
endfacet
facet normal 0.7933533402912137 -0.6087614290087486 -2.2186712959340957e-31
  outer loop
    vertex 4.490826483760254 184.3165905142089 21.856518567743453
    vertex 3.681930694736992 183.26241699796947 39.85651856774346
    vertex 3.681930694736992 183.26241699796947 21.856518567743453
  endloop
endfacet
facet normal 0.7933533402912137 -0.6087614290087486 -2.2186712959340957e-31
  outer loop
    vertex 3.681930694736992 183.26241699796947 39.85651856774346
    vertex 4.490826483760254 184.3165905142089 21.856518567743453
    vertex 4.490826483760254 184.3165905142089 39.85651856774346
  endloop
endfacet
facet normal -0.6087614290087165 0.7933533402912384 0.0
  outer loop
    vertex 10.634999999999833 176.30934769270667 39.85651856774346
    vertex 11.68917351623928 177.11824348172988 21.856518567743457
    vertex 10.634999999999833 176.30934769270667 21.856518567743457
  endloop
endfacet
facet normal -0.6087614290087165 0.7933533402912384 0.0
  outer loop
    vertex 11.68917351623928 177.11824348172988 21.856518567743457
    vertex 10.634999999999833 176.30934769270667 39.85651856774346
    vertex 11.68917351623928 177.11824348172988 39.85651856774346
  endloop
endfacet
facet normal 0.1305261922200753 -0.9914448613738075 0.0
  outer loop
    vertex 8.089999999999788 185.80741699796945 39.85651856774344
    vertex 6.772611060427936 185.63397945378077 21.856518567743453
    vertex 8.089999999999788 185.80741699796945 21.856518567743453
  endloop
endfacet
facet normal 0.1305261922200753 -0.9914448613738075 0.0
  outer loop
    vertex 6.772611060427936 185.63397945378077 21.856518567743453
    vertex 8.089999999999788 185.80741699796945 39.85651856774344
    vertex 6.772611060427936 185.63397945378077 39.85651856774344
  endloop
endfacet
facet normal -0.38268343236509833 0.9238795325112833 -3.944304526105059e-31
  outer loop
    vertex 9.407388939571687 175.8008545421581 39.85651856774344
    vertex 10.634999999999833 176.30934769270667 21.856518567743457
    vertex 9.407388939571687 175.8008545421581 21.856518567743453
  endloop
endfacet
facet normal -0.38268343236509833 0.9238795325112833 -3.944304526105059e-31
  outer loop
    vertex 10.634999999999833 176.30934769270667 21.856518567743457
    vertex 9.407388939571687 175.8008545421581 39.85651856774344
    vertex 10.634999999999833 176.30934769270667 39.85651856774346
  endloop
endfacet
facet normal 0.0 0.0 -1.0
  outer loop
    vertex 17.190407640085436 170.40370849898463 31.036518567743464
    vertex 11.010407640085434 158.78114278118642 31.036518567743464
    vertex 11.010407640085434 170.40370849898463 31.036518567743464
  endloop
endfacet
facet normal 0.0 0.0 -1.0
  outer loop
    vertex 11.010407640085434 158.78114278118642 31.036518567743464
    vertex 17.190407640085436 170.40370849898463 31.036518567743464
    vertex 17.190407640085436 158.78114278118647 31.036518567743464
  endloop
endfacet
facet normal 9.675984071027408e-33 1.0 0.0
  outer loop
    vertex 8.089999999999744 188.8074169979694 39.85651856774346
    vertex 21.21320343559623 188.8074169979694 21.856518567743457
    vertex 8.089999999999744 188.8074169979694 21.856518567743457
  endloop
endfacet
facet normal 9.675984071027408e-33 1.0 0.0
  outer loop
    vertex 21.21320343559623 188.8074169979694 21.856518567743457
    vertex 8.089999999999744 188.8074169979694 39.85651856774346
    vertex 21.21320343559623 188.8074169979694 39.85651856774346
  endloop
endfacet
facet normal 1.0 7.300884097211275e-15 -2.465190328815662e-32
  outer loop
    vertex 18.40370849898449 177.79700935788406 24.85651856774347
    vertex 18.40370849898467 171.617009357884 31.036518567743485
    vertex 18.40370849898467 171.61700935788397 24.85651856774347
  endloop
endfacet
facet normal 1.0 7.300884097211275e-15 -2.465190328815662e-32
  outer loop
    vertex 18.40370849898467 171.617009357884 31.036518567743485
    vertex 18.40370849898449 177.79700935788406 24.85651856774347
    vertex 18.40370849898449 177.79700935788406 31.036518567743475
  endloop
endfacet
facet normal 7.300884097211275e-15 -1.0 0.0
  outer loop
    vertex 30.010310216782727 177.79700935788378 31.036518567743475
    vertex 18.40370849898449 177.79700935788406 24.85651856774347
    vertex 30.010310216782727 177.79700935788378 24.85651856774347
  endloop
endfacet
facet normal 7.300884097211275e-15 -1.0 0.0
  outer loop
    vertex 18.40370849898449 177.79700935788406 24.85651856774347
    vertex 30.010310216782727 177.79700935788378 31.036518567743475
    vertex 18.40370849898449 177.79700935788406 31.036518567743475
  endloop
endfacet
facet normal -1.7009813268828067e-30 2.2815262803785236e-16 -1.0
  outer loop
    vertex 30.010310216782727 177.79700935788378 31.036518567743475
    vertex 18.40370849898467 171.617009357884 31.036518567743485
    vertex 18.40370849898449 177.79700935788406 31.036518567743475
  endloop
endfacet
facet normal -1.7009813268828067e-30 2.2815262803785236e-16 -1.0
  outer loop
    vertex 18.40370849898467 171.617009357884 31.036518567743485
    vertex 30.010310216782727 177.79700935788378 31.036518567743475
    vertex 30.01031021678277 171.6170093578837 31.036518567743475
  endloop
endfacet
facet normal -7.300884097211275e-15 1.0 0.0
  outer loop
    vertex 18.40370849898467 171.617009357884 31.036518567743485
    vertex 30.01031021678277 171.6170093578837 24.85651856774347
    vertex 18.40370849898467 171.61700935788397 24.85651856774347
  endloop
endfacet
facet normal -7.300884097211275e-15 1.0 0.0
  outer loop
    vertex 30.01031021678277 171.6170093578837 24.85651856774347
    vertex 18.40370849898467 171.617009357884 31.036518567743485
    vertex 30.01031021678277 171.6170093578837 31.036518567743475
  endloop
endfacet
facet normal 4.437342591868191e-31 -5.703815700946309e-17 1.0
  outer loop
    vertex 18.40370849898467 171.61700935788397 24.85651856774347
    vertex 30.010310216782727 177.79700935788378 24.85651856774347
    vertex 18.40370849898449 177.79700935788406 24.85651856774347
  endloop
endfacet
facet normal 4.437342591868191e-31 -5.703815700946309e-17 1.0
  outer loop
    vertex 30.010310216782727 177.79700935788378 24.85651856774347
    vertex 18.40370849898467 171.61700935788397 24.85651856774347
    vertex 30.01031021678277 171.6170093578837 24.85651856774347
  endloop
endfacet
facet normal -0.7074275456294017 -0.7067858008531406 0.00031527312870799476
  outer loop
    vertex -2.0303758674344862e-13 167.59421356237294 39.856518567743436
    vertex 4.55446609406711 163.03974746830562 33.846778567743456
    vertex 4.55446609406711 163.03974746830562 39.85651856774344
  endloop
endfacet
facet normal -0.7074275456294017 -0.7067858008531406 0.00031527312870799476
  outer loop
    vertex 8.797106781186338 158.79710678118641 33.846778567743456
    vertex -2.0303758674344862e-13 167.59421356237294 21.856518567743457
    vertex 8.797106781186338 158.78114278118642 21.85651856774346
  endloop
endfacet
facet normal -0.7074275456294017 -0.7067858008531406 0.00031527312870799476
  outer loop
    vertex -2.0303758674344862e-13 167.59421356237294 21.856518567743457
    vertex 8.797106781186338 158.79710678118641 33.846778567743456
    vertex 4.55446609406711 163.03974746830562 33.846778567743456
  endloop
endfacet
facet normal -0.7074275456294017 -0.7067858008531406 0.00031527312870799476
  outer loop
    vertex -2.0303758674344862e-13 167.59421356237294 21.856518567743457
    vertex 4.55446609406711 163.03974746830562 33.846778567743456
    vertex -2.0303758674344862e-13 167.59421356237294 39.856518567743436
  endloop
endfacet
facet normal -0.0007901050342236382 -0.9999995712880764 0.0004828640580620028
  outer loop
    vertex 19.403708498984532 158.78114278118642 21.85651856774346
    vertex 17.190407640085436 158.78114278118647 24.85651856774346
    vertex 8.797106781186338 158.78114278118642 21.85651856774346
  endloop
endfacet
facet normal -0.0007901050342236382 -0.9999995712880764 0.0004828640580620028
  outer loop
    vertex 17.190407640085436 158.78114278118647 24.85651856774346
    vertex 19.403708498984532 158.78114278118642 21.85651856774346
    vertex 19.403708498984532 158.78114278118642 39.856518567743436
  endloop
endfacet
facet normal -0.0007901050342236382 -0.9999995712880764 0.0004828640580620028
  outer loop
    vertex 17.190407640085436 158.78114278118647 24.85651856774346
    vertex 19.403708498984532 158.78114278118642 39.856518567743436
    vertex 17.190407640085436 158.78114278118647 31.036518567743464
  endloop
endfacet
facet normal -0.0007901050342236382 -0.9999995712880764 0.0004828640580620028
  outer loop
    vertex 17.190407640085436 158.78114278118647 31.036518567743464
    vertex 19.403708498984532 158.78114278118642 39.856518567743436
    vertex 11.010407640085434 158.78114278118642 31.036518567743464
  endloop
endfacet
facet normal -0.0007901050342236382 -0.9999995712880764 0.0004828640580620028
  outer loop
    vertex 11.010407640085434 158.78114278118642 31.036518567743464
    vertex 19.403708498984532 158.78114278118642 39.856518567743436
    vertex 11.12322546346749 158.79360573913428 33.84677856774346
  endloop
endfacet
facet normal -0.0007901050342236382 -0.9999995712880764 0.0004828640580620028
  outer loop
    vertex 11.010407640085434 158.78114278118642 31.036518567743464
    vertex 11.12322546346749 158.79360573913428 33.84677856774346
    vertex 8.797106781186338 158.79710678118641 33.846778567743456
  endloop
endfacet
facet normal -0.0007901050342236382 -0.9999995712880764 0.0004828640580620028
  outer loop
    vertex 11.12322546346749 158.79360573913428 33.84677856774346
    vertex 19.403708498984532 158.78114278118642 39.856518567743436
    vertex 11.12322546346749 158.79360573913428 39.85651856774346
  endloop
endfacet
facet normal -0.0007901050342236382 -0.9999995712880764 0.0004828640580620028
  outer loop
    vertex 8.797106781186338 158.78114278118642 21.85651856774346
    vertex 11.010407640085434 158.78114278118642 24.85651856774346
    vertex 8.797106781186338 158.79710678118641 33.846778567743456
  endloop
endfacet
facet normal -0.0007901050342236382 -0.9999995712880764 0.0004828640580620028
  outer loop
    vertex 11.010407640085434 158.78114278118642 24.85651856774346
    vertex 8.797106781186338 158.78114278118642 21.85651856774346
    vertex 17.190407640085436 158.78114278118647 24.85651856774346
  endloop
endfacet
facet normal -0.0007901050342236382 -0.9999995712880764 0.0004828640580620028
  outer loop
    vertex 8.797106781186338 158.79710678118641 33.846778567743456
    vertex 11.010407640085434 158.78114278118642 24.85651856774346
    vertex 11.010407640085434 158.78114278118642 31.036518567743464
  endloop
endfacet
facet normal 6.71510655920248e-17 4.0584940128386135e-17 1.0
  outer loop
    vertex 19.403708498984532 158.78114278118642 39.856518567743436
    vertex 11.34608741810268 159.66994086600312 39.85651856774344
    vertex 11.12322546346749 158.79360573913428 39.85651856774346
  endloop
endfacet
facet normal 6.71510655920248e-17 4.0584940128386135e-17 1.0
  outer loop
    vertex 11.34608741810268 159.66994086600312 39.85651856774344
    vertex 19.403708498984532 158.78114278118642 39.856518567743436
    vertex 11.366422543435755 160.57394152312992 39.85651856774344
  endloop
endfacet
facet normal 6.71510655920248e-17 4.0584940128386135e-17 1.0
  outer loop
    vertex 11.366422543435755 160.57394152312992 39.85651856774344
    vertex 19.403708498984532 158.78114278118642 39.856518567743436
    vertex 12.134999999999808 173.71127148135332 39.85651856774344
  endloop
endfacet
facet normal 6.71510655920248e-17 4.0584940128386135e-17 1.0
  outer loop
    vertex 12.134999999999808 173.71127148135332 39.85651856774344
    vertex 19.403708498984532 158.78114278118642 39.856518567743436
    vertex 13.81049385979897 174.99692313817027 39.85651856774344
  endloop
endfacet
facet normal 6.71510655920248e-17 4.0584940128386135e-17 1.0
  outer loop
    vertex 13.81049385979897 174.99692313817027 39.85651856774344
    vertex 19.403708498984532 158.78114278118642 39.856518567743436
    vertex 15.096145516615886 176.67241699796944 39.85651856774346
  endloop
endfacet
facet normal 6.71510655920248e-17 4.0584940128386135e-17 1.0
  outer loop
    vertex 15.096145516615886 176.67241699796944 39.85651856774346
    vertex 19.403708498984532 158.78114278118642 39.856518567743436
    vertex 15.904339934678337 178.62357092309003 39.85651856774346
  endloop
endfacet
facet normal 6.71510655920248e-17 4.0584940128386135e-17 1.0
  outer loop
    vertex 15.904339934678337 178.62357092309003 39.85651856774346
    vertex 19.403708498984532 158.78114278118642 39.856518567743436
    vertex 16.17999999999978 180.71741699796942 39.85651856774344
  endloop
endfacet
facet normal 6.71510655920248e-17 4.0584940128386135e-17 1.0
  outer loop
    vertex 16.17999999999978 180.71741699796942 39.85651856774344
    vertex 19.403708498984532 158.78114278118642 39.856518567743436
    vertex 18.98918322012174 168.4029559488076 39.85651856774346
  endloop
endfacet
facet normal 6.71510655920248e-17 4.0584940128386135e-17 1.0
  outer loop
    vertex 18.98918322012174 168.4029559488076 39.85651856774346
    vertex 19.403708498984532 158.78114278118642 39.856518567743436
    vertex 19.037407642717685 168.03665509254077 39.85651856774346
  endloop
endfacet
facet normal 6.71510655920248e-17 4.0584940128386135e-17 1.0
  outer loop
    vertex 19.037407642717685 168.03665509254077 39.85651856774346
    vertex 19.403708498984532 158.78114278118642 39.856518567743436
    vertex 19.17879449580017 167.69531703428774 39.85651856774346
  endloop
endfacet
facet normal 6.71510655920248e-17 4.0584940128386135e-17 1.0
  outer loop
    vertex 19.17879449580017 167.69531703428774 39.85651856774346
    vertex 19.403708498984532 158.78114278118642 39.856518567743436
    vertex 19.403708498984532 167.40220339863063 39.85651856774346
  endloop
endfacet
facet normal 6.71510655920248e-17 4.0584940128386135e-17 1.0
  outer loop
    vertex 10.183846074879154 188.53175693264797 39.85651856774346
    vertex 21.21320343559623 188.8074169979694 39.85651856774346
    vertex 8.089999999999744 188.8074169979694 39.85651856774346
  endloop
endfacet
facet normal 6.71510655920248e-17 4.0584940128386135e-17 1.0
  outer loop
    vertex 21.21320343559623 188.8074169979694 39.85651856774346
    vertex 10.183846074879154 188.53175693264797 39.85651856774346
    vertex 12.134999999999762 187.72356251458555 39.85651856774346
  endloop
endfacet
facet normal 6.71510655920248e-17 4.0584940128386135e-17 1.0
  outer loop
    vertex 21.21320343559623 188.8074169979694 39.85651856774346
    vertex 12.134999999999762 187.72356251458555 39.85651856774346
    vertex 13.810493859798926 186.4379108577686 39.85651856774344
  endloop
endfacet
facet normal 6.71510655920248e-17 4.0584940128386135e-17 1.0
  outer loop
    vertex 21.21320343559623 188.8074169979694 39.85651856774346
    vertex 13.810493859798926 186.4379108577686 39.85651856774344
    vertex 15.096145516615886 184.76241699796944 39.856518567743436
  endloop
endfacet
facet normal 6.71510655920248e-17 4.0584940128386135e-17 1.0
  outer loop
    vertex 21.21320343559623 188.8074169979694 39.85651856774346
    vertex 15.096145516615886 184.76241699796944 39.856518567743436
    vertex 15.904339934678337 182.81126307284882 39.85651856774344
  endloop
endfacet
facet normal 6.71510655920248e-17 4.0584940128386135e-17 1.0
  outer loop
    vertex 21.21320343559623 188.8074169979694 39.85651856774346
    vertex 15.904339934678337 182.81126307284882 39.85651856774344
    vertex 16.17999999999978 180.71741699796942 39.85651856774344
  endloop
endfacet
facet normal 6.71510655920248e-17 4.0584940128386135e-17 1.0
  outer loop
    vertex 21.21320343559623 188.8074169979694 39.85651856774346
    vertex 16.17999999999978 180.71741699796942 39.85651856774344
    vertex 18.98918322012174 168.4029559488076 39.85651856774346
  endloop
endfacet
facet normal 6.71510655920248e-17 4.0584940128386135e-17 1.0
  outer loop
    vertex 21.21320343559623 188.8074169979694 39.85651856774346
    vertex 18.98918322012174 168.4029559488076 39.85651856774346
    vertex 19.037407642717643 168.76925680507443 39.85651856774346
  endloop
endfacet
facet normal 6.71510655920248e-17 4.0584940128386135e-17 1.0
  outer loop
    vertex 21.21320343559623 188.8074169979694 39.85651856774346
    vertex 19.037407642717643 168.76925680507443 39.85651856774346
    vertex 19.17879449580017 169.1105948633275 39.856518567743436
  endloop
endfacet
facet normal 6.71510655920248e-17 4.0584940128386135e-17 1.0
  outer loop
    vertex 21.21320343559623 188.8074169979694 39.85651856774346
    vertex 19.17879449580017 169.1105948633275 39.856518567743436
    vertex 19.403708498984532 169.40370849898463 39.856518567743436
  endloop
endfacet
facet normal 6.71510655920248e-17 4.0584940128386135e-17 1.0
  outer loop
    vertex 21.21320343559623 188.8074169979694 39.85651856774346
    vertex 19.403708498984532 169.40370849898463 39.856518567743436
    vertex 19.69682213464157 169.62862250216892 39.856518567743436
  endloop
endfacet
facet normal 6.71510655920248e-17 4.0584940128386135e-17 1.0
  outer loop
    vertex 21.21320343559623 188.8074169979694 39.85651856774346
    vertex 19.69682213464157 169.62862250216892 39.856518567743436
    vertex 20.0381601928946 169.77000935525146 39.856518567743436
  endloop
endfacet
facet normal 6.71510655920248e-17 4.0584940128386135e-17 1.0
  outer loop
    vertex 21.21320343559623 188.8074169979694 39.85651856774346
    vertex 20.0381601928946 169.77000935525146 39.856518567743436
    vertex 20.404461049161448 169.81823377784738 39.856518567743436
  endloop
endfacet
facet normal 6.71510655920248e-17 4.0584940128386135e-17 1.0
  outer loop
    vertex 21.21320343559623 188.8074169979694 39.85651856774346
    vertex 20.404461049161448 169.81823377784738 39.856518567743436
    vertex 20.770761905428294 169.77000935525146 39.856518567743436
  endloop
endfacet
facet normal 6.71510655920248e-17 4.0584940128386135e-17 1.0
  outer loop
    vertex 21.21320343559623 188.8074169979694 39.85651856774346
    vertex 20.770761905428294 169.77000935525146 39.856518567743436
    vertex 21.112099963681324 169.62862250216898 39.856518567743436
  endloop
endfacet
facet normal 6.71510655920248e-17 4.0584940128386135e-17 1.0
  outer loop
    vertex 21.21320343559623 188.8074169979694 39.85651856774346
    vertex 21.112099963681324 169.62862250216898 39.856518567743436
    vertex 21.405213599338456 169.40370849898463 39.85651856774346
  endloop
endfacet
facet normal 6.71510655920248e-17 4.0584940128386135e-17 1.0
  outer loop
    vertex 21.21320343559623 188.8074169979694 39.85651856774346
    vertex 21.405213599338456 169.40370849898463 39.85651856774346
    vertex 30.01031021678277 180.01031021678287 39.85651856774344
  endloop
endfacet
facet normal 6.71510655920248e-17 4.0584940128386135e-17 1.0
  outer loop
    vertex 30.01031021678277 180.01031021678287 39.85651856774344
    vertex 21.405213599338456 169.40370849898463 39.85651856774346
    vertex 30.01031021678277 169.40370849898463 39.85651856774344
  endloop
endfacet
facet normal 6.71510655920248e-17 4.0584940128386135e-17 1.0
  outer loop
    vertex -2.0303758674344862e-13 167.59421356237294 39.856518567743436
    vertex 0.27566006532124143 178.62357092309 39.856518567743436
    vertex -2.0303758674344862e-13 180.7174169979694 39.856518567743436
  endloop
endfacet
facet normal 6.71510655920248e-17 4.0584940128386135e-17 1.0
  outer loop
    vertex 0.27566006532124143 178.62357092309 39.856518567743436
    vertex -2.0303758674344862e-13 167.59421356237294 39.856518567743436
    vertex 4.55446609406711 163.03974746830562 39.85651856774344
  endloop
endfacet
facet normal 6.71510655920248e-17 4.0584940128386135e-17 1.0
  outer loop
    vertex 0.27566006532124143 178.62357092309 39.856518567743436
    vertex 4.55446609406711 163.03974746830562 39.85651856774344
    vertex 1.0838544833836914 176.67241699796938 39.85651856774342
  endloop
endfacet
facet normal 6.71510655920248e-17 4.0584940128386135e-17 1.0
  outer loop
    vertex 1.0838544833836914 176.67241699796938 39.85651856774342
    vertex 4.55446609406711 163.03974746830562 39.85651856774344
    vertex 2.369506140200652 174.99692313817022 39.85651856774346
  endloop
endfacet
facet normal 6.71510655920248e-17 4.0584940128386135e-17 1.0
  outer loop
    vertex 2.369506140200652 174.99692313817022 39.85651856774346
    vertex 4.55446609406711 163.03974746830562 39.85651856774344
    vertex 4.044999999999815 173.7112714813533 39.85651856774346
  endloop
endfacet
facet normal 6.71510655920248e-17 4.0584940128386135e-17 1.0
  outer loop
    vertex 4.044999999999815 173.7112714813533 39.85651856774346
    vertex 4.55446609406711 163.03974746830562 39.85651856774344
    vertex 5.9961539251204234 172.90307706329085 39.85651856774346
  endloop
endfacet
facet normal 6.71510655920248e-17 4.0584940128386135e-17 1.0
  outer loop
    vertex 5.9961539251204234 172.90307706329085 39.85651856774346
    vertex 4.55446609406711 163.03974746830562 39.85651856774344
    vertex 5.2620244571044354 163.60276777726787 39.85651856774344
  endloop
endfacet
facet normal 6.71510655920248e-17 4.0584940128386135e-17 1.0
  outer loop
    vertex 5.9961539251204234 172.90307706329085 39.85651856774346
    vertex 5.2620244571044354 163.60276777726787 39.85651856774344
    vertex 6.07796328399888 163.99247861388156 39.85651856774344
  endloop
endfacet
facet normal 6.71510655920248e-17 4.0584940128386135e-17 1.0
  outer loop
    vertex 5.9961539251204234 172.90307706329085 39.85651856774346
    vertex 6.07796328399888 163.99247861388156 39.85651856774344
    vertex 8.089999999999835 172.62741699796942 39.85651856774346
  endloop
endfacet
facet normal 6.71510655920248e-17 4.0584940128386135e-17 1.0
  outer loop
    vertex 8.089999999999835 172.62741699796942 39.85651856774346
    vertex 6.07796328399888 163.99247861388156 39.85651856774344
    vertex 6.960586534837728 164.1889650065063 39.85651856774344
  endloop
endfacet
facet normal 6.71510655920248e-17 4.0584940128386135e-17 1.0
  outer loop
    vertex 8.089999999999835 172.62741699796942 39.85651856774346
    vertex 6.960586534837728 164.1889650065063 39.85651856774344
    vertex 7.8647904676714075 164.1821861234043 39.85651856774344
  endloop
endfacet
facet normal 6.71510655920248e-17 4.0584940128386135e-17 1.0
  outer loop
    vertex 8.089999999999835 172.62741699796942 39.85651856774346
    vertex 7.8647904676714075 164.1821861234043 39.85651856774344
    vertex 8.744368526285214 163.9724883785114 39.85651856774344
  endloop
endfacet
facet normal 6.71510655920248e-17 4.0584940128386135e-17 1.0
  outer loop
    vertex 8.089999999999835 172.62741699796942 39.85651856774346
    vertex 8.744368526285214 163.9724883785114 39.85651856774344
    vertex 10.183846074879199 172.90307706329085 39.85651856774346
  endloop
endfacet
facet normal 6.71510655920248e-17 4.0584940128386135e-17 1.0
  outer loop
    vertex 10.183846074879199 172.90307706329085 39.85651856774346
    vertex 8.744368526285214 163.9724883785114 39.85651856774344
    vertex 9.554372583896264 163.57058772902 39.85651856774344
  endloop
endfacet
facet normal 6.71510655920248e-17 4.0584940128386135e-17 1.0
  outer loop
    vertex 10.183846074879199 172.90307706329085 39.85651856774346
    vertex 9.554372583896264 163.57058772902 39.85651856774344
    vertex 10.253409878691599 162.99702206940182 39.85651856774346
  endloop
endfacet
facet normal 6.71510655920248e-17 4.0584940128386135e-17 1.0
  outer loop
    vertex 10.183846074879199 172.90307706329085 39.85651856774346
    vertex 10.253409878691599 162.99702206940182 39.85651856774346
    vertex 12.134999999999808 173.71127148135332 39.85651856774344
  endloop
endfacet
facet normal 6.71510655920248e-17 4.0584940128386135e-17 1.0
  outer loop
    vertex 12.134999999999808 173.71127148135332 39.85651856774344
    vertex 10.253409878691599 162.99702206940182 39.85651856774346
    vertex 10.805758263393084 162.28110170558634 39.85651856774346
  endloop
endfacet
facet normal 6.71510655920248e-17 4.0584940128386135e-17 1.0
  outer loop
    vertex 12.134999999999808 173.71127148135332 39.85651856774344
    vertex 10.805758263393084 162.28110170558634 39.85651856774346
    vertex 11.18319167553731 161.45941154207873 39.85651856774346
  endloop
endfacet
facet normal 6.71510655920248e-17 4.0584940128386135e-17 1.0
  outer loop
    vertex 12.134999999999808 173.71127148135332 39.85651856774344
    vertex 11.18319167553731 161.45941154207873 39.85651856774346
    vertex 11.366422543435755 160.57394152312992 39.85651856774344
  endloop
endfacet
facet normal -0.9691513920622898 0.24646618279943758 -1.1495544873521115e-15
  outer loop
    vertex 11.34608741810268 159.66994086600312 39.85651856774344
    vertex 11.12322546346749 158.79360573913428 33.84677856774346
    vertex 11.12322546346749 158.79360573913428 39.85651856774346
  endloop
endfacet
facet normal -0.9691513920622898 0.24646618279943758 -1.1495544873521115e-15
  outer loop
    vertex 11.12322546346749 158.79360573913428 33.84677856774346
    vertex 11.34608741810268 159.66994086600312 39.85651856774344
    vertex 11.34608741810268 159.66994086600312 33.846778567743456
  endloop
endfacet
facet normal -0.9997470926562732 0.02248890227044443 -1.1191086128300273e-15
  outer loop
    vertex 11.366422543435755 160.57394152312992 39.85651856774344
    vertex 11.34608741810268 159.66994086600312 33.846778567743456
    vertex 11.34608741810268 159.66994086600312 39.85651856774344
  endloop
endfacet
facet normal -0.9997470926562732 0.02248890227044443 -1.1191086128300273e-15
  outer loop
    vertex 11.34608741810268 159.66994086600312 33.846778567743456
    vertex 11.366422543435755 160.57394152312992 39.85651856774344
    vertex 11.366422543435755 160.57394152312992 33.846778567743456
  endloop
endfacet
facet normal -0.9792537982128747 -0.20263760432273825 -1.0314741405244259e-15
  outer loop
    vertex 11.18319167553731 161.45941154207873 39.85651856774346
    vertex 11.366422543435755 160.57394152312992 33.846778567743456
    vertex 11.366422543435755 160.57394152312992 39.85651856774344
  endloop
endfacet
facet normal -0.9792537982128747 -0.20263760432273825 -1.0314741405244259e-15
  outer loop
    vertex 11.366422543435755 160.57394152312992 33.846778567743456
    vertex 11.18319167553731 161.45941154207873 39.85651856774346
    vertex 11.18319167553731 161.45941154207873 33.846778567743456
  endloop
endfacet
facet normal -0.9087187554065775 -0.417408940455665 -8.911293601483625e-16
  outer loop
    vertex 10.805758263393084 162.28110170558634 39.85651856774346
    vertex 11.18319167553731 161.45941154207873 33.846778567743456
    vertex 11.18319167553731 161.45941154207873 39.85651856774346
  endloop
endfacet
facet normal -0.9087187554065775 -0.417408940455665 -8.911293601483625e-16
  outer loop
    vertex 11.18319167553731 161.45941154207873 33.846778567743456
    vertex 10.805758263393084 162.28110170558634 39.85651856774346
    vertex 10.805758263393084 162.28110170558634 33.846778567743456
  endloop
endfacet
facet normal -0.7917464402877492 -0.6108498786867994 -7.052461593130665e-16
  outer loop
    vertex 10.253409878691599 162.99702206940182 39.85651856774346
    vertex 10.805758263393084 162.28110170558634 33.846778567743456
    vertex 10.805758263393084 162.28110170558634 39.85651856774346
  endloop
endfacet
facet normal -0.7917464402877492 -0.6108498786867994 -7.052461593130665e-16
  outer loop
    vertex 10.805758263393084 162.28110170558634 33.846778567743456
    vertex 10.253409878691599 162.99702206940182 39.85651856774346
    vertex 10.253409878691599 162.99702206940182 33.846778567743456
  endloop
endfacet
facet normal -0.6343143626391322 -0.77307521584236 -4.833235263074422e-16
  outer loop
    vertex 10.253409878691599 162.99702206940182 33.846778567743456
    vertex 9.554372583896264 163.57058772902 39.85651856774344
    vertex 9.554372583896264 163.57058772902 33.846778567743456
  endloop
endfacet
facet normal -0.6343143626391322 -0.77307521584236 -4.833235263074422e-16
  outer loop
    vertex 9.554372583896264 163.57058772902 39.85651856774344
    vertex 10.253409878691599 162.99702206940182 33.846778567743456
    vertex 10.253409878691599 162.99702206940182 39.85651856774346
  endloop
endfacet
facet normal -0.4444676037545717 -0.8957949258690123 -2.3670213356712364e-16
  outer loop
    vertex 9.554372583896264 163.57058772902 39.85651856774344
    vertex 8.744368526285214 163.9724883785114 33.846778567743456
    vertex 9.554372583896264 163.57058772902 33.846778567743456
  endloop
endfacet
facet normal -0.4444676037545717 -0.8957949258690123 -2.3670213356712364e-16
  outer loop
    vertex 8.744368526285214 163.9724883785114 33.846778567743456
    vertex 9.554372583896264 163.57058772902 39.85651856774344
    vertex 8.744368526285214 163.9724883785114 39.85651856774344
  endloop
endfacet
facet normal -0.23190769734569694 -0.9727377960744699 2.2015192450712157e-17
  outer loop
    vertex 8.744368526285214 163.9724883785114 39.85651856774344
    vertex 7.8647904676714075 164.18218612340434 33.846778567743456
    vertex 8.744368526285214 163.9724883785114 33.846778567743456
  endloop
endfacet
facet normal -0.23190769734569694 -0.9727377960744699 2.2015192450712157e-17
  outer loop
    vertex 7.8647904676714075 164.18218612340434 33.846778567743456
    vertex 8.744368526285214 163.9724883785114 39.85651856774344
    vertex 7.8647904676714075 164.1821861234043 39.85651856774344
  endloop
endfacet
facet normal -0.007496862551183844 -0.9999718981310869 2.7960749988521756e-16
  outer loop
    vertex 7.8647904676714075 164.1821861234043 39.85651856774344
    vertex 6.960586534837728 164.1889650065063 33.846778567743456
    vertex 7.8647904676714075 164.18218612340434 33.846778567743456
  endloop
endfacet
facet normal -0.007496862551183844 -0.9999718981310869 2.7960749988521756e-16
  outer loop
    vertex 6.960586534837728 164.1889650065063 33.846778567743456
    vertex 7.8647904676714075 164.1821861234043 39.85651856774344
    vertex 6.960586534837728 164.1889650065063 39.85651856774344
  endloop
endfacet
facet normal 0.21729707630682935 -0.976105517159136 5.22911327484186e-16
  outer loop
    vertex 6.960586534837728 164.1889650065063 39.85651856774344
    vertex 6.07796328399888 163.99247861388156 33.846778567743456
    vertex 6.960586534837728 164.1889650065063 33.846778567743456
  endloop
endfacet
facet normal 0.21729707630682935 -0.976105517159136 5.22911327484186e-16
  outer loop
    vertex 6.07796328399888 163.99247861388156 33.846778567743456
    vertex 6.960586534837728 164.1889650065063 39.85651856774344
    vertex 6.07796328399888 163.99247861388156 39.85651856774344
  endloop
endfacet
facet normal 0.43098671755335793 -0.9023582710279672 7.394933827358654e-16
  outer loop
    vertex 6.07796328399888 163.99247861388156 39.85651856774344
    vertex 5.2620244571044354 163.60276777726787 33.846778567743456
    vertex 6.07796328399888 163.99247861388156 33.846778567743456
  endloop
endfacet
facet normal 0.43098671755335793 -0.9023582710279672 7.394933827358654e-16
  outer loop
    vertex 5.2620244571044354 163.60276777726787 33.846778567743456
    vertex 6.07796328399888 163.99247861388156 39.85651856774344
    vertex 5.2620244571044354 163.60276777726787 39.85651856774344
  endloop
endfacet
facet normal 0.6226521104314707 -0.782498785542339 9.182859069768627e-16
  outer loop
    vertex 5.2620244571044354 163.60276777726787 39.85651856774344
    vertex 4.55446609406711 163.03974746830562 33.846778567743456
    vertex 5.2620244571044354 163.60276777726787 33.846778567743456
  endloop
endfacet
facet normal 0.6226521104314707 -0.782498785542339 9.182859069768627e-16
  outer loop
    vertex 4.55446609406711 163.03974746830562 33.846778567743456
    vertex 5.2620244571044354 163.60276777726787 39.85651856774344
    vertex 4.55446609406711 163.03974746830562 39.85651856774344
  endloop
endfacet
facet normal -1.1129141961651267e-15 2.87958956829986e-16 1.0
  outer loop
    vertex 8.797106781186338 158.79710678118641 33.846778567743456
    vertex 5.2620244571044354 163.60276777726787 33.846778567743456
    vertex 4.55446609406711 163.03974746830562 33.846778567743456
  endloop
endfacet
facet normal -1.1129141961651267e-15 2.87958956829986e-16 1.0
  outer loop
    vertex 5.2620244571044354 163.60276777726787 33.846778567743456
    vertex 8.797106781186338 158.79710678118641 33.846778567743456
    vertex 6.07796328399888 163.99247861388156 33.846778567743456
  endloop
endfacet
facet normal -1.1129141961651267e-15 2.87958956829986e-16 1.0
  outer loop
    vertex 6.07796328399888 163.99247861388156 33.846778567743456
    vertex 8.797106781186338 158.79710678118641 33.846778567743456
    vertex 6.960586534837728 164.1889650065063 33.846778567743456
  endloop
endfacet
facet normal -1.1129141961651267e-15 2.87958956829986e-16 1.0
  outer loop
    vertex 6.960586534837728 164.1889650065063 33.846778567743456
    vertex 8.797106781186338 158.79710678118641 33.846778567743456
    vertex 7.8647904676714075 164.18218612340434 33.846778567743456
  endloop
endfacet
facet normal -1.1129141961651267e-15 2.87958956829986e-16 1.0
  outer loop
    vertex 7.8647904676714075 164.18218612340434 33.846778567743456
    vertex 8.797106781186338 158.79710678118641 33.846778567743456
    vertex 8.744368526285214 163.9724883785114 33.846778567743456
  endloop
endfacet
facet normal -1.1129141961651267e-15 2.87958956829986e-16 1.0
  outer loop
    vertex 8.744368526285214 163.9724883785114 33.846778567743456
    vertex 8.797106781186338 158.79710678118641 33.846778567743456
    vertex 9.554372583896264 163.57058772902 33.846778567743456
  endloop
endfacet
facet normal -1.1129141961651267e-15 2.87958956829986e-16 1.0
  outer loop
    vertex 9.554372583896264 163.57058772902 33.846778567743456
    vertex 8.797106781186338 158.79710678118641 33.846778567743456
    vertex 11.12322546346749 158.79360573913428 33.84677856774346
  endloop
endfacet
facet normal -1.1129141961651267e-15 2.87958956829986e-16 1.0
  outer loop
    vertex 9.554372583896264 163.57058772902 33.846778567743456
    vertex 11.12322546346749 158.79360573913428 33.84677856774346
    vertex 10.253409878691599 162.99702206940182 33.846778567743456
  endloop
endfacet
facet normal -1.1129141961651267e-15 2.87958956829986e-16 1.0
  outer loop
    vertex 10.253409878691599 162.99702206940182 33.846778567743456
    vertex 11.12322546346749 158.79360573913428 33.84677856774346
    vertex 10.805758263393084 162.28110170558634 33.846778567743456
  endloop
endfacet
facet normal -1.1129141961651267e-15 2.87958956829986e-16 1.0
  outer loop
    vertex 10.805758263393084 162.28110170558634 33.846778567743456
    vertex 11.12322546346749 158.79360573913428 33.84677856774346
    vertex 11.18319167553731 161.45941154207873 33.846778567743456
  endloop
endfacet
facet normal -1.1129141961651267e-15 2.87958956829986e-16 1.0
  outer loop
    vertex 11.18319167553731 161.45941154207873 33.846778567743456
    vertex 11.12322546346749 158.79360573913428 33.84677856774346
    vertex 11.34608741810268 159.66994086600312 33.846778567743456
  endloop
endfacet
facet normal -1.1129141961651267e-15 2.87958956829986e-16 1.0
  outer loop
    vertex 11.18319167553731 161.45941154207873 33.846778567743456
    vertex 11.34608741810268 159.66994086600312 33.846778567743456
    vertex 11.366422543435755 160.57394152312992 33.846778567743456
  endloop
endfacet
endsolid MML_M30T_Cradle_rev1
