solid MML_M30T_Cradle_rev1
facet normal 1.9351968142054815e-32 -1.0 0.0
  outer loop
    vertex 131.6170093578839 170.40370849898466 24.856518567743407
    vertex 137.7970093578839 170.40370849898463 24.856518567743407
    vertex 131.6170093578839 170.40370849898466 31.036518567743407
  endloop
endfacet
facet normal 1.9351968142054815e-32 -1.0 0.0
  outer loop
    vertex 137.7970093578839 170.40370849898463 31.036518567743407
    vertex 131.6170093578839 170.40370849898466 31.036518567743407
    vertex 137.7970093578839 170.40370849898463 24.856518567743407
  endloop
endfacet
facet normal 0.0 0.0 1.0
  outer loop
    vertex 137.7970093578839 158.78114278118645 24.856518567743407
    vertex 137.7970093578839 170.40370849898463 24.856518567743407
    vertex 131.6170093578839 158.7811427811865 24.856518567743407
  endloop
endfacet
facet normal 0.0 0.0 1.0
  outer loop
    vertex 131.6170093578839 170.40370849898466 24.856518567743407
    vertex 131.6170093578839 158.7811427811865 24.856518567743407
    vertex 137.7970093578839 170.40370849898463 24.856518567743407
  endloop
endfacet
facet normal 1.0 0.0 0.0
  outer loop
    vertex 131.6170093578839 158.7811427811865 31.036518567743407
    vertex 131.6170093578839 158.7811427811865 24.856518567743407
    vertex 131.6170093578839 170.40370849898466 31.036518567743407
  endloop
endfacet
facet normal 1.0 0.0 0.0
  outer loop
    vertex 131.6170093578839 170.40370849898466 24.856518567743407
    vertex 131.6170093578839 170.40370849898466 31.036518567743407
    vertex 131.6170093578839 158.7811427811865 24.856518567743407
  endloop
endfacet
facet normal -1.0 0.0 0.0
  outer loop
    vertex 137.7970093578839 158.78114278118645 24.856518567743407
    vertex 137.7970093578839 158.78114278118645 31.036518567743414
    vertex 137.7970093578839 170.40370849898463 24.856518567743407
  endloop
endfacet
facet normal -1.0 0.0 0.0
  outer loop
    vertex 137.7970093578839 170.40370849898463 31.036518567743407
    vertex 137.7970093578839 170.40370849898463 24.856518567743407
    vertex 137.7970093578839 158.78114278118645 31.036518567743414
  endloop
endfacet
facet normal -1.0 0.0 0.0
  outer loop
    vertex 118.79710678118657 169.40370849898463 39.856518567743386
    vertex 118.79710678118657 171.61700935788372 24.856518567743418
    vertex 118.79710678118657 169.40370849898463 21.856518567743436
  endloop
endfacet
facet normal -1.0 0.0 0.0
  outer loop
    vertex 118.79710678118657 180.01031021678287 21.856518567743404
    vertex 118.79710678118657 169.40370849898463 21.856518567743436
    vertex 118.79710678118657 171.61700935788372 24.856518567743418
  endloop
endfacet
facet normal -1.0 0.0 0.0
  outer loop
    vertex 118.79710678118661 177.7970093578838 24.856518567743418
    vertex 118.79710678118657 180.01031021678287 21.856518567743404
    vertex 118.79710678118657 171.61700935788372 24.856518567743418
  endloop
endfacet
facet normal -1.0 0.0 0.0
  outer loop
    vertex 118.79710678118661 177.7970093578838 31.036518567743418
    vertex 118.79710678118657 180.01031021678287 21.856518567743404
    vertex 118.79710678118661 177.7970093578838 24.856518567743418
  endloop
endfacet
facet normal -1.0 0.0 0.0
  outer loop
    vertex 118.79710678118657 180.01031021678287 39.856518567743386
    vertex 118.79710678118657 171.61700935788372 31.036518567743418
    vertex 118.79710678118657 169.40370849898463 39.856518567743386
  endloop
endfacet
facet normal -1.0 0.0 0.0
  outer loop
    vertex 118.79710678118657 171.61700935788372 24.856518567743418
    vertex 118.79710678118657 169.40370849898463 39.856518567743386
    vertex 118.79710678118657 171.61700935788372 31.036518567743418
  endloop
endfacet
facet normal -1.0 0.0 0.0
  outer loop
    vertex 118.79710678118661 177.7970093578838 31.036518567743418
    vertex 118.79710678118657 171.61700935788372 31.036518567743418
    vertex 118.79710678118657 180.01031021678287 39.856518567743386
  endloop
endfacet
facet normal -1.0 0.0 0.0
  outer loop
    vertex 118.79710678118657 180.01031021678287 21.856518567743404
    vertex 118.79710678118661 177.7970093578838 31.036518567743418
    vertex 118.79710678118657 180.01031021678287 39.856518567743386
  endloop
endfacet
facet normal -1.0 0.0 0.0
  outer loop
    vertex 129.4037084989848 158.78114278118645 21.856518567743407
    vertex 129.4037084989848 158.78114278118645 39.85651856774338
    vertex 129.4037084989848 167.40220339863066 21.856518567743404
  endloop
endfacet
facet normal -1.0 0.0 0.0
  outer loop
    vertex 129.4037084989848 167.40220339863066 39.8565185677434
    vertex 129.4037084989848 167.40220339863066 21.856518567743404
    vertex 129.4037084989848 158.78114278118645 39.85651856774338
  endloop
endfacet
facet normal 2.6216709542400624e-15 -1.0 -4.930380657631324e-32
  outer loop
    vertex 127.40220339863089 169.40370849898466 21.856518567743407
    vertex 127.40220339863089 169.40370849898466 39.8565185677434
    vertex 118.79710678118657 169.40370849898463 21.856518567743436
  endloop
endfacet
facet normal 2.6216709542400624e-15 -1.0 -4.930380657631324e-32
  outer loop
    vertex 118.79710678118657 169.40370849898463 39.856518567743386
    vertex 118.79710678118657 169.40370849898463 21.856518567743436
    vertex 127.40220339863089 169.40370849898466 39.8565185677434
  endloop
endfacet
facet normal 0.13052619222005654 0.9914448613738099 0.0
  outer loop
    vertex 142.81126307284896 188.53175693264797 21.856518567743404
    vertex 140.7174169979696 188.80741699796943 21.856518567743404
    vertex 142.81126307284896 188.53175693264797 39.85651856774337
  endloop
endfacet
facet normal 0.13052619222005654 0.9914448613738099 0.0
  outer loop
    vertex 140.7174169979696 188.80741699796943 39.8565185677434
    vertex 142.81126307284896 188.53175693264797 39.85651856774337
    vertex 140.7174169979696 188.80741699796943 21.856518567743404
  endloop
endfacet
facet normal 0.1305261922200324 -0.9914448613738132 -3.4512664603419275e-31
  outer loop
    vertex 128.03665509254105 169.7700093552515 21.856518567743407
    vertex 128.4029559488079 169.8182337778474 21.856518567743407
    vertex 128.03665509254105 169.7700093552515 39.856518567743386
  endloop
endfacet
facet normal 0.1305261922200324 -0.9914448613738132 -3.4512664603419275e-31
  outer loop
    vertex 128.4029559488079 169.8182337778474 39.856518567743386
    vertex 128.03665509254105 169.7700093552515 39.856518567743386
    vertex 128.4029559488079 169.8182337778474 21.856518567743407
  endloop
endfacet
facet normal 0.0 0.0 1.0
  outer loop
    vertex 145.80741699796945 180.7174169979695 39.856518567743386
    vertex 145.63397945378085 179.40002805839768 39.856518567743386
    vertex 146.43791085776868 174.99692313817025 39.8565185677434
  endloop
endfacet
facet normal 0.0 0.0 1.0
  outer loop
    vertex 144.76241699796952 173.71127148135332 39.8565185677434
    vertex 146.43791085776868 174.99692313817025 39.8565185677434
    vertex 145.63397945378085 179.40002805839768 39.856518567743386
  endloop
endfacet
facet normal 0.0 0.0 1.0
  outer loop
    vertex 145.1254863032323 178.17241699796952 39.856518567743386
    vertex 144.76241699796952 173.71127148135332 39.8565185677434
    vertex 145.63397945378085 179.40002805839768 39.856518567743386
  endloop
endfacet
facet normal 0.0 0.0 1.0
  outer loop
    vertex 144.31659051420903 177.11824348172996 39.85651856774337
    vertex 144.76241699796952 173.71127148135332 39.8565185677434
    vertex 145.1254863032323 178.17241699796952 39.856518567743386
  endloop
endfacet
facet normal 0.0 0.0 1.0
  outer loop
    vertex 142.8112630728489 172.90307706329088 39.8565185677434
    vertex 144.76241699796952 173.71127148135332 39.8565185677434
    vertex 144.31659051420903 177.11824348172996 39.85651856774337
  endloop
endfacet
facet normal 0.0 0.0 1.0
  outer loop
    vertex 143.2624169979695 176.30934769270672 39.856518567743386
    vertex 142.8112630728489 172.90307706329088 39.8565185677434
    vertex 144.31659051420903 177.11824348172996 39.85651856774337
  endloop
endfacet
facet normal 0.0 0.0 1.0
  outer loop
    vertex 142.0348059375413 175.80085454215813 39.856518567743386
    vertex 142.8112630728489 172.90307706329088 39.8565185677434
    vertex 143.2624169979695 176.30934769270672 39.856518567743386
  endloop
endfacet
facet normal 0.0 0.0 1.0
  outer loop
    vertex 140.7174169979695 172.62741699796945 39.8565185677434
    vertex 142.8112630728489 172.90307706329088 39.8565185677434
    vertex 142.0348059375413 175.80085454215813 39.856518567743386
  endloop
endfacet
facet normal 0.0 0.0 1.0
  outer loop
    vertex 140.71741699796954 175.62741699796942 39.856518567743386
    vertex 140.7174169979695 172.62741699796945 39.8565185677434
    vertex 142.0348059375413 175.80085454215813 39.856518567743386
  endloop
endfacet
facet normal 0.0 0.0 1.0
  outer loop
    vertex 139.40002805839765 175.80085454215813 39.856518567743386
    vertex 140.7174169979695 172.62741699796945 39.8565185677434
    vertex 140.71741699796954 175.62741699796942 39.856518567743386
  endloop
endfacet
facet normal 0.0 0.0 1.0
  outer loop
    vertex 138.62357092309014 172.90307706329088 39.8565185677434
    vertex 140.7174169979695 172.62741699796945 39.8565185677434
    vertex 139.40002805839765 175.80085454215813 39.856518567743386
  endloop
endfacet
facet normal 0.0 0.0 1.0
  outer loop
    vertex 138.1724169979695 176.3093476927067 39.8565185677434
    vertex 138.62357092309014 172.90307706329088 39.8565185677434
    vertex 139.40002805839765 175.80085454215813 39.856518567743386
  endloop
endfacet
facet normal 0.0 0.0 1.0
  outer loop
    vertex 136.67241699796952 173.71127148135335 39.856518567743386
    vertex 138.62357092309014 172.90307706329088 39.8565185677434
    vertex 138.1724169979695 176.3093476927067 39.8565185677434
  endloop
endfacet
facet normal 0.0 0.0 1.0
  outer loop
    vertex 137.11824348173005 177.1182434817299 39.8565185677434
    vertex 136.67241699796952 173.71127148135335 39.856518567743386
    vertex 138.1724169979695 176.3093476927067 39.8565185677434
  endloop
endfacet
facet normal 0.0 0.0 1.0
  outer loop
    vertex 136.30934769270675 178.17241699796946 39.8565185677434
    vertex 136.67241699796952 173.71127148135335 39.856518567743386
    vertex 137.11824348173005 177.1182434817299 39.8565185677434
  endloop
endfacet
facet normal 0.0 0.0 1.0
  outer loop
    vertex 134.99692313817036 174.9969231381703 39.856518567743386
    vertex 136.67241699796952 173.71127148135335 39.856518567743386
    vertex 136.30934769270675 178.17241699796946 39.8565185677434
  endloop
endfacet
facet normal 0.0 0.0 1.0
  outer loop
    vertex 135.8008545421582 179.4000280583976 39.85651856774338
    vertex 134.99692313817036 174.9969231381703 39.856518567743386
    vertex 136.30934769270675 178.17241699796946 39.8565185677434
  endloop
endfacet
facet normal 0.0 0.0 1.0
  outer loop
    vertex 135.6274169979695 180.71741699796948 39.856518567743386
    vertex 134.99692313817036 174.9969231381703 39.856518567743386
    vertex 135.8008545421582 179.4000280583976 39.85651856774338
  endloop
endfacet
facet normal 0.0 0.0 1.0
  outer loop
    vertex 134.99692313817042 186.43791085776863 39.856518567743386
    vertex 134.99692313817036 174.9969231381703 39.856518567743386
    vertex 135.6274169979695 180.71741699796948 39.856518567743386
  endloop
endfacet
facet normal 0.0 0.0 1.0
  outer loop
    vertex 133.71127148135346 184.76241699796944 39.85651856774338
    vertex 134.99692313817036 174.9969231381703 39.856518567743386
    vertex 134.99692313817042 186.43791085776863 39.856518567743386
  endloop
endfacet
facet normal 0.0 0.0 1.0
  outer loop
    vertex 133.71127148135346 176.67241699796946 39.8565185677434
    vertex 134.99692313817036 174.9969231381703 39.856518567743386
    vertex 133.71127148135346 184.76241699796944 39.85651856774338
  endloop
endfacet
facet normal 0.0 0.0 1.0
  outer loop
    vertex 132.903077063291 178.62357092309006 39.8565185677434
    vertex 133.71127148135346 176.67241699796946 39.8565185677434
    vertex 133.71127148135346 184.76241699796944 39.85651856774338
  endloop
endfacet
facet normal 0.0 0.0 1.0
  outer loop
    vertex 132.903077063291 182.81126307284885 39.856518567743386
    vertex 132.903077063291 178.62357092309006 39.8565185677434
    vertex 133.71127148135346 184.76241699796944 39.85651856774338
  endloop
endfacet
facet normal 0.0 0.0 1.0
  outer loop
    vertex 132.62741699796956 180.71741699796945 39.856518567743386
    vertex 132.903077063291 178.62357092309006 39.8565185677434
    vertex 132.903077063291 182.81126307284885 39.856518567743386
  endloop
endfacet
facet normal 0.0 0.0 1.0
  outer loop
    vertex 148.80741699796954 180.7174169979694 39.856518567743386
    vertex 148.5317569326481 182.8112630728488 39.8565185677434
    vertex 148.5317569326481 178.62357092309003 39.856518567743386
  endloop
endfacet
facet normal 0.0 0.0 1.0
  outer loop
    vertex 147.72356251458564 176.6724169979694 39.85651856774337
    vertex 148.5317569326481 178.62357092309003 39.856518567743386
    vertex 148.5317569326481 182.8112630728488 39.8565185677434
  endloop
endfacet
facet normal 0.0 0.0 1.0
  outer loop
    vertex 147.72356251458564 184.7624169979694 39.8565185677434
    vertex 147.72356251458564 176.6724169979694 39.85651856774337
    vertex 148.5317569326481 182.8112630728488 39.8565185677434
  endloop
endfacet
facet normal 0.0 0.0 1.0
  outer loop
    vertex 146.43791085776868 174.99692313817025 39.8565185677434
    vertex 147.72356251458564 176.6724169979694 39.85651856774337
    vertex 147.72356251458564 184.7624169979694 39.8565185677434
  endloop
endfacet
facet normal 0.0 0.0 1.0
  outer loop
    vertex 146.43791085776874 186.43791085776857 39.8565185677434
    vertex 146.43791085776868 174.99692313817025 39.8565185677434
    vertex 147.72356251458564 184.7624169979694 39.8565185677434
  endloop
endfacet
facet normal 0.0 0.0 1.0
  outer loop
    vertex 145.80741699796945 180.7174169979695 39.856518567743386
    vertex 146.43791085776868 174.99692313817025 39.8565185677434
    vertex 146.43791085776874 186.43791085776857 39.8565185677434
  endloop
endfacet
facet normal 0.0 0.0 1.0
  outer loop
    vertex 145.63397945378085 182.03480593754134 39.8565185677434
    vertex 145.80741699796945 180.7174169979695 39.856518567743386
    vertex 146.43791085776874 186.43791085776857 39.8565185677434
  endloop
endfacet
facet normal 0.0 0.0 1.0
  outer loop
    vertex 144.76241699796958 187.7235625145855 39.856518567743386
    vertex 145.63397945378085 182.03480593754134 39.8565185677434
    vertex 146.43791085776874 186.43791085776857 39.8565185677434
  endloop
endfacet
facet normal 0.0 0.0 1.0
  outer loop
    vertex 145.12548630323235 183.2624169979695 39.8565185677434
    vertex 145.63397945378085 182.03480593754134 39.8565185677434
    vertex 144.76241699796958 187.7235625145855 39.856518567743386
  endloop
endfacet
facet normal 0.0 0.0 1.0
  outer loop
    vertex 144.31659051420908 184.31659051420894 39.8565185677434
    vertex 145.12548630323235 183.2624169979695 39.8565185677434
    vertex 144.76241699796958 187.7235625145855 39.856518567743386
  endloop
endfacet
facet normal 0.0 0.0 1.0
  outer loop
    vertex 142.81126307284896 188.53175693264797 39.85651856774337
    vertex 144.31659051420908 184.31659051420894 39.8565185677434
    vertex 144.76241699796958 187.7235625145855 39.856518567743386
  endloop
endfacet
facet normal 0.0 0.0 1.0
  outer loop
    vertex 143.26241699796955 185.12548630323224 39.8565185677434
    vertex 144.31659051420908 184.31659051420894 39.8565185677434
    vertex 142.81126307284896 188.53175693264797 39.85651856774337
  endloop
endfacet
facet normal 0.0 0.0 1.0
  outer loop
    vertex 142.0348059375414 185.6339794537808 39.856518567743386
    vertex 143.26241699796955 185.12548630323224 39.8565185677434
    vertex 142.81126307284896 188.53175693264797 39.85651856774337
  endloop
endfacet
facet normal 0.0 0.0 1.0
  outer loop
    vertex 140.7174169979696 188.80741699796943 39.8565185677434
    vertex 142.0348059375414 185.6339794537808 39.856518567743386
    vertex 142.81126307284896 188.53175693264797 39.85651856774337
  endloop
endfacet
facet normal 0.0 0.0 1.0
  outer loop
    vertex 140.71741699796954 185.80741699796948 39.856518567743386
    vertex 142.0348059375414 185.6339794537808 39.856518567743386
    vertex 140.7174169979696 188.80741699796943 39.8565185677434
  endloop
endfacet
facet normal 0.0 0.0 1.0
  outer loop
    vertex 138.62357092309017 188.53175693264797 39.8565185677434
    vertex 140.71741699796954 185.80741699796948 39.856518567743386
    vertex 140.7174169979696 188.80741699796943 39.8565185677434
  endloop
endfacet
facet normal 0.0 0.0 1.0
  outer loop
    vertex 139.40002805839774 185.6339794537808 39.856518567743386
    vertex 140.71741699796954 185.80741699796948 39.856518567743386
    vertex 138.62357092309017 188.53175693264797 39.8565185677434
  endloop
endfacet
facet normal 0.0 0.0 1.0
  outer loop
    vertex 138.1724169979695 185.1254863032323 39.856518567743386
    vertex 139.40002805839774 185.6339794537808 39.856518567743386
    vertex 138.62357092309017 188.53175693264797 39.8565185677434
  endloop
endfacet
facet normal 0.0 0.0 1.0
  outer loop
    vertex 136.67241699796958 187.72356251458558 39.8565185677434
    vertex 138.1724169979695 185.1254863032323 39.856518567743386
    vertex 138.62357092309017 188.53175693264797 39.8565185677434
  endloop
endfacet
facet normal 0.0 0.0 1.0
  outer loop
    vertex 137.11824348173005 184.31659051420897 39.856518567743386
    vertex 138.1724169979695 185.1254863032323 39.856518567743386
    vertex 136.67241699796958 187.72356251458558 39.8565185677434
  endloop
endfacet
facet normal 0.0 0.0 1.0
  outer loop
    vertex 136.30934769270675 183.26241699796952 39.856518567743386
    vertex 137.11824348173005 184.31659051420897 39.856518567743386
    vertex 136.67241699796958 187.72356251458558 39.8565185677434
  endloop
endfacet
facet normal 0.0 0.0 1.0
  outer loop
    vertex 134.99692313817042 186.43791085776863 39.856518567743386
    vertex 136.30934769270675 183.26241699796952 39.856518567743386
    vertex 136.67241699796958 187.72356251458558 39.8565185677434
  endloop
endfacet
facet normal 0.0 0.0 1.0
  outer loop
    vertex 135.8008545421582 182.03480593754125 39.856518567743386
    vertex 136.30934769270675 183.26241699796952 39.856518567743386
    vertex 134.99692313817042 186.43791085776863 39.856518567743386
  endloop
endfacet
facet normal 0.0 0.0 1.0
  outer loop
    vertex 135.6274169979695 180.71741699796948 39.856518567743386
    vertex 135.8008545421582 182.03480593754125 39.856518567743386
    vertex 134.99692313817042 186.43791085776863 39.856518567743386
  endloop
endfacet
facet normal -3.038832812234872e-16 -1.5255091035197767e-16 -1.0
  outer loop
    vertex 145.80741699796945 180.7174169979695 21.8565185677434
    vertex 145.63397945378085 182.03480593754134 21.8565185677434
    vertex 146.43791085776874 186.43791085776857 21.856518567743404
  endloop
endfacet
facet normal -3.038832812234872e-16 -1.5255091035197767e-16 -1.0
  outer loop
    vertex 144.76241699796958 187.7235625145855 21.856518567743404
    vertex 146.43791085776874 186.43791085776857 21.856518567743404
    vertex 145.63397945378085 182.03480593754134 21.8565185677434
  endloop
endfacet
facet normal -3.038832812234872e-16 -1.5255091035197767e-16 -1.0
  outer loop
    vertex 145.12548630323235 183.2624169979695 21.8565185677434
    vertex 144.76241699796958 187.7235625145855 21.856518567743404
    vertex 145.63397945378085 182.03480593754134 21.8565185677434
  endloop
endfacet
facet normal -3.038832812234872e-16 -1.5255091035197767e-16 -1.0
  outer loop
    vertex 144.31659051420908 184.31659051420894 21.8565185677434
    vertex 144.76241699796958 187.7235625145855 21.856518567743404
    vertex 145.12548630323235 183.2624169979695 21.8565185677434
  endloop
endfacet
facet normal -3.038832812234872e-16 -1.5255091035197767e-16 -1.0
  outer loop
    vertex 142.81126307284896 188.53175693264797 21.856518567743404
    vertex 144.76241699796958 187.7235625145855 21.856518567743404
    vertex 144.31659051420908 184.31659051420894 21.8565185677434
  endloop
endfacet
facet normal -3.038832812234872e-16 -1.5255091035197767e-16 -1.0
  outer loop
    vertex 143.26241699796955 185.12548630323224 21.8565185677434
    vertex 142.81126307284896 188.53175693264797 21.856518567743404
    vertex 144.31659051420908 184.31659051420894 21.8565185677434
  endloop
endfacet
facet normal -3.038832812234872e-16 -1.5255091035197767e-16 -1.0
  outer loop
    vertex 142.0348059375414 185.6339794537808 21.8565185677434
    vertex 142.81126307284896 188.53175693264797 21.856518567743404
    vertex 143.26241699796955 185.12548630323224 21.8565185677434
  endloop
endfacet
facet normal -3.038832812234872e-16 -1.5255091035197767e-16 -1.0
  outer loop
    vertex 140.7174169979696 188.80741699796943 21.856518567743404
    vertex 142.81126307284896 188.53175693264797 21.856518567743404
    vertex 142.0348059375414 185.6339794537808 21.8565185677434
  endloop
endfacet
facet normal -3.038832812234872e-16 -1.5255091035197767e-16 -1.0
  outer loop
    vertex 140.71741699796954 185.80741699796948 21.8565185677434
    vertex 140.7174169979696 188.80741699796943 21.856518567743404
    vertex 142.0348059375414 185.6339794537808 21.8565185677434
  endloop
endfacet
facet normal -3.038832812234872e-16 -1.5255091035197767e-16 -1.0
  outer loop
    vertex 127.59421356237311 188.80741699796943 21.856518567743404
    vertex 140.7174169979696 188.80741699796943 21.856518567743404
    vertex 140.71741699796954 185.80741699796948 21.8565185677434
  endloop
endfacet
facet normal -3.038832812234872e-16 -1.5255091035197767e-16 -1.0
  outer loop
    vertex 139.40002805839774 185.6339794537808 21.856518567743404
    vertex 127.59421356237311 188.80741699796943 21.856518567743404
    vertex 140.71741699796954 185.80741699796948 21.8565185677434
  endloop
endfacet
facet normal -3.038832812234872e-16 -1.5255091035197767e-16 -1.0
  outer loop
    vertex 138.1724169979695 185.1254863032323 21.856518567743404
    vertex 127.59421356237311 188.80741699796943 21.856518567743404
    vertex 139.40002805839774 185.6339794537808 21.856518567743404
  endloop
endfacet
facet normal -3.038832812234872e-16 -1.5255091035197767e-16 -1.0
  outer loop
    vertex 137.11824348173005 184.31659051420897 21.8565185677434
    vertex 127.59421356237311 188.80741699796943 21.856518567743404
    vertex 138.1724169979695 185.1254863032323 21.856518567743404
  endloop
endfacet
facet normal -3.038832812234872e-16 -1.5255091035197767e-16 -1.0
  outer loop
    vertex 136.30934769270675 183.26241699796952 21.8565185677434
    vertex 127.59421356237311 188.80741699796943 21.856518567743404
    vertex 137.11824348173005 184.31659051420897 21.8565185677434
  endloop
endfacet
facet normal -3.038832812234872e-16 -1.5255091035197767e-16 -1.0
  outer loop
    vertex 135.8008545421582 182.03480593754125 21.8565185677434
    vertex 127.59421356237311 188.80741699796943 21.856518567743404
    vertex 136.30934769270675 183.26241699796952 21.8565185677434
  endloop
endfacet
facet normal -3.038832812234872e-16 -1.5255091035197767e-16 -1.0
  outer loop
    vertex 135.6274169979695 180.71741699796948 21.8565185677434
    vertex 127.59421356237311 188.80741699796943 21.856518567743404
    vertex 135.8008545421582 182.03480593754125 21.8565185677434
  endloop
endfacet
facet normal -3.038832812234872e-16 -1.5255091035197767e-16 -1.0
  outer loop
    vertex 129.8182337778476 168.40295594880763 21.856518567743404
    vertex 127.59421356237311 188.80741699796943 21.856518567743404
    vertex 135.6274169979695 180.71741699796948 21.8565185677434
  endloop
endfacet
facet normal -3.038832812234872e-16 -1.5255091035197767e-16 -1.0
  outer loop
    vertex 129.7700093552517 168.76925680507446 21.856518567743404
    vertex 127.59421356237311 188.80741699796943 21.856518567743404
    vertex 129.8182337778476 168.40295594880763 21.856518567743404
  endloop
endfacet
facet normal -3.038832812234872e-16 -1.5255091035197767e-16 -1.0
  outer loop
    vertex 129.62862250216918 169.11059486332752 21.856518567743404
    vertex 127.59421356237311 188.80741699796943 21.856518567743404
    vertex 129.7700093552517 168.76925680507446 21.856518567743404
  endloop
endfacet
facet normal -3.038832812234872e-16 -1.5255091035197767e-16 -1.0
  outer loop
    vertex 129.4037084989848 169.40370849898463 21.856518567743404
    vertex 127.59421356237311 188.80741699796943 21.856518567743404
    vertex 129.62862250216918 169.11059486332752 21.856518567743404
  endloop
endfacet
facet normal -3.038832812234872e-16 -1.5255091035197767e-16 -1.0
  outer loop
    vertex 129.11059486332778 169.62862250216895 21.856518567743407
    vertex 127.59421356237311 188.80741699796943 21.856518567743404
    vertex 129.4037084989848 169.40370849898463 21.856518567743404
  endloop
endfacet
facet normal -3.038832812234872e-16 -1.5255091035197767e-16 -1.0
  outer loop
    vertex 128.76925680507475 169.7700093552515 21.856518567743407
    vertex 127.59421356237311 188.80741699796943 21.856518567743404
    vertex 129.11059486332778 169.62862250216895 21.856518567743407
  endloop
endfacet
facet normal -3.038832812234872e-16 -1.5255091035197767e-16 -1.0
  outer loop
    vertex 128.4029559488079 169.8182337778474 21.856518567743407
    vertex 127.59421356237311 188.80741699796943 21.856518567743404
    vertex 128.76925680507475 169.7700093552515 21.856518567743407
  endloop
endfacet
facet normal -3.038832812234872e-16 -1.5255091035197767e-16 -1.0
  outer loop
    vertex 128.03665509254105 169.7700093552515 21.856518567743407
    vertex 127.59421356237311 188.80741699796943 21.856518567743404
    vertex 128.4029559488079 169.8182337778474 21.856518567743407
  endloop
endfacet
facet normal -3.038832812234872e-16 -1.5255091035197767e-16 -1.0
  outer loop
    vertex 127.69531703428801 169.628622502169 21.856518567743407
    vertex 127.59421356237311 188.80741699796943 21.856518567743404
    vertex 128.03665509254105 169.7700093552515 21.856518567743407
  endloop
endfacet
facet normal -3.038832812234872e-16 -1.5255091035197767e-16 -1.0
  outer loop
    vertex 127.40220339863089 169.40370849898466 21.856518567743407
    vertex 127.59421356237311 188.80741699796943 21.856518567743404
    vertex 127.69531703428801 169.628622502169 21.856518567743407
  endloop
endfacet
facet normal -3.038832812234872e-16 -1.5255091035197767e-16 -1.0
  outer loop
    vertex 118.79710678118657 180.01031021678287 21.856518567743404
    vertex 127.59421356237311 188.80741699796943 21.856518567743404
    vertex 127.40220339863089 169.40370849898466 21.856518567743407
  endloop
endfacet
facet normal -3.038832812234872e-16 -1.5255091035197767e-16 -1.0
  outer loop
    vertex 118.79710678118657 169.40370849898463 21.856518567743436
    vertex 118.79710678118657 180.01031021678287 21.856518567743404
    vertex 127.40220339863089 169.40370849898466 21.856518567743407
  endloop
endfacet
facet normal -3.038832812234872e-16 -1.5255091035197767e-16 -1.0
  outer loop
    vertex 148.80741699796954 180.7174169979694 21.856518567743404
    vertex 148.80741699796954 167.59421356237297 21.856518567743404
    vertex 148.5317569326481 182.8112630728488 21.856518567743404
  endloop
endfacet
facet normal -3.038832812234872e-16 -1.5255091035197767e-16 -1.0
  outer loop
    vertex 140.010310216783 158.78114278118645 21.856518567743407
    vertex 148.5317569326481 182.8112630728488 21.856518567743404
    vertex 148.80741699796954 167.59421356237297 21.856518567743404
  endloop
endfacet
facet normal -3.038832812234872e-16 -1.5255091035197767e-16 -1.0
  outer loop
    vertex 147.72356251458564 184.7624169979694 21.856518567743404
    vertex 148.5317569326481 182.8112630728488 21.856518567743404
    vertex 140.010310216783 158.78114278118645 21.856518567743407
  endloop
endfacet
facet normal -3.038832812234872e-16 -1.5255091035197767e-16 -1.0
  outer loop
    vertex 145.63397945378085 179.40002805839768 21.8565185677434
    vertex 147.72356251458564 184.7624169979694 21.856518567743404
    vertex 140.010310216783 158.78114278118645 21.856518567743407
  endloop
endfacet
facet normal -3.038832812234872e-16 -1.5255091035197767e-16 -1.0
  outer loop
    vertex 145.80741699796945 180.7174169979695 21.8565185677434
    vertex 147.72356251458564 184.7624169979694 21.856518567743404
    vertex 145.63397945378085 179.40002805839768 21.8565185677434
  endloop
endfacet
facet normal -3.038832812234872e-16 -1.5255091035197767e-16 -1.0
  outer loop
    vertex 146.43791085776874 186.43791085776857 21.856518567743404
    vertex 147.72356251458564 184.7624169979694 21.856518567743404
    vertex 145.80741699796945 180.7174169979695 21.8565185677434
  endloop
endfacet
facet normal -3.038832812234872e-16 -1.5255091035197767e-16 -1.0
  outer loop
    vertex 145.1254863032323 178.17241699796952 21.8565185677434
    vertex 145.63397945378085 179.40002805839768 21.8565185677434
    vertex 140.010310216783 158.78114278118645 21.856518567743407
  endloop
endfacet
facet normal -3.038832812234872e-16 -1.5255091035197767e-16 -1.0
  outer loop
    vertex 144.31659051420903 177.11824348172996 21.856518567743404
    vertex 145.1254863032323 178.17241699796952 21.8565185677434
    vertex 140.010310216783 158.78114278118645 21.856518567743407
  endloop
endfacet
facet normal -3.038832812234872e-16 -1.5255091035197767e-16 -1.0
  outer loop
    vertex 143.2624169979695 176.30934769270672 21.8565185677434
    vertex 144.31659051420903 177.11824348172996 21.856518567743404
    vertex 140.010310216783 158.78114278118645 21.856518567743407
  endloop
endfacet
facet normal -3.038832812234872e-16 -1.5255091035197767e-16 -1.0
  outer loop
    vertex 142.0348059375413 175.80085454215813 21.8565185677434
    vertex 143.2624169979695 176.30934769270672 21.8565185677434
    vertex 140.010310216783 158.78114278118645 21.856518567743407
  endloop
endfacet
facet normal -3.038832812234872e-16 -1.5255091035197767e-16 -1.0
  outer loop
    vertex 140.71741699796954 175.62741699796942 21.8565185677434
    vertex 142.0348059375413 175.80085454215813 21.8565185677434
    vertex 140.010310216783 158.78114278118645 21.856518567743407
  endloop
endfacet
facet normal -3.038832812234872e-16 -1.5255091035197767e-16 -1.0
  outer loop
    vertex 139.40002805839765 175.80085454215813 21.8565185677434
    vertex 140.71741699796954 175.62741699796942 21.8565185677434
    vertex 140.010310216783 158.78114278118645 21.856518567743407
  endloop
endfacet
facet normal -3.038832812234872e-16 -1.5255091035197767e-16 -1.0
  outer loop
    vertex 129.4037084989848 158.78114278118645 21.856518567743407
    vertex 139.40002805839765 175.80085454215813 21.8565185677434
    vertex 140.010310216783 158.78114278118645 21.856518567743407
  endloop
endfacet
facet normal -3.038832812234872e-16 -1.5255091035197767e-16 -1.0
  outer loop
    vertex 138.1724169979695 176.3093476927067 21.856518567743404
    vertex 139.40002805839765 175.80085454215813 21.8565185677434
    vertex 129.4037084989848 158.78114278118645 21.856518567743407
  endloop
endfacet
facet normal -3.038832812234872e-16 -1.5255091035197767e-16 -1.0
  outer loop
    vertex 137.11824348173005 177.1182434817299 21.856518567743404
    vertex 138.1724169979695 176.3093476927067 21.856518567743404
    vertex 129.4037084989848 158.78114278118645 21.856518567743407
  endloop
endfacet
facet normal -3.038832812234872e-16 -1.5255091035197767e-16 -1.0
  outer loop
    vertex 136.30934769270675 178.17241699796946 21.8565185677434
    vertex 137.11824348173005 177.1182434817299 21.856518567743404
    vertex 129.4037084989848 158.78114278118645 21.856518567743407
  endloop
endfacet
facet normal -3.038832812234872e-16 -1.5255091035197767e-16 -1.0
  outer loop
    vertex 135.8008545421582 179.4000280583976 21.8565185677434
    vertex 136.30934769270675 178.17241699796946 21.8565185677434
    vertex 129.4037084989848 158.78114278118645 21.856518567743407
  endloop
endfacet
facet normal -3.038832812234872e-16 -1.5255091035197767e-16 -1.0
  outer loop
    vertex 135.6274169979695 180.71741699796948 21.8565185677434
    vertex 135.8008545421582 179.4000280583976 21.8565185677434
    vertex 129.4037084989848 158.78114278118645 21.856518567743407
  endloop
endfacet
facet normal -3.038832812234872e-16 -1.5255091035197767e-16 -1.0
  outer loop
    vertex 129.8182337778476 168.40295594880763 21.856518567743404
    vertex 135.6274169979695 180.71741699796948 21.8565185677434
    vertex 129.4037084989848 158.78114278118645 21.856518567743407
  endloop
endfacet
facet normal -3.038832812234872e-16 -1.5255091035197767e-16 -1.0
  outer loop
    vertex 129.77000935525166 168.0366550925408 21.856518567743404
    vertex 129.8182337778476 168.40295594880763 21.856518567743404
    vertex 129.4037084989848 158.78114278118645 21.856518567743407
  endloop
endfacet
facet normal -3.038832812234872e-16 -1.5255091035197767e-16 -1.0
  outer loop
    vertex 129.62862250216918 167.69531703428777 21.856518567743404
    vertex 129.77000935525166 168.0366550925408 21.856518567743404
    vertex 129.4037084989848 158.78114278118645 21.856518567743407
  endloop
endfacet
facet normal -3.038832812234872e-16 -1.5255091035197767e-16 -1.0
  outer loop
    vertex 129.4037084989848 167.40220339863066 21.856518567743404
    vertex 129.62862250216918 167.69531703428777 21.856518567743404
    vertex 129.4037084989848 158.78114278118645 21.856518567743407
  endloop
endfacet
facet normal 1.0 0.0 0.0
  outer loop
    vertex 148.80741699796954 167.59421356237297 39.856518567743386
    vertex 148.80741699796954 167.59421356237297 21.856518567743404
    vertex 148.80741699796954 180.7174169979694 39.856518567743386
  endloop
endfacet
facet normal 1.0 0.0 0.0
  outer loop
    vertex 148.80741699796954 180.7174169979694 21.856518567743404
    vertex 148.80741699796954 180.7174169979694 39.856518567743386
    vertex 148.80741699796954 167.59421356237297 21.856518567743404
  endloop
endfacet
facet normal 0.3826834323650971 0.9238795325112836 3.944304526105058e-31
  outer loop
    vertex 144.76241699796958 187.7235625145855 21.856518567743404
    vertex 142.81126307284896 188.53175693264797 21.856518567743404
    vertex 144.76241699796958 187.7235625145855 39.856518567743386
  endloop
endfacet
facet normal 0.3826834323650971 0.9238795325112836 3.944304526105058e-31
  outer loop
    vertex 142.81126307284896 188.53175693264797 39.85651856774337
    vertex 144.76241699796958 187.7235625145855 39.856518567743386
    vertex 142.81126307284896 188.53175693264797 21.856518567743404
  endloop
endfacet
facet normal 0.9914448613738099 0.13052619222005515 0.0
  outer loop
    vertex 148.80741699796954 180.7174169979694 39.856518567743386
    vertex 148.80741699796954 180.7174169979694 21.856518567743404
    vertex 148.5317569326481 182.8112630728488 39.8565185677434
  endloop
endfacet
facet normal 0.9914448613738099 0.13052619222005515 0.0
  outer loop
    vertex 148.5317569326481 182.8112630728488 21.856518567743404
    vertex 148.5317569326481 182.8112630728488 39.8565185677434
    vertex 148.80741699796954 180.7174169979694 21.856518567743404
  endloop
endfacet
facet normal 0.7933533402912396 0.6087614290087148 7.395570986446986e-32
  outer loop
    vertex 147.72356251458564 184.7624169979694 39.8565185677434
    vertex 147.72356251458564 184.7624169979694 21.856518567743404
    vertex 146.43791085776874 186.43791085776857 39.8565185677434
  endloop
endfacet
facet normal 0.7933533402912396 0.6087614290087148 7.395570986446986e-32
  outer loop
    vertex 146.43791085776874 186.43791085776857 21.856518567743404
    vertex 146.43791085776874 186.43791085776857 39.8565185677434
    vertex 147.72356251458564 184.7624169979694 21.856518567743404
  endloop
endfacet
facet normal 0.6087614290087214 0.7933533402912345 4.9303806576313227e-32
  outer loop
    vertex 146.43791085776874 186.43791085776857 21.856518567743404
    vertex 144.76241699796958 187.7235625145855 21.856518567743404
    vertex 146.43791085776874 186.43791085776857 39.8565185677434
  endloop
endfacet
facet normal 0.6087614290087214 0.7933533402912345 4.9303806576313227e-32
  outer loop
    vertex 144.76241699796958 187.7235625145855 39.856518567743386
    vertex 146.43791085776874 186.43791085776857 39.8565185677434
    vertex 144.76241699796958 187.7235625145855 21.856518567743404
  endloop
endfacet
facet normal 0.9238795325112875 0.38268343236508806 1.7256332301709633e-31
  outer loop
    vertex 148.5317569326481 182.8112630728488 39.8565185677434
    vertex 148.5317569326481 182.8112630728488 21.856518567743404
    vertex 147.72356251458564 184.7624169979694 39.8565185677434
  endloop
endfacet
facet normal 0.9238795325112875 0.38268343236508806 1.7256332301709633e-31
  outer loop
    vertex 147.72356251458564 184.7624169979694 21.856518567743404
    vertex 147.72356251458564 184.7624169979694 39.8565185677434
    vertex 148.5317569326481 182.8112630728488 21.856518567743404
  endloop
endfacet
facet normal 0.38268343236504304 -0.9238795325113063 0.0
  outer loop
    vertex 127.69531703428801 169.628622502169 21.856518567743407
    vertex 128.03665509254105 169.7700093552515 21.856518567743407
    vertex 127.69531703428801 169.628622502169 39.856518567743386
  endloop
endfacet
facet normal 0.38268343236504304 -0.9238795325113063 0.0
  outer loop
    vertex 128.03665509254105 169.7700093552515 39.856518567743386
    vertex 127.69531703428801 169.628622502169 39.856518567743386
    vertex 128.03665509254105 169.7700093552515 21.856518567743407
  endloop
endfacet
facet normal -0.6087614290087888 -0.793353340291183 -7.325919440068312e-19
  outer loop
    vertex 129.4037084989848 169.40370849898463 21.856518567743404
    vertex 129.4037084989848 169.40370849898463 39.856518567743386
    vertex 129.11059486332778 169.62862250216895 21.856518567743407
  endloop
endfacet
facet normal -0.6087614290087888 -0.793353340291183 -7.325919440068312e-19
  outer loop
    vertex 129.11059486332778 169.62862250216895 39.856518567743386
    vertex 129.11059486332778 169.62862250216895 21.856518567743407
    vertex 129.4037084989848 169.40370849898463 39.856518567743386
  endloop
endfacet
facet normal 0.6087614290087091 -0.793353340291244 0.0
  outer loop
    vertex 127.40220339863089 169.40370849898466 21.856518567743407
    vertex 127.69531703428801 169.628622502169 21.856518567743407
    vertex 127.40220339863089 169.40370849898466 39.8565185677434
  endloop
endfacet
facet normal 0.6087614290087091 -0.793353340291244 0.0
  outer loop
    vertex 127.69531703428801 169.628622502169 39.856518567743386
    vertex 127.40220339863089 169.40370849898466 39.8565185677434
    vertex 127.69531703428801 169.628622502169 21.856518567743407
  endloop
endfacet
facet normal -0.1305261922200324 -0.9914448613738132 -1.97215226305253e-31
  outer loop
    vertex 128.4029559488079 169.8182337778474 21.856518567743407
    vertex 128.76925680507475 169.7700093552515 21.856518567743407
    vertex 128.4029559488079 169.8182337778474 39.856518567743386
  endloop
endfacet
facet normal -0.1305261922200324 -0.9914448613738132 -1.97215226305253e-31
  outer loop
    vertex 128.76925680507475 169.7700093552515 39.856518567743386
    vertex 128.4029559488079 169.8182337778474 39.856518567743386
    vertex 128.76925680507475 169.7700093552515 21.856518567743407
  endloop
endfacet
facet normal -0.3826834323651473 -0.9238795325112631 -5.423418723394456e-31
  outer loop
    vertex 128.76925680507475 169.7700093552515 21.856518567743407
    vertex 129.11059486332778 169.62862250216895 21.856518567743407
    vertex 128.76925680507475 169.7700093552515 39.856518567743386
  endloop
endfacet
facet normal -0.3826834323651473 -0.9238795325112631 -5.423418723394456e-31
  outer loop
    vertex 129.11059486332778 169.62862250216895 39.856518567743386
    vertex 128.76925680507475 169.7700093552515 39.856518567743386
    vertex 129.11059486332778 169.62862250216895 21.856518567743407
  endloop
endfacet
facet normal -0.7071067811865476 0.7071067811865476 9.860761315262648e-32
  outer loop
    vertex 118.79710678118657 180.01031021678287 21.856518567743404
    vertex 118.79710678118657 180.01031021678287 39.856518567743386
    vertex 127.59421356237311 188.80741699796943 21.856518567743404
  endloop
endfacet
facet normal -0.7071067811865476 0.7071067811865476 9.860761315262648e-32
  outer loop
    vertex 127.59421356237311 188.80741699796943 39.8565185677434
    vertex 127.59421356237311 188.80741699796943 21.856518567743404
    vertex 118.79710678118657 180.01031021678287 39.856518567743386
  endloop
endfacet
facet normal -0.7933533402911918 0.608761429008777 -4.9303806576313227e-32
  outer loop
    vertex 129.4037084989848 167.40220339863066 21.856518567743404
    vertex 129.4037084989848 167.40220339863066 39.8565185677434
    vertex 129.62862250216918 167.69531703428777 21.856518567743404
  endloop
endfacet
facet normal -0.7933533402911918 0.608761429008777 -4.9303806576313227e-32
  outer loop
    vertex 129.62862250216918 167.69531703428777 39.8565185677434
    vertex 129.62862250216918 167.69531703428777 21.856518567743404
    vertex 129.4037084989848 167.40220339863066 39.8565185677434
  endloop
endfacet
facet normal -0.9914448613738199 -0.13052619221998027 0.0
  outer loop
    vertex 129.8182337778476 168.40295594880763 21.856518567743404
    vertex 129.8182337778476 168.40295594880763 39.8565185677434
    vertex 129.7700093552517 168.76925680507446 21.856518567743404
  endloop
endfacet
facet normal -0.9914448613738199 -0.13052619221998027 0.0
  outer loop
    vertex 129.7700093552517 168.76925680507446 39.8565185677434
    vertex 129.7700093552517 168.76925680507446 21.856518567743404
    vertex 129.8182337778476 168.40295594880763 39.8565185677434
  endloop
endfacet
facet normal -0.9914448613738052 0.1305261922200924 0.0
  outer loop
    vertex 129.77000935525166 168.0366550925408 21.856518567743404
    vertex 129.77000935525166 168.0366550925408 39.8565185677434
    vertex 129.8182337778476 168.40295594880763 21.856518567743404
  endloop
endfacet
facet normal -0.9914448613738052 0.1305261922200924 0.0
  outer loop
    vertex 129.8182337778476 168.40295594880763 39.8565185677434
    vertex 129.8182337778476 168.40295594880763 21.856518567743404
    vertex 129.77000935525166 168.0366550925408 39.8565185677434
  endloop
endfacet
facet normal -0.7933533402912146 -0.6087614290087477 0.0
  outer loop
    vertex 129.62862250216918 169.11059486332752 21.856518567743404
    vertex 129.62862250216918 169.11059486332752 39.856518567743386
    vertex 129.4037084989848 169.40370849898463 21.856518567743404
  endloop
endfacet
facet normal -0.7933533402912146 -0.6087614290087477 0.0
  outer loop
    vertex 129.4037084989848 169.40370849898463 39.856518567743386
    vertex 129.4037084989848 169.40370849898463 21.856518567743404
    vertex 129.62862250216918 169.11059486332752 39.856518567743386
  endloop
endfacet
facet normal -0.923879532511272 -0.38268343236512564 -1.4791141972893971e-31
  outer loop
    vertex 129.7700093552517 168.76925680507446 21.856518567743404
    vertex 129.7700093552517 168.76925680507446 39.8565185677434
    vertex 129.62862250216918 169.11059486332752 21.856518567743404
  endloop
endfacet
facet normal -0.923879532511272 -0.38268343236512564 -1.4791141972893971e-31
  outer loop
    vertex 129.62862250216918 169.11059486332752 39.856518567743386
    vertex 129.62862250216918 169.11059486332752 21.856518567743404
    vertex 129.7700093552517 168.76925680507446 39.8565185677434
  endloop
endfacet
facet normal -0.9238795325113063 0.38268343236504304 -9.860761315262648e-32
  outer loop
    vertex 129.62862250216918 167.69531703428777 21.856518567743404
    vertex 129.62862250216918 167.69531703428777 39.8565185677434
    vertex 129.77000935525166 168.0366550925408 21.856518567743404
  endloop
endfacet
facet normal -0.9238795325113063 0.38268343236504304 -9.860761315262648e-32
  outer loop
    vertex 129.77000935525166 168.0366550925408 39.8565185677434
    vertex 129.77000935525166 168.0366550925408 21.856518567743404
    vertex 129.62862250216918 167.69531703428777 39.8565185677434
  endloop
endfacet
facet normal 0.9238795325113017 -0.3826834323650538 -9.860761315262648e-32
  outer loop
    vertex 135.8008545421582 182.03480593754125 39.856518567743386
    vertex 135.8008545421582 182.03480593754125 21.8565185677434
    vertex 136.30934769270675 183.26241699796952 39.856518567743386
  endloop
endfacet
facet normal 0.9238795325113017 -0.3826834323650538 -9.860761315262648e-32
  outer loop
    vertex 136.30934769270675 183.26241699796952 21.8565185677434
    vertex 136.30934769270675 183.26241699796952 39.856518567743386
    vertex 135.8008545421582 182.03480593754125 21.8565185677434
  endloop
endfacet
facet normal 0.7933533402911975 -0.60876142900877 -1.97215226305253e-31
  outer loop
    vertex 136.30934769270675 183.26241699796952 39.856518567743386
    vertex 136.30934769270675 183.26241699796952 21.8565185677434
    vertex 137.11824348173005 184.31659051420897 39.856518567743386
  endloop
endfacet
facet normal 0.7933533402911975 -0.60876142900877 -1.97215226305253e-31
  outer loop
    vertex 137.11824348173005 184.31659051420897 21.8565185677434
    vertex 137.11824348173005 184.31659051420897 39.856518567743386
    vertex 136.30934769270675 183.26241699796952 21.8565185677434
  endloop
endfacet
facet normal 0.6087614290087806 -0.7933533402911891 -3.697785493223493e-31
  outer loop
    vertex 137.11824348173005 184.31659051420897 21.8565185677434
    vertex 138.1724169979695 185.1254863032323 21.856518567743404
    vertex 137.11824348173005 184.31659051420897 39.856518567743386
  endloop
endfacet
facet normal 0.6087614290087806 -0.7933533402911891 -3.697785493223493e-31
  outer loop
    vertex 138.1724169979695 185.1254863032323 39.856518567743386
    vertex 137.11824348173005 184.31659051420897 39.856518567743386
    vertex 138.1724169979695 185.1254863032323 21.856518567743404
  endloop
endfacet
facet normal 0.9238795325112894 0.38268343236508384 -2.4651903288156624e-32
  outer loop
    vertex 136.30934769270675 178.17241699796946 39.8565185677434
    vertex 136.30934769270675 178.17241699796946 21.8565185677434
    vertex 135.8008545421582 179.4000280583976 39.85651856774338
  endloop
endfacet
facet normal 0.9238795325112894 0.38268343236508384 -2.4651903288156624e-32
  outer loop
    vertex 135.8008545421582 179.4000280583976 21.8565185677434
    vertex 135.8008545421582 179.4000280583976 39.85651856774338
    vertex 136.30934769270675 178.17241699796946 21.8565185677434
  endloop
endfacet
facet normal 0.1305261922200797 -0.9914448613738067 -1.972152263052529e-31
  outer loop
    vertex 140.71741699796954 185.80741699796948 21.8565185677434
    vertex 140.71741699796954 185.80741699796948 39.856518567743386
    vertex 139.40002805839774 185.6339794537808 21.856518567743404
  endloop
endfacet
facet normal 0.1305261922200797 -0.9914448613738067 -1.972152263052529e-31
  outer loop
    vertex 139.40002805839774 185.6339794537808 39.856518567743386
    vertex 139.40002805839774 185.6339794537808 21.856518567743404
    vertex 140.71741699796954 185.80741699796948 39.856518567743386
  endloop
endfacet
facet normal 0.7933533402912287 0.608761429008729 9.860761315262648e-32
  outer loop
    vertex 137.11824348173005 177.1182434817299 39.8565185677434
    vertex 137.11824348173005 177.1182434817299 21.856518567743404
    vertex 136.30934769270675 178.17241699796946 39.8565185677434
  endloop
endfacet
facet normal 0.7933533402912287 0.608761429008729 9.860761315262648e-32
  outer loop
    vertex 136.30934769270675 178.17241699796946 21.8565185677434
    vertex 136.30934769270675 178.17241699796946 39.8565185677434
    vertex 137.11824348173005 177.1182434817299 21.856518567743404
  endloop
endfacet
facet normal -0.9914448613738133 -0.13052619222002962 -1.2325951644078307e-32
  outer loop
    vertex 145.80741699796945 180.7174169979695 21.8565185677434
    vertex 145.80741699796945 180.7174169979695 39.856518567743386
    vertex 145.63397945378085 182.03480593754134 21.8565185677434
  endloop
endfacet
facet normal -0.9914448613738133 -0.13052619222002962 -1.2325951644078307e-32
  outer loop
    vertex 145.63397945378085 182.03480593754134 39.8565185677434
    vertex 145.63397945378085 182.03480593754134 21.8565185677434
    vertex 145.80741699796945 180.7174169979695 39.856518567743386
  endloop
endfacet
facet normal -0.9914448613738139 0.13052619222002523 0.0
  outer loop
    vertex 145.63397945378085 179.40002805839768 21.8565185677434
    vertex 145.63397945378085 179.40002805839768 39.856518567743386
    vertex 145.80741699796945 180.7174169979695 21.8565185677434
  endloop
endfacet
facet normal -0.9914448613738139 0.13052619222002523 0.0
  outer loop
    vertex 145.80741699796945 180.7174169979695 39.856518567743386
    vertex 145.80741699796945 180.7174169979695 21.8565185677434
    vertex 145.63397945378085 179.40002805839768 39.856518567743386
  endloop
endfacet
facet normal -0.9238795325112894 0.38268343236508384 -8.628166150854817e-32
  outer loop
    vertex 145.1254863032323 178.17241699796952 21.8565185677434
    vertex 145.1254863032323 178.17241699796952 39.856518567743386
    vertex 145.63397945378085 179.40002805839768 21.8565185677434
  endloop
endfacet
facet normal -0.9238795325112894 0.38268343236508384 -8.628166150854817e-32
  outer loop
    vertex 145.63397945378085 179.40002805839768 39.856518567743386
    vertex 145.63397945378085 179.40002805839768 21.8565185677434
    vertex 145.1254863032323 178.17241699796952 39.856518567743386
  endloop
endfacet
facet normal -0.38268343236508384 -0.9238795325112894 -5.423418723394456e-31
  outer loop
    vertex 142.0348059375414 185.6339794537808 21.8565185677434
    vertex 143.26241699796955 185.12548630323224 21.8565185677434
    vertex 142.0348059375414 185.6339794537808 39.856518567743386
  endloop
endfacet
facet normal -0.38268343236508384 -0.9238795325112894 -5.423418723394456e-31
  outer loop
    vertex 143.26241699796955 185.12548630323224 39.8565185677434
    vertex 142.0348059375414 185.6339794537808 39.856518567743386
    vertex 143.26241699796955 185.12548630323224 21.8565185677434
  endloop
endfacet
facet normal -0.9238795325113037 -0.38268343236504876 -2.465190328815662e-31
  outer loop
    vertex 145.63397945378085 182.03480593754134 21.8565185677434
    vertex 145.63397945378085 182.03480593754134 39.8565185677434
    vertex 145.12548630323235 183.2624169979695 21.8565185677434
  endloop
endfacet
facet normal -0.9238795325113037 -0.38268343236504876 -2.465190328815662e-31
  outer loop
    vertex 145.12548630323235 183.2624169979695 39.8565185677434
    vertex 145.12548630323235 183.2624169979695 21.8565185677434
    vertex 145.63397945378085 182.03480593754134 39.8565185677434
  endloop
endfacet
facet normal -0.7933533402912452 0.6087614290087076 -8.628166150854814e-32
  outer loop
    vertex 144.31659051420903 177.11824348172996 21.856518567743404
    vertex 144.31659051420903 177.11824348172996 39.85651856774337
    vertex 145.1254863032323 178.17241699796952 21.8565185677434
  endloop
endfacet
facet normal -0.7933533402912452 0.6087614290087076 -8.628166150854814e-32
  outer loop
    vertex 145.1254863032323 178.17241699796952 39.856518567743386
    vertex 145.1254863032323 178.17241699796952 21.8565185677434
    vertex 144.31659051420903 177.11824348172996 39.85651856774337
  endloop
endfacet
facet normal -0.6087614290087051 0.7933533402912472 0.0
  outer loop
    vertex 143.2624169979695 176.30934769270672 21.8565185677434
    vertex 143.2624169979695 176.30934769270672 39.856518567743386
    vertex 144.31659051420903 177.11824348172996 21.856518567743404
  endloop
endfacet
facet normal -0.6087614290087051 0.7933533402912472 0.0
  outer loop
    vertex 144.31659051420903 177.11824348172996 39.85651856774337
    vertex 144.31659051420903 177.11824348172996 21.856518567743404
    vertex 143.2624169979695 176.30934769270672 39.856518567743386
  endloop
endfacet
facet normal -0.3826834323651008 0.9238795325112822 1.7256332301709633e-31
  outer loop
    vertex 143.2624169979695 176.30934769270672 21.8565185677434
    vertex 142.0348059375413 175.80085454215813 21.8565185677434
    vertex 143.2624169979695 176.30934769270672 39.856518567743386
  endloop
endfacet
facet normal -0.3826834323651008 0.9238795325112822 1.7256332301709633e-31
  outer loop
    vertex 142.0348059375413 175.80085454215813 39.856518567743386
    vertex 143.2624169979695 176.30934769270672 39.856518567743386
    vertex 142.0348059375413 175.80085454215813 21.8565185677434
  endloop
endfacet
facet normal 0.1305261922200876 0.9914448613738058 0.0
  outer loop
    vertex 140.71741699796954 175.62741699796942 21.8565185677434
    vertex 139.40002805839765 175.80085454215813 21.8565185677434
    vertex 140.71741699796954 175.62741699796942 39.856518567743386
  endloop
endfacet
facet normal 0.1305261922200876 0.9914448613738058 0.0
  outer loop
    vertex 139.40002805839765 175.80085454215813 39.856518567743386
    vertex 140.71741699796954 175.62741699796942 39.856518567743386
    vertex 139.40002805839765 175.80085454215813 21.8565185677434
  endloop
endfacet
facet normal -0.13052619222010078 0.991444861373804 0.0
  outer loop
    vertex 142.0348059375413 175.80085454215813 21.8565185677434
    vertex 140.71741699796954 175.62741699796942 21.8565185677434
    vertex 142.0348059375413 175.80085454215813 39.856518567743386
  endloop
endfacet
facet normal -0.13052619222010078 0.991444861373804 0.0
  outer loop
    vertex 140.71741699796954 175.62741699796942 39.856518567743386
    vertex 142.0348059375413 175.80085454215813 39.856518567743386
    vertex 140.71741699796954 175.62741699796942 21.8565185677434
  endloop
endfacet
facet normal 0.3826834323650309 -0.9238795325113114 -9.86076131526265e-32
  outer loop
    vertex 138.1724169979695 185.1254863032323 21.856518567743404
    vertex 139.40002805839774 185.6339794537808 21.856518567743404
    vertex 138.1724169979695 185.1254863032323 39.856518567743386
  endloop
endfacet
facet normal 0.3826834323650309 -0.9238795325113114 -9.86076131526265e-32
  outer loop
    vertex 139.40002805839774 185.6339794537808 39.856518567743386
    vertex 138.1724169979695 185.1254863032323 39.856518567743386
    vertex 139.40002805839774 185.6339794537808 21.856518567743404
  endloop
endfacet
facet normal -0.6087614290087372 -0.7933533402912225 0.0
  outer loop
    vertex 143.26241699796955 185.12548630323224 21.8565185677434
    vertex 144.31659051420908 184.31659051420894 21.8565185677434
    vertex 143.26241699796955 185.12548630323224 39.8565185677434
  endloop
endfacet
facet normal -0.6087614290087372 -0.7933533402912225 0.0
  outer loop
    vertex 144.31659051420908 184.31659051420894 39.8565185677434
    vertex 143.26241699796955 185.12548630323224 39.8565185677434
    vertex 144.31659051420908 184.31659051420894 21.8565185677434
  endloop
endfacet
facet normal 0.9914448613738055 0.1305261922200898 0.0
  outer loop
    vertex 135.8008545421582 179.4000280583976 39.85651856774338
    vertex 135.8008545421582 179.4000280583976 21.8565185677434
    vertex 135.6274169979695 180.71741699796948 39.856518567743386
  endloop
endfacet
facet normal 0.9914448613738055 0.1305261922200898 0.0
  outer loop
    vertex 135.6274169979695 180.71741699796948 21.8565185677434
    vertex 135.6274169979695 180.71741699796948 39.856518567743386
    vertex 135.8008545421582 179.4000280583976 21.8565185677434
  endloop
endfacet
facet normal 0.9914448613738043 -0.13052619222009856 0.0
  outer loop
    vertex 135.6274169979695 180.71741699796948 39.856518567743386
    vertex 135.6274169979695 180.71741699796948 21.8565185677434
    vertex 135.8008545421582 182.03480593754125 39.856518567743386
  endloop
endfacet
facet normal 0.9914448613738043 -0.13052619222009856 0.0
  outer loop
    vertex 135.8008545421582 182.03480593754125 21.8565185677434
    vertex 135.8008545421582 182.03480593754125 39.856518567743386
    vertex 135.6274169979695 180.71741699796948 21.8565185677434
  endloop
endfacet
facet normal -0.7933533402912137 -0.6087614290087486 -2.2186712959340957e-31
  outer loop
    vertex 145.12548630323235 183.2624169979695 21.8565185677434
    vertex 145.12548630323235 183.2624169979695 39.8565185677434
    vertex 144.31659051420908 184.31659051420894 21.8565185677434
  endloop
endfacet
facet normal -0.7933533402912137 -0.6087614290087486 -2.2186712959340957e-31
  outer loop
    vertex 144.31659051420908 184.31659051420894 39.8565185677434
    vertex 144.31659051420908 184.31659051420894 21.8565185677434
    vertex 145.12548630323235 183.2624169979695 39.8565185677434
  endloop
endfacet
facet normal 0.6087614290087165 0.7933533402912384 0.0
  outer loop
    vertex 138.1724169979695 176.3093476927067 21.856518567743404
    vertex 137.11824348173005 177.1182434817299 21.856518567743404
    vertex 138.1724169979695 176.3093476927067 39.8565185677434
  endloop
endfacet
facet normal 0.6087614290087165 0.7933533402912384 0.0
  outer loop
    vertex 137.11824348173005 177.1182434817299 39.8565185677434
    vertex 138.1724169979695 176.3093476927067 39.8565185677434
    vertex 137.11824348173005 177.1182434817299 21.856518567743404
  endloop
endfacet
facet normal -0.1305261922200753 -0.9914448613738075 0.0
  outer loop
    vertex 140.71741699796954 185.80741699796948 21.8565185677434
    vertex 142.0348059375414 185.6339794537808 21.8565185677434
    vertex 140.71741699796954 185.80741699796948 39.856518567743386
  endloop
endfacet
facet normal -0.1305261922200753 -0.9914448613738075 0.0
  outer loop
    vertex 142.0348059375414 185.6339794537808 39.856518567743386
    vertex 140.71741699796954 185.80741699796948 39.856518567743386
    vertex 142.0348059375414 185.6339794537808 21.8565185677434
  endloop
endfacet
facet normal 0.38268343236509833 0.9238795325112833 -3.944304526105059e-31
  outer loop
    vertex 139.40002805839765 175.80085454215813 21.8565185677434
    vertex 138.1724169979695 176.3093476927067 21.856518567743404
    vertex 139.40002805839765 175.80085454215813 39.856518567743386
  endloop
endfacet
facet normal 0.38268343236509833 0.9238795325112833 -3.944304526105059e-31
  outer loop
    vertex 138.1724169979695 176.3093476927067 39.8565185677434
    vertex 139.40002805839765 175.80085454215813 39.856518567743386
    vertex 138.1724169979695 176.3093476927067 21.856518567743404
  endloop
endfacet
facet normal -0.0 0.0 -1.0
  outer loop
    vertex 137.7970093578839 170.40370849898463 31.036518567743407
    vertex 137.7970093578839 158.78114278118645 31.036518567743414
    vertex 131.6170093578839 170.40370849898466 31.036518567743407
  endloop
endfacet
facet normal -0.0 0.0 -1.0
  outer loop
    vertex 131.6170093578839 158.7811427811865 31.036518567743407
    vertex 131.6170093578839 170.40370849898466 31.036518567743407
    vertex 137.7970093578839 158.78114278118645 31.036518567743414
  endloop
endfacet
facet normal -1.9351968142054815e-32 1.0 0.0
  outer loop
    vertex 140.7174169979696 188.80741699796943 21.856518567743404
    vertex 127.59421356237311 188.80741699796943 21.856518567743404
    vertex 140.7174169979696 188.80741699796943 39.8565185677434
  endloop
endfacet
facet normal -1.9351968142054815e-32 1.0 0.0
  outer loop
    vertex 127.59421356237311 188.80741699796943 39.8565185677434
    vertex 140.7174169979696 188.80741699796943 39.8565185677434
    vertex 127.59421356237311 188.80741699796943 21.856518567743404
  endloop
endfacet
facet normal -1.0 7.300884097211275e-15 -2.465190328815662e-32
  outer loop
    vertex 130.40370849898466 171.617009357884 24.856518567743418
    vertex 130.40370849898466 171.61700935788403 31.03651856774343
    vertex 130.40370849898486 177.7970093578841 24.856518567743418
  endloop
endfacet
facet normal -1.0 7.300884097211275e-15 -2.465190328815662e-32
  outer loop
    vertex 130.40370849898486 177.7970093578841 31.036518567743425
    vertex 130.40370849898486 177.7970093578841 24.856518567743418
    vertex 130.40370849898466 171.61700935788403 31.03651856774343
  endloop
endfacet
facet normal -7.300884097211275e-15 -1.0 0.0
  outer loop
    vertex 118.79710678118661 177.7970093578838 24.856518567743418
    vertex 130.40370849898486 177.7970093578841 24.856518567743418
    vertex 118.79710678118661 177.7970093578838 31.036518567743418
  endloop
endfacet
facet normal -7.300884097211275e-15 -1.0 0.0
  outer loop
    vertex 130.40370849898486 177.7970093578841 31.036518567743425
    vertex 118.79710678118661 177.7970093578838 31.036518567743418
    vertex 130.40370849898486 177.7970093578841 24.856518567743418
  endloop
endfacet
facet normal 1.7009813268828067e-30 2.2815262803785236e-16 -1.0
  outer loop
    vertex 130.40370849898486 177.7970093578841 31.036518567743425
    vertex 130.40370849898466 171.61700935788403 31.03651856774343
    vertex 118.79710678118661 177.7970093578838 31.036518567743418
  endloop
endfacet
facet normal 1.7009813268828067e-30 2.2815262803785236e-16 -1.0
  outer loop
    vertex 118.79710678118657 171.61700935788372 31.036518567743418
    vertex 118.79710678118661 177.7970093578838 31.036518567743418
    vertex 130.40370849898466 171.61700935788403 31.03651856774343
  endloop
endfacet
facet normal 7.300884097211275e-15 1.0 0.0
  outer loop
    vertex 130.40370849898466 171.617009357884 24.856518567743418
    vertex 118.79710678118657 171.61700935788372 24.856518567743418
    vertex 130.40370849898466 171.61700935788403 31.03651856774343
  endloop
endfacet
facet normal 7.300884097211275e-15 1.0 0.0
  outer loop
    vertex 118.79710678118657 171.61700935788372 31.036518567743418
    vertex 130.40370849898466 171.61700935788403 31.03651856774343
    vertex 118.79710678118657 171.61700935788372 24.856518567743418
  endloop
endfacet
facet normal -4.437342591868191e-31 -5.703815700946309e-17 1.0
  outer loop
    vertex 130.40370849898486 177.7970093578841 24.856518567743418
    vertex 118.79710678118661 177.7970093578838 24.856518567743418
    vertex 130.40370849898466 171.617009357884 24.856518567743418
  endloop
endfacet
facet normal -4.437342591868191e-31 -5.703815700946309e-17 1.0
  outer loop
    vertex 118.79710678118657 171.61700935788372 24.856518567743418
    vertex 130.40370849898466 171.617009357884 24.856518567743418
    vertex 118.79710678118661 177.7970093578838 24.856518567743418
  endloop
endfacet
facet normal 0.7074275456294017 -0.7067858008531406 0.00031527312870799476
  outer loop
    vertex 144.25295090390222 163.03974746830565 39.85651856774339
    vertex 144.25295090390222 163.03974746830565 33.8467785677434
    vertex 148.80741699796954 167.59421356237297 39.856518567743386
  endloop
endfacet
facet normal 0.7074275456294017 -0.7067858008531406 0.00031527312870799476
  outer loop
    vertex 140.010310216783 158.78114278118645 21.856518567743407
    vertex 148.80741699796954 167.59421356237297 21.856518567743404
    vertex 140.010310216783 158.79710678118641 33.8467785677434
  endloop
endfacet
facet normal 0.7074275456294017 -0.7067858008531406 0.00031527312870799476
  outer loop
    vertex 144.25295090390222 163.03974746830565 33.8467785677434
    vertex 140.010310216783 158.79710678118641 33.8467785677434
    vertex 148.80741699796954 167.59421356237297 21.856518567743404
  endloop
endfacet
facet normal 0.7074275456294017 -0.7067858008531406 0.00031527312870799476
  outer loop
    vertex 148.80741699796954 167.59421356237297 39.856518567743386
    vertex 144.25295090390222 163.03974746830565 33.8467785677434
    vertex 148.80741699796954 167.59421356237297 21.856518567743404
  endloop
endfacet
facet normal 0.0007901050342236382 -0.9999995712880764 0.0004828640580620028
  outer loop
    vertex 140.010310216783 158.78114278118645 21.856518567743407
    vertex 131.6170093578839 158.7811427811865 24.856518567743407
    vertex 129.4037084989848 158.78114278118645 21.856518567743407
  endloop
endfacet
facet normal 0.0007901050342236382 -0.9999995712880764 0.0004828640580620028
  outer loop
    vertex 129.4037084989848 158.78114278118645 39.85651856774338
    vertex 129.4037084989848 158.78114278118645 21.856518567743407
    vertex 131.6170093578839 158.7811427811865 24.856518567743407
  endloop
endfacet
facet normal 0.0007901050342236382 -0.9999995712880764 0.0004828640580620028
  outer loop
    vertex 131.6170093578839 158.7811427811865 31.036518567743407
    vertex 129.4037084989848 158.78114278118645 39.85651856774338
    vertex 131.6170093578839 158.7811427811865 24.856518567743407
  endloop
endfacet
facet normal 0.0007901050342236382 -0.9999995712880764 0.0004828640580620028
  outer loop
    vertex 137.7970093578839 158.78114278118645 31.036518567743414
    vertex 129.4037084989848 158.78114278118645 39.85651856774338
    vertex 131.6170093578839 158.7811427811865 31.036518567743407
  endloop
endfacet
facet normal 0.0007901050342236382 -0.9999995712880764 0.0004828640580620028
  outer loop
    vertex 137.68419153450185 158.7936057391343 33.846778567743414
    vertex 129.4037084989848 158.78114278118645 39.85651856774338
    vertex 137.7970093578839 158.78114278118645 31.036518567743414
  endloop
endfacet
facet normal 0.0007901050342236382 -0.9999995712880764 0.0004828640580620028
  outer loop
    vertex 140.010310216783 158.79710678118641 33.8467785677434
    vertex 137.68419153450185 158.7936057391343 33.846778567743414
    vertex 137.7970093578839 158.78114278118645 31.036518567743414
  endloop
endfacet
facet normal 0.0007901050342236382 -0.9999995712880764 0.0004828640580620028
  outer loop
    vertex 137.68419153450185 158.7936057391343 39.8565185677434
    vertex 129.4037084989848 158.78114278118645 39.85651856774338
    vertex 137.68419153450185 158.7936057391343 33.846778567743414
  endloop
endfacet
facet normal 0.0007901050342236382 -0.9999995712880764 0.0004828640580620028
  outer loop
    vertex 140.010310216783 158.79710678118641 33.8467785677434
    vertex 137.7970093578839 158.78114278118645 24.856518567743407
    vertex 140.010310216783 158.78114278118645 21.856518567743407
  endloop
endfacet
facet normal 0.0007901050342236382 -0.9999995712880764 0.0004828640580620028
  outer loop
    vertex 131.6170093578839 158.7811427811865 24.856518567743407
    vertex 140.010310216783 158.78114278118645 21.856518567743407
    vertex 137.7970093578839 158.78114278118645 24.856518567743407
  endloop
endfacet
facet normal 0.0007901050342236382 -0.9999995712880764 0.0004828640580620028
  outer loop
    vertex 137.7970093578839 158.78114278118645 31.036518567743414
    vertex 137.7970093578839 158.78114278118645 24.856518567743407
    vertex 140.010310216783 158.79710678118641 33.8467785677434
  endloop
endfacet
facet normal -6.71510655920248e-17 4.0584940128386135e-17 1.0
  outer loop
    vertex 137.68419153450185 158.7936057391343 39.8565185677434
    vertex 137.46132957986666 159.66994086600315 39.85651856774339
    vertex 129.4037084989848 158.78114278118645 39.85651856774338
  endloop
endfacet
facet normal -6.71510655920248e-17 4.0584940128386135e-17 1.0
  outer loop
    vertex 137.44099445453358 160.57394152312995 39.85651856774339
    vertex 129.4037084989848 158.78114278118645 39.85651856774338
    vertex 137.46132957986666 159.66994086600315 39.85651856774339
  endloop
endfacet
facet normal -6.71510655920248e-17 4.0584940128386135e-17 1.0
  outer loop
    vertex 136.67241699796952 173.71127148135335 39.856518567743386
    vertex 129.4037084989848 158.78114278118645 39.85651856774338
    vertex 137.44099445453358 160.57394152312995 39.85651856774339
  endloop
endfacet
facet normal -6.71510655920248e-17 4.0584940128386135e-17 1.0
  outer loop
    vertex 134.99692313817036 174.9969231381703 39.856518567743386
    vertex 129.4037084989848 158.78114278118645 39.85651856774338
    vertex 136.67241699796952 173.71127148135335 39.856518567743386
  endloop
endfacet
facet normal -6.71510655920248e-17 4.0584940128386135e-17 1.0
  outer loop
    vertex 133.71127148135346 176.67241699796946 39.8565185677434
    vertex 129.4037084989848 158.78114278118645 39.85651856774338
    vertex 134.99692313817036 174.9969231381703 39.856518567743386
  endloop
endfacet
facet normal -6.71510655920248e-17 4.0584940128386135e-17 1.0
  outer loop
    vertex 132.903077063291 178.62357092309006 39.8565185677434
    vertex 129.4037084989848 158.78114278118645 39.85651856774338
    vertex 133.71127148135346 176.67241699796946 39.8565185677434
  endloop
endfacet
facet normal -6.71510655920248e-17 4.0584940128386135e-17 1.0
  outer loop
    vertex 132.62741699796956 180.71741699796945 39.856518567743386
    vertex 129.4037084989848 158.78114278118645 39.85651856774338
    vertex 132.903077063291 178.62357092309006 39.8565185677434
  endloop
endfacet
facet normal -6.71510655920248e-17 4.0584940128386135e-17 1.0
  outer loop
    vertex 129.8182337778476 168.40295594880763 39.8565185677434
    vertex 129.4037084989848 158.78114278118645 39.85651856774338
    vertex 132.62741699796956 180.71741699796945 39.856518567743386
  endloop
endfacet
facet normal -6.71510655920248e-17 4.0584940128386135e-17 1.0
  outer loop
    vertex 129.77000935525166 168.0366550925408 39.8565185677434
    vertex 129.4037084989848 158.78114278118645 39.85651856774338
    vertex 129.8182337778476 168.40295594880763 39.8565185677434
  endloop
endfacet
facet normal -6.71510655920248e-17 4.0584940128386135e-17 1.0
  outer loop
    vertex 129.62862250216918 167.69531703428777 39.8565185677434
    vertex 129.4037084989848 158.78114278118645 39.85651856774338
    vertex 129.77000935525166 168.0366550925408 39.8565185677434
  endloop
endfacet
facet normal -6.71510655920248e-17 4.0584940128386135e-17 1.0
  outer loop
    vertex 129.4037084989848 167.40220339863066 39.8565185677434
    vertex 129.4037084989848 158.78114278118645 39.85651856774338
    vertex 129.62862250216918 167.69531703428777 39.8565185677434
  endloop
endfacet
facet normal -6.71510655920248e-17 4.0584940128386135e-17 1.0
  outer loop
    vertex 140.7174169979696 188.80741699796943 39.8565185677434
    vertex 127.59421356237311 188.80741699796943 39.8565185677434
    vertex 138.62357092309017 188.53175693264797 39.8565185677434
  endloop
endfacet
facet normal -6.71510655920248e-17 4.0584940128386135e-17 1.0
  outer loop
    vertex 136.67241699796958 187.72356251458558 39.8565185677434
    vertex 138.62357092309017 188.53175693264797 39.8565185677434
    vertex 127.59421356237311 188.80741699796943 39.8565185677434
  endloop
endfacet
facet normal -6.71510655920248e-17 4.0584940128386135e-17 1.0
  outer loop
    vertex 134.99692313817042 186.43791085776863 39.856518567743386
    vertex 136.67241699796958 187.72356251458558 39.8565185677434
    vertex 127.59421356237311 188.80741699796943 39.8565185677434
  endloop
endfacet
facet normal -6.71510655920248e-17 4.0584940128386135e-17 1.0
  outer loop
    vertex 133.71127148135346 184.76241699796944 39.85651856774338
    vertex 134.99692313817042 186.43791085776863 39.856518567743386
    vertex 127.59421356237311 188.80741699796943 39.8565185677434
  endloop
endfacet
facet normal -6.71510655920248e-17 4.0584940128386135e-17 1.0
  outer loop
    vertex 132.903077063291 182.81126307284885 39.856518567743386
    vertex 133.71127148135346 184.76241699796944 39.85651856774338
    vertex 127.59421356237311 188.80741699796943 39.8565185677434
  endloop
endfacet
facet normal -6.71510655920248e-17 4.0584940128386135e-17 1.0
  outer loop
    vertex 132.62741699796956 180.71741699796945 39.856518567743386
    vertex 132.903077063291 182.81126307284885 39.856518567743386
    vertex 127.59421356237311 188.80741699796943 39.8565185677434
  endloop
endfacet
facet normal -6.71510655920248e-17 4.0584940128386135e-17 1.0
  outer loop
    vertex 129.8182337778476 168.40295594880763 39.8565185677434
    vertex 132.62741699796956 180.71741699796945 39.856518567743386
    vertex 127.59421356237311 188.80741699796943 39.8565185677434
  endloop
endfacet
facet normal -6.71510655920248e-17 4.0584940128386135e-17 1.0
  outer loop
    vertex 129.7700093552517 168.76925680507446 39.8565185677434
    vertex 129.8182337778476 168.40295594880763 39.8565185677434
    vertex 127.59421356237311 188.80741699796943 39.8565185677434
  endloop
endfacet
facet normal -6.71510655920248e-17 4.0584940128386135e-17 1.0
  outer loop
    vertex 129.62862250216918 169.11059486332752 39.856518567743386
    vertex 129.7700093552517 168.76925680507446 39.8565185677434
    vertex 127.59421356237311 188.80741699796943 39.8565185677434
  endloop
endfacet
facet normal -6.71510655920248e-17 4.0584940128386135e-17 1.0
  outer loop
    vertex 129.4037084989848 169.40370849898463 39.856518567743386
    vertex 129.62862250216918 169.11059486332752 39.856518567743386
    vertex 127.59421356237311 188.80741699796943 39.8565185677434
  endloop
endfacet
facet normal -6.71510655920248e-17 4.0584940128386135e-17 1.0
  outer loop
    vertex 129.11059486332778 169.62862250216895 39.856518567743386
    vertex 129.4037084989848 169.40370849898463 39.856518567743386
    vertex 127.59421356237311 188.80741699796943 39.8565185677434
  endloop
endfacet
facet normal -6.71510655920248e-17 4.0584940128386135e-17 1.0
  outer loop
    vertex 128.76925680507475 169.7700093552515 39.856518567743386
    vertex 129.11059486332778 169.62862250216895 39.856518567743386
    vertex 127.59421356237311 188.80741699796943 39.8565185677434
  endloop
endfacet
facet normal -6.71510655920248e-17 4.0584940128386135e-17 1.0
  outer loop
    vertex 128.4029559488079 169.8182337778474 39.856518567743386
    vertex 128.76925680507475 169.7700093552515 39.856518567743386
    vertex 127.59421356237311 188.80741699796943 39.8565185677434
  endloop
endfacet
facet normal -6.71510655920248e-17 4.0584940128386135e-17 1.0
  outer loop
    vertex 128.03665509254105 169.7700093552515 39.856518567743386
    vertex 128.4029559488079 169.8182337778474 39.856518567743386
    vertex 127.59421356237311 188.80741699796943 39.8565185677434
  endloop
endfacet
facet normal -6.71510655920248e-17 4.0584940128386135e-17 1.0
  outer loop
    vertex 127.69531703428801 169.628622502169 39.856518567743386
    vertex 128.03665509254105 169.7700093552515 39.856518567743386
    vertex 127.59421356237311 188.80741699796943 39.8565185677434
  endloop
endfacet
facet normal -6.71510655920248e-17 4.0584940128386135e-17 1.0
  outer loop
    vertex 127.40220339863089 169.40370849898466 39.8565185677434
    vertex 127.69531703428801 169.628622502169 39.856518567743386
    vertex 127.59421356237311 188.80741699796943 39.8565185677434
  endloop
endfacet
facet normal -6.71510655920248e-17 4.0584940128386135e-17 1.0
  outer loop
    vertex 118.79710678118657 180.01031021678287 39.856518567743386
    vertex 127.40220339863089 169.40370849898466 39.8565185677434
    vertex 127.59421356237311 188.80741699796943 39.8565185677434
  endloop
endfacet
facet normal -6.71510655920248e-17 4.0584940128386135e-17 1.0
  outer loop
    vertex 118.79710678118657 169.40370849898463 39.856518567743386
    vertex 127.40220339863089 169.40370849898466 39.8565185677434
    vertex 118.79710678118657 180.01031021678287 39.856518567743386
  endloop
endfacet
facet normal -6.71510655920248e-17 4.0584940128386135e-17 1.0
  outer loop
    vertex 148.80741699796954 180.7174169979694 39.856518567743386
    vertex 148.5317569326481 178.62357092309003 39.856518567743386
    vertex 148.80741699796954 167.59421356237297 39.856518567743386
  endloop
endfacet
facet normal -6.71510655920248e-17 4.0584940128386135e-17 1.0
  outer loop
    vertex 144.25295090390222 163.03974746830565 39.85651856774339
    vertex 148.80741699796954 167.59421356237297 39.856518567743386
    vertex 148.5317569326481 178.62357092309003 39.856518567743386
  endloop
endfacet
facet normal -6.71510655920248e-17 4.0584940128386135e-17 1.0
  outer loop
    vertex 147.72356251458564 176.6724169979694 39.85651856774337
    vertex 144.25295090390222 163.03974746830565 39.85651856774339
    vertex 148.5317569326481 178.62357092309003 39.856518567743386
  endloop
endfacet
facet normal -6.71510655920248e-17 4.0584940128386135e-17 1.0
  outer loop
    vertex 146.43791085776868 174.99692313817025 39.8565185677434
    vertex 144.25295090390222 163.03974746830565 39.85651856774339
    vertex 147.72356251458564 176.6724169979694 39.85651856774337
  endloop
endfacet
facet normal -6.71510655920248e-17 4.0584940128386135e-17 1.0
  outer loop
    vertex 144.76241699796952 173.71127148135332 39.8565185677434
    vertex 144.25295090390222 163.03974746830565 39.85651856774339
    vertex 146.43791085776868 174.99692313817025 39.8565185677434
  endloop
endfacet
facet normal -6.71510655920248e-17 4.0584940128386135e-17 1.0
  outer loop
    vertex 142.8112630728489 172.90307706329088 39.8565185677434
    vertex 144.25295090390222 163.03974746830565 39.85651856774339
    vertex 144.76241699796952 173.71127148135332 39.8565185677434
  endloop
endfacet
facet normal -6.71510655920248e-17 4.0584940128386135e-17 1.0
  outer loop
    vertex 143.5453925408649 163.6027677772679 39.856518567743386
    vertex 144.25295090390222 163.03974746830565 39.85651856774339
    vertex 142.8112630728489 172.90307706329088 39.8565185677434
  endloop
endfacet
facet normal -6.71510655920248e-17 4.0584940128386135e-17 1.0
  outer loop
    vertex 142.72945371397046 163.99247861388156 39.856518567743386
    vertex 143.5453925408649 163.6027677772679 39.856518567743386
    vertex 142.8112630728489 172.90307706329088 39.8565185677434
  endloop
endfacet
facet normal -6.71510655920248e-17 4.0584940128386135e-17 1.0
  outer loop
    vertex 140.7174169979695 172.62741699796945 39.8565185677434
    vertex 142.72945371397046 163.99247861388156 39.856518567743386
    vertex 142.8112630728489 172.90307706329088 39.8565185677434
  endloop
endfacet
facet normal -6.71510655920248e-17 4.0584940128386135e-17 1.0
  outer loop
    vertex 141.8468304631316 164.1889650065063 39.856518567743386
    vertex 142.72945371397046 163.99247861388156 39.856518567743386
    vertex 140.7174169979695 172.62741699796945 39.8565185677434
  endloop
endfacet
facet normal -6.71510655920248e-17 4.0584940128386135e-17 1.0
  outer loop
    vertex 140.94262653029793 164.18218612340434 39.85651856774339
    vertex 141.8468304631316 164.1889650065063 39.856518567743386
    vertex 140.7174169979695 172.62741699796945 39.8565185677434
  endloop
endfacet
facet normal -6.71510655920248e-17 4.0584940128386135e-17 1.0
  outer loop
    vertex 140.0630484716841 163.9724883785114 39.85651856774339
    vertex 140.94262653029793 164.18218612340434 39.85651856774339
    vertex 140.7174169979695 172.62741699796945 39.8565185677434
  endloop
endfacet
facet normal -6.71510655920248e-17 4.0584940128386135e-17 1.0
  outer loop
    vertex 138.62357092309014 172.90307706329088 39.8565185677434
    vertex 140.0630484716841 163.9724883785114 39.85651856774339
    vertex 140.7174169979695 172.62741699796945 39.8565185677434
  endloop
endfacet
facet normal -6.71510655920248e-17 4.0584940128386135e-17 1.0
  outer loop
    vertex 139.25304441407306 163.57058772902002 39.85651856774339
    vertex 140.0630484716841 163.9724883785114 39.85651856774339
    vertex 138.62357092309014 172.90307706329088 39.8565185677434
  endloop
endfacet
facet normal -6.71510655920248e-17 4.0584940128386135e-17 1.0
  outer loop
    vertex 138.55400711927774 162.99702206940182 39.8565185677434
    vertex 139.25304441407306 163.57058772902002 39.85651856774339
    vertex 138.62357092309014 172.90307706329088 39.8565185677434
  endloop
endfacet
facet normal -6.71510655920248e-17 4.0584940128386135e-17 1.0
  outer loop
    vertex 136.67241699796952 173.71127148135335 39.856518567743386
    vertex 138.55400711927774 162.99702206940182 39.8565185677434
    vertex 138.62357092309014 172.90307706329088 39.8565185677434
  endloop
endfacet
facet normal -6.71510655920248e-17 4.0584940128386135e-17 1.0
  outer loop
    vertex 138.00165873457624 162.28110170558637 39.8565185677434
    vertex 138.55400711927774 162.99702206940182 39.8565185677434
    vertex 136.67241699796952 173.71127148135335 39.856518567743386
  endloop
endfacet
facet normal -6.71510655920248e-17 4.0584940128386135e-17 1.0
  outer loop
    vertex 137.62422532243204 161.45941154207875 39.8565185677434
    vertex 138.00165873457624 162.28110170558637 39.8565185677434
    vertex 136.67241699796952 173.71127148135335 39.856518567743386
  endloop
endfacet
facet normal -6.71510655920248e-17 4.0584940128386135e-17 1.0
  outer loop
    vertex 137.44099445453358 160.57394152312995 39.85651856774339
    vertex 137.62422532243204 161.45941154207875 39.8565185677434
    vertex 136.67241699796952 173.71127148135335 39.856518567743386
  endloop
endfacet
facet normal 0.9691513920622898 0.24646618279943758 -1.1495544873521115e-15
  outer loop
    vertex 137.68419153450185 158.7936057391343 39.8565185677434
    vertex 137.68419153450185 158.7936057391343 33.846778567743414
    vertex 137.46132957986666 159.66994086600315 39.85651856774339
  endloop
endfacet
facet normal 0.9691513920622898 0.24646618279943758 -1.1495544873521115e-15
  outer loop
    vertex 137.46132957986666 159.66994086600315 33.84677856774341
    vertex 137.46132957986666 159.66994086600315 39.85651856774339
    vertex 137.68419153450185 158.7936057391343 33.846778567743414
  endloop
endfacet
facet normal 0.9997470926562732 0.02248890227044443 -1.1191086128300273e-15
  outer loop
    vertex 137.46132957986666 159.66994086600315 39.85651856774339
    vertex 137.46132957986666 159.66994086600315 33.84677856774341
    vertex 137.44099445453358 160.57394152312995 39.85651856774339
  endloop
endfacet
facet normal 0.9997470926562732 0.02248890227044443 -1.1191086128300273e-15
  outer loop
    vertex 137.44099445453358 160.57394152312995 33.84677856774341
    vertex 137.44099445453358 160.57394152312995 39.85651856774339
    vertex 137.46132957986666 159.66994086600315 33.84677856774341
  endloop
endfacet
facet normal 0.9792537982128747 -0.20263760432273825 -1.0314741405244259e-15
  outer loop
    vertex 137.44099445453358 160.57394152312995 39.85651856774339
    vertex 137.44099445453358 160.57394152312995 33.84677856774341
    vertex 137.62422532243204 161.45941154207875 39.8565185677434
  endloop
endfacet
facet normal 0.9792537982128747 -0.20263760432273825 -1.0314741405244259e-15
  outer loop
    vertex 137.62422532243204 161.45941154207875 33.84677856774341
    vertex 137.62422532243204 161.45941154207875 39.8565185677434
    vertex 137.44099445453358 160.57394152312995 33.84677856774341
  endloop
endfacet
facet normal 0.9087187554065775 -0.417408940455665 -8.911293601483625e-16
  outer loop
    vertex 137.62422532243204 161.45941154207875 39.8565185677434
    vertex 137.62422532243204 161.45941154207875 33.84677856774341
    vertex 138.00165873457624 162.28110170558637 39.8565185677434
  endloop
endfacet
facet normal 0.9087187554065775 -0.417408940455665 -8.911293601483625e-16
  outer loop
    vertex 138.00165873457624 162.28110170558637 33.84677856774341
    vertex 138.00165873457624 162.28110170558637 39.8565185677434
    vertex 137.62422532243204 161.45941154207875 33.84677856774341
  endloop
endfacet
facet normal 0.7917464402877492 -0.6108498786867994 -7.052461593130665e-16
  outer loop
    vertex 138.00165873457624 162.28110170558637 39.8565185677434
    vertex 138.00165873457624 162.28110170558637 33.84677856774341
    vertex 138.55400711927774 162.99702206940182 39.8565185677434
  endloop
endfacet
facet normal 0.7917464402877492 -0.6108498786867994 -7.052461593130665e-16
  outer loop
    vertex 138.55400711927774 162.99702206940182 33.84677856774341
    vertex 138.55400711927774 162.99702206940182 39.8565185677434
    vertex 138.00165873457624 162.28110170558637 33.84677856774341
  endloop
endfacet
facet normal 0.6343143626391322 -0.77307521584236 -4.833235263074422e-16
  outer loop
    vertex 139.25304441407306 163.57058772902002 33.8467785677434
    vertex 139.25304441407306 163.57058772902002 39.85651856774339
    vertex 138.55400711927774 162.99702206940182 33.84677856774341
  endloop
endfacet
facet normal 0.6343143626391322 -0.77307521584236 -4.833235263074422e-16
  outer loop
    vertex 138.55400711927774 162.99702206940182 39.8565185677434
    vertex 138.55400711927774 162.99702206940182 33.84677856774341
    vertex 139.25304441407306 163.57058772902002 39.85651856774339
  endloop
endfacet
facet normal 0.4444676037545717 -0.8957949258690123 -2.3670213356712364e-16
  outer loop
    vertex 139.25304441407306 163.57058772902002 33.8467785677434
    vertex 140.0630484716841 163.9724883785114 33.8467785677434
    vertex 139.25304441407306 163.57058772902002 39.85651856774339
  endloop
endfacet
facet normal 0.4444676037545717 -0.8957949258690123 -2.3670213356712364e-16
  outer loop
    vertex 140.0630484716841 163.9724883785114 39.85651856774339
    vertex 139.25304441407306 163.57058772902002 39.85651856774339
    vertex 140.0630484716841 163.9724883785114 33.8467785677434
  endloop
endfacet
facet normal 0.23190769734569694 -0.9727377960744699 2.2015192450712157e-17
  outer loop
    vertex 140.0630484716841 163.9724883785114 33.8467785677434
    vertex 140.94262653029793 164.18218612340436 33.8467785677434
    vertex 140.0630484716841 163.9724883785114 39.85651856774339
  endloop
endfacet
facet normal 0.23190769734569694 -0.9727377960744699 2.2015192450712157e-17
  outer loop
    vertex 140.94262653029793 164.18218612340434 39.85651856774339
    vertex 140.0630484716841 163.9724883785114 39.85651856774339
    vertex 140.94262653029793 164.18218612340436 33.8467785677434
  endloop
endfacet
facet normal 0.007496862551183844 -0.9999718981310869 2.7960749988521756e-16
  outer loop
    vertex 140.94262653029793 164.18218612340436 33.8467785677434
    vertex 141.8468304631316 164.18896500650632 33.8467785677434
    vertex 140.94262653029793 164.18218612340434 39.85651856774339
  endloop
endfacet
facet normal 0.007496862551183844 -0.9999718981310869 2.7960749988521756e-16
  outer loop
    vertex 141.8468304631316 164.1889650065063 39.856518567743386
    vertex 140.94262653029793 164.18218612340434 39.85651856774339
    vertex 141.8468304631316 164.18896500650632 33.8467785677434
  endloop
endfacet
facet normal -0.21729707630682935 -0.976105517159136 5.22911327484186e-16
  outer loop
    vertex 141.8468304631316 164.18896500650632 33.8467785677434
    vertex 142.72945371397046 163.99247861388156 33.8467785677434
    vertex 141.8468304631316 164.1889650065063 39.856518567743386
  endloop
endfacet
facet normal -0.21729707630682935 -0.976105517159136 5.22911327484186e-16
  outer loop
    vertex 142.72945371397046 163.99247861388156 39.856518567743386
    vertex 141.8468304631316 164.1889650065063 39.856518567743386
    vertex 142.72945371397046 163.99247861388156 33.8467785677434
  endloop
endfacet
facet normal -0.43098671755335793 -0.9023582710279672 7.394933827358654e-16
  outer loop
    vertex 142.72945371397046 163.99247861388156 33.8467785677434
    vertex 143.5453925408649 163.6027677772679 33.8467785677434
    vertex 142.72945371397046 163.99247861388156 39.856518567743386
  endloop
endfacet
facet normal -0.43098671755335793 -0.9023582710279672 7.394933827358654e-16
  outer loop
    vertex 143.5453925408649 163.6027677772679 39.856518567743386
    vertex 142.72945371397046 163.99247861388156 39.856518567743386
    vertex 143.5453925408649 163.6027677772679 33.8467785677434
  endloop
endfacet
facet normal -0.6226521104314707 -0.782498785542339 9.182859069768627e-16
  outer loop
    vertex 143.5453925408649 163.6027677772679 33.8467785677434
    vertex 144.25295090390222 163.03974746830565 33.8467785677434
    vertex 143.5453925408649 163.6027677772679 39.856518567743386
  endloop
endfacet
facet normal -0.6226521104314707 -0.782498785542339 9.182859069768627e-16
  outer loop
    vertex 144.25295090390222 163.03974746830565 39.85651856774339
    vertex 143.5453925408649 163.6027677772679 39.856518567743386
    vertex 144.25295090390222 163.03974746830565 33.8467785677434
  endloop
endfacet
facet normal 1.1129141961651267e-15 2.87958956829986e-16 1.0
  outer loop
    vertex 144.25295090390222 163.03974746830565 33.8467785677434
    vertex 143.5453925408649 163.6027677772679 33.8467785677434
    vertex 140.010310216783 158.79710678118641 33.8467785677434
  endloop
endfacet
facet normal 1.1129141961651267e-15 2.87958956829986e-16 1.0
  outer loop
    vertex 142.72945371397046 163.99247861388156 33.8467785677434
    vertex 140.010310216783 158.79710678118641 33.8467785677434
    vertex 143.5453925408649 163.6027677772679 33.8467785677434
  endloop
endfacet
facet normal 1.1129141961651267e-15 2.87958956829986e-16 1.0
  outer loop
    vertex 141.8468304631316 164.18896500650632 33.8467785677434
    vertex 140.010310216783 158.79710678118641 33.8467785677434
    vertex 142.72945371397046 163.99247861388156 33.8467785677434
  endloop
endfacet
facet normal 1.1129141961651267e-15 2.87958956829986e-16 1.0
  outer loop
    vertex 140.94262653029793 164.18218612340436 33.8467785677434
    vertex 140.010310216783 158.79710678118641 33.8467785677434
    vertex 141.8468304631316 164.18896500650632 33.8467785677434
  endloop
endfacet
facet normal 1.1129141961651267e-15 2.87958956829986e-16 1.0
  outer loop
    vertex 140.0630484716841 163.9724883785114 33.8467785677434
    vertex 140.010310216783 158.79710678118641 33.8467785677434
    vertex 140.94262653029793 164.18218612340436 33.8467785677434
  endloop
endfacet
facet normal 1.1129141961651267e-15 2.87958956829986e-16 1.0
  outer loop
    vertex 139.25304441407306 163.57058772902002 33.8467785677434
    vertex 140.010310216783 158.79710678118641 33.8467785677434
    vertex 140.0630484716841 163.9724883785114 33.8467785677434
  endloop
endfacet
facet normal 1.1129141961651267e-15 2.87958956829986e-16 1.0
  outer loop
    vertex 137.68419153450185 158.7936057391343 33.846778567743414
    vertex 140.010310216783 158.79710678118641 33.8467785677434
    vertex 139.25304441407306 163.57058772902002 33.8467785677434
  endloop
endfacet
facet normal 1.1129141961651267e-15 2.87958956829986e-16 1.0
  outer loop
    vertex 138.55400711927774 162.99702206940182 33.84677856774341
    vertex 137.68419153450185 158.7936057391343 33.846778567743414
    vertex 139.25304441407306 163.57058772902002 33.8467785677434
  endloop
endfacet
facet normal 1.1129141961651267e-15 2.87958956829986e-16 1.0
  outer loop
    vertex 138.00165873457624 162.28110170558637 33.84677856774341
    vertex 137.68419153450185 158.7936057391343 33.846778567743414
    vertex 138.55400711927774 162.99702206940182 33.84677856774341
  endloop
endfacet
facet normal 1.1129141961651267e-15 2.87958956829986e-16 1.0
  outer loop
    vertex 137.62422532243204 161.45941154207875 33.84677856774341
    vertex 137.68419153450185 158.7936057391343 33.846778567743414
    vertex 138.00165873457624 162.28110170558637 33.84677856774341
  endloop
endfacet
facet normal 1.1129141961651267e-15 2.87958956829986e-16 1.0
  outer loop
    vertex 137.46132957986666 159.66994086600315 33.84677856774341
    vertex 137.68419153450185 158.7936057391343 33.846778567743414
    vertex 137.62422532243204 161.45941154207875 33.84677856774341
  endloop
endfacet
facet normal 1.1129141961651267e-15 2.87958956829986e-16 1.0
  outer loop
    vertex 137.44099445453358 160.57394152312995 33.84677856774341
    vertex 137.46132957986666 159.66994086600315 33.84677856774341
    vertex 137.62422532243204 161.45941154207875 33.84677856774341
  endloop
endfacet
endsolid MML_M30T_Cradle_rev1
