solid MML_M30T_Cradle_rev1
facet normal 1.0 0.0 0.0
  outer loop
    vertex 131.83031021678218 81.0261801964102 24.856518567743418
    vertex 131.83031021678218 71.02618019641022 31.036518567743414
    vertex 131.83031021678218 71.02618019641022 24.85651856774341
  endloop
endfacet
facet normal 1.0 0.0 0.0
  outer loop
    vertex 131.83031021678218 71.02618019641022 31.036518567743414
    vertex 131.83031021678218 81.0261801964102 24.856518567743418
    vertex 131.83031021678218 81.0261801964102 31.036518567743407
  endloop
endfacet
facet normal -2.2396142834265963e-31 3.03285710640202e-17 1.0
  outer loop
    vertex 138.0103102167822 71.02618019641028 24.85651856774341
    vertex 131.83031021678218 81.0261801964102 24.856518567743418
    vertex 131.83031021678218 71.02618019641022 24.85651856774341
  endloop
endfacet
facet normal -2.2396142834265963e-31 3.03285710640202e-17 1.0
  outer loop
    vertex 131.83031021678218 81.0261801964102 24.856518567743418
    vertex 138.0103102167822 71.02618019641028 24.85651856774341
    vertex 138.0103102167822 81.02618019641022 24.856518567743418
  endloop
endfacet
facet normal -1.0 0.0 0.0
  outer loop
    vertex 138.0103102167822 81.02618019641022 31.036518567743407
    vertex 138.0103102167822 71.02618019641028 24.85651856774341
    vertex 138.0103102167822 71.02618019641028 31.036518567743407
  endloop
endfacet
facet normal -1.0 0.0 0.0
  outer loop
    vertex 138.0103102167822 71.02618019641028 24.85651856774341
    vertex 138.0103102167822 81.02618019641022 31.036518567743407
    vertex 138.0103102167822 81.02618019641022 24.856518567743418
  endloop
endfacet
facet normal 1.7916914267412805e-30 -2.4262856851216206e-16 -1.0
  outer loop
    vertex 138.0103102167822 81.02618019641022 31.036518567743407
    vertex 131.83031021678218 71.02618019641022 31.036518567743414
    vertex 131.83031021678218 81.0261801964102 31.036518567743407
  endloop
endfacet
facet normal 1.7916914267412805e-30 -2.4262856851216206e-16 -1.0
  outer loop
    vertex 131.83031021678218 71.02618019641022 31.036518567743414
    vertex 138.0103102167822 81.02618019641022 31.036518567743407
    vertex 138.0103102167822 71.02618019641028 31.036518567743407
  endloop
endfacet
facet normal -1.0 -4.43216735960377e-15 0.0
  outer loop
    vertex 129.8303102167822 81.02618019641024 33.03651856774336
    vertex 129.83031021678218 71.02618019641022 22.85651856774341
    vertex 129.83031021678218 71.02618019641022 33.03651856774341
  endloop
endfacet
facet normal -1.0 -4.43216735960377e-15 0.0
  outer loop
    vertex 129.83031021678218 71.02618019641022 22.85651856774341
    vertex 129.8303102167822 81.02618019641024 33.03651856774336
    vertex 129.8303102167822 81.02618019641024 22.856518567743365
  endloop
endfacet
facet normal 1.0 4.43216735960377e-15 -3.92882150070741e-29
  outer loop
    vertex 140.01031021678222 81.02618019641024 22.856518567743365
    vertex 140.0103102167822 71.02618019641031 33.03651856774341
    vertex 140.0103102167822 71.02618019641022 22.85651856774341
  endloop
endfacet
facet normal 1.0 4.43216735960377e-15 -3.92882150070741e-29
  outer loop
    vertex 140.0103102167822 71.02618019641031 33.03651856774341
    vertex 140.01031021678222 81.02618019641024 22.856518567743365
    vertex 140.01031021678222 81.02618019641034 33.03651856774336
  endloop
endfacet
facet normal -0.0 -4.432167359603768e-15 -1.0
  outer loop
    vertex 129.8303102167822 81.02618019641024 22.856518567743365
    vertex 140.0103102167822 71.02618019641022 22.85651856774341
    vertex 129.83031021678218 71.02618019641022 22.85651856774341
  endloop
endfacet
facet normal -0.0 -4.432167359603768e-15 -1.0
  outer loop
    vertex 140.0103102167822 71.02618019641022 22.85651856774341
    vertex 129.8303102167822 81.02618019641024 22.856518567743365
    vertex 140.01031021678222 81.02618019641024 22.856518567743365
  endloop
endfacet
facet normal -4.432167359603771e-15 1.0 -4.4321673596037655e-15
  outer loop
    vertex 129.8303102167822 81.02618019641024 22.856518567743365
    vertex 131.83031021678218 81.0261801964102 24.856518567743418
    vertex 140.01031021678222 81.02618019641024 22.856518567743365
  endloop
endfacet
facet normal -4.432167359603771e-15 1.0 -4.4321673596037655e-15
  outer loop
    vertex 131.83031021678218 81.0261801964102 24.856518567743418
    vertex 129.8303102167822 81.02618019641024 22.856518567743365
    vertex 129.8303102167822 81.02618019641024 33.03651856774336
  endloop
endfacet
facet normal -4.432167359603771e-15 1.0 -4.4321673596037655e-15
  outer loop
    vertex 131.83031021678218 81.0261801964102 24.856518567743418
    vertex 129.8303102167822 81.02618019641024 33.03651856774336
    vertex 131.83031021678218 81.0261801964102 31.036518567743407
  endloop
endfacet
facet normal -4.432167359603771e-15 1.0 -4.4321673596037655e-15
  outer loop
    vertex 131.83031021678218 81.0261801964102 31.036518567743407
    vertex 129.8303102167822 81.02618019641024 33.03651856774336
    vertex 138.0103102167822 81.02618019641022 31.036518567743407
  endloop
endfacet
facet normal -4.432167359603771e-15 1.0 -4.4321673596037655e-15
  outer loop
    vertex 140.01031021678222 81.02618019641024 22.856518567743365
    vertex 138.0103102167822 81.02618019641022 24.856518567743418
    vertex 140.01031021678222 81.02618019641034 33.03651856774336
  endloop
endfacet
facet normal -4.432167359603771e-15 1.0 -4.4321673596037655e-15
  outer loop
    vertex 138.0103102167822 81.02618019641022 24.856518567743418
    vertex 140.01031021678222 81.02618019641024 22.856518567743365
    vertex 131.83031021678218 81.0261801964102 24.856518567743418
  endloop
endfacet
facet normal -4.432167359603771e-15 1.0 -4.4321673596037655e-15
  outer loop
    vertex 140.01031021678222 81.02618019641034 33.03651856774336
    vertex 138.0103102167822 81.02618019641022 24.856518567743418
    vertex 138.0103102167822 81.02618019641022 31.036518567743407
  endloop
endfacet
facet normal -4.432167359603771e-15 1.0 -4.4321673596037655e-15
  outer loop
    vertex 140.01031021678222 81.02618019641034 33.03651856774336
    vertex 138.0103102167822 81.02618019641022 31.036518567743407
    vertex 129.8303102167822 81.02618019641024 33.03651856774336
  endloop
endfacet
facet normal -3.9288215007074094e-29 4.432167359603768e-15 1.0
  outer loop
    vertex 140.0103102167822 71.02618019641031 33.03651856774341
    vertex 129.8303102167822 81.02618019641024 33.03651856774336
    vertex 129.83031021678218 71.02618019641022 33.03651856774341
  endloop
endfacet
facet normal -3.9288215007074094e-29 4.432167359603768e-15 1.0
  outer loop
    vertex 129.8303102167822 81.02618019641024 33.03651856774336
    vertex 140.0103102167822 71.02618019641031 33.03651856774341
    vertex 140.01031021678222 81.02618019641034 33.03651856774336
  endloop
endfacet
facet normal 4.43216735960377e-15 -1.0 4.432167359603768e-15
  outer loop
    vertex 140.0103102167822 71.02618019641022 22.85651856774341
    vertex 138.0103102167822 71.02618019641028 24.85651856774341
    vertex 129.83031021678218 71.02618019641022 22.85651856774341
  endloop
endfacet
facet normal 4.43216735960377e-15 -1.0 4.432167359603768e-15
  outer loop
    vertex 138.0103102167822 71.02618019641028 24.85651856774341
    vertex 140.0103102167822 71.02618019641022 22.85651856774341
    vertex 140.0103102167822 71.02618019641031 33.03651856774341
  endloop
endfacet
facet normal 4.43216735960377e-15 -1.0 4.432167359603768e-15
  outer loop
    vertex 138.0103102167822 71.02618019641028 24.85651856774341
    vertex 140.0103102167822 71.02618019641031 33.03651856774341
    vertex 138.0103102167822 71.02618019641028 31.036518567743407
  endloop
endfacet
facet normal 4.43216735960377e-15 -1.0 4.432167359603768e-15
  outer loop
    vertex 138.0103102167822 71.02618019641028 31.036518567743407
    vertex 140.0103102167822 71.02618019641031 33.03651856774341
    vertex 131.83031021678218 71.02618019641022 31.036518567743414
  endloop
endfacet
facet normal 4.43216735960377e-15 -1.0 4.432167359603768e-15
  outer loop
    vertex 129.83031021678218 71.02618019641022 22.85651856774341
    vertex 131.83031021678218 71.02618019641022 24.85651856774341
    vertex 129.83031021678218 71.02618019641022 33.03651856774341
  endloop
endfacet
facet normal 4.43216735960377e-15 -1.0 4.432167359603768e-15
  outer loop
    vertex 131.83031021678218 71.02618019641022 24.85651856774341
    vertex 129.83031021678218 71.02618019641022 22.85651856774341
    vertex 138.0103102167822 71.02618019641028 24.85651856774341
  endloop
endfacet
facet normal 4.43216735960377e-15 -1.0 4.432167359603768e-15
  outer loop
    vertex 129.83031021678218 71.02618019641022 33.03651856774341
    vertex 131.83031021678218 71.02618019641022 24.85651856774341
    vertex 131.83031021678218 71.02618019641022 31.036518567743414
  endloop
endfacet
facet normal 4.43216735960377e-15 -1.0 4.432167359603768e-15
  outer loop
    vertex 129.83031021678218 71.02618019641022 33.03651856774341
    vertex 131.83031021678218 71.02618019641022 31.036518567743414
    vertex 140.0103102167822 71.02618019641031 33.03651856774341
  endloop
endfacet
endsolid MML_M30T_Cradle_rev1
